<svg width="296" height="319" viewBox="0 0 296 319" fill="none" xmlns="http://www.w3.org/2000/svg">
<g clip-path="url(#clip0_81_354)">
<path d="M208.139 47.0741C208.139 47.0741 208.056 47.026 208.022 47.0067C207.836 46.9438 207.628 46.9572 207.458 47.0592C207.298 47.1444 207.178 47.2753 207.151 47.4376L207.005 47.9984C207.005 47.9984 206.924 47.9073 206.874 47.8784C206.774 47.8206 206.681 47.7891 206.569 47.791C206.182 47.7678 205.766 47.7946 205.419 47.817L205.255 47.833L205.047 47.8464L205.176 47.8541L205.037 47.863C204.37 47.9007 203.73 47.9313 203.092 47.9189C202.798 47.9271 202.561 47.9906 202.379 48.1522C202.197 48.3139 202.079 48.557 202.046 48.8054C202.051 48.8747 202.055 48.944 202.06 49.0133C201.983 49.1467 201.915 49.2635 201.872 49.4162C201.818 49.5856 201.779 49.8076 201.771 49.9366C201.759 49.9962 201.764 50.0656 201.768 50.1349L201.773 50.2042C201.773 50.2042 201.777 50.2735 201.775 50.3165L201.746 50.3665C201.648 50.8439 201.528 51.3976 201.445 51.9276C201.352 52.4743 201.299 53.0666 201.265 53.7807C201.194 55.0968 201.253 56.4206 201.324 57.5295C201.398 58.7506 201.524 59.9577 201.626 61.1288L201.639 61.3367C201.737 62.4385 201.859 63.5763 201.921 64.7018C201.951 65.3422 201.972 65.9993 202 66.6827L202.009 66.8213C202.031 67.3231 202.026 67.832 202.065 68.3434L202.066 68.4557C202.121 69.7102 202.165 70.9814 202.253 72.2552L202.264 72.3508C202.424 75.001 202.614 77.4459 202.835 79.7978C203.05 82.1233 203.335 84.5567 203.708 87.2628C203.717 87.4014 203.804 87.5188 203.938 87.5959C204.038 87.6537 204.174 87.6877 204.296 87.6691C204.566 87.6249 204.737 87.3677 204.686 87.0712L204.6 86.4879C204.81 86.4315 204.993 86.2698 205.048 86.0575C205.241 85.301 205.521 84.5067 205.905 83.5719L206.002 83.405C206.289 82.637 206.613 81.8453 206.87 81.015C207.352 79.4476 207.658 77.8004 207.759 76.1238C207.901 73.7592 207.699 71.374 207.518 69.0677C207.441 68.2001 207.37 67.3588 207.317 66.5272L207.305 66.4316L207.294 66.336L207.265 66.386L207.303 66.3193C207.034 61.3153 207.285 55.8335 208.073 49.6158C208.085 49.5562 208.081 49.4868 208.076 49.4175C208.2 48.9331 208.315 48.4654 208.439 47.9809C208.494 47.7685 208.478 47.6036 208.393 47.4432C208.332 47.3187 208.234 47.2179 208.117 47.1505L208.139 47.0741Z" fill="#FAD82F"/>
<path d="M114.74 102.331C114.711 101.38 114.655 100.436 114.617 99.502L114.59 98.9309C114.5 97.2772 114.386 95.5876 114.285 93.9507L114.153 91.9838C113.827 86.9247 113.616 82.6664 113.686 78.3472L113.671 78.4499C113.705 77.3128 113.722 76.1662 113.765 75.0124C113.802 73.6771 113.83 72.3584 113.84 71.0301L113.825 71.1328C113.884 68.1419 113.816 65.8338 113.617 63.6731L113.706 63.6353C113.945 63.5289 114.197 63.3628 114.461 63.137C115.07 62.6212 115.591 61.9881 116.067 61.3953C116.915 60.3503 117.692 59.1974 118.572 57.7488C118.707 57.5152 118.804 57.3484 118.75 57.095C118.738 56.9993 118.717 56.9204 118.679 56.8318C118.769 56.6387 118.798 56.4334 118.775 56.2422C118.741 55.9553 118.584 55.687 118.363 55.4925C118.313 55.4636 118.279 55.4444 118.229 55.4155C118.012 55.2903 117.774 55.2414 117.54 55.2619C117.253 55.2965 117.03 55.4125 116.79 55.6743C116.495 55.9931 116.223 56.3479 115.944 56.6763L115.796 56.8572C115.484 57.1664 115.159 57.5353 114.833 57.9471C114.59 58.2519 114.361 58.6092 114.065 59.0833C114.102 58.4814 114.111 57.8866 114.114 57.2654C114.129 56.0065 114.089 54.9599 114.009 53.98C113.929 53.1554 113.805 52.0606 113.461 51.0389C113.322 50.625 113.137 50.2515 112.921 49.971C112.793 49.808 112.574 49.5705 112.307 49.4164C112.224 49.3682 112.14 49.3201 112.038 49.3053C111.825 49.2494 111.63 49.2031 111.352 49.221C111.075 49.2389 110.852 49.355 110.63 49.4711C110.496 49.5493 110.349 49.6872 110.227 49.8611C110.121 50.0446 110.015 50.228 109.916 50.4378C109.551 51.3393 109.508 52.3377 109.49 53.3721C109.486 53.7257 109.482 54.0793 109.494 54.4425L109.462 54.2679C109.275 53.3592 109.021 52.412 108.626 51.5167C108.427 51.0906 108.24 50.7601 108.024 50.4796C107.831 50.235 107.643 50.0598 107.443 49.9442C107.36 49.8961 107.276 49.8479 107.174 49.8331C106.961 49.7772 106.765 49.731 106.548 49.7611C106.33 49.7912 106.127 49.8739 105.938 50.0092C105.693 50.2016 105.486 50.4826 105.389 50.8047C105.285 51.1005 105.222 51.4419 105.213 51.8814C105.187 52.3113 105.194 52.7605 105.228 53.2026C105.275 53.8527 105.37 54.5746 105.503 55.3851C105.399 55.1027 105.285 54.837 105.182 54.5547C104.992 54.1118 104.787 53.6594 104.564 53.1973C104.386 52.8501 104.161 52.431 103.862 52.1024C103.66 51.8745 103.472 51.6992 103.288 51.5933C103.121 51.497 102.969 51.4533 102.797 51.443C102.555 51.4371 102.469 51.432 102.249 51.5051C102.091 51.5474 101.931 51.6327 101.821 51.7468C101.638 51.9085 101.525 52.0657 101.426 52.2755C101.349 52.4089 101.303 52.6046 101.271 52.8529C101.196 53.5215 101.373 54.1793 101.525 54.8012L101.61 55.1169C101.755 55.7124 101.927 56.3009 102.056 56.7315C102.186 57.1622 102.349 57.612 102.514 58.0189L102.604 58.2487C102.953 59.1843 103.339 60.0963 103.734 60.9916L103.878 61.3195C104.136 61.9132 104.394 62.5068 104.644 63.0741L104.744 63.2872C104.509 63.463 104.455 63.7876 104.647 64.0322C104.702 64.1304 104.782 64.2215 104.837 64.3197C104.984 64.6047 105.104 64.8967 105.196 65.2387C105.454 66.2552 105.469 67.3089 105.462 68.2836L105.453 68.7232C105.443 69.318 105.433 69.9128 105.44 70.5173C105.444 71.3201 105.474 72.1158 105.477 72.9185L105.481 73.7213C105.5 75.8452 105.514 78.0552 105.475 80.2793L105.488 80.0643C105.441 81.5716 105.41 83.0886 105.363 84.5959C105.342 85.6733 105.294 86.7577 105.272 87.8351C105.217 90.4724 105.179 93.1193 105.197 95.7092C105.198 98.557 105.271 101.09 105.396 103.453C105.456 104.622 105.558 105.793 105.653 106.938C105.748 108.238 105.866 109.574 105.924 110.897C105.947 111.244 105.96 111.607 105.972 111.97L105.991 112.67L106.025 113.535L106.022 113.734C106.033 113.985 106.05 114.262 106.078 114.522C106.115 114.766 106.257 114.982 106.474 115.107C106.558 115.155 106.641 115.203 106.753 115.202C107.104 115.248 107.461 115.054 107.601 114.735C107.732 114.432 107.822 114.083 107.897 113.682C108.651 112.494 109.635 111.483 110.479 110.636C111.185 109.953 111.789 109.368 112.361 108.764C112.646 108.462 112.987 108.103 113.278 107.714C113.598 107.276 113.836 106.902 113.988 106.523C114.093 106.495 114.191 106.44 114.273 106.376C114.462 106.241 114.65 105.993 114.649 105.726C114.721 104.522 114.69 103.303 114.669 102.223L114.74 102.331ZM184.178 105.256C184.315 105.135 184.469 104.868 184.439 104.651C184.34 103.281 184.121 101.888 183.919 100.659C183.789 99.8052 183.633 98.9588 183.486 98.0957L183.262 96.7878C182.79 94.0239 182.4 91.4635 182.05 88.9486C181.416 84.268 180.825 79.167 180.251 73.3422L180.238 73.1343C180.048 71.2676 179.863 69.3149 179.719 67.4078C179.642 66.3849 179.565 65.362 179.505 64.3488C179.442 63.5338 179.405 62.7118 179.342 61.8968C179.122 58.8115 178.835 55.5324 178.266 52.3572C178.365 52.3027 178.456 52.2219 178.549 52.0981L178.617 51.9813C179.819 50.3621 181.066 48.7024 182.003 46.8861C183.261 44.4763 183.614 42.4782 183.077 40.7892C183.018 40.6217 182.923 40.4779 182.773 40.3912C182.639 40.3142 182.494 40.2968 182.346 40.3224C182.267 40.3436 182.178 40.3814 182.097 40.4455C181.968 40.4378 181.862 40.466 181.764 40.5205C181.623 40.5724 181.498 40.634 181.374 40.6956C181.213 40.7809 181.07 40.8758 180.933 40.997C180.724 41.1657 180.506 41.3511 180.266 41.6128C179.851 42.0625 179.473 42.6008 179.052 43.2917C178.917 43.5253 178.782 43.7588 178.657 43.9756C178.758 43.4553 178.826 43.0279 178.869 42.6076C178.973 41.7337 178.96 40.9476 178.822 40.2231C178.663 39.4197 178.308 38.7253 177.784 38.2451C177.718 38.2066 177.661 38.1514 177.611 38.1225C177.511 38.0647 177.417 38.0332 177.305 38.0351C177.107 38.0318 176.913 38.0979 176.793 38.2287C175.744 39.3135 175.274 40.8213 175.014 41.8498C174.899 42.3176 174.799 42.838 174.677 43.4347C174.64 43.1908 174.603 42.947 174.566 42.7031C174.428 41.9786 174.262 41.1489 173.991 40.3473C173.88 40.0386 173.755 39.6773 173.575 39.3731C173.378 39.0593 173.176 38.8314 172.952 38.6799C172.685 38.5258 172.377 38.4814 172.114 38.5519C171.92 38.618 171.812 38.6892 171.659 38.8008C171.568 38.8816 171.493 38.972 171.409 39.0792L171.38 39.1292C171.176 39.3672 171.01 39.6938 170.872 40.1256C170.734 40.5574 170.66 41.0707 170.673 41.7015C170.671 42.1674 170.736 42.6718 170.843 43.334C170.924 43.848 171.056 44.3909 171.225 45.0224C171.324 45.3908 171.432 45.7424 171.524 46.0845C171.681 46.6204 171.839 47.1562 171.97 47.6991C171.782 47.5239 171.601 47.3749 171.394 47.2331C170.701 46.6996 170.092 46.2143 169.401 45.7931C169.334 45.7546 169.284 45.7257 169.218 45.6872C168.917 45.5138 168.624 45.3668 168.305 45.2268C167.985 45.0868 167.67 45.0161 167.402 45.0173C166.937 45.0153 166.544 45.2333 166.351 45.5669C166.11 45.9839 166.178 46.4453 166.272 46.7444C166.401 47.175 166.624 47.6371 166.956 48.1403C167.4 48.7969 167.935 49.3726 168.358 49.795C168.708 50.1525 169.077 50.4767 169.436 50.8175C170.024 51.3792 170.654 51.9434 171.203 52.5718C171.303 54.2088 171.454 55.8747 171.6 57.4712C171.649 58.0783 171.699 58.6853 171.766 59.302C171.952 61.5223 172.148 64.1488 172.124 66.8483C172.119 67.3572 172.115 67.8661 172.1 68.3916C172.097 69.168 172.067 69.9515 172.08 70.7376C172.096 72.0588 172.128 73.3897 172.173 74.6609C172.308 77.5857 172.568 80.449 172.782 82.6193C172.942 84.2684 173.133 85.9799 173.345 87.7703L173.52 89.1615C173.673 90.3615 173.808 91.5519 173.934 92.7589C174.026 93.6791 174.1 94.5897 174.159 95.4906C174.204 96.0284 174.24 96.5828 174.309 97.1565C174.329 97.3907 174.376 97.6179 174.43 97.8714C174.512 98.2301 174.639 98.5484 174.789 98.7904C174.891 98.9605 175.005 99.0709 175.155 99.1575C175.272 99.225 175.408 99.259 175.537 99.2668C176.559 100.346 177.656 101.336 178.894 102.428C179.575 103.021 180.229 103.621 180.9 104.231L181.464 104.757C181.963 105.201 182.454 105.662 182.97 106.116C183.037 106.154 183.094 106.21 183.161 106.248C183.261 106.306 183.37 106.347 183.483 106.345C183.681 106.348 183.875 106.282 184.021 106.144C184.278 105.892 184.327 105.498 184.121 105.201L184.178 105.256ZM153.844 302.102C154.24 300.529 154.349 299.146 154.166 297.884L154.171 297.798L154.16 297.702C154.167 296.728 154.022 295.822 153.728 294.984C153.478 294.262 153.039 293.519 152.371 292.711C151.687 291.893 150.904 291.13 150.209 290.484L150.208 290.217L150.207 289.949C150.205 288.836 150.186 287.713 150.148 286.468C150.068 284.064 149.914 281.595 149.78 279.516C149.704 278.338 149.619 277.177 149.543 275.999L149.532 275.748C149.308 272.438 149.082 269.016 148.913 265.649C148.793 263.044 148.753 260.686 148.775 258.452C148.771 258.383 148.776 258.297 148.781 258.211C148.784 258.012 148.759 257.864 148.647 257.711C148.6 257.639 148.526 257.574 148.442 257.526C148.376 257.487 148.309 257.449 148.206 257.434C148.027 257.398 147.843 257.447 147.706 257.568C147.687 257.601 147.635 257.616 147.606 257.666C146.961 257.472 146.267 257.404 145.595 257.372L145.483 257.374L145.294 257.354C144.907 257.331 144.53 257.291 144.153 257.251C143.733 257.209 143.298 257.114 142.873 257.002C142.687 256.939 142.558 256.931 142.41 256.957C142.393 256.947 142.36 256.928 142.327 256.909C142.177 256.822 141.998 256.785 141.833 256.801C141.615 256.831 141.419 256.94 141.279 257.105C141.14 257.269 141.075 257.498 141.114 257.699C141.663 262.064 142.395 266.69 143.371 271.857C144.22 276.395 145.104 281.22 145.671 286.018C145.811 287.278 145.946 288.623 146.071 290.141C146.156 291.302 146.263 292.543 146.429 293.795C146.058 295.671 145.649 297.882 145.68 300.102C145.692 301.621 145.938 302.853 146.447 303.858C146.747 304.454 147.13 304.987 147.67 305.476C147.858 305.652 148.065 305.793 148.282 305.919C148.632 306.121 149.004 306.247 149.372 306.303C149.978 306.409 150.557 306.254 150.911 306.102C151.371 305.923 151.805 305.595 152.266 305.105C152.616 304.729 152.936 304.291 153.23 303.704C153.483 303.228 153.669 302.713 153.827 302.092L153.844 302.102ZM178.312 299.592C178.475 299.041 178.554 298.442 178.574 297.675C178.589 296.994 178.578 296.32 178.497 295.651C178.407 294.843 178.239 294.056 177.972 293.324C177.736 292.654 177.381 291.96 176.89 291.231C176.121 290.098 175.126 289.123 174.156 288.185L173.854 287.899L173.867 287.684L173.872 287.443L173.898 287.168C173.944 286.395 174.007 285.63 174.054 284.856L174.117 284.092C174.277 281.85 174.434 279.805 174.599 277.787C174.768 275.683 174.954 273.589 175.14 271.494C175.238 270.439 175.309 269.546 175.354 268.659C175.399 267.618 175.428 266.567 175.439 265.662L175.4 265.728C175.436 265.282 175.454 264.825 175.456 264.36L175.453 264.135L175.468 263.454L175.497 263.404C175.504 261.696 175.575 260.225 175.708 258.878C175.851 257.204 176.111 255.752 176.492 254.438L176.526 254.302L176.579 254.132C176.633 253.963 176.65 253.817 176.582 253.666C176.52 253.542 176.449 253.434 176.332 253.367C176.315 253.357 176.299 253.347 176.282 253.338C176.122 253.268 175.924 253.264 175.764 253.35C175.613 253.418 175.529 253.525 175.478 253.652C175.415 253.838 175.369 254.034 175.315 254.203C175.249 254.164 175.163 254.159 175.067 254.171C174.754 254.212 174.474 254.273 174.089 254.362C173.757 254.437 173.372 254.526 173.01 254.651C172.307 254.868 171.737 255.162 171.258 255.53C171.273 255.272 171.157 255.049 170.94 254.924C170.873 254.886 170.807 254.847 170.721 254.842C170.558 254.815 170.348 254.871 170.211 254.993C170.084 255.097 169.997 255.247 169.98 255.393C169.631 259.618 169.618 264.303 169.943 269.672C170.07 271.725 170.213 273.787 170.369 275.79L170.388 275.912C170.574 278.555 170.782 281.277 170.923 283.961C170.967 284.809 170.994 285.648 171.029 286.513C171.042 286.876 171.047 287.213 171.043 287.567L171.037 287.808C171.04 288.188 171.034 288.584 171.054 288.974C170.991 289.005 170.841 289.073 170.737 289.214C170.574 289.497 170.429 289.748 170.318 290.017C170.195 290.346 170.098 290.668 169.991 291.007L169.953 291.074C169.794 291.694 169.651 292.367 169.554 293.112C169.423 293.993 169.398 294.846 169.397 295.58C169.396 296.313 169.439 297.049 169.557 297.807C169.673 298.608 169.88 299.328 170.168 299.984C170.306 300.285 170.476 300.606 170.707 300.939C170.937 301.272 171.206 301.539 171.451 301.769C171.696 302 171.996 302.173 172.28 302.337C172.613 302.529 172.978 302.629 173.327 302.719C173.735 302.821 174.148 302.837 174.502 302.841C174.951 302.834 175.412 302.766 175.895 302.623C176.477 302.425 177.061 302.028 177.527 301.452C177.994 300.876 178.236 300.149 178.398 299.597L178.312 299.592ZM93.4249 209.592C93.3396 209.432 93.2376 209.262 93.1524 209.101C93.162 209.085 93.1479 209.032 93.1241 208.996C92.9754 208.599 92.8003 208.209 92.6349 207.802L92.5214 207.536C92.2977 206.806 92.1125 206.01 91.9781 205.087C91.8692 204.313 91.7963 203.514 91.7209 202.759C91.6703 202.307 91.6364 201.865 91.5859 201.414C91.4592 200.362 91.2838 198.971 90.8812 197.626C90.7095 197.038 90.4613 196.427 90.1465 195.778C89.8791 195.201 89.5327 194.646 89.2101 194.126L89.0229 193.795L88.7715 193.383C88.041 192.183 87.2867 190.947 86.7 189.652C86.1845 188.465 85.789 187.146 85.3596 185.386C85.0149 183.942 84.742 182.45 84.4665 181.001L84.4621 180.931C84.2077 179.561 83.9137 177.99 83.5645 176.476C83.4145 175.812 83.203 175.022 82.9126 174.254C82.6362 173.538 82.2887 172.715 81.7807 171.977C81.7262 171.879 81.6358 171.804 81.5357 171.746C81.3856 171.66 81.1969 171.64 81.0224 171.673C80.8382 171.722 80.7015 171.843 80.6315 172.003C80.6148 171.993 80.5814 171.974 80.5481 171.955C80.3979 171.868 80.1926 171.838 80.0084 171.888C79.5875 172.001 79.1902 172.149 78.7833 172.315C78.6325 172.383 78.465 172.442 78.3071 172.485C77.6898 172.706 77.1346 172.898 76.5988 173.055C76.4146 173.105 76.2516 173.233 76.172 173.409C76.0756 173.576 76.0461 173.781 76.0954 173.966C76.1448 174.15 76.266 174.286 76.4328 174.383C76.5162 174.431 76.5996 174.479 76.6952 174.468C76.9413 175.544 77.4864 176.526 78.0078 177.472L78.1643 177.74C78.5696 178.463 78.9293 179.227 79.2512 179.902C79.6277 180.676 79.9945 181.466 80.3279 182.236C81.0941 183.991 81.7128 185.616 82.2052 187.19C82.3205 187.568 82.4359 187.946 82.5513 188.324C82.7045 188.791 82.8314 189.264 82.9846 189.731C83.284 190.638 83.5552 191.439 83.8052 192.162C84.3906 193.767 85.0452 195.369 85.7647 196.896C86.1174 197.634 86.4938 198.407 86.9132 199.183C87.2236 199.762 87.5603 200.335 87.89 200.881L88.2267 201.454C88.6891 202.232 89.0462 203.039 89.3893 203.793L89.3611 203.688C89.5643 204.183 89.7605 204.652 89.9638 205.148C90.1529 205.59 90.3325 206.05 90.5383 206.502C90.9262 207.371 91.3661 208.382 91.969 209.263C92.1062 209.565 92.2698 209.86 92.4333 210.154C92.4808 210.226 92.5546 210.291 92.6213 210.329C92.8048 210.435 93.0294 210.432 93.1994 210.33C93.4677 210.173 93.5313 209.832 93.3749 209.563L93.4249 209.592Z" fill="#FEFEFE"/>
<path d="M89.4059 129.762C89.4028 129.382 89.333 128.964 89.2158 128.474C89.2153 128.051 89.1981 127.618 89.1449 127.209C89.0471 126.108 88.7966 124.962 88.4248 123.68C88.2293 123.056 88.0338 122.431 87.8023 121.83C87.5946 121.266 87.3606 120.708 87.1169 120.167L87.0105 119.928L86.7976 119.449C86.6014 118.98 86.3885 118.501 86.2186 118.025C85.966 117.345 85.7705 116.721 85.6346 116.108C85.3098 114.475 85.3508 112.786 85.3955 111.322L85.4014 111.081C85.4628 109.626 85.5268 108.128 85.4163 106.663C85.2048 103.717 84.5223 100.854 83.3496 98.1084C82.988 97.2324 82.5333 96.3249 82.0093 95.4219C81.4879 94.4759 80.9299 93.7089 80.3571 93.0446C80.3096 92.9727 80.2359 92.9079 80.1691 92.8694L80.1525 92.8597C79.9857 92.7634 79.8207 92.7794 79.6629 92.8217C79.6366 92.8288 79.6006 92.8525 79.5647 92.8762C79.5313 92.857 79.4979 92.8377 79.4453 92.8518C79.3593 92.8466 79.29 92.8511 79.2137 92.8293C79.1181 92.8408 79.0391 92.8619 78.9602 92.8831C78.7927 92.9421 78.6252 93.001 78.4577 93.06C78.2543 93.1427 78.0412 93.2421 77.8378 93.3248L77.4835 93.4762C76.7917 93.7884 76.1621 94.0699 75.5395 94.3778C75.5036 94.4015 75.451 94.4156 75.415 94.4393C75.2149 94.3237 74.9736 94.3179 74.7701 94.4006C74.5763 94.4666 74.3941 94.6283 74.3048 94.8214C74.2155 95.0145 74.2026 95.2295 74.2853 95.4329C74.956 97.1991 75.7678 98.9133 76.5559 100.592C76.8021 101.09 77.0221 101.595 77.2517 102.083C78.0917 103.902 79.1298 106.303 79.7084 108.884C79.8417 109.539 79.939 110.218 80.0459 110.88L80.1273 111.394C80.2617 112.317 80.4065 113.068 80.5442 113.792C80.8902 115.504 81.3184 116.997 81.8666 118.359C82.4834 119.872 83.3229 121.268 84.0464 122.442L84.0964 122.471C84.8436 123.681 85.6074 124.9 86.2731 126.174C86.7137 127.029 87.033 127.747 87.2952 128.41C87.4606 128.817 87.5998 129.231 87.7151 129.609C87.7812 129.803 87.8209 130.004 87.8773 130.214C87.8888 130.31 87.9266 130.398 87.9645 130.487C87.9927 130.592 88.0209 130.697 88.0491 130.803C88.0843 130.934 88.0933 131.073 88.1022 131.211C88.1419 131.412 88.2272 131.573 88.3773 131.659C88.4274 131.688 88.4774 131.717 88.5467 131.713C88.6924 131.73 88.8406 131.704 88.9748 131.626C89.0922 131.538 89.1596 131.421 89.2033 131.269C89.344 130.794 89.4346 130.29 89.4034 129.805L89.4059 129.762ZM163.178 37.0404C163.513 36.3443 163.868 35.6148 164.22 34.773C164.278 34.673 164.286 34.544 164.241 34.4291C164.45 34.1051 164.676 33.7908 164.893 33.4931C165.205 33.0286 165.528 32.5475 165.84 32.083L165.946 31.8995C166.159 31.8001 166.275 31.5999 166.278 31.4016L166.283 31.3157C166.283 31.3157 166.284 31.1604 166.306 31.084C166.321 30.9814 166.335 30.8787 166.34 30.7927C166.366 30.5181 166.348 30.2409 166.311 29.997C166.267 29.5716 166.157 29.1076 165.947 28.5858C165.743 28.0904 165.451 27.6328 165.197 27.2637C164.943 26.8947 164.637 26.5397 164.28 26.1559C163.591 25.4241 162.727 24.7251 161.712 24.0946C161.495 23.9694 161.278 23.8442 161.054 23.6927C160.303 23.2593 159.481 22.8734 158.613 22.5279C157.871 22.2331 157.067 21.9691 156.082 21.7115C155.597 21.5875 155.12 21.4898 154.685 21.3947C154.225 21.3066 153.824 21.2308 153.463 21.2005C152.255 21.059 150.664 20.9635 149.238 21.4302C149.106 21.4654 149.035 21.5129 148.951 21.62C148.902 21.7034 148.864 21.7701 148.875 21.8658L148.846 21.9158C148.748 21.9703 148.676 22.0178 148.585 22.0986C148.484 22.1961 148.384 22.2936 148.283 22.3911C148.033 22.6695 147.819 22.9242 147.577 23.2289C147.212 23.7075 146.86 24.2387 146.485 24.8893C145.82 26.0402 145.285 27.1989 144.914 28.3417C144.713 28.3814 144.569 28.4763 144.466 28.6168C144.37 28.7836 144.352 28.9293 144.368 29.0942C144.406 29.7609 144.58 30.4617 144.856 31.1772C145.088 31.7779 145.458 32.3697 145.964 32.9955C146.79 34.0289 147.916 34.968 149.425 35.8611L149.558 35.9381C150.759 36.6315 152.094 37.2467 153.657 37.8151C154.248 38.0232 154.856 38.2409 155.637 38.469C155.992 38.5852 156.374 38.6944 156.739 38.794C157.087 38.884 157.426 38.9906 157.765 39.0972L158.104 39.2038C158.519 39.3323 158.934 39.4608 159.359 39.5726C159.647 39.6503 159.946 39.7114 160.254 39.7557C160.433 39.7924 160.621 39.8123 160.803 39.806C160.889 39.8111 160.992 39.8259 161.078 39.8311C161.395 39.8588 161.735 39.6548 161.832 39.3327C161.871 39.266 161.89 39.2327 161.909 39.1993C162.29 38.618 162.665 37.9675 163.097 37.1046L163.178 37.0404Z" fill="#017DC5"/>
<path d="M198.38 227.775C198.631 224.028 198.138 220.451 197.471 216.174C197.471 215.751 197.497 215.321 197.496 214.899C197.559 212.132 197.519 209.196 197.413 205.643C197.304 202.288 197.128 198.895 196.947 195.587C196.811 192.818 196.647 189.943 196.53 187.14C196.344 182.34 196.318 177.454 196.308 172.733L196.298 170.169C196.264 164.834 196.218 159.136 195.959 153.382C195.338 140.013 193.593 129.552 190.434 120.5C190.045 119.364 189.563 118.041 188.993 116.755C188.437 115.522 187.765 114.222 186.98 112.924C185.621 110.693 183.929 108.538 181.801 106.331C180.631 105.121 179.398 103.943 177.977 102.744C178.113 102.355 177.983 101.925 177.686 101.708C176.759 101.04 175.993 100.442 175.322 99.8321C174.56 99.1478 173.828 98.4135 173.169 97.744L172.567 97.1297C171.331 95.8819 170.063 94.5718 168.654 93.4689C168.225 93.1325 167.804 92.8225 167.375 92.4861C167.037 92.2242 166.672 91.9693 166.334 91.7074C165.618 91.138 164.885 90.5589 164.137 89.9273C162.7 88.7192 161.36 87.4566 160.159 86.185C157.962 83.8267 156.086 81.2979 154.624 78.6299C153.809 77.114 153.085 75.5173 152.485 73.859C151.938 72.3418 151.458 70.708 151 68.8424C150.138 65.0973 149.637 61.2271 149.161 57.5052C148.858 55.2175 148.561 52.8438 148.181 50.5342C148.14 50.2211 147.957 49.9599 147.707 49.8154C147.573 49.7383 147.437 49.7043 147.292 49.6869C147.111 49.538 146.904 49.3961 146.67 49.2613C146.52 49.1746 146.353 49.0783 146.193 49.0083C145.471 48.6802 144.681 48.4688 144.018 48.3082C143.159 48.1013 142.416 47.9618 141.688 47.8749C140.917 47.7855 140.066 47.7172 139.111 47.6771C137.104 47.6084 135.305 47.6817 133.598 47.9416C132.771 48.0646 131.905 48.2542 131.07 48.5062C130.403 48.6991 129.737 49.0043 129.047 49.4289C128.367 49.8368 127.798 50.3981 127.377 51.089C127.031 51.6895 126.845 52.4723 126.892 53.2777C126.889 53.3207 126.904 53.3733 126.918 53.4259C126.86 53.526 126.812 53.6094 126.804 53.7384C126.799 53.8244 126.784 53.927 126.779 54.013C126.754 54.1324 126.756 54.2447 126.749 54.3736C126.733 54.6316 126.744 54.8825 126.762 55.1597C126.783 55.6615 126.848 56.1659 126.906 56.644C127.009 57.5045 127.106 58.3387 127.219 59.1826L127.284 59.687L127.409 60.6264C127.635 62.3141 127.85 64.0615 128.048 65.7993C128.263 67.8142 128.45 69.8792 128.587 71.9153L128.591 71.9846C128.696 73.6909 128.814 75.4498 128.788 77.1913C128.673 79.9717 128.163 82.8579 127.208 85.9761L127.198 85.9928L127.159 86.0595L127.164 86.1289C126.432 88.3976 125.664 90.4225 124.793 92.2774C123.871 94.2586 122.778 96.2295 121.478 98.3261L121.507 98.2761C119.866 100.887 118.129 103.242 116.34 105.301C112.547 108.827 109.529 112.667 107.387 116.724C104.896 121.424 103.295 126.816 102.747 132.349C102.557 134.219 102.486 136.269 102.535 138.61C102.112 141.346 101.912 144.389 101.91 148.169C101.914 152.13 102.195 156.073 102.452 159.402C102.563 160.712 102.665 162.038 102.776 163.348C102.972 165.552 103.146 167.831 103.312 170.085C103.597 174.253 103.937 178.364 104.354 182.341C104.785 186.526 105.263 190.783 105.749 194.911C106.192 198.882 106.671 202.983 107.102 207.013C107.489 210.773 107.802 214.468 108.056 217.573C108.307 220.72 108.543 223.548 108.934 226.376C109.367 229.517 109.928 232.243 110.67 234.695C111.492 237.393 112.637 239.878 114.058 242.078C115.551 244.385 117.488 246.461 119.808 248.222C120.708 248.897 121.687 249.552 122.738 250.158C124.489 251.17 126.47 252.091 128.791 252.964C132.082 254.197 135.71 255.157 139.565 255.759C142.908 256.288 146.566 256.576 150.74 256.628C154.12 256.667 157.745 256.514 161.839 256.164C163.479 256.021 165.214 255.866 166.95 255.556C168.511 255.279 170.166 254.878 171.846 254.357C174.906 253.41 178.061 252.029 181.205 250.242C184.163 248.547 186.925 246.538 189.41 244.236C192.178 241.676 194.28 239.153 195.835 236.536C197.294 234.087 198.191 231.069 198.407 227.768L198.38 227.775ZM217.046 138.2C217.043 140.556 216.564 142.926 216.083 145.184C215.922 146.003 215.741 146.855 215.58 147.674C215.244 149.526 215.092 151.062 215.116 152.521C215.147 154.163 215.446 155.803 215.741 157.219L215.914 158.075C216.302 159.945 216.711 161.894 216.741 163.846C216.738 164.89 216.684 165.948 216.609 167.039C216.56 167.856 216.478 168.654 216.412 169.461L216.334 170.328C216.256 171.35 216.153 172.492 216.102 173.619C216.089 173.989 216.075 174.36 216.078 174.739L216.064 175.265C216.05 175.791 216.049 176.369 216.085 176.923C216.09 176.992 216.12 177.055 216.151 177.117C216.142 177.134 216.165 177.17 216.172 177.196C216.194 177.275 216.251 177.33 216.334 177.378C216.334 177.378 216.367 177.397 216.384 177.407C216.467 177.455 216.606 177.446 216.704 177.392C216.793 177.354 216.858 177.28 216.88 177.204C217.322 175.591 217.952 173.998 218.565 172.55L218.867 171.835C219.401 170.564 219.963 169.243 220.44 167.917C220.989 166.388 221.352 164.796 221.517 163.2C221.689 161.632 221.689 160.052 221.666 158.705C221.662 157.902 221.616 157.097 221.586 156.301C221.55 155.324 221.516 154.304 221.506 153.319L221.511 153.388C221.515 152.301 221.57 151.243 221.658 150.204C221.759 149.106 221.955 147.996 222.237 146.891C222.424 146.221 222.647 145.526 222.851 144.865C223.149 143.925 223.466 142.952 223.688 141.99C223.783 141.556 223.878 141.122 223.93 140.685C223.989 140.274 224.008 139.818 223.998 139.256C223.991 138.807 223.954 138.408 223.872 138.049C223.776 137.638 223.619 137.102 223.269 136.744C223.229 136.699 223.171 136.644 223.121 136.615C223.105 136.605 223.071 136.586 223.055 136.576C222.971 136.528 222.859 136.53 222.763 136.541C222.572 136.564 222.373 136.716 222.31 136.903C222.294 136.893 222.26 136.874 222.227 136.854C222.16 136.816 222.093 136.777 222.007 136.772C221.451 136.696 220.866 136.669 220.324 136.645L220.109 136.632C219.497 136.613 218.826 136.581 218.184 136.5C218.124 136.487 218.055 136.492 217.985 136.496C217.852 136.419 217.69 136.392 217.541 136.418C217.35 136.441 217.18 136.543 217.067 136.7C216.964 136.841 216.91 137.01 216.94 137.227C216.956 137.548 216.971 137.868 216.977 138.205L217.046 138.2Z" fill="#FE8F42"/>
<path d="M137.699 58.4049C137.699 58.4049 137.682 58.3953 137.665 58.3856C137.665 58.3856 137.665 58.3856 137.682 58.3953L137.699 58.4049ZM143.659 28.974C143.668 29.1126 143.713 29.2274 143.811 29.3282C143.859 29.6677 143.951 30.0097 144.052 30.3351C144.198 30.7753 144.39 31.1752 144.615 31.5943C145.075 32.4158 145.686 33.1687 146.354 33.8215C147.087 34.5558 147.913 35.1663 148.758 35.7435C149.621 36.3302 150.548 36.8432 151.504 37.3062C153.063 38.0729 154.692 38.6798 156.362 39.177C157.066 39.3832 157.779 39.5727 158.512 39.7289C158.844 39.8092 159.178 39.8465 159.503 39.9005C159.811 39.9449 160.119 39.9893 160.42 40.0073C160.694 40.0325 160.986 40.0672 161.282 40.016C161.282 40.016 161.316 40.0352 161.306 40.0519C161.494 40.2271 161.831 40.2215 161.989 40.0239C162.222 39.7358 162.448 39.4215 162.648 39.1142C162.884 38.7832 163.103 38.4425 163.321 38.1018C163.74 37.4539 164.142 36.7963 164.544 36.1387C165.367 34.7901 166.173 33.4319 167.03 32.1026C167.107 31.9692 167.11 31.7709 167.058 31.6297C167.058 31.6297 167.034 31.5938 167.027 31.5674C167.037 31.5508 167.047 31.5341 167.04 31.5078C167.012 31.2472 167.011 30.9797 166.967 30.7095C166.925 30.3963 166.857 30.0902 166.773 29.7745C166.608 29.2123 166.381 28.6809 166.111 28.147C165.585 27.1317 164.82 26.2228 163.997 25.414C163.58 25.0179 163.128 24.6456 162.657 24.3067C162.161 23.9318 161.63 23.5806 161.096 23.2724C161.03 23.2339 160.946 23.1857 160.879 23.1472C159.912 22.5886 158.887 22.1301 157.823 21.7384C156.344 21.2181 154.831 20.8339 153.272 20.6454C151.875 20.4839 150.444 20.4584 149.05 20.6768C148.928 20.6953 148.797 20.7306 148.713 20.8377C148.674 20.9044 148.636 20.9712 148.597 21.0379C148.525 21.0854 148.46 21.1591 148.395 21.2329C148.212 21.5498 147.996 21.8475 147.78 22.1452C147.799 22.1118 147.809 22.0951 147.828 22.0618C147.741 22.2119 147.648 22.3357 147.544 22.4762C147.554 22.4595 147.563 22.4429 147.583 22.4095C147.515 22.5263 147.431 22.6334 147.357 22.7238C147.357 22.7238 147.366 22.7072 147.376 22.6905C147.289 22.8406 147.16 22.9882 147.073 23.1383C147.083 23.1216 147.092 23.1049 147.102 23.0882C146.96 23.2955 146.808 23.5194 146.667 23.7266C146.695 23.6765 146.724 23.6265 146.753 23.5765C146.195 24.3886 145.611 25.2079 145.087 26.0394C144.572 26.8541 144.021 27.6926 143.666 28.5774C143.608 28.6775 143.584 28.7968 143.595 28.8924L143.659 28.974ZM144.766 29.3683C145.208 28.7563 145.584 28.1057 145.967 27.4815C146.333 26.8476 146.715 26.2234 147.098 25.5992C147.464 24.9653 147.846 24.3411 148.219 23.7335C148.605 23.0663 148.99 22.399 149.409 21.7511C149.428 21.7177 149.437 21.701 149.44 21.658C150.37 21.5499 151.311 21.5374 152.231 21.6012C153.819 21.7396 155.384 22.1098 156.89 22.6229C158.419 23.1721 159.894 23.8906 161.228 24.8163C162.154 25.4846 163.023 26.253 163.774 27.1093C164.337 27.7903 164.819 28.5354 165.202 29.3351C165.494 29.948 165.713 30.6083 165.889 31.2661C164.5 30.9756 163.123 30.6255 161.78 30.1393C160.471 29.6724 159.164 29.1625 157.886 28.6025C156.507 27.9847 155.134 27.281 153.874 26.4201C153.072 25.8456 152.308 25.2043 151.654 24.4488C151.243 23.9668 150.904 23.4373 150.62 22.8507C150.544 22.6735 150.468 22.4964 150.409 22.3289C150.364 22.214 150.284 22.1229 150.184 22.0651C150.067 21.9977 149.938 21.9899 149.806 22.0252C149.56 22.1053 149.406 22.3722 149.503 22.6283C150.345 24.9829 152.306 26.6712 154.379 27.9347C154.846 28.2043 155.313 28.474 155.78 28.7436C155.299 29.5777 154.777 30.3661 154.262 31.1809C153.699 32.0791 153.162 32.9702 152.616 33.878C152.452 34.1616 152.594 34.5325 152.87 34.6699C153.154 34.8337 153.498 34.699 153.662 34.4155C154.182 33.5147 154.678 32.578 155.182 31.6676C155.432 31.2339 155.659 30.7643 155.909 30.3306C156.131 29.9469 156.362 29.5466 156.583 29.1629C158.026 29.8622 159.535 30.4447 161.028 31.0175C161.231 31.0901 161.434 31.1627 161.637 31.2352C160.53 32.9982 159.523 34.819 158.44 36.618C158.286 36.8849 158.428 37.2558 158.694 37.4099C158.978 37.5736 159.323 37.439 159.486 37.1554C160.505 35.2749 161.431 33.363 162.567 31.55C162.872 31.6373 163.168 31.7414 163.474 31.8288C164.17 32.0086 164.879 32.1289 165.608 32.2157C164.912 33.3044 164.234 34.4028 163.579 35.5371C163.194 36.2043 162.808 36.8715 162.423 37.5388C162.24 37.8557 162.057 38.1726 161.874 38.4896C161.711 38.7732 161.556 39.04 161.393 39.3236C161.283 39.2825 161.164 39.2581 161.044 39.2337C160.822 39.1945 160.627 39.1482 160.405 39.109C160.08 39.055 159.748 38.9747 159.424 38.9206C158.989 38.8255 158.538 38.7208 158.113 38.609C157.128 38.3514 156.145 38.0508 155.181 37.7168C155.181 37.7168 155.214 37.736 155.231 37.7457C155.198 37.7264 155.164 37.7071 155.121 37.7046C152.918 36.8992 150.76 35.8981 148.821 34.5564C147.885 33.9047 147.007 33.153 146.249 32.2705C145.83 31.7621 145.458 31.2134 145.167 30.6005C144.999 30.2366 144.883 29.8586 144.794 29.4736C144.804 29.4569 144.814 29.4402 144.823 29.4235L144.766 29.3683ZM155.041 37.6134C155.041 37.6134 155.074 37.6327 155.091 37.6423L155.024 37.6038L155.041 37.6134ZM147.058 31.8703C147.263 32.0552 147.583 32.0399 147.768 31.8353C148.008 31.5735 148.198 31.2829 148.395 31.0186C148.575 30.7447 148.782 30.4637 148.962 30.1897C149.323 29.6418 149.694 29.0773 150.054 28.5294C150.235 28.2555 150.422 28.0078 150.636 27.7531C150.72 27.646 150.771 27.5196 150.762 27.381C150.753 27.2424 150.691 27.1179 150.611 27.0267C150.577 27.0075 150.561 26.9979 150.527 26.9786C150.327 26.863 150.033 26.8713 149.875 27.0689C149.351 27.745 148.853 28.4142 148.363 29.1096C148.108 29.474 147.863 29.8217 147.624 30.1957C147.396 30.5531 147.141 30.9175 146.963 31.3037C146.847 31.5039 146.91 31.7407 147.065 31.8966L147.058 31.8703ZM105.912 70.2781C105.912 70.2781 105.916 70.3474 105.914 70.3904C105.916 70.3474 105.919 70.3044 105.921 70.2614C105.921 70.2614 105.921 70.2614 105.912 70.2781ZM102.518 56.0861C102.518 56.0861 102.518 56.0861 102.525 56.1124C102.525 56.1124 102.525 56.1124 102.518 56.0861ZM114.281 73.4642C114.281 73.4642 114.278 73.5071 114.276 73.5501C114.256 73.5835 114.28 73.6194 114.278 73.6624C114.273 73.5931 114.285 73.5335 114.271 73.4808L114.281 73.4642ZM114.21 77.671C114.21 77.671 114.219 77.6543 114.229 77.6377C114.229 77.6377 114.229 77.6377 114.219 77.6543L114.21 77.671ZM114.207 77.714C114.207 77.714 114.217 77.6973 114.21 77.671C114.21 77.671 114.2 77.6877 114.19 77.7044L114.207 77.714ZM179.441 44.0054C179.441 44.0054 179.431 44.022 179.421 44.0387L179.441 44.0054ZM178.311 300.904C178.581 300.437 178.734 299.902 178.877 299.384C179.03 298.85 179.106 298.294 179.173 297.754C179.348 295.987 179.156 294.163 178.619 292.474C178.357 291.656 177.961 290.916 177.441 290.237C176.985 289.641 176.44 289.081 175.884 288.582C175.605 288.332 175.301 288.09 175.022 287.84C174.858 287.701 174.684 287.578 174.536 287.448C174.869 283.637 175.287 279.831 175.672 276.005C176.053 272.11 176.433 268.215 176.771 264.318C176.941 262.481 177.102 260.661 177.246 258.832C177.317 257.939 177.372 257.036 177.442 256.143C177.496 255.395 177.533 254.638 177.527 253.878C179.618 253.106 181.684 252.186 183.655 251.122C185.537 250.096 187.325 248.926 189.001 247.603C190.65 246.287 192.181 244.791 193.538 243.172C195.119 241.282 196.428 239.169 197.384 236.897C198.388 234.541 198.963 232.004 199.271 229.468C199.598 226.899 199.6 224.275 199.523 221.673C199.435 218.82 199.235 215.969 199.069 213.137C198.707 206.946 198.355 200.737 198.003 194.529C197.666 188.485 197.33 182.442 197.106 176.397C196.925 171.933 196.909 167.453 196.894 162.974C196.823 153.503 196.756 143.989 195.448 134.582C194.813 130.057 193.849 125.564 192.402 121.214C190.943 116.768 188.869 112.502 186.083 108.736C185.732 108.266 185.371 107.813 185.009 107.36C184.994 107.04 184.988 106.703 184.956 106.373C184.918 105.862 184.887 105.377 184.839 104.882C184.75 103.919 184.651 102.972 184.546 101.999C184.342 100.08 184.102 98.1844 183.871 96.2721C183.384 92.4545 182.881 88.6273 182.367 84.8169C181.35 77.1792 180.323 69.5582 179.55 61.8834C179.234 58.6543 178.955 55.4015 178.762 52.1539C179.776 51.2052 180.66 50.1364 181.421 48.9739C182.248 47.6947 182.961 46.305 183.429 44.8402C183.652 44.146 183.798 43.4299 183.885 42.7016C183.93 42.3936 183.931 42.083 183.932 41.7724C183.929 41.5479 183.908 41.3136 183.861 41.0865C183.779 40.7277 183.621 40.3472 183.307 40.1212C183.273 40.1019 183.257 40.0923 183.223 40.073C183.107 40.0056 182.98 39.9549 182.835 39.9375C182.629 39.9079 182.455 39.9406 182.27 39.99C182.06 40.0464 181.864 40.1554 181.667 40.2644C181.435 40.3972 181.226 40.5659 181.034 40.7442C180.552 41.1553 180.118 41.6384 179.733 42.1503C179.796 41.5414 179.841 40.9228 179.834 40.3184C179.813 39.8166 179.748 39.3122 179.605 38.8289C179.475 38.3983 179.224 37.9863 178.862 37.6884C178.778 37.6403 178.721 37.5851 178.638 37.5369C178.288 37.3347 177.877 37.2755 177.478 37.312C176.974 37.3766 176.569 37.6543 176.244 38.0232C176.05 38.2445 175.896 38.5114 175.742 38.7783C175.578 39.0619 175.464 39.3743 175.351 39.6868C175.184 40.1686 175.043 40.6434 174.936 41.1375C174.891 40.8673 174.831 40.5876 174.77 40.3078C174.563 39.4324 174.267 38.4826 173.553 37.8702C173.469 37.8221 173.395 37.7573 173.312 37.7091C173.229 37.661 173.162 37.6224 173.069 37.591C172.833 37.4991 172.601 37.4766 172.333 37.4778C172.126 37.4912 171.915 37.5476 171.712 37.6303C171.508 37.713 171.302 37.8387 171.146 37.9933C170.863 38.2525 170.663 38.5598 170.547 38.9152C170.405 39.2777 170.348 39.6454 170.325 40.0323C170.254 40.9255 170.345 41.8457 170.482 42.7255C170.605 43.5527 170.798 44.3754 170.983 45.1718C170.899 45.1237 170.852 45.0518 170.795 44.9966C170.523 44.7732 170.233 44.5831 169.916 44.4002C169.799 44.3327 169.699 44.275 169.582 44.2075C169.189 44.0027 168.757 43.8646 168.323 43.7695C167.879 43.6911 167.41 43.732 166.996 43.8711C166.803 43.9371 166.606 44.0462 166.46 44.1841C166.287 44.329 166.112 44.517 165.996 44.7172C165.765 45.1175 165.565 45.5801 165.553 46.0626C165.54 46.2776 165.554 46.4855 165.61 46.696C165.657 46.9232 165.73 47.1433 165.839 47.3397C166.054 47.7755 166.359 48.1734 166.682 48.538C167.055 48.9315 167.464 49.3012 167.874 49.6709C168.661 50.3482 169.488 50.9587 170.22 51.693C170.456 51.9401 170.665 52.1943 170.855 52.4818C170.893 52.5704 170.94 52.6423 170.978 52.7309C170.995 52.7405 171.018 52.7764 171.025 52.8027C170.954 53.6959 170.953 54.5847 170.978 55.4664C170.99 56.4077 171.029 57.342 171.068 58.2763C171.129 60.1353 171.24 62.0232 171.344 63.8847C171.559 67.6342 171.827 71.3695 172.137 75.1074C172.752 82.557 173.564 90.0098 174.525 97.4369C170.63 94.3209 166.632 91.3455 163.023 87.9273C162.852 87.7617 162.681 87.5961 162.509 87.4305C160.335 85.2635 158.267 82.913 156.683 80.2636C155.567 78.3067 154.735 76.203 154.114 74.0429C153.056 70.0962 152.611 66.0136 152.199 61.9504C151.993 59.9187 151.794 57.9134 151.519 55.8862C151.38 54.8941 151.232 53.9187 151.023 52.9311C150.918 52.3811 150.777 51.8549 150.629 51.3024C150.549 51.0559 150.479 50.7928 150.389 50.5631C150.346 50.4052 150.268 50.2711 150.173 50.1273C150.162 50.0317 150.124 49.9431 150.112 49.8475C150.059 49.594 149.952 49.3546 149.728 49.2031C149.712 49.1935 149.695 49.1839 149.662 49.1646C149.6 49.0401 149.519 48.9489 149.402 48.8815C149.352 48.8526 149.286 48.8141 149.226 48.8019C149.15 48.7801 149.064 48.7749 148.987 48.7531C148.568 48.5553 148.09 48.4576 147.639 48.3529C147.145 48.2455 146.641 48.1549 146.138 48.0643C144.968 47.856 143.776 47.7241 142.582 47.6351C140.127 47.4187 137.629 47.355 135.169 47.6475C133.3 47.8805 131.446 48.2784 129.756 49.1261C129.018 49.4788 128.343 49.956 127.748 50.5244C127.217 51.0189 126.801 51.6239 126.469 52.277C126.227 52.4265 126.073 52.6934 126.107 52.9802C126.301 54.4934 126.495 56.0065 126.663 57.5267C126.653 57.5434 126.667 57.596 126.674 57.6223C127.273 62.7496 127.716 67.8762 127.733 73.0462C127.732 77.6715 127.367 82.3095 126.21 86.7791C125.882 87.9244 125.531 89.0338 125.077 90.1283C124.591 91.316 124.013 92.4721 123.368 93.5897C121.119 97.407 118.218 100.736 115.301 104.056C115.269 102.57 115.188 101.055 115.113 99.5663C115.015 97.4634 114.874 95.358 114.749 93.2622C114.625 91.1665 114.51 89.054 114.429 86.9608C114.345 84.9106 114.277 82.87 114.262 80.8153C114.265 79.7713 114.277 78.7106 114.279 77.6666C114.279 77.6666 114.281 77.6236 114.274 77.5973C114.271 77.3727 114.283 77.1577 114.28 76.9331C114.28 76.9331 114.28 76.9331 114.27 76.9498C114.274 76.1733 114.303 75.3899 114.307 74.6134C114.304 74.2335 114.317 73.8633 114.314 73.4834C114.359 70.4399 114.344 67.3842 114.121 64.3419C114.236 64.297 114.367 64.2618 114.475 64.1906C114.724 64.0675 114.983 63.9277 115.225 63.7782C115.716 63.5057 116.159 63.1612 116.596 62.7905C117.114 62.3556 117.617 61.868 118.078 61.3779C118.494 60.9283 118.885 60.4426 119.21 59.9185C119.374 59.6349 119.538 59.3513 119.685 59.0581C119.815 58.7553 119.929 58.4428 119.999 58.1278C120.077 57.839 120.085 57.5548 120.094 57.2705C120.086 56.9766 120.041 56.7065 119.954 56.4337C119.884 56.1706 119.718 55.919 119.575 55.7034C119.433 55.4877 119.255 55.2958 119.067 55.1205C118.983 55.0724 118.909 55.0076 118.826 54.9594C118.509 54.7764 118.151 54.7032 117.788 54.7159C117.537 54.7267 117.264 54.8139 117.042 54.93C116.757 55.0768 116.505 55.2429 116.267 55.4617C115.757 55.9229 115.326 56.4752 114.923 57.0205C114.81 57.1777 114.713 57.3445 114.6 57.5017C114.795 56.2793 114.903 55.0518 114.908 53.8095C114.923 52.7058 114.82 51.5347 114.426 50.4842C114.256 50.008 113.971 49.5767 113.622 49.2191C113.467 49.0632 113.31 48.9502 113.136 48.8276C113.07 48.789 113.003 48.7505 112.936 48.712C112.786 48.6253 112.636 48.5386 112.466 48.4853C112.28 48.4224 112.085 48.3761 111.896 48.3562C111.655 48.3503 111.447 48.3637 111.227 48.4368C110.875 48.5451 110.592 48.8043 110.385 49.0853C110.159 49.3996 109.99 49.7692 109.881 50.151C109.809 50.3537 109.762 50.5494 109.716 50.7451C109.626 50.5153 109.537 50.2856 109.421 50.0629C109.195 49.6438 108.934 49.2484 108.563 48.9673C108.496 48.9287 108.429 48.8902 108.363 48.8517C108.012 48.6495 107.611 48.5736 107.212 48.6101C106.718 48.658 106.253 48.9235 105.905 49.2565C105.795 49.3706 105.694 49.4681 105.583 49.5823C105.48 49.7228 105.393 49.8729 105.316 50.0064C105.172 50.2566 105.104 50.5287 105.019 50.7911C104.963 51.0035 104.924 51.2255 104.911 51.4404C104.792 51.2607 104.638 51.1047 104.483 50.9488C104.352 50.8287 104.212 50.7254 104.078 50.6483C103.895 50.5424 103.675 50.4602 103.453 50.421C102.993 50.3329 102.543 50.4958 102.174 50.7497C101.994 50.8684 101.845 51.0493 101.706 51.2135C101.538 51.4278 101.393 51.678 101.258 51.9115C101.018 52.3286 100.884 52.8297 100.829 53.3096C100.702 54.4152 100.956 55.5177 101.29 56.5561C101.663 57.683 102.176 58.758 102.69 59.833C103.189 60.8553 103.715 61.8706 104.189 62.9001C104.432 63.4411 104.65 63.9892 104.805 64.568C104.819 64.6206 104.843 64.6566 104.883 64.7021C104.7 65.4419 104.628 66.2229 104.548 66.9774C104.467 67.8873 104.413 68.7902 104.385 69.686C104.308 71.5539 104.299 73.4173 104.334 75.2834C104.382 78.9365 104.579 82.564 104.67 86.2197C104.863 93.3592 104.676 100.502 105.067 107.644C105.146 109.202 105.258 110.78 105.397 112.35C105.522 113.712 105.691 115.077 105.859 116.442C105.551 116.976 105.293 117.539 105.018 118.092C104.466 119.241 104.014 120.448 103.621 121.667C103.209 122.919 102.907 124.213 102.605 125.506C102.045 127.941 101.621 130.409 101.309 132.876C100.631 137.978 100.434 143.135 100.461 148.289C100.528 158.959 101.728 169.593 103.095 180.168C103.76 185.334 104.478 190.486 105.143 195.652C105.746 200.27 106.323 204.895 106.639 209.548C107.252 218.465 107.237 227.62 110.044 236.202C110.692 238.2 111.551 240.141 112.632 241.966C113.149 242.843 113.721 243.663 114.346 244.468C115.204 245.564 116.162 246.562 117.166 247.52C119.11 249.354 121.349 250.869 123.696 252.157C126.094 253.475 128.648 254.482 131.248 255.294C133.816 256.087 136.439 256.667 139.072 257.076C139.397 257.13 139.714 257.157 140.039 257.211C140.461 261.681 141.239 266.111 142.123 270.514C143.025 275.038 144.013 279.567 144.767 284.117C144.983 285.398 145.166 286.661 145.34 287.94C145.527 289.271 145.672 290.6 145.886 291.925C145.886 291.925 145.893 291.951 145.9 291.977C145.881 292.011 145.871 292.027 145.868 292.07C145.392 293.975 145.025 295.92 144.872 297.878C144.776 299.046 144.75 300.21 144.862 301.364C144.955 302.397 145.194 303.446 145.656 304.38C145.871 304.816 146.149 305.221 146.482 305.569C146.848 305.936 147.253 306.237 147.723 306.463C148.192 306.69 148.72 306.816 149.252 306.857C149.57 306.885 149.881 306.886 150.184 306.861C150.504 306.846 150.794 306.768 151.1 306.7C152.126 306.425 153.016 305.694 153.602 304.831C154.264 303.879 154.651 302.746 154.883 301.612C155.081 300.614 155.159 299.592 155.142 298.581C155.147 297.649 155.055 296.729 154.851 295.811C154.632 294.728 154.201 293.701 153.601 292.776C153.255 292.22 152.817 291.745 152.334 291.311C152.089 291.08 151.808 290.873 151.544 290.676C151.377 290.58 151.237 290.477 151.07 290.38C150.936 290.303 150.786 290.217 150.653 290.14C150.64 288.197 150.653 286.248 150.64 284.305C150.628 282.208 150.616 280.11 150.604 278.012C150.58 273.817 150.512 269.619 150.392 265.435C150.36 264.104 150.311 262.764 150.245 261.414C150.208 260.747 150.17 260.08 150.133 259.414C150.094 258.902 150.073 258.4 150.008 257.896C152.671 257.944 155.35 257.889 158.01 257.712C161.666 257.465 165.328 256.978 168.93 256.21C169.015 263.843 169.239 271.468 169.602 279.084C169.672 280.503 169.742 281.923 169.839 283.335C169.935 284.747 170.015 286.15 170.197 287.568C170.211 287.62 170.226 287.673 170.256 287.735C169.846 289.833 169.366 291.936 169.194 294.083C169.078 295.284 169.066 296.5 169.218 297.7C169.359 298.805 169.665 299.893 170.272 300.844C170.839 301.75 171.729 302.442 172.736 302.778C173.843 303.173 175.08 303.264 176.193 302.839C176.679 302.653 177.103 302.341 177.47 301.975C177.828 301.626 178.111 301.211 178.345 300.768L178.311 300.904ZM108.994 111.513C108.177 112.62 107.426 113.766 106.7 114.948C106.582 113.88 106.492 112.804 106.401 111.729C106.275 109.943 106.192 108.161 106.152 106.381C106.066 102.794 106.091 99.206 106.117 95.6177C106.159 92.039 106.191 88.477 106.121 84.9002C106.056 81.2375 105.896 77.5862 105.874 73.926C105.867 72.7434 105.861 71.5608 105.88 70.3711C105.88 70.3711 105.871 70.3878 105.861 70.4045C105.864 70.3615 105.866 70.3185 105.869 70.2755C105.878 70.2588 105.871 70.2325 105.864 70.2062L105.845 70.2395C105.845 70.2395 105.874 70.1895 105.876 70.1465L105.857 70.1799C105.888 69.2411 105.918 68.3023 105.949 67.3636C105.96 66.881 105.979 66.4248 105.991 65.9422C106.002 65.4597 106.024 64.9605 105.966 64.4824C105.95 64.3175 105.839 64.1641 105.688 64.0774C105.638 64.0485 105.588 64.0196 105.536 64.0337C105.392 63.5505 105.206 63.0647 105.009 62.5955C104.723 61.8966 104.411 61.2048 104.116 60.5226C103.477 59.0863 102.865 57.6429 102.472 56.1265C102.479 56.1528 102.493 56.2055 102.501 56.2318C102.486 56.1791 102.479 56.1528 102.465 56.1002L102.451 56.0476L102.468 56.0572C102.313 55.4784 102.203 54.8591 102.206 54.238C102.224 53.937 102.268 53.629 102.329 53.3307C102.392 53.1446 102.462 52.9848 102.559 52.818C102.665 52.6345 102.804 52.4703 102.934 52.3228C102.963 52.2727 103.015 52.2586 103.061 52.2182C103.111 52.2471 103.161 52.276 103.185 52.3119C103.363 52.5039 103.512 52.7458 103.645 52.9781C104.143 53.8882 104.48 54.8836 104.827 55.8623C105.105 56.6901 105.314 57.5225 105.618 58.3433C105.715 58.5993 105.999 58.7631 106.269 58.7189C106.608 58.6702 106.825 58.3725 106.819 58.0356C106.819 58.0356 106.822 57.9927 106.805 57.983C106.834 57.933 106.82 57.8804 106.806 57.8277C106.785 57.7488 106.773 57.6532 106.752 57.5743C106.687 57.0699 106.596 56.5725 106.496 56.0919C106.371 55.5753 106.257 55.042 106.106 54.5325C106.02 53.9491 105.961 53.3588 105.954 52.7543C105.963 52.3147 106.008 51.8515 106.12 51.4267C106.183 51.2406 106.246 51.0546 106.342 50.8878C106.4 50.7877 106.484 50.6805 106.575 50.5997C106.657 50.5356 106.728 50.4881 106.81 50.424C106.899 50.3861 106.997 50.3316 107.102 50.3034C107.155 50.2893 107.198 50.2919 107.241 50.2945C107.241 50.2945 107.274 50.3137 107.3 50.3067C107.317 50.3163 107.35 50.3356 107.367 50.3452C107.417 50.3741 107.45 50.3934 107.491 50.4389C107.588 50.5397 107.667 50.6739 107.738 50.7817C108.001 51.2893 108.175 51.8348 108.323 52.3874C108.522 53.2364 108.669 54.0995 108.799 54.953C108.906 55.6152 108.97 56.2749 109.12 56.9397C109.153 57.1143 109.221 57.2651 109.362 57.3685C109.502 57.4718 109.672 57.5251 109.836 57.5091C110.001 57.4932 110.171 57.3912 110.265 57.2674C110.378 57.1102 110.396 56.9645 110.406 56.7926C110.401 55.7222 110.327 54.6564 110.184 53.595C110.238 52.6921 110.335 51.7919 110.578 50.909C110.665 50.6036 110.786 50.3174 110.933 50.0242C111 49.9075 111.075 49.817 111.159 49.7099C111.205 49.6695 111.276 49.622 111.322 49.5816C111.358 49.5579 111.401 49.5604 111.437 49.5367C111.48 49.5393 111.532 49.5252 111.575 49.5278C111.635 49.54 111.695 49.5522 111.754 49.5644C111.864 49.6055 111.974 49.6466 112.074 49.7044C112.257 49.8103 112.405 49.94 112.569 50.0793C112.674 50.2064 112.778 50.3335 112.873 50.4772C113.013 50.7359 113.124 51.0446 113.202 51.334C113.394 52.1567 113.445 53.0313 113.446 53.8771C113.419 55.0404 113.307 56.1987 113.16 57.3376C113.103 57.8606 113.029 58.3739 112.946 58.9039C112.886 59.3145 112.837 59.7085 112.787 60.1025C112.733 60.4272 112.973 60.7436 113.298 60.7976C113.623 60.8516 113.939 60.6117 113.993 60.2871C114.008 60.1844 114.039 60.0914 114.045 60.0054C114.112 59.8886 114.189 59.7552 114.256 59.6384C114.812 58.7139 115.471 57.8042 116.241 57.0479C116.534 56.7721 116.834 56.5226 117.174 56.3186C117.298 56.257 117.423 56.1955 117.554 56.1602C117.607 56.1461 117.66 56.132 117.719 56.1442C117.736 56.1539 117.753 56.1635 117.779 56.1565C117.796 56.1661 117.812 56.1757 117.829 56.1853C117.846 56.195 117.879 56.2142 117.896 56.2239C117.953 56.2791 118 56.351 118.048 56.4228C118.116 56.5737 118.185 56.7245 118.244 56.892C118.256 56.9876 118.267 57.0832 118.279 57.1788C118.261 57.3245 118.244 57.4701 118.2 57.6228C118.084 57.9783 117.918 58.3049 117.735 58.6218C117.075 59.6868 116.225 60.6195 115.345 61.49C114.987 61.8396 114.613 62.1796 114.239 62.5196C114.066 62.6645 113.91 62.8191 113.737 62.9641C113.584 63.0757 113.438 63.2136 113.284 63.3252C113.105 63.4439 113.022 63.6633 113.036 63.8712C112.925 63.9854 112.872 64.1548 112.878 64.3364C113.014 66.1049 113.037 67.8753 113.008 69.6598C112.942 73.6254 112.645 77.5685 112.563 81.5245C112.516 83.6099 112.571 85.7102 112.626 87.8104C112.698 89.9203 112.796 92.0231 112.92 94.1189C113.026 96.0928 113.158 98.0596 113.307 100.036C113.428 101.907 113.549 103.778 113.765 105.638C112.089 107.54 110.463 109.47 108.961 111.494L108.994 111.513ZM174.443 87.8707C174.09 84.1302 173.769 80.4089 173.485 76.664C173.201 72.919 172.959 69.1766 172.744 65.4272C172.64 63.5656 172.546 61.6874 172.442 59.8258C172.338 57.9642 172.26 56.0956 172.113 54.2315C172.075 53.72 172.02 53.199 171.922 52.6753C171.906 52.5104 171.811 52.3666 171.677 52.2896C171.627 52.2607 171.577 52.2318 171.508 52.2363C171.491 52.2267 171.465 52.2337 171.439 52.2408C171.131 51.6182 170.62 51.0784 170.123 50.5912C169.48 49.9313 168.783 49.3286 168.131 48.6854C167.725 48.2727 167.347 47.8099 167.041 47.2997C166.932 47.1033 166.849 46.8998 166.793 46.6893C166.774 46.5674 166.746 46.4622 166.754 46.3332C166.759 46.2472 166.774 46.1445 166.805 46.0515C166.846 45.9418 166.887 45.8321 166.955 45.7153C167.003 45.6319 167.051 45.5485 167.133 45.4844C167.178 45.4439 167.25 45.3965 167.296 45.3561C167.358 45.3253 167.411 45.3112 167.473 45.2804C167.568 45.2689 167.647 45.2477 167.733 45.2529C167.905 45.2632 168.068 45.2902 168.22 45.3339C168.592 45.4598 168.962 45.6287 169.312 45.8309C169.729 46.0717 170.124 46.3888 170.503 46.6963C170.684 46.8452 170.865 46.9942 171.019 47.1501C171.184 47.2894 171.341 47.4024 171.479 47.5488C171.626 47.6784 171.841 47.6913 172.035 47.6253C172.332 47.5741 172.581 47.2957 172.54 46.9825C172.484 46.6167 172.395 46.2317 172.296 45.8633C172.165 45.3204 172.05 44.7871 171.928 44.2275C171.687 43.0654 171.475 41.8532 171.478 40.6539C171.492 40.2836 171.522 39.923 171.622 39.5579C171.656 39.4219 171.716 39.2788 171.793 39.1454C171.832 39.0786 171.861 39.0286 171.916 38.9715C171.945 38.9215 171.997 38.9074 172.043 38.8669C172.105 38.8362 172.194 38.7983 172.273 38.7772C172.325 38.7631 172.368 38.7657 172.421 38.7516C172.438 38.7612 172.481 38.7638 172.507 38.7567C172.54 38.776 172.574 38.7952 172.59 38.8049C172.64 38.8338 172.69 38.8627 172.738 38.9345C172.835 39.0353 172.914 39.1695 172.985 39.2773C173.186 39.6604 173.325 40.0744 173.455 40.505C173.851 42.0907 173.942 43.7444 174.059 45.391C174.065 45.5726 174.187 45.7093 174.32 45.7863C174.384 45.8678 174.475 45.9423 174.604 45.95C174.792 45.97 174.989 45.861 175.068 45.6845C175.162 45.5607 175.222 45.4176 175.206 45.2527C175.19 45.0878 175.201 44.9158 175.185 44.7509C175.321 43.6287 175.56 42.5212 175.876 41.4356C176.07 40.7914 176.3 40.1234 176.637 39.5396C176.752 39.3394 176.901 39.1585 177.057 39.0039C177.139 38.9398 177.194 38.8827 177.292 38.8282C177.328 38.8045 177.381 38.7904 177.416 38.7666C177.416 38.7666 177.459 38.7692 177.486 38.7622C177.502 38.7718 177.545 38.7744 177.588 38.777C177.605 38.7866 177.622 38.7962 177.655 38.8155C177.672 38.8251 177.705 38.8444 177.722 38.854C177.755 38.8733 177.786 38.9355 177.81 38.9715C177.871 39.096 177.916 39.2108 177.951 39.3424C178.055 39.7801 178.079 40.2389 178.07 40.6784C178.034 41.7032 177.913 42.7228 177.748 43.7398C177.669 44.1838 177.601 44.6112 177.522 45.0552C177.471 45.3369 177.419 45.6186 177.351 45.8906C177.315 46.0696 177.378 46.3064 177.49 46.4598C177.601 46.6132 177.785 46.7192 177.973 46.7391C178.179 46.7687 178.363 46.7193 178.543 46.6007C178.706 46.4724 178.776 46.3126 178.822 46.1169C178.841 46.0836 178.844 46.0406 178.856 45.9809C179.038 45.3964 179.203 44.8023 179.351 44.1985C179.39 44.1318 179.438 44.0483 179.477 43.9816L179.467 43.9983C179.477 43.9816 179.486 43.9649 179.496 43.9483C179.496 43.9483 179.496 43.9483 179.505 43.9316C179.965 43.1739 180.508 42.4644 181.142 41.8293C181.454 41.5201 181.789 41.2469 182.166 41.0192C182.29 40.9576 182.388 40.9031 182.52 40.8679C182.572 40.8538 182.615 40.8563 182.668 40.8422L182.701 40.8615C182.701 40.8615 182.701 40.8615 182.718 40.8711C182.735 40.8808 182.751 40.8904 182.758 40.9167C182.789 40.979 182.803 41.0316 182.817 41.0842C182.857 41.2851 182.871 41.493 182.867 41.6913C182.84 42.4318 182.701 43.1741 182.485 43.8947C182.126 45.133 181.538 46.3058 180.876 47.4138C179.995 48.8625 178.954 50.2411 177.735 51.4278C177.735 51.4278 177.735 51.4278 177.745 51.4112C177.716 51.4612 177.644 51.5087 177.615 51.5587C177.469 51.6966 177.38 51.8897 177.393 52.0976C177.62 55.9427 177.925 59.7666 178.29 63.6027C178.655 67.4388 179.09 71.2705 179.56 75.0784C180.482 82.7276 181.525 90.3582 182.447 98.0074C182.652 99.6161 182.841 101.215 183.03 102.814C183.129 103.606 183.219 104.414 183.335 105.214C183.339 105.284 183.36 105.363 183.355 105.449C180.982 102.855 178.3 100.529 175.56 98.3016C175.141 94.7902 174.765 91.2813 174.425 87.7487L174.443 87.8707ZM127.465 52.2074C127.739 51.8097 128.064 51.4408 128.428 51.1175C128.946 50.6826 129.512 50.3196 130.125 50.0285C131.118 49.579 132.18 49.2803 133.254 49.0772C134.44 48.8722 135.618 48.7963 136.81 48.7729C138.088 48.7547 139.354 48.7962 140.615 48.9236C142.031 49.0518 143.442 49.2659 144.844 49.4967C145.493 49.6047 146.142 49.7128 146.782 49.8374C147.004 49.8767 147.226 49.9159 147.431 49.9455C147.376 50.0025 147.321 50.0596 147.249 50.1071C146.513 50.7274 145.672 51.2206 144.801 51.6515C143.204 52.3754 141.517 52.8696 139.781 53.1797C137.314 53.6011 134.805 53.7094 132.324 53.5C131.397 53.4099 130.49 53.2864 129.578 53.0936C129.144 52.9985 128.726 52.913 128.311 52.7846C127.962 52.6946 127.633 52.5713 127.295 52.4647C127.343 52.3813 127.391 52.2979 127.439 52.2145L127.465 52.2074ZM148.603 260.599C148.617 261.653 148.658 262.699 148.682 263.736C148.747 265.82 148.828 267.913 148.91 270.006C149.056 274.183 149.236 278.379 149.365 282.546C149.451 285.287 149.527 288.044 149.56 290.799C149.559 291.11 149.9 291.328 150.186 291.294C150.186 291.294 150.213 291.287 150.239 291.28C150.306 291.318 150.363 291.374 150.446 291.422C150.644 291.58 150.851 291.722 151.049 291.881C151.37 292.133 151.699 292.412 152.001 292.697C152.391 293.1 152.742 293.57 153.041 294.054C153.337 294.581 153.562 295.155 153.717 295.734C153.989 296.803 154.077 297.922 154.063 299.026C154.032 300.12 153.915 301.208 153.619 302.261C153.437 302.845 153.202 303.444 152.877 303.968C152.695 304.285 152.452 304.59 152.195 304.842C151.994 305.037 151.768 305.196 151.526 305.345C151.277 305.468 151.012 305.582 150.748 305.652C150.442 305.72 150.129 305.762 149.802 305.751C149.432 305.737 149.081 305.69 148.732 305.6C148.487 305.525 148.243 305.407 148 305.289C147.8 305.173 147.629 305.008 147.448 304.859C147.246 304.631 147.053 304.386 146.897 304.118C146.665 303.673 146.495 303.197 146.351 302.713C146.112 301.664 146.038 300.598 146.06 299.52C146.128 297.091 146.566 294.675 147.148 292.32C147.167 292.286 147.16 292.26 147.163 292.217C147.201 292.15 147.24 292.084 147.235 292.014C147.305 289.697 147.074 287.362 146.781 285.058C146.478 282.77 146.08 280.494 145.655 278.225C144.789 273.677 143.756 269.188 142.932 264.642C142.496 262.278 142.139 259.892 141.868 257.511C142.956 257.628 144.055 257.729 145.163 257.812C146.314 257.899 147.468 257.942 148.622 257.985C148.611 258.313 148.6 258.64 148.598 258.95C148.591 259.502 148.594 260.038 148.613 260.582L148.603 260.599ZM151.106 255.994C148.327 255.992 145.547 255.877 142.801 255.625C139.505 255.324 136.265 254.81 133.063 253.962C129.787 253.049 126.624 251.824 123.662 250.136C121.537 248.887 119.579 247.423 117.809 245.712C116.451 244.327 115.23 242.821 114.225 241.173C112.894 238.893 111.964 236.421 111.244 233.892C108.922 225.279 109.075 216.27 108.371 207.435C108.18 205.145 107.93 202.843 107.654 200.548C107.364 198.046 107.048 195.55 106.732 193.055C106.059 187.863 105.354 182.651 104.725 177.462C103.549 167.864 102.644 158.223 102.62 148.556C102.633 140.135 103.323 131.659 105.462 123.486C105.812 122.264 106.211 121.071 106.713 119.893C107.208 118.689 107.813 117.526 108.451 116.382C111.047 111.964 114.461 108.131 117.782 104.266C119.435 102.328 121.063 100.355 122.551 98.2782C124.02 96.2349 125.308 94.0427 126.326 91.7394C127.362 89.4457 128.034 87.0094 128.502 84.5436C128.984 81.9751 129.191 79.3814 129.279 76.7634C129.446 71.3887 128.993 66.0112 128.381 60.676C128.31 59.9901 128.213 59.3111 128.132 58.6418C128.275 58.7022 128.418 58.7625 128.571 58.8062C129.155 58.988 129.769 59.1197 130.365 59.2419C131.568 59.4694 132.77 59.5846 133.986 59.5972C135.218 59.6194 136.456 59.5557 137.663 59.4296C138.844 59.3107 140.013 59.0961 141.152 58.8192C141.388 58.7558 141.557 58.5415 141.503 58.288C141.468 58.1565 141.396 58.0486 141.28 57.9812C141.196 57.9331 141.077 57.9087 140.972 57.9369C139.886 58.1996 138.788 58.3667 137.68 58.4382C137.637 58.4357 137.594 58.4331 137.558 58.4568C137.574 58.4664 137.627 58.4523 137.653 58.4453C135.505 58.5839 133.351 58.3855 131.226 57.9819C130.603 57.8668 129.983 57.7088 129.362 57.5507C128.878 57.4267 128.403 57.286 127.928 57.1453C127.802 56.0936 127.658 55.0322 127.522 53.9971C127.791 54.1082 128.044 54.2097 128.314 54.3208C129.065 54.5989 129.821 54.791 130.597 54.9497C132.268 55.2916 133.988 55.3948 135.682 55.3498C137.445 55.3003 139.209 55.0956 140.941 54.7162C142.567 54.3651 144.16 53.8394 145.661 53.127C146.523 52.7128 147.357 52.1933 148.11 51.5826C148.126 51.7475 148.125 51.9028 148.141 52.0677C148.186 52.6055 148.258 53.1362 148.313 53.6572C148.366 54.066 148.403 54.4652 148.456 54.8739C147.349 55.4806 146.188 55.9891 145.006 56.4186C144.954 56.4327 144.891 56.4635 144.839 56.4776C144.724 56.5225 144.609 56.5674 144.487 56.586C144.32 56.6449 144.178 56.6969 144.082 56.8637C144.005 56.9971 143.952 57.1665 143.994 57.3244C144.052 57.6472 144.39 57.9091 144.733 57.8174C145.627 57.5777 146.51 57.2424 147.346 56.8352C147.782 56.6197 148.201 56.3946 148.62 56.1695C148.652 56.4994 148.7 56.8388 148.723 57.1854C148.973 59.4872 149.197 61.796 149.49 64.1004C150.062 68.6566 150.892 73.2282 152.629 77.5005C154.487 82.0647 157.666 85.8799 161.156 89.2736C164.891 92.8978 169.115 95.9818 173.184 99.2204C175.598 101.126 177.964 103.114 180.181 105.284C181.32 106.431 182.43 107.628 183.443 108.88C184.552 110.232 185.544 111.672 186.438 113.167C188.643 116.976 190.233 121.118 191.411 125.357C193.836 134.408 194.487 143.836 194.703 153.169C194.819 157.861 194.805 162.546 194.834 167.234C194.839 169.46 194.86 171.697 194.898 173.943C194.944 176.482 195.042 179.008 195.141 181.534C195.424 188.748 195.77 195.931 196.139 203.15C196.328 206.751 196.518 210.352 196.707 213.954C196.895 217.287 197.11 220.614 197.126 223.937C197.105 227.017 196.86 230.1 196.084 233.099C195.579 234.899 194.872 236.625 193.971 238.262C192.847 240.171 191.475 241.892 189.922 243.464C187.885 245.491 185.572 247.225 183.119 248.7C179.471 250.819 175.529 252.369 171.465 253.514C164.825 255.308 157.962 256.061 151.091 256.097L151.106 255.994ZM176.653 301.348C176.481 301.493 176.298 301.655 176.102 301.764C175.879 301.88 175.666 301.979 175.43 302.043C175.15 302.103 174.889 302.131 174.622 302.132C174.208 302.116 173.824 302.05 173.416 301.948C173.077 301.841 172.758 301.701 172.457 301.528C172.207 301.383 172.003 301.198 171.798 301.013C171.562 300.766 171.363 300.495 171.19 300.217C170.965 299.798 170.792 299.365 170.672 298.918C170.428 297.954 170.366 296.984 170.365 295.983C170.375 295.966 170.361 295.913 170.37 295.897C170.361 295.913 170.368 295.94 170.375 295.966C170.439 293.312 171.043 290.725 171.568 288.159C171.615 287.963 171.532 287.76 171.394 287.614C171.401 286.639 171.381 285.671 171.345 284.694C171.318 283.7 171.282 282.723 171.229 281.736C171.14 279.771 171.044 277.781 170.954 275.817C170.769 271.862 170.6 267.917 170.458 263.965C170.364 261.353 170.304 258.76 170.263 256.135C170.622 256.053 170.981 255.971 171.339 255.889C172.951 255.485 174.559 255.012 176.136 254.477C176.066 255.059 176.004 255.668 175.951 256.26C175.858 257.23 175.782 258.209 175.706 259.188C175.554 261.147 175.412 263.088 175.243 265.037C174.932 268.928 174.594 272.825 174.274 276.732C173.983 280.279 173.709 283.835 173.392 287.388C173.286 287.572 173.307 287.806 173.445 287.952C173.499 288.051 173.597 288.151 173.707 288.192C174.035 288.471 174.363 288.75 174.709 289.038C175.094 289.372 175.47 289.722 175.836 290.089C176.307 290.584 176.742 291.102 177.095 291.684C177.399 292.237 177.614 292.828 177.766 293.45C178.022 294.509 178.156 295.587 178.151 296.674C178.139 297.58 178.026 298.47 177.792 299.337C177.661 299.795 177.471 300.241 177.23 300.658C177.066 300.941 176.862 301.179 176.641 301.408L176.653 301.348ZM95.0913 211.444C94.8488 211.171 94.6063 210.897 94.3998 210.6C94.1555 210.214 93.9663 209.772 93.8201 209.331C93.6246 208.707 93.5247 208.071 93.4081 207.425C93.2801 206.684 93.1519 205.943 93.0765 205.188C92.9166 203.539 92.912 201.89 92.6828 200.245C92.5836 199.454 92.3958 198.701 92.122 197.942C91.8457 197.227 91.4545 196.556 91.044 195.919C90.2776 194.742 89.3385 193.711 88.5624 192.551C88.2469 192.057 87.9673 191.54 87.7403 191.009C87.5062 190.451 87.2915 189.86 87.11 189.288C86.1555 186.357 85.579 183.311 85.0024 180.265C84.4118 177.166 83.7782 174.064 82.7499 171.069C82.705 170.954 82.5908 170.843 82.467 170.75C82.4195 170.678 82.3624 170.622 82.3053 170.567C82.3053 170.567 82.272 170.548 82.2553 170.538C82.1218 170.461 81.9929 170.454 81.8279 170.47C81.3165 170.508 80.8166 170.642 80.3237 170.802C79.8142 170.953 79.3021 171.146 78.8162 171.333C77.8253 171.739 76.8582 172.182 75.8673 172.588C75.6902 172.664 75.5772 172.821 75.5405 173C75.5405 173 75.5213 173.034 75.5116 173.05C75.4609 173.177 75.4795 173.299 75.5314 173.44C76.395 175.873 77.3638 178.279 78.3519 180.651C79.3303 183.039 80.3184 185.411 81.1127 187.849C81.3672 188.641 81.605 189.424 81.8235 190.239C82.0658 191.091 82.2292 191.964 82.4978 192.808C82.7664 193.653 83.1068 194.45 83.507 195.259C83.8693 195.98 84.2843 196.686 84.7088 197.376C85.565 198.783 86.4572 200.165 87.1792 201.649C87.8538 203.062 88.3417 204.567 88.9014 206.024C89.1495 206.635 89.3977 207.245 89.6721 207.848C89.9799 208.471 90.3237 209.07 90.713 209.628C91.5462 210.843 92.6765 211.851 93.9609 212.593C94.1277 212.689 94.2971 212.743 94.498 212.703C94.6725 212.67 94.8426 212.568 94.9459 212.428C95.0037 212.328 95.0615 212.228 95.0693 212.099C95.2445 211.911 95.2696 211.636 95.1009 211.427L95.0913 211.444ZM91.9576 208.59C91.2719 207.504 90.7924 206.293 90.3558 205.085C89.8153 203.594 89.3275 202.089 88.6195 200.657C87.8878 199.189 86.9597 197.831 86.0939 196.441C85.6693 195.751 85.2544 195.045 84.8754 194.314C84.4964 193.584 84.1629 192.813 83.9084 192.021C83.7834 191.66 83.6944 191.275 83.5957 190.907C83.4732 190.502 83.3675 190.108 83.2284 189.694C82.9764 188.859 82.6719 188.038 82.3674 187.217C81.7724 185.628 81.1152 184.07 80.4316 182.519C79.1332 179.567 77.7724 176.646 76.6511 173.619C77.8814 173.106 79.1116 172.593 80.3798 172.169C80.7314 172.061 81.0831 171.952 81.4418 171.87C81.463 171.949 81.5008 172.038 81.522 172.117C82.606 175.478 83.2068 178.983 83.8698 182.458C84.2061 184.186 84.5758 185.934 85.0341 187.645C85.2667 188.513 85.5257 189.374 85.8373 190.221C86.1085 191.023 86.4226 191.827 86.8183 192.567C87.6809 194.155 88.9651 195.474 89.9714 196.967C90.3652 197.595 90.7064 198.237 90.9494 198.933C91.3122 200.077 91.4215 201.274 91.5142 202.462C91.6376 203.712 91.7277 204.943 91.9468 206.181C92.0518 206.731 92.1736 207.291 92.2883 207.824C92.3959 208.331 92.5202 208.848 92.6709 209.357C92.692 209.436 92.7298 209.525 92.7606 209.587C92.4778 209.268 92.2141 208.916 91.9768 208.556L91.9576 208.59ZM89.6658 131.469C89.8823 130.593 90.0655 129.698 90.146 128.788C90.2188 128.007 90.1792 127.228 90.0871 126.463C89.9923 125.742 89.802 125.031 89.5853 124.328C89.1731 123 88.5408 121.745 87.9419 120.51C87.3263 119.265 86.7203 118.003 86.2914 116.666C86.2395 116.524 86.2139 116.376 86.1619 116.235C85.746 114.683 85.6721 113.039 85.5956 111.438C85.5409 109.76 85.5723 108.088 85.465 106.425C85.421 105.576 85.3244 104.742 85.2014 103.915C85.0477 103.026 84.8414 102.15 84.5824 101.289C84.0266 99.478 83.356 97.7119 82.6328 95.9599C82.0961 94.6936 81.5594 93.4274 80.9964 92.1683C81.0401 92.0155 81.0311 91.8769 80.9792 91.7357C80.9176 91.6112 80.8298 91.4938 80.6963 91.4167C80.5629 91.3397 80.4435 91.3153 80.2953 91.3409C79.719 91.453 79.1613 91.687 78.6132 91.9044C78.0652 92.1218 77.5505 92.3584 77.0191 92.5854C75.9204 93.0631 74.812 93.5574 73.6896 93.9992C73.4958 94.0652 73.3565 94.2295 73.2935 94.4155C73.2287 94.4893 73.1638 94.5631 73.1324 94.6561C73.0431 94.8492 73.0565 95.0571 73.1392 95.2606C73.5258 96.4401 74.0272 97.5748 74.5094 98.7428C74.9845 99.8845 75.4596 101.026 75.9251 102.185C76.8253 104.439 77.6633 106.724 78.3074 109.076C78.526 109.891 78.7182 110.714 78.8675 111.534C79.0405 112.39 79.1345 113.268 79.2812 114.131C79.5374 115.613 79.9944 117.056 80.619 118.439C81.2295 119.77 81.974 121.023 82.745 122.269C83.4517 123.433 84.2111 124.583 84.9082 125.764C85.4014 126.605 85.8683 127.453 86.2633 128.348C86.6371 129.165 86.932 130.002 87.191 130.863C87.4519 131.837 87.6242 132.848 87.6842 133.861C87.7072 134.053 87.8188 134.206 87.976 134.319C88.0516 134.496 88.1992 134.626 88.4045 134.655C88.5502 134.673 88.708 134.63 88.8255 134.543C88.9429 134.455 88.9937 134.328 89.0374 134.176C89.2372 133.29 89.4634 132.398 89.6799 131.522L89.6658 131.469ZM87.8841 128.661C87.3436 127.17 86.6094 125.746 85.8558 124.354C85.0927 122.979 84.2672 121.636 83.5304 120.254C82.7935 118.872 82.1382 117.426 81.6767 115.914C81.6414 115.782 81.6062 115.651 81.5709 115.519C81.4043 114.845 81.264 114.163 81.1763 113.468C81.1257 113.016 81.0681 112.538 81.0176 112.086C80.9504 111.625 80.8665 111.154 80.7825 110.683C80.4232 108.763 79.9059 106.885 79.2668 105.026C78.6417 103.219 77.9018 101.458 77.0996 99.7267C76.695 98.8481 76.2807 97.9862 75.8498 97.1146C75.5112 96.4299 75.163 95.7617 74.7884 95.1007C75.6811 94.7487 76.5809 94.423 77.4902 94.0806C78.0287 93.88 78.5601 93.653 79.1011 93.4093C79.3764 93.2791 79.6684 93.1586 79.9367 93.0021C79.9367 93.0021 79.9367 93.0021 79.9463 92.9854C80.5683 94.4121 81.1903 95.8388 81.7763 97.2892C82.4451 98.943 83.0682 100.637 83.5599 102.367C83.9899 103.972 84.1498 105.621 84.2308 107.291C84.3117 108.962 84.2804 110.634 84.3517 112.321C84.3957 113.169 84.4564 114.027 84.5864 114.881C84.6882 115.629 84.8689 116.356 85.0759 117.076C85.4881 118.404 86.1108 119.675 86.7264 120.92C87.4581 122.388 88.1802 123.872 88.6295 125.444C88.8384 126.276 88.9684 127.13 88.9861 127.985C88.9957 127.969 88.9887 127.942 88.9912 127.899C88.9816 127.916 88.9957 127.969 88.9861 127.985C88.9861 127.985 88.9835 128.028 88.9906 128.055C88.9906 128.055 88.9931 128.012 88.9861 127.985C88.9794 128.96 88.7936 129.898 88.5815 130.843C88.5719 130.86 88.5623 130.877 88.5597 130.919C88.3816 130.149 88.1604 129.377 87.8867 128.618L87.8841 128.661ZM200.896 51.2992C200.834 52.331 200.781 53.3462 200.719 54.378C200.603 56.4679 200.486 58.5578 200.455 60.6529C200.443 62.7147 200.491 64.7886 200.757 66.8325C200.901 67.8938 201.123 68.9341 201.276 69.9788C201.45 71.1025 201.572 72.2402 201.693 73.3779C201.906 75.4359 202.031 77.5317 202.148 79.6012C202.148 79.6012 202.151 79.5582 202.134 79.5485C202.311 82.7865 202.487 86.0245 202.898 89.2421C202.93 89.5719 203.297 89.7838 203.603 89.7159C203.603 89.7159 203.613 89.6992 203.639 89.6921C203.673 89.7114 203.689 89.721 203.723 89.7403C203.942 89.8225 204.215 89.7353 204.347 89.5448C204.631 89.1303 204.798 88.6485 204.998 88.1859C205.199 87.7233 205.389 87.2774 205.573 86.8052C205.976 85.837 206.353 84.8759 206.697 83.8955C207.394 81.918 207.964 79.8899 208.296 77.8128C208.47 76.7791 208.532 75.7473 208.561 74.6962C208.58 73.6619 208.503 72.639 208.41 71.6065C208.218 69.6275 207.878 67.6741 207.755 65.6906C207.715 65.0668 207.727 64.429 207.74 63.7912C207.76 63.0244 207.833 62.2435 207.896 61.4792C208.029 59.9771 208.232 58.4705 208.434 56.9639C208.868 53.9006 209.345 50.8399 209.522 47.7612C209.542 47.4172 209.362 47.113 209.095 46.9589C208.995 46.9011 208.869 46.8504 208.74 46.8427C208.551 46.8227 208.384 46.8817 208.223 46.967C208.173 46.9381 208.097 46.9162 208.027 46.9207C206.04 46.8187 204.079 47.2878 202.124 47.5156C202.09 47.4963 202.047 47.4937 202.004 47.4912C201.515 47.4531 201.078 47.8239 201.04 48.3135C200.981 49.3023 200.938 50.3008 200.889 51.2729L200.896 51.2992ZM207.338 48.3463C207.493 48.347 207.632 48.3381 207.787 48.3388C207.48 52.4538 206.718 56.5071 206.318 60.5906C206.211 61.6629 206.129 62.728 206.091 63.7958C206.056 64.8205 206.123 65.8601 206.216 66.8926C206.415 68.8979 206.788 70.8706 206.971 72.8663C206.991 73.1005 207.002 73.3514 207.022 73.5856C207.116 75.6192 206.909 77.6346 206.496 79.6205C206.15 81.2221 205.658 82.8062 205.125 84.3448C204.854 85.1224 204.574 85.9168 204.276 86.7014C204.172 86.9972 204.051 87.2834 203.947 87.5792C203.805 86.2072 203.723 84.8474 203.65 83.471C203.641 83.4877 203.664 83.5236 203.645 83.557C203.475 80.3453 203.428 77.115 203.232 73.9104C203.132 72.2734 202.988 70.6339 202.776 68.9988C202.674 68.2506 202.556 67.4927 202.48 66.7374C202.416 66.0777 202.369 65.4277 202.331 64.761C202.2 62.0607 202.319 59.3496 202.482 56.6411C202.565 55.2654 202.664 53.8992 202.72 52.5306C202.776 51.3171 202.841 50.0871 202.837 48.8614C204.34 48.6842 205.823 48.428 207.347 48.3296L207.338 48.3463ZM215.825 136.694C215.706 137.516 215.614 138.33 215.522 139.144C215.394 140.138 215.248 141.121 215.103 142.105C214.793 144.106 214.45 146.087 214.226 148.093C214.002 150.099 213.916 152.096 214.158 154.103C214.382 155.989 214.945 157.827 215.359 159.69C215.61 160.835 215.817 161.978 215.893 163.156C215.95 164.368 215.835 165.569 215.736 166.78C215.618 168.024 215.491 169.285 215.38 170.555C215.151 173.07 215.068 175.602 215.401 178.107C215.45 178.447 215.824 178.685 216.156 178.61C216.235 178.589 216.298 178.558 216.36 178.527C216.62 178.655 216.938 178.527 217.059 178.241C217.433 177.323 217.867 176.417 218.285 175.502C218.702 174.586 219.112 173.644 219.513 172.719C220.298 170.859 220.999 168.951 221.548 166.999C222.075 165.124 222.449 163.205 222.505 161.258C222.563 159.423 222.39 157.566 222.267 155.738C222.259 155.444 222.224 155.157 222.216 154.863C222.168 153.79 222.147 152.71 222.201 151.652C222.261 150.508 222.467 149.381 222.69 148.264C223.126 146.314 223.682 144.389 224.084 142.42C224.282 141.422 224.428 140.438 224.497 139.433C224.573 138.298 224.521 137.156 224.373 136.025C224.336 135.781 224.184 135.582 223.984 135.467C223.884 135.409 223.774 135.368 223.662 135.37C223.562 135.312 223.435 135.261 223.307 135.254C222.442 135.133 221.568 135.184 220.703 135.218C219.838 135.253 218.97 135.33 218.095 135.381C217.524 135.407 216.936 135.424 216.351 135.397C215.955 135.391 215.602 135.654 215.569 136.058C215.547 136.289 215.653 136.529 215.834 136.678L215.825 136.694ZM219.694 136.927C220.272 136.927 220.85 136.927 221.428 136.927C221.894 136.929 222.334 136.938 222.8 136.94C222.813 137.148 222.853 137.349 222.85 137.548C222.944 139.426 222.668 141.29 222.289 143.14C221.694 145.866 220.894 148.562 220.726 151.357C220.568 154.134 221.074 156.918 221.236 159.68C221.289 160.667 221.283 161.642 221.223 162.63C221.152 163.679 220.968 164.729 220.751 165.76L220.726 165.88C220.726 165.88 220.745 165.846 220.738 165.82C220.299 167.813 219.681 169.769 218.947 171.658C218.251 173.48 217.452 175.288 216.562 177.021C216.549 176.813 216.509 176.612 216.496 176.404C216.4 174.413 216.554 172.412 216.759 170.44C216.871 169.437 216.983 168.434 217.095 167.431C217.209 166.385 217.341 165.349 217.396 164.291C217.476 162.38 217.2 160.508 216.828 158.647C216.461 156.856 216.084 155.082 215.961 153.254C215.835 150.468 216.287 147.681 216.736 144.938C216.97 143.494 217.22 142.059 217.401 140.629C217.495 139.927 217.572 139.215 217.606 138.501C217.637 137.985 217.644 137.434 217.606 136.922C218.303 136.947 218.994 136.945 219.684 136.943L219.694 136.927ZM220.743 165.734C220.734 165.751 220.724 165.768 220.731 165.794C220.741 165.777 220.751 165.76 220.76 165.744L220.743 165.734Z" fill="#161616"/>
<path d="M159.57 158.55C158.819 158.117 158.051 157.829 157.256 157.704C156.769 157.623 156.21 157.589 155.527 157.617C155.068 157.641 154.573 157.689 153.97 157.808C152.225 158.135 150.443 159.064 148.865 160.488C148.181 161.094 147.559 161.825 146.939 162.668C146.365 163.47 145.864 164.338 145.437 165.27C144.605 167.058 144.075 168.976 143.878 170.975C143.815 171.584 143.786 172.212 143.803 172.8C143.783 172.833 143.79 172.86 143.788 172.903C143.767 173.247 143.789 173.593 143.814 173.897C143.841 174.313 143.88 174.669 143.903 175.015C143.947 175.285 143.974 175.546 144.019 175.816C144.042 176.43 144.073 176.915 144.148 177.403C144.159 177.499 144.197 177.587 144.254 177.642C144.271 177.652 144.287 177.662 144.321 177.681C144.354 177.7 144.371 177.71 144.404 177.729C144.711 179.085 145.19 180.451 145.793 181.756C146.494 183.317 147.281 184.572 148.161 185.592C148.612 186.119 149.138 186.556 149.76 186.982C149.877 187.049 149.993 187.117 150.11 187.184C150.527 187.425 151.007 187.635 151.581 187.833C152.14 188.022 152.763 188.137 153.537 188.184C154.138 188.22 154.786 188.216 155.448 188.109C156.753 187.928 158.067 187.463 159.334 186.771C160.637 186.056 161.819 185.048 162.744 183.869C163.753 182.584 164.517 181.068 165.043 179.348C165.259 178.627 165.389 177.901 165.5 177.209C165.635 176.397 165.731 175.652 165.818 174.924C165.906 174.04 165.94 173.326 165.922 172.626C165.912 172.065 165.8 171.488 165.669 170.946L165.589 170.544L165.575 170.491C165.519 170.125 165.471 169.786 165.455 169.466C165.456 169.31 165.361 169.167 165.211 169.08C165.174 168.836 165.144 168.619 165.14 168.394C165.102 167.727 165.005 167.048 164.867 166.324C164.751 165.678 164.548 165.028 164.31 164.401C164.085 163.826 163.801 163.24 163.417 162.595C163.097 162.032 162.715 161.5 162.289 160.966C161.831 160.412 161.36 159.917 160.834 159.48C160.432 159.137 160.001 158.843 159.567 158.593L159.57 158.55ZM151.722 166.519C152.09 165.997 152.495 165.564 152.915 165.184C153.224 164.917 153.574 164.697 153.895 164.526C154.17 164.396 154.443 164.309 154.723 164.248C154.941 164.218 155.175 164.197 155.406 164.22C155.612 164.25 155.834 164.289 156.053 164.371C156.23 164.451 156.389 164.521 156.556 164.617C156.64 164.665 156.723 164.713 156.79 164.752C157.121 164.987 157.423 165.273 157.713 165.618C158.084 166.055 158.399 166.548 158.669 167.082C159.029 167.846 159.304 168.717 159.489 169.669C159.689 170.785 159.751 171.911 159.675 173.045C159.582 174.015 159.411 174.85 159.14 175.628C158.925 176.193 158.669 176.713 158.366 177.16C158.131 177.492 157.871 177.787 157.562 178.053C157.308 178.262 157.02 178.452 156.735 178.599C156.496 178.705 156.276 178.778 156.049 178.825C155.805 178.862 155.544 178.89 155.269 178.864C154.978 178.83 154.663 178.759 154.367 178.655C154.115 178.553 153.871 178.435 153.638 178.301C153.504 178.223 153.371 178.146 153.221 178.06C152.716 177.702 152.226 177.241 151.791 176.723L151.824 176.742C151.309 176.133 150.881 175.486 150.536 174.775C150.275 174.224 150.099 173.722 150.008 173.224C149.973 172.937 149.938 172.651 149.914 172.347C149.988 172.257 150.029 172.147 150.027 172.035C150.005 171.688 150.009 171.335 150.032 170.948C150.107 170.279 150.26 169.589 150.509 168.888L150.538 168.838C150.848 167.994 151.248 167.224 151.738 166.528L151.722 166.519Z" fill="#DA3927"/>
<path d="M148.903 135.844C148.924 134.344 148.706 132.795 148.195 131.099C147.137 127.463 145.243 124.501 142.729 122.538C142.358 122.257 141.943 121.973 141.51 121.723C141.209 121.55 140.876 121.357 140.53 121.224C139.817 120.879 139.003 120.632 138.158 120.478C137.433 120.348 136.649 120.318 135.722 120.383C134.96 120.432 134.182 120.584 133.41 120.805C132.522 121.071 131.754 121.362 131.096 121.693C130.365 122.072 129.675 122.497 129.042 122.977C127.803 123.929 126.696 125.269 125.857 126.876C125.448 127.663 125.109 128.557 124.813 129.609C124.558 130.552 124.36 131.549 124.236 132.612C124.082 133.88 124.059 135.268 124.128 136.843C123.896 136.975 123.761 137.209 123.746 137.467C123.69 138.257 123.703 139.044 123.807 139.904C123.878 140.59 124.032 141.324 124.27 142.106C124.715 143.609 125.449 145.034 126.452 146.302C127.245 147.316 128.221 148.168 129.322 148.804C129.522 148.92 129.722 149.035 129.932 149.134C130.518 149.428 131.186 149.658 131.909 149.831C132.725 150.035 133.497 150.125 134.256 150.119C135.75 150.113 137.311 149.836 138.996 149.229C140.309 148.765 141.629 148.059 142.902 147.125C144.047 146.297 145.094 145.255 146.012 144.05C146.891 142.912 147.609 141.592 148.088 140.222C148.577 138.837 148.849 137.325 148.877 135.852L148.903 135.844ZM178.693 141.145C179.182 139.759 179.454 138.248 179.482 136.774C179.503 135.274 179.285 133.724 178.774 132.028C177.715 128.392 175.822 125.431 173.308 123.468C172.936 123.187 172.522 122.903 172.088 122.652C171.788 122.479 171.454 122.286 171.108 122.154C170.396 121.809 169.582 121.561 168.737 121.407C168.011 121.277 167.228 121.247 166.301 121.313C165.538 121.362 164.761 121.514 163.988 121.735C163.101 122.001 162.333 122.291 161.674 122.623C160.944 123.002 160.254 123.426 159.621 123.906C158.382 124.859 157.274 126.199 156.436 127.805C156.026 128.592 155.688 129.486 155.392 130.539C155.136 131.481 154.938 132.479 154.814 133.541C154.661 134.809 154.638 136.197 154.707 137.772C154.475 137.905 154.34 138.138 154.324 138.396C154.268 139.187 154.282 139.973 154.385 140.833C154.456 141.519 154.611 142.254 154.848 143.036C155.293 144.538 156.028 145.963 157.03 147.231C157.824 148.245 158.799 149.098 159.9 149.733C160.1 149.849 160.301 149.965 160.51 150.063C161.097 150.358 161.765 150.587 162.488 150.76C163.304 150.965 164.075 151.054 164.835 151.048C166.328 151.043 167.89 150.765 169.574 150.159C170.888 149.694 172.207 148.988 173.48 148.055C174.626 147.226 175.672 146.184 176.59 144.979C177.47 143.841 178.187 142.521 178.667 141.152L178.693 141.145Z" fill="#FEFEFE"/>
<path d="M148.737 139.908C149.377 137.875 149.446 135.713 149.288 133.598C149.149 131.605 148.403 129.506 147.573 127.67C146.969 126.365 146.215 125.129 145.298 124.022C144.526 123.086 143.607 122.289 142.595 121.616C142.411 121.51 142.228 121.404 142.044 121.298C141.21 120.816 140.318 120.435 139.402 120.173C138.834 120.001 138.238 119.878 137.648 119.783C137.049 119.704 136.447 119.667 135.842 119.674C135.281 119.684 134.71 119.71 134.169 119.798C133.569 119.874 132.99 120.029 132.402 120.201C131.251 120.538 130.167 121.068 129.177 121.742C125.547 124.139 123.617 128.407 123.01 132.616C122.84 133.719 122.8 134.83 122.802 135.943C122.807 137.014 122.924 138.082 123.11 139.146C123.296 140.21 123.595 141.272 123.982 142.296C124.363 143.294 124.841 144.238 125.418 145.127C125.977 146.006 126.655 146.797 127.423 147.508C128.192 148.218 129.071 148.815 130 149.285C130.947 149.765 131.98 150.094 133.037 150.304C134.035 150.502 135.05 150.554 136.037 150.502C137.951 150.383 139.824 149.797 141.503 148.854C143.218 147.886 144.729 146.579 145.969 145.048C146.593 144.275 147.118 143.443 147.592 142.583C148.057 141.739 148.422 140.838 148.71 139.915L148.737 139.908ZM144.331 145.304C143.477 146.167 142.508 146.92 141.461 147.539C140.523 148.087 139.512 148.527 138.467 148.835C137.546 149.082 136.597 149.223 135.629 149.243C135.629 149.243 135.646 149.253 135.663 149.262L135.629 149.243C135.629 149.243 135.534 149.255 135.491 149.252C135.534 149.255 135.56 149.248 135.603 149.25C134.645 149.253 133.704 149.11 132.769 148.882C131.869 148.629 131.001 148.284 130.184 147.812C129.433 147.378 128.74 146.845 128.112 146.238C127.396 145.513 126.788 144.717 126.271 143.84C125.638 142.741 125.166 141.556 124.815 140.353C124.385 138.748 124.173 137.113 124.178 135.448C124.192 133.766 124.415 132.071 124.84 130.448C125.212 129.15 125.719 127.886 126.376 126.709C126.896 125.808 127.533 124.974 128.26 124.216C128.92 123.573 129.644 123.013 130.416 122.524C130.416 122.524 130.406 122.541 130.397 122.558C130.397 122.558 130.406 122.541 130.416 122.524C131.221 122.055 132.08 121.683 132.984 121.427C133.958 121.166 134.976 121.02 135.977 121.02C136.926 121.034 137.876 121.16 138.802 121.405C139.701 121.658 140.576 122.029 141.403 122.485C142.187 122.937 142.914 123.49 143.575 124.117C144.455 124.981 145.189 125.982 145.824 127.039C146.77 128.675 147.467 130.434 147.98 132.242C148.234 133.19 148.435 134.151 148.541 135.124C148.536 135.21 148.547 135.305 148.542 135.391C148.534 136.521 148.388 137.66 148.09 138.755C147.75 139.96 147.284 141.115 146.658 142.199C146.003 143.333 145.198 144.381 144.279 145.318L144.331 145.304ZM141.692 137.664C141.782 137.16 141.849 136.621 141.85 136.042C141.862 135.405 141.836 134.833 141.757 134.276C141.685 133.746 141.564 133.186 141.368 132.562C141.217 132.052 141.021 131.583 140.782 131.111C140.249 130.07 139.572 129.278 138.75 128.737C138.667 128.689 138.566 128.631 138.483 128.583C138.35 128.506 138.199 128.419 138.056 128.359C137.797 128.231 137.491 128.144 137.219 128.076C136.718 127.942 136.195 127.885 135.607 127.901C134.673 127.94 133.694 128.287 132.776 128.914C132.309 129.222 131.923 129.622 131.628 129.941C131.323 130.276 131.015 130.655 130.729 131.112C130.168 131.967 129.748 132.926 129.471 133.945C129.326 134.505 129.209 135.016 129.164 135.479C129.109 135.959 129.104 136.468 129.143 136.98C129.256 138.825 130.256 140.714 131.862 142.131C132.198 142.436 132.579 142.7 132.996 142.941C133.213 143.066 133.43 143.191 133.649 143.273C134.288 143.553 134.952 143.714 135.596 143.753C136.311 143.787 136.992 143.647 137.638 143.375C139.225 142.668 140.595 140.834 141.226 139.241C141.41 138.769 141.572 138.218 141.685 137.638L141.692 137.664ZM158.047 148.397C158.816 149.107 159.695 149.704 160.625 150.174C161.571 150.653 162.604 150.983 163.661 151.193C164.659 151.391 165.674 151.443 166.661 151.39C168.575 151.272 170.449 150.686 172.128 149.742C173.842 148.775 175.353 147.468 176.593 145.937C177.218 145.164 177.742 144.332 178.217 143.472C178.681 142.628 179.046 141.727 179.335 140.804C179.974 138.771 180.044 136.609 179.886 134.494C179.747 132.501 179.001 130.402 178.171 128.566C177.567 127.261 176.813 126.025 175.896 124.917C175.124 123.982 174.205 123.185 173.193 122.512C173.009 122.406 172.826 122.3 172.642 122.194C171.808 121.712 170.916 121.331 170 121.069C169.432 120.897 168.835 120.774 168.246 120.679C167.646 120.599 167.044 120.563 166.44 120.57C165.879 120.58 165.307 120.606 164.767 120.694C164.167 120.77 163.588 120.925 163 121.097C161.849 121.434 160.765 121.964 159.775 122.638C156.145 125.035 154.214 129.303 153.618 133.495C153.448 134.598 153.407 135.709 153.409 136.823C153.414 137.893 153.531 138.961 153.727 140.009C153.914 141.073 154.212 142.135 154.599 143.159C154.98 144.157 155.458 145.1 156.035 145.989C156.595 146.868 157.272 147.66 158.04 148.37L158.047 148.397ZM155.43 141.259C155 139.654 154.787 138.018 154.792 136.353C154.807 134.671 155.029 132.976 155.455 131.353C155.826 130.055 156.333 128.791 156.991 127.614C157.511 126.713 158.148 125.88 158.875 125.121C159.535 124.479 160.259 123.918 161.03 123.43C161.03 123.43 161.021 123.446 161.011 123.463C161.011 123.463 161.021 123.446 161.03 123.43C161.835 122.96 162.695 122.589 163.599 122.333C164.572 122.072 165.591 121.926 166.592 121.926C167.54 121.939 168.49 122.065 169.416 122.311C170.316 122.563 171.191 122.935 172.018 123.39C172.802 123.843 173.528 124.396 174.19 125.022C175.07 125.886 175.803 126.888 176.439 127.944C177.385 129.58 178.082 131.34 178.595 133.148C178.848 134.095 179.05 135.056 179.155 136.029C179.15 136.115 179.162 136.211 179.156 136.297C179.149 137.427 179.003 138.566 178.704 139.661C178.364 140.866 177.898 142.02 177.272 143.105C176.617 144.239 175.812 145.286 174.893 146.224C174.039 147.087 173.07 147.84 172.023 148.459C171.084 149.007 170.074 149.447 169.029 149.755C168.108 150.002 167.159 150.143 166.191 150.163C166.191 150.163 166.208 150.172 166.225 150.182L166.191 150.163C166.191 150.163 166.096 150.174 166.053 150.172C166.096 150.174 166.122 150.167 166.165 150.17C165.207 150.173 164.266 150.03 163.331 149.801C162.431 149.549 161.563 149.203 160.746 148.731C159.995 148.298 159.302 147.765 158.674 147.157C157.958 146.433 157.35 145.637 156.833 144.76C156.2 143.661 155.728 142.476 155.377 141.273L155.43 141.259ZM163.591 143.88C163.808 144.005 164.025 144.13 164.244 144.212C164.883 144.492 165.547 144.653 166.192 144.692C166.906 144.726 167.587 144.586 168.234 144.314C169.821 143.607 171.191 141.773 171.821 140.18C172.005 139.708 172.168 139.157 172.28 138.577C172.371 138.073 172.438 137.533 172.438 136.955C172.45 136.317 172.424 135.746 172.345 135.189C172.274 134.658 172.152 134.099 171.956 133.474C171.806 132.965 171.609 132.496 171.37 132.024C170.837 130.982 170.16 130.191 169.338 129.65C169.255 129.602 169.155 129.544 169.071 129.496C168.938 129.419 168.788 129.332 168.645 129.272C168.385 129.144 168.079 129.056 167.807 128.988C167.306 128.855 166.783 128.797 166.195 128.814C165.261 128.853 164.282 129.2 163.365 129.826C162.897 130.135 162.511 130.534 162.216 130.853C161.911 131.189 161.603 131.567 161.317 132.025C160.757 132.88 160.337 133.838 160.06 134.857C159.914 135.418 159.797 135.929 159.752 136.392C159.697 136.872 159.692 137.381 159.731 137.892C159.844 139.737 160.844 141.627 162.451 143.043C162.786 143.348 163.167 143.613 163.584 143.854L163.591 143.88ZM136.811 110.292C137.03 110.529 137.248 110.767 137.45 110.995C137.579 111.158 137.753 111.28 137.946 111.37C138.249 111.5 138.585 111.494 138.887 111.357C139.179 111.237 139.41 110.991 139.53 110.705L139.618 110.4C139.657 110.178 139.627 109.96 139.544 109.757C139.438 109.362 139.225 109.039 139.004 108.689C138.79 108.365 138.505 108.089 138.22 107.813C137.934 107.537 137.62 107.311 137.269 107.109C137.003 106.955 136.743 106.827 136.473 106.716C135.834 106.436 135.135 106.299 134.45 106.215C133.695 106.135 132.906 106.192 132.182 106.329C131.484 106.46 130.78 106.677 130.134 106.948C129.488 107.22 128.886 107.607 128.342 108.049C127.246 108.907 126.36 110.018 125.817 111.306C125.616 111.769 125.86 112.31 126.306 112.5C126.768 112.701 127.3 112.474 127.5 112.011C127.577 111.878 127.621 111.725 127.698 111.592C127.891 111.258 128.15 110.963 128.409 110.668C128.712 110.375 129.038 110.119 129.387 109.898C130.003 109.564 130.64 109.309 131.307 109.116C131.902 108.97 132.486 108.885 133.1 108.861C133.652 108.868 134.191 108.935 134.719 109.062C135.117 109.181 135.496 109.333 135.856 109.518C136.207 109.721 136.518 109.99 136.821 110.275L136.811 110.292ZM160.952 114.243C161.515 114.346 162.154 114.048 162.386 113.492C162.517 113.19 162.664 112.896 162.837 112.596C162.988 112.372 163.147 112.175 163.349 111.98C163.548 111.828 163.747 111.676 163.962 111.533C164.237 111.403 164.537 111.309 164.836 111.215C165.237 111.135 165.636 111.099 166.05 111.115C166.668 111.161 167.291 111.276 167.902 111.45C168.417 111.637 168.904 111.873 169.371 112.143C169.728 112.371 170.057 112.65 170.349 112.952C170.592 113.226 170.808 113.506 170.995 113.837C171.08 113.997 171.175 114.141 171.352 114.22C171.518 114.317 171.726 114.303 171.894 114.244C172.229 114.126 172.489 113.676 172.311 113.329C171.748 112.225 170.942 111.27 169.942 110.537C168.892 109.775 167.685 109.168 166.38 108.926C165.757 108.81 165.078 108.753 164.445 108.809C164.072 108.839 163.697 108.911 163.345 109.02C163.099 109.1 162.852 109.18 162.613 109.286C162.115 109.532 161.667 109.808 161.273 110.181C161.137 110.302 161.017 110.433 160.904 110.59C160.392 111.207 160.073 111.912 159.872 112.686C159.692 113.382 160.279 114.099 160.945 114.217L160.952 114.243ZM160.274 173.124C160.392 172.458 160.397 171.794 160.402 171.13C160.404 169.663 160.157 168.164 159.6 166.819C159.155 165.739 158.421 164.737 157.421 164.16C157.22 164.044 156.994 163.936 156.775 163.853C156.166 163.636 155.521 163.597 154.871 163.644C154.317 163.68 153.755 163.845 153.247 164.108C152.739 164.371 152.313 164.725 151.926 165.124C150.692 166.414 150.195 168.084 149.875 169.834C149.705 170.781 149.629 171.76 149.675 172.721C149.719 173.569 149.794 174.48 150.128 175.251C150.574 176.287 151.277 177.227 152.194 177.912C152.987 178.503 153.946 178.923 154.944 178.966C155.202 178.981 155.453 178.97 155.687 178.95C155.948 178.922 156.211 178.852 156.474 178.781C156.948 178.654 157.376 178.413 157.765 178.125C158.704 177.422 159.337 176.364 159.748 175.267C160.005 174.592 160.177 173.869 160.307 173.143L160.274 173.124ZM157.42 176.681C157.218 176.876 157 177.061 156.758 177.211C156.526 177.343 156.286 177.45 156.023 177.52C155.786 177.584 155.552 177.604 155.301 177.615C155.017 177.607 154.726 177.572 154.454 177.504C154.148 177.416 153.862 177.296 153.579 177.132C153.228 176.93 152.924 176.687 152.638 176.411C152.288 176.054 151.968 175.646 151.709 175.208C150.531 173.282 150.646 170.924 151.195 168.817C151.373 168.163 151.636 167.514 151.973 166.931C152.175 166.58 152.428 166.259 152.697 165.947C152.908 165.735 153.152 165.543 153.404 165.377C153.646 165.227 153.912 165.114 154.184 165.027C154.5 164.942 154.813 164.901 155.124 164.902C155.408 164.91 155.683 164.935 155.955 165.004C156.184 165.069 156.394 165.168 156.62 165.277C156.82 165.392 157.018 165.551 157.189 165.716C157.441 165.973 157.657 166.254 157.838 166.558C158.134 167.085 158.342 167.649 158.523 168.221C158.819 169.326 158.941 170.464 158.95 171.604C158.955 172.519 158.858 173.419 158.632 174.311C158.489 174.829 158.286 175.335 158.023 175.828C157.85 176.128 157.643 176.409 157.403 176.671L157.42 176.681ZM164.949 180.628C165.432 179.483 165.789 178.288 166.069 177.071C166.349 175.853 166.493 174.602 166.559 173.372C166.61 172.089 166.565 170.818 166.435 169.542C166.285 168.299 166.023 167.058 165.672 165.854C165.013 163.606 163.91 161.434 162.331 159.7C161.577 158.886 160.749 158.163 159.782 157.605L159.748 157.586C159.315 157.335 158.862 157.118 158.389 156.935C157.934 156.76 157.449 156.636 156.946 156.546C156.058 156.389 155.126 156.385 154.229 156.512C153.333 156.64 152.452 156.932 151.61 157.313C149.879 158.115 148.378 159.406 147.134 160.867C144.999 163.371 143.523 166.812 143.205 170.098C143.118 170.981 143.123 171.896 143.131 172.768C143.16 174.298 143.216 175.82 143.462 177.319C143.707 178.705 144.09 180.083 144.624 181.392C145.151 182.675 145.82 183.906 146.668 185.019C147.468 186.059 148.448 186.981 149.59 187.662C150.174 187.999 150.77 188.277 151.404 188.487C152.065 188.691 152.731 188.808 153.419 188.85C154.881 188.937 156.339 188.645 157.708 188.123C158.821 187.698 159.858 187.096 160.774 186.357C162.632 184.872 164.005 182.841 164.93 180.661L164.949 180.628ZM161.081 184.555C160.438 185.207 159.704 185.784 158.916 186.263C158.121 186.716 157.288 187.08 156.41 187.329C155.62 187.541 154.819 187.657 154.007 187.677C153.343 187.672 152.684 187.58 152.02 187.42C151.393 187.235 150.804 186.984 150.244 186.683C149.577 186.298 148.984 185.822 148.446 185.289C147.697 184.545 147.075 183.697 146.541 182.811C145.797 181.558 145.249 180.196 144.858 178.792C144.611 177.871 144.417 176.936 144.319 175.989C144.054 173.79 144.029 171.329 144.359 169.14C144.433 168.627 144.55 168.116 144.683 167.615C145.023 166.41 145.525 165.232 146.151 164.148C146.777 163.063 147.537 162.056 148.41 161.159C149.145 160.427 149.943 159.776 150.82 159.259C151.589 158.813 152.396 158.456 153.247 158.214C153.905 158.037 154.584 157.94 155.258 157.929C155.879 157.932 156.495 158.02 157.072 158.176C157.7 158.36 158.305 158.621 158.899 158.941C159.616 159.355 160.249 159.877 160.837 160.438C161.627 161.228 162.332 162.124 162.913 163.083C163.631 164.343 164.189 165.688 164.58 167.092C165.059 168.881 165.302 170.734 165.32 172.59C165.321 174.437 165.107 176.271 164.645 178.072C164.269 179.456 163.749 180.78 163.037 182.014C162.497 182.949 161.841 183.815 161.078 184.598L161.081 184.555Z" fill="#161616"/>
</g>
<defs>
<clipPath id="clip0_81_354">
<rect width="194.231" height="255.52" fill="white" transform="translate(127.76) rotate(30)"/>
</clipPath>
</defs>
</svg>
