<svg width="33" height="12" viewBox="0 0 33 12" fill="none" xmlns="http://www.w3.org/2000/svg">
<g id="OBJECTS" clip-path="url(#clip0_81_85)">
<path id="Vector" d="M17.3768 0.89787C16.5797 1.24481 15.8025 1.69379 15.125 2.26522C15.0652 2.2244 15.0054 2.18358 14.9456 2.14277C14.6069 1.91828 14.2681 1.7346 13.9094 1.57134C13.5108 1.38767 13.0924 1.26522 12.6739 1.12236C11.9166 0.89787 11.1594 0.836645 10.3822 0.816237C9.64491 0.816237 8.90759 0.918278 8.21012 1.10195C7.39309 1.30603 6.61592 1.59175 5.85867 1.9795C4.44382 2.69379 3.20831 3.7142 2.17208 4.91828C1.13585 6.14277 0.398529 7.61216 0.019906 9.18359C-0.0996592 9.7142 0.338747 10.2448 0.817007 10.3264C1.07607 10.3673 1.33512 10.306 1.55433 10.1428C1.77353 9.9795 1.87317 9.75501 1.93295 9.51012C1.95288 9.40807 1.99273 9.30603 2.01266 9.20399C2.21193 8.59175 2.47099 7.99991 2.78983 7.42848C3.20831 6.75501 3.68657 6.14277 4.24454 5.57134C4.8623 4.9795 5.55976 4.44889 6.29708 4.02032C6.99454 3.63256 7.73186 3.32644 8.50904 3.12236C9.16665 2.95909 9.84418 2.87746 10.5217 2.87746C11.0996 2.89787 11.6576 2.99991 12.2156 3.14277C12.7337 3.30603 13.2319 3.53052 13.7101 3.81624C13.6105 3.95909 13.5108 4.12236 13.4112 4.28562C12.913 5.12236 12.5743 5.99991 12.3551 6.93869C12.1358 7.91828 12.1358 8.9795 12.2355 9.9795C12.2554 10.2448 12.2953 10.4897 12.3351 10.755C12.375 10.9387 12.3949 11.1224 12.4547 11.306C12.4945 11.4081 12.5543 11.4897 12.5942 11.5713C12.6938 11.7346 12.913 11.8979 13.0924 11.9591C13.3514 12.0611 13.4909 12.0611 13.7699 12.0611C14.029 12.0611 14.308 11.9591 14.5471 11.8979C14.8261 11.8162 15.1051 11.6938 15.3641 11.5713C16.1214 11.204 16.779 10.7346 17.3768 10.1224C17.9746 9.51012 18.3931 8.75501 18.5724 7.91828C18.6721 7.51012 18.6522 7.06114 18.5724 6.63256C18.4728 6.04073 18.2337 5.53052 17.9547 5.02032C17.7355 4.63256 17.4366 4.28563 17.1377 3.9795C17.6358 3.7346 18.134 3.55093 18.6721 3.40807C19.4891 3.2244 20.346 3.12236 21.183 3.14277C22.0996 3.18358 22.9964 3.32644 23.8732 3.57134C24.6902 3.83665 25.4873 4.20399 26.2445 4.63256C26.942 5.08154 27.5996 5.61216 28.1974 6.2244C28.8152 6.91828 29.3732 7.67338 29.8315 8.51012C29.8714 8.57134 29.9112 8.65297 29.9511 8.7142C30.1304 8.9591 30.3496 9.14277 30.6286 9.26522C31.0471 9.44889 31.5253 9.4693 31.9438 9.28563C32.8007 8.93869 33.2391 7.89787 32.8804 7.02032C32.0833 4.99991 30.6087 3.24481 28.7953 2.08154C27.9185 1.51011 27.0018 1.06113 26.0054 0.734604C25.029 0.428482 24.0525 0.203992 23.0362 0.122359C22.6576 0.081543 22.279 0.081543 21.9203 0.081543C20.3659 0.081543 18.8116 0.367257 17.3768 0.979502V0.89787ZM13.5308 3.69379C13.5308 3.69379 13.5906 3.7346 13.6105 3.75501C13.5906 3.75501 13.5507 3.7142 13.5308 3.69379ZM15.4837 5.20399C15.4837 5.20399 15.5634 5.28562 15.6032 5.32644C15.8623 5.61216 16.0815 5.89787 16.2808 6.2244C16.3605 6.40807 16.4402 6.59175 16.5 6.77542C16.5199 6.91828 16.5398 7.06114 16.5398 7.20399C16.5398 7.32644 16.5 7.44889 16.4801 7.59175C16.4203 7.75501 16.3605 7.89787 16.2808 8.04073C16.1413 8.26522 15.9819 8.44889 15.8025 8.65297C15.4837 8.9591 15.125 9.2244 14.7264 9.44889C14.567 9.53052 14.4076 9.61216 14.2282 9.69379C14.1884 9.34685 14.1685 9.02032 14.1685 8.67338C14.1884 8.14277 14.2681 7.61216 14.4076 7.10195C14.5471 6.69379 14.7065 6.30603 14.9058 5.93869C15.0652 5.67338 15.2645 5.42848 15.4637 5.18358L15.4837 5.20399ZM15.7029 5.40807C15.7029 5.40807 15.7427 5.44889 15.7627 5.4693C15.7427 5.44889 15.7228 5.42848 15.7029 5.40807ZM4.20469 5.61216C4.20469 5.61216 4.16483 5.65297 4.12498 5.67338C4.14491 5.65297 4.16483 5.63256 4.20469 5.61216ZM29.7119 8.24481C29.7119 8.24481 29.7119 8.24481 29.7119 8.26522V8.30603C29.7119 8.30603 29.7119 8.26522 29.7119 8.24481ZM15.942 8.55093C15.942 8.55093 15.9022 8.59175 15.8822 8.59175C15.8822 8.59175 15.9221 8.55093 15.942 8.55093Z" fill="#161616"/>
</g>
<defs>
<clipPath id="clip0_81_85">
<rect width="33" height="12" fill="white"/>
</clipPath>
</defs>
</svg>
