<svg width="101" height="107" viewBox="0 0 101 107" fill="none" xmlns="http://www.w3.org/2000/svg">
<g clip-path="url(#clip0_153_4)">
<path d="M46.3536 29.5338H46.2459C44.135 29.5338 41.9379 29.8794 39.7193 30.5707C38.7716 30.8731 37.7808 31.262 36.5745 31.8236C35.7345 32.2125 34.8729 32.7525 33.9251 33.4654C32.1804 34.7832 30.6296 36.4465 29.3156 38.3908C27.9586 40.3782 26.9463 42.4952 26.3431 44.6339C26.0416 45.6708 25.8477 46.7077 25.7831 47.723C25.5677 47.3342 25.3092 46.9237 25.0508 46.5565C24.7061 46.0812 24.2753 45.6492 23.8876 45.2603C23.2199 44.6123 22.4014 44.0506 21.3675 43.5537C20.5489 43.1433 19.5581 42.8409 18.4596 42.6464C17.7918 42.5384 17.081 42.4736 16.2841 42.4736C15.961 42.4736 15.6163 42.4736 15.2932 42.4952C14.3239 42.5384 13.29 42.7328 12.0838 43.0785C10.1452 43.6401 8.22819 44.6555 6.54809 46.0596C4.93261 47.399 3.61868 49.1056 2.71401 51.0066C1.83088 52.8644 1.44316 54.9814 1.5724 57.1633C1.63702 58.2866 1.87396 59.4099 2.28321 60.49C2.62785 61.4189 3.20942 62.3262 3.94178 63.1039C4.97568 64.2056 6.26807 65.0049 7.53892 65.7826L7.6897 65.869C7.0435 66.2363 6.44039 66.7115 5.9019 67.23C4.67413 68.4397 3.72638 70.0383 3.16634 71.8529C2.1109 75.2661 2.17551 79.2625 3.38174 83.367C3.64022 84.2527 3.96332 85.1168 4.30795 85.9161C4.67413 86.7369 5.148 87.5578 5.7942 88.5515C7.08658 90.539 8.78823 92.3536 10.7914 93.9738C12.6654 95.4643 14.8194 96.7173 17.1672 97.6894C18.2011 98.1214 19.3858 98.4887 20.7643 98.8559C21.9275 99.1583 23.1337 99.3744 24.3184 99.4824C25.1154 99.5688 25.9123 99.5904 26.7093 99.5904C27.9586 99.5904 29.1864 99.504 30.3926 99.3095C31.2973 99.1583 32.2881 98.9423 33.3866 98.6183C34.4636 98.2942 35.476 97.9054 36.3591 97.4517C37.2853 96.9765 38.1685 96.4148 38.987 95.7884C39.784 95.1835 40.5594 94.4274 41.3133 93.5417C41.7872 92.98 42.261 92.3968 42.6703 91.7487C43.1657 92.8288 43.7042 93.7793 44.2858 94.6218C45.5351 96.458 47.1506 98.143 49.0676 99.6336C49.9077 100.282 50.8769 100.93 52.0832 101.621C53.0309 102.161 54.0433 102.658 55.0987 103.09C57.1666 103.954 59.4929 104.602 61.9699 105.013C63.8008 105.315 65.7394 105.466 67.7426 105.466C68.238 105.466 68.7119 105.466 69.2073 105.445C71.5982 105.358 73.9245 105.077 76.1431 104.624C81.3126 103.522 85.7714 101.599 89.3685 98.9207C90.467 98.0998 91.5871 97.0845 92.7718 95.8316C93.7626 94.7946 94.6888 93.6065 95.5289 92.3104C97.2521 89.6749 98.4368 86.845 99.0614 83.8854C99.3414 82.5029 99.4922 81.0123 99.4707 79.3273C99.4707 77.7287 99.2553 76.195 98.8676 74.7908C98.1352 72.1337 96.2828 69.7143 93.8273 68.1805C92.5133 67.3596 91.0702 66.8195 89.5624 66.5603C90.3378 66.0418 91.1132 65.3938 91.8456 64.6593C92.7718 63.7304 93.5472 62.7799 94.1934 61.7646C94.8612 60.7277 95.4427 59.6043 95.9166 58.4162C96.3905 57.2065 96.7351 56.0183 96.9505 54.8734C97.1228 53.8365 97.1659 52.6916 97.0798 51.417C97.0151 50.3801 96.7997 49.3 96.412 48.0254C96.1105 47.0317 95.6797 46.0164 95.1412 44.9795C94.0426 42.9489 92.5779 41.1775 90.7901 39.7085C89.067 38.3044 86.9991 37.289 84.7805 36.749C83.5959 36.4681 82.4112 36.4249 81.2911 36.4033H81.1403H80.9895C79.7833 36.4033 78.5555 36.4681 77.3709 36.6194C74.8076 36.9434 72.3736 37.6347 70.0904 38.6932C67.2687 39.9893 64.7486 41.8255 62.5946 44.1154C62.4653 43.1865 62.2069 42.1928 61.8407 41.1343C61.4314 39.9677 60.8714 38.8012 60.0744 37.4403C59.4282 36.3601 58.7605 35.4312 57.9851 34.5887C56.4342 32.8821 54.6033 31.586 52.557 30.7003C50.7046 29.901 48.6153 29.4906 46.3967 29.4906L46.3536 29.5338Z" fill="#FEFEFE"/>
<path d="M100.978 80.1266C100.871 76.9727 100.052 73.7755 98.2429 71.14C97.3813 69.9087 96.2613 68.8286 94.9904 68.0509C94.1719 67.554 93.2672 67.1652 92.3626 66.8843C92.7072 66.6683 93.0518 66.4307 93.3749 66.1715C94.1935 65.5018 94.9043 64.7025 95.5289 63.8384C96.8213 62.0238 97.5967 59.9284 98.0491 57.7681C98.5229 55.6079 98.6091 53.3612 98.3937 51.1578C98.1999 49.1056 97.6829 47.0317 96.8213 45.1523C96.3259 44.0938 95.6797 43.1001 94.9904 42.1712C94.2581 41.1775 93.4396 40.2702 92.5349 39.4493C90.9409 37.9803 89.0239 36.857 86.9776 36.1873C85.2329 35.6041 83.402 35.3664 81.5711 35.3664C81.2911 35.3664 80.9896 35.3664 80.7096 35.3664C78.5556 35.4528 76.4447 35.9281 74.3984 36.6194C72.1583 37.3538 70.0258 38.4124 68.0011 39.6221C66.4502 40.551 64.9855 41.6311 63.607 42.7977C63.5639 42.0848 63.4562 41.3503 63.3054 40.659C63.0469 39.4277 62.5946 38.2395 62.0346 37.1162C60.9791 35.0424 59.4929 33.2278 57.6835 31.7804C55.9604 30.3763 53.9141 29.3178 51.7816 28.6697C50.6831 28.3456 49.5415 28.1296 48.3999 28.0216C47.9476 27.9784 47.4737 27.9568 47.0213 27.9568C46.3321 27.9568 45.6213 28 44.932 28.0648C40.9471 28.4753 36.9838 29.793 33.7959 32.2989C30.845 34.6103 28.7987 37.8723 27.5925 41.3935C27.054 42.9705 26.6878 44.5907 26.4509 46.254C26.1062 45.714 25.7616 45.1739 25.3739 44.6771C24.9 44.0722 24.3615 43.5105 23.7799 43.0137C22.7891 42.128 21.5829 41.4367 20.312 41.0263C19.235 40.6806 18.115 40.5294 16.9949 40.5294C16.7795 40.5294 16.5641 40.5294 16.3272 40.5294C15.0132 40.5942 13.6993 40.9182 12.4715 41.3719C11.1576 41.8471 9.92985 42.5168 8.7667 43.2729C7.60355 44.029 6.5481 44.9147 5.57881 45.8868C3.57562 47.8742 1.91705 50.2289 0.904683 52.886C0.430808 54.1173 0.107712 55.4135 0.0215526 56.7312C-0.021527 57.4009 -0.021527 58.0706 0.0646321 58.7402C0.129251 59.3883 0.28003 60.0364 0.473888 60.6628C0.840064 61.8942 1.52934 63.0607 2.39093 64.0328C3.44638 65.2426 4.73876 66.1499 6.11731 66.9059C6.11731 66.9059 6.16039 66.9059 6.16039 66.9275C5.62189 67.23 5.0834 67.5972 4.58799 67.9861C3.66178 68.7421 2.84326 69.6494 2.19707 70.6648C0.969303 72.609 0.344649 74.9204 0.366189 77.2103C0.366189 82.2004 2.60633 86.953 5.53574 90.9062C6.9789 92.8504 8.70208 94.6218 10.5976 96.1556C12.17 97.4301 13.9362 98.4887 15.8317 99.1799C17.6842 99.8496 19.6227 100.282 21.5613 100.627C23.7584 101.016 25.9985 101.211 28.2171 101.232C30.0049 101.232 31.7712 101.124 33.5374 100.843C35.196 100.562 36.833 100.109 38.3624 99.396C39.8055 98.7263 41.1194 97.7758 42.1534 96.566C42.6272 95.9828 43.0149 95.3563 43.338 94.665C43.7258 95.3347 44.1566 95.9612 44.6304 96.5876C45.5136 97.7542 46.5475 98.8127 47.646 99.8064C49.3476 101.319 51.2862 102.55 53.311 103.587C55.3357 104.602 57.4897 105.337 59.6867 105.898C61.8838 106.46 64.1455 106.784 66.3856 106.914C71.0382 107.194 75.7339 106.676 80.2141 105.401C84.5867 104.148 88.7654 102.204 92.3841 99.4176C93.2242 98.7695 94.0427 98.0566 94.7966 97.3005C95.4643 96.6525 96.1105 95.9612 96.6921 95.2051C97.7044 93.8657 98.5014 92.3536 99.1476 90.8198C99.8369 89.1564 100.311 87.385 100.634 85.592C100.957 83.7774 101.086 81.9412 101 80.105L100.978 80.1266ZM98.5014 86.7369C98.006 88.6164 97.3167 90.4526 96.3905 92.1376C96.0459 92.7208 95.6797 93.2825 95.292 93.8225C94.8827 94.3842 94.4089 94.8811 93.935 95.3995C92.3195 97.0197 90.4886 98.4238 88.55 99.6336C85.8791 101.232 82.9928 102.442 80.0203 103.328C76.6816 104.278 73.2137 104.775 69.7458 104.861C66.5364 104.905 63.327 104.559 60.2037 103.803C57.662 103.133 55.2065 102.183 52.9232 100.887C51.3939 100.001 49.9292 98.9639 48.6368 97.7326C47.5598 96.6524 46.6767 95.4427 45.8797 94.1466C45.6643 93.7793 45.4705 93.4337 45.2551 93.0881C45.0181 92.6776 44.7812 92.2456 44.5012 91.8783C44.372 91.6407 44.1996 91.4463 43.9196 91.3383C43.855 91.3167 43.7688 91.2951 43.7042 91.2735C43.5319 91.1438 43.338 91.0358 43.1226 91.0142C42.4765 90.9494 41.981 91.4031 41.8733 92.0079C41.8303 92.2024 41.8087 92.3752 41.7656 92.5696C41.6149 93.1096 41.3995 93.6065 41.141 94.1034C40.861 94.5786 40.5163 95.0107 40.1502 95.4211C39.6547 95.8964 39.1378 96.3068 38.5562 96.674C37.6731 97.1709 36.7469 97.5598 35.7776 97.8622C33.839 98.4022 31.8573 98.5967 29.8541 98.6399C26.6232 98.6615 23.3707 98.2726 20.2259 97.4733C18.4811 96.9981 16.758 96.4364 15.164 95.5507C13.6347 94.6434 12.2346 93.5201 10.9638 92.2888C9.26212 90.5822 7.77587 88.6596 6.50503 86.5857C5.5142 84.8791 4.69568 83.0861 4.13565 81.2067C3.79101 79.9538 3.57562 78.6792 3.53254 77.3831C3.53254 76.4326 3.64023 75.4821 3.85563 74.5532C4.07103 73.8187 4.35105 73.1058 4.71722 72.4362C5.16956 71.7017 5.68651 71.0104 6.26809 70.3839C6.6558 70.0167 7.06506 69.6494 7.47432 69.3038C7.90511 68.9582 8.33591 68.5909 8.80978 68.2885C8.89594 68.2453 8.96056 68.2021 9.04672 68.1805C9.17596 68.1157 9.3052 68.0077 9.4129 67.8996C9.58521 67.7916 9.75753 67.6188 9.84369 67.4028C10.0591 66.8843 9.80061 66.2147 9.26212 66.0202C8.37899 65.6962 7.51739 65.329 6.69888 64.8753C5.88037 64.4001 5.12648 63.8384 4.43721 63.1903C3.96333 62.6935 3.53254 62.175 3.16636 61.5917C2.84326 61.0301 2.58479 60.4468 2.41247 59.842C2.24015 59.1507 2.13245 58.4594 2.11091 57.7465C2.11091 56.8176 2.24015 55.9103 2.45555 55.003C2.80018 53.7717 3.2956 52.5835 3.92025 51.4602C4.73876 50.0345 5.75113 48.7167 6.91428 47.5286C8.03435 46.4053 9.3052 45.3899 10.6622 44.5474C11.7823 43.8994 12.9454 43.3377 14.1732 42.9705C15.0994 42.7112 16.0687 42.5384 17.038 42.5168C17.7919 42.5168 18.5458 42.6032 19.2781 42.7544C19.9889 42.9489 20.6567 43.2081 21.3029 43.5537C21.9706 43.9426 22.5952 44.4178 23.1553 44.9579C23.823 45.6276 24.383 46.3837 24.8785 47.1613C24.8785 47.1397 24.8354 47.0965 24.8354 47.0749C24.8354 47.1181 24.8785 47.1397 24.9 47.1829C24.9 47.2261 24.9431 47.2478 24.9646 47.291C24.9646 47.2694 24.9431 47.2477 24.9215 47.2261C25.1585 47.6366 25.3954 48.047 25.6539 48.4359C25.8908 48.7815 26.4078 48.8679 26.7524 48.7167C26.817 48.6951 26.8817 48.6303 26.9463 48.5871C26.9463 48.5871 26.9678 48.5871 26.9894 48.5871C27.3771 48.6303 27.7648 48.3495 27.8079 47.939C27.9586 46.5133 28.1956 45.0875 28.5618 43.6834C29.0356 41.912 29.7034 40.2054 30.5865 38.6068C30.5865 38.5636 30.6296 38.542 30.6511 38.4988C30.6511 38.542 30.608 38.5636 30.5865 38.6068C31.3188 37.3322 32.202 36.1657 33.2143 35.1072C34.1836 34.1351 35.2822 33.271 36.4453 32.5581C37.7808 31.7804 39.1809 31.1972 40.6456 30.7435C42.5195 30.2035 44.4797 29.901 46.4398 29.8578C47.7968 29.8578 49.1538 30.009 50.4677 30.3331C51.7601 30.6787 52.9879 31.1972 54.151 31.8452C55.2926 32.5149 56.3265 33.3142 57.2743 34.2215C58.1359 35.1072 58.8898 36.0577 59.536 37.1162C60.1391 38.1531 60.6345 39.2549 60.9791 40.4214C61.2591 41.5015 61.3668 42.6032 61.4099 43.7266C61.4099 44.0938 61.4099 44.461 61.4099 44.8283C61.4099 45.1523 61.453 45.4115 61.6469 45.6708C61.8407 45.9084 62.1207 46.0596 62.4007 46.1028C63.0039 46.1676 63.6285 45.714 63.6716 45.1091V45.0659C65.3302 43.5537 67.118 42.1928 69.035 41.0263C71.1459 39.7733 73.386 38.7364 75.7554 38.0451C77.5647 37.5267 79.4387 37.2242 81.3342 37.181C82.6697 37.181 84.0267 37.3322 85.3191 37.6347C86.5038 37.9587 87.6454 38.4124 88.7223 39.0172C89.7563 39.6221 90.704 40.3566 91.5871 41.1991C92.6641 42.2792 93.6119 43.5105 94.4089 44.8283C94.9689 45.822 95.3997 46.8589 95.7228 47.939C96.1536 49.5376 96.369 51.1794 96.412 52.8212C96.412 54.5494 96.2397 56.2776 95.8089 57.9625C95.4643 59.2155 95.012 60.4252 94.3873 61.5701C93.8919 62.4126 93.3103 63.2119 92.6426 63.9248C92.061 64.5081 91.4148 65.0265 90.704 65.4586C90.6179 65.5018 90.5317 65.5666 90.4455 65.6098C90.2301 65.7394 89.9716 65.7826 89.7563 65.8906C89.347 66.0634 89.1101 66.5171 89.1747 66.9491C89.1747 67.0572 89.2393 67.1652 89.2824 67.2516C89.3039 67.6404 89.6055 67.9429 89.9932 68.0077C90.5101 68.0725 91.0271 68.1589 91.5225 68.2885C92.3626 68.5261 93.1595 68.8286 93.9134 69.2606C94.6027 69.671 95.2274 70.1463 95.7874 70.6864C96.3905 71.2912 96.9075 71.9825 97.3598 72.717C97.9198 73.6891 98.3506 74.726 98.6522 75.7845C99.083 77.3615 99.2768 78.9817 99.3199 80.6235C99.3199 82.6757 99.083 84.7279 98.5876 86.7153L98.5014 86.7369ZM24.8138 47.1829C24.8138 47.1829 24.8138 47.2045 24.8354 47.2261C24.8354 47.2261 24.8354 47.2261 24.8354 47.2045L24.8138 47.1829ZM42.6703 59.2587C42.2826 58.805 41.7872 58.4378 41.2487 58.2002C40.7963 58.0057 40.3009 57.9193 39.784 57.9193C39.6978 57.9193 39.5901 57.9193 39.504 57.9193C39.0085 57.9409 38.5131 58.1138 37.9746 58.4594C37.5869 58.697 37.2207 59.0211 36.833 59.4963C36.4238 59.9932 36.1438 60.5548 35.9284 60.9869C35.6914 61.4837 35.476 62.0238 35.2606 62.6719C34.8729 63.9032 34.5714 65.2426 34.3775 66.7763C34.2052 68.1157 34.119 69.4766 34.1406 70.7728C34.1406 71.8313 34.2052 72.9762 34.4421 74.0563C34.5283 74.4236 34.636 74.8124 34.8083 75.1581C35.2822 76.0438 35.7776 76.7134 36.3592 77.2535C37.4146 78.2472 39.8917 78.2472 40.9256 77.1887C41.3564 76.735 41.5933 76.1302 41.7872 75.5253C43.1442 71.5289 44.4581 66.8195 43.9842 62.5639C43.8335 61.1381 43.4027 60.0148 42.7134 59.1939L42.6703 59.2587ZM60.8499 61.4621C60.6345 61.0949 60.3329 60.7709 59.9883 60.5116C59.6437 60.2524 59.2344 60.0796 58.7605 59.9716C58.5882 59.9284 58.4159 59.9284 58.222 59.9284C57.9636 59.9284 57.6835 59.9716 57.4035 60.0364C56.9296 60.1444 56.4773 60.3388 56.025 60.6412C55.3142 61.1165 54.711 61.8726 54.2156 62.9527C53.8064 63.8384 53.5048 64.9185 53.2894 66.2795C53.1171 67.3596 53.0309 68.5261 53.0094 69.8655C52.9663 72.5874 51.717 77.5559 54.3018 79.5865C54.4956 79.7378 54.7541 79.8674 54.9911 79.9322C55.1418 79.9754 55.3142 80.0186 55.4865 80.0402C55.5726 80.0402 55.6373 80.0402 55.7234 80.0402C55.8311 80.0402 55.9173 80.0402 56.025 80.0402C56.3265 80.0402 56.585 79.9322 56.8435 79.8674C57.102 79.781 57.3174 79.6946 57.5758 79.5433C58.1143 79.2409 58.5882 78.8953 59.019 78.4632C59.5144 77.988 59.9021 77.5127 60.2037 77.0375C60.4622 76.6486 60.656 76.2382 60.8068 75.8493C60.9576 75.4605 61.0653 75.0716 61.1514 74.726C61.7115 72.5874 62.013 70.3191 62.0561 67.9429C62.0776 66.5819 62.013 65.4154 61.8407 64.3569C61.6469 63.1903 61.3238 62.2398 60.8283 61.4405L60.8499 61.4621Z" fill="#161616"/>
</g>
<g clip-path="url(#clip1_153_4)">
<path d="M37.5 7.13999C37.36 6.83999 37.19 6.55999 37.02 6.28999C36.61 5.65999 36.11 5.07999 35.61 4.51999C34.68 3.49999 33.6 2.59999 32.42 1.88999C32.29 1.80999 32.14 1.76999 31.99 1.76999C31.64 1.76999 31.3 1.96999 31.13 2.27999C30.88 2.75999 31.08 3.29999 31.52 3.56999C31.67 3.65999 31.82 3.75999 31.97 3.85999C32.52 4.26999 33.03 4.73999 33.48 5.26999C33.69 5.53999 33.89 5.80999 34.09 6.08999C33.99 6.05999 33.89 6.03999 33.78 6.01999C33.12 5.86999 32.44 5.78999 31.76 5.78999C31.08 5.78999 30.39 5.86999 29.72 6.05999C29.18 6.20999 28.88 6.80999 29.04 7.32999C29.2 7.86999 29.78 8.15999 30.31 8.00999C30.45 7.96999 30.59 7.93999 30.73 7.90999C31.16 7.85999 31.6 7.85999 32.03 7.88999C33.09 8.02999 34.1 8.32999 35.1 8.69999C35.33 8.78999 35.56 8.87999 35.79 8.96999C35.92 9.01999 36.05 9.06999 36.18 9.10999C36.2 9.12999 36.23 9.15999 36.25 9.17999C36.58 9.47999 37.08 9.52999 37.45 9.28999C37.6 9.19999 37.71 9.06999 37.79 8.91999C37.82 8.83999 37.85 8.75999 37.88 8.67999C37.92 8.50999 37.92 8.32999 37.87 8.15999C37.81 7.79999 37.65 7.46999 37.49 7.13999H37.5ZM50.67 4.21999C50.46 4.02999 50.23 3.97999 49.96 3.94999C49.84 3.93999 49.73 3.92999 49.61 3.92999C49.13 3.92999 48.66 4.00999 48.19 4.09999C47.58 4.21999 46.99 4.40999 46.42 4.63999C46.1 4.75999 45.79 4.89999 45.48 5.04999C45.48 5.04999 45.48 5.04999 45.48 5.03999C45.92 4.44999 46.44 3.91999 47 3.43999C47.7 2.87999 48.43 2.37999 49.21 1.93999C49.71 1.64999 49.83 0.959995 49.54 0.489995C49.34 0.169995 49 0.00999451 48.66 0.00999451C48.47 0.00999451 48.27 0.0599945 48.09 0.159994C46.84 0.869994 45.64 1.64999 44.61 2.66999C44.09 3.17999 43.64 3.77999 43.27 4.41999C43.08 4.74999 42.94 5.11999 42.81 5.47999C42.67 5.88999 42.62 6.32999 42.6 6.74999C42.59 6.94999 42.66 7.13999 42.78 7.28999C42.8 7.38999 42.84 7.48999 42.89 7.57999C43.12 7.93999 43.66 8.08999 44.03 7.82999C44.41 7.55999 44.81 7.32999 45.23 7.12999C46.21 6.69999 47.24 6.42999 48.3 6.23999C48.96 6.13999 49.63 6.06999 50.29 5.92999C50.46 5.87999 50.61 5.77999 50.74 5.64999C50.92 5.45999 51.02 5.19999 51.01 4.93999C51.01 4.66999 50.88 4.40999 50.69 4.21999H50.67Z" fill="#161616"/>
</g>
<defs>
<clipPath id="clip0_153_4">
<rect width="101" height="79" fill="white" transform="translate(0 28)"/>
</clipPath>
<clipPath id="clip1_153_4">
<rect width="21.99" height="9.44" fill="white" transform="translate(29)"/>
</clipPath>
</defs>
</svg>
