<svg width="144" height="66" viewBox="0 0 144 66" fill="none" xmlns="http://www.w3.org/2000/svg">
<g clip-path="url(#clip0_81_454)">
<path d="M54.435 0.759596C51.9402 0.930774 49.3063 1.562 46.5974 2.65326C45.4196 3.124 44.2097 3.70173 42.8713 4.40784C42.3038 4.7074 41.7149 5.03906 41.0832 5.41351C40.4515 5.77727 39.9804 6.07683 39.5521 6.35499C38.8026 6.84713 38.0531 7.41416 37.2715 8.07748C36.4577 8.77289 35.6761 9.5218 34.9373 10.3135C34.1878 11.1266 33.4811 11.9932 32.8494 12.8919C32.1749 13.8548 31.6288 14.7855 31.1898 15.7377C30.6545 16.9039 30.3011 18.0914 30.1619 19.279C30.0656 20.0921 30.087 20.9159 30.2369 21.729C29.7658 21.5792 29.3268 21.4508 28.8985 21.3438C27.7849 21.0549 26.6179 20.8731 25.3223 20.7875C24.8191 20.7554 24.273 20.734 23.6627 20.734H23.5342H23.4057C22.7954 20.734 22.2922 20.7554 21.8318 20.7982C20.8896 20.8838 19.9259 21.0549 18.9409 21.3117C16.3819 21.9857 13.8978 23.3124 11.553 25.2381H11.5315C11.478 25.2381 11.4459 25.2488 11.4031 25.2702C9.358 26.4792 7.50567 28.2123 6.04951 30.2879C5.19294 31.5075 4.44344 32.8984 3.80101 34.439C3.73677 34.4604 3.67253 34.5139 3.6297 34.5887C3.07293 35.5623 2.59111 36.6001 2.20565 37.6593C2.00222 38.2156 1.8202 38.7826 1.64888 39.3496C1.57393 39.6171 1.48828 39.8953 1.42403 40.1627C1.34908 40.473 1.28484 40.7833 1.2313 41.0614C1.11353 41.7354 1.02787 42.2918 0.985041 42.8053C0.931505 43.3937 0.910091 44.0036 0.920798 44.6348C0.931505 45.7795 1.05999 46.935 1.29555 48.069C1.43474 48.7217 1.56323 49.2138 1.70242 49.6739C1.74525 49.8129 1.86302 49.9199 2.01292 49.952C2.15212 50.519 2.31272 51.0861 2.51616 51.6424C2.90161 52.723 3.41556 53.8035 4.05798 54.852C4.63617 55.8149 5.34284 56.735 6.19941 57.6764C7.74123 59.3668 9.6471 60.8111 11.8849 61.988C12.9235 62.5336 14.0584 63.0151 15.2576 63.4216C16.5425 63.8603 17.913 64.2026 19.4655 64.4701C20.9645 64.7376 22.6241 64.9194 24.53 65.0157C25.7934 65.0799 27.1532 65.112 28.8128 65.112C29.1233 65.112 29.4231 65.112 29.7336 65.112C31.3932 65.112 33.1813 65.0906 34.9801 65.0478C36.5648 65.005 38.2993 64.9515 40.2802 64.8766C41.6078 64.8231 42.9462 64.7697 44.2739 64.7162C46.4367 64.6199 48.6638 64.5343 50.8588 64.4594C51.5869 64.438 52.3257 64.4166 53.0537 64.4059C53.0537 64.4594 53.0859 64.5129 53.118 64.5664C53.1715 64.6413 53.2786 64.7269 53.375 64.7376C56.2123 64.8766 58.5893 64.9622 60.8592 65.0157C62.7009 65.0585 64.5853 65.0692 66.3948 65.0799C67.0586 65.0799 67.7332 65.0906 68.397 65.1013C70.3671 65.1227 72.3587 65.1334 74.3288 65.1334C74.8641 65.1334 75.4102 65.1334 75.9456 65.1334C76.8342 65.1334 77.7229 65.1334 78.6116 65.1334C80.4104 65.1334 82.0058 65.1334 83.4941 65.1548C85.6569 65.1762 87.8519 65.2083 89.9719 65.2297C92.7557 65.2725 95.6467 65.3153 98.484 65.326C99.2121 65.326 99.9402 65.326 100.668 65.326C105.401 65.326 109.587 65.2511 113.463 65.112C114.973 65.0585 116.472 64.9836 117.939 64.9087L118.517 64.8766C118.999 64.8445 119.47 64.8231 119.952 64.8018H120.284C120.84 64.7697 121.408 64.759 121.965 64.7269H122.265C122.8 64.6948 123.346 64.6627 123.892 64.6199C124.642 64.5557 125.305 64.4701 125.926 64.3524C126.59 64.224 127.243 64.0635 127.854 63.8496H127.896L127.95 63.8175C128.014 63.8175 128.089 63.8175 128.153 63.8175C128.314 63.8175 128.485 63.7854 128.646 63.764C128.989 63.7212 129.363 63.6463 129.802 63.55C130.445 63.4002 131.109 63.197 131.751 62.9402C133.036 62.4266 134.257 61.7098 135.391 60.8218C136.473 59.966 137.469 58.9496 138.357 57.7834C138.753 57.2592 139.139 56.7029 139.46 56.2107C139.835 55.6544 140.263 55.0018 140.659 54.3171C141.291 53.2151 142.019 51.8992 142.565 50.5297C142.833 49.8664 143.036 49.2245 143.186 48.604C143.336 48.0049 143.443 47.3308 143.529 46.5498C143.818 43.7468 143.465 40.8475 142.469 37.9481C142.019 36.6215 141.398 35.2949 140.649 34.011C139.931 32.7914 139.085 31.6573 138.143 30.6623C137.244 29.7102 136.194 28.8222 134.92 27.9556C133.7 27.1211 132.404 26.4257 131.087 25.8907C130.413 25.6126 129.727 25.3879 129.074 25.2167C128.528 25.0669 127.939 24.96 127.168 24.8744C125.744 24.7032 124.652 24.5855 123.624 24.5213C122.993 24.4785 122.372 24.4571 121.783 24.4571C121.087 24.4571 120.412 24.4892 119.77 24.5534C118.367 24.6925 117.189 24.9386 116.151 25.3237C115.926 25.4093 115.712 25.4949 115.508 25.5912C115.53 25.4949 115.551 25.3986 115.573 25.313C115.712 24.6176 115.808 23.9329 115.872 23.2589C116.012 21.7825 115.969 20.3488 115.744 19.0008C115.519 17.5779 115.112 16.2192 114.566 14.9674C114.266 14.2934 113.934 13.6515 113.56 13.0631C113.217 12.5174 112.81 11.9718 112.328 11.3941C111.397 10.2814 110.401 9.28642 109.362 8.41983C107.21 6.62246 104.769 5.22094 102.114 4.25806C99.5012 3.30588 96.803 2.81374 94.1048 2.81374C93.9977 2.81374 93.9014 2.81374 93.7943 2.81374C92.5523 2.83514 91.2567 2.97422 89.822 3.26308C88.4836 3.53055 87.1773 3.8836 85.9353 4.30085C84.6076 4.75019 83.3442 5.31722 82.1557 5.96984C80.9351 6.64386 79.8644 7.42486 78.9757 8.29145C78.1298 9.12595 77.4017 10.1637 76.6843 11.5866C76.1062 12.7421 75.5922 14.0473 75.0783 15.7056C74.9926 15.9945 74.907 16.2726 74.832 16.5615C74.7464 16.3582 74.6607 16.1657 74.575 15.9624C74.4466 15.6735 74.3288 15.3954 74.211 15.1065C74.0611 14.7534 73.9112 14.4004 73.7613 14.058C73.2902 12.9775 72.7655 11.929 72.1981 10.9447C71.031 8.87988 69.6498 7.0825 68.0972 5.58469C66.4376 3.99059 64.4675 2.72815 62.3903 1.91505C60.3132 1.10195 58.0647 0.695404 55.7198 0.695404C55.2808 0.695404 54.8418 0.706103 54.3921 0.738199L54.435 0.759596ZM9.28306 27.3886C8.42649 28.2765 7.59133 29.2715 6.80971 30.3414C7.5485 29.2287 8.38366 28.2444 9.28306 27.3886Z" fill="#FEFEFE"/>
<path d="M58.2467 42.035C57.979 42.035 57.722 42.035 57.4544 42.035C56.116 42.0564 55.0238 42.1313 53.996 42.2704C52.8075 42.4309 51.801 42.6769 50.9337 43.0193L50.8802 43.0407H50.8481C50.8481 43.0407 50.8267 43.0514 50.816 43.0514C50.7731 43.0514 50.7196 43.0514 50.6661 43.0728H50.6018L50.5376 43.0942H50.5911L50.6339 43.0835C49.5311 43.2974 48.4604 43.7147 47.4646 44.3245C47.0256 44.592 46.5866 44.9236 46.0941 45.3623C45.698 45.7153 45.3339 46.1219 45.002 46.5712C44.3274 47.4806 43.8885 48.5184 43.7171 49.5669C43.5458 50.6688 43.6957 51.8243 44.1561 52.9155C44.5095 53.75 45.0448 54.5845 45.7622 55.3762C46.3083 55.9861 46.9614 56.5531 47.6895 57.0452C49.0921 57.9974 50.7624 58.7356 52.7861 59.2919C54.4671 59.752 56.3515 60.0622 58.5572 60.2441C59.9598 60.3618 61.416 60.4153 63.0114 60.4153C63.4825 60.4153 63.9536 60.4153 64.414 60.4046C66.1807 60.3725 67.9259 60.2655 69.4035 60.1692C69.8853 60.1371 70.3671 60.1157 70.849 60.0836C72.1017 60.0087 73.3973 59.9339 74.6714 59.8055C76.9734 59.5808 78.7936 59.2491 80.3997 58.7677C81.3205 58.4895 82.2092 58.1365 83.0337 57.7192C83.4191 57.5267 83.8046 57.2913 84.1793 57.0452C84.522 56.8098 84.886 56.5317 85.2715 56.1786C85.9246 55.5902 86.4814 54.8841 86.9311 54.0603C87.1559 53.643 87.3593 53.1723 87.5414 52.616C87.702 52.1024 87.809 51.5996 87.8519 51.1075C87.9375 50.1339 87.7983 49.171 87.445 48.3472C87.1131 47.5555 86.5777 46.8173 85.871 46.154C85.6034 45.9079 85.3143 45.6619 84.9824 45.4265C85.0038 45.3516 84.9931 45.2767 84.9824 45.2125C84.9502 45.1162 84.8753 45.0306 84.7682 44.9771C84.2543 44.6883 83.7403 44.4422 83.2371 44.2175C82.7124 43.9929 82.2199 43.8217 81.7381 43.6933C81.4169 43.6077 81.0957 43.5435 80.753 43.49C79.9393 43.2654 79.0613 43.0942 78.1512 42.9872C76.4488 42.7946 74.7571 42.6876 73.4722 42.6127C72.6906 42.5699 71.909 42.5378 71.1595 42.5164C70.7633 42.5058 70.3564 42.495 69.9603 42.4844C69.5641 42.4844 69.1572 42.4737 68.7611 42.4523C67.2621 42.3988 65.656 42.3453 64.0392 42.249C61.9942 42.1206 60.1526 42.0136 58.2574 42.0136L58.2467 42.035ZM59.1461 46.7424H59.2425C60.4631 46.7424 61.6944 46.7103 62.8936 46.6782C64.3819 46.6461 65.9237 46.614 67.4441 46.614C67.8831 46.614 68.3328 46.614 68.7718 46.614C70.2173 46.6354 71.7484 46.6996 73.7399 46.828C74.7892 46.8922 75.8706 46.9885 76.952 47.0848L77.1555 47.1062L77.3589 47.1276C77.4124 47.1918 77.4767 47.2453 77.5623 47.2773C78.1833 47.5448 78.8579 47.8444 79.4896 48.2402C80.0143 48.5933 80.4961 48.9998 80.8922 49.4278C81.1385 49.7166 81.3419 50.0055 81.5025 50.3051C81.6203 50.5511 81.706 50.8079 81.7702 51.0647C81.8023 51.2679 81.8238 51.4819 81.8131 51.6959C81.7916 51.9099 81.7488 52.1345 81.6739 52.3592C81.5775 52.6267 81.449 52.8834 81.2884 53.1402C81.0421 53.504 80.7316 53.857 80.389 54.178C79.6609 54.8199 78.8044 55.3869 77.8621 55.8684C76.6308 56.4675 75.2282 56.9275 73.6864 57.2378H73.7399C72.1659 57.5374 70.4956 57.6764 68.6433 57.6764C67.9045 57.6764 67.1336 57.655 66.3413 57.6016C64.339 57.4732 62.2297 57.1843 60.0562 56.7457C59.0926 56.5531 58.1075 56.3284 57.1439 56.0716C56.2766 55.847 55.4093 55.6009 54.6063 55.3655C54.2208 55.2478 53.8247 55.1302 53.4392 55.0018C52.5291 54.7022 51.3406 54.2636 50.2485 53.5682C49.8095 53.2686 49.4454 52.969 49.1456 52.6481C48.9208 52.3913 48.7388 52.1131 48.5889 51.835C48.4711 51.5782 48.3747 51.3 48.3105 51.0112C48.2677 50.7544 48.2462 50.4976 48.257 50.2516C48.2784 50.0269 48.3212 49.8129 48.3854 49.599C48.4604 49.3957 48.5568 49.1924 48.6852 48.9891C48.878 48.711 49.0921 48.4542 49.3598 48.2188C49.7667 47.8765 50.2378 47.5662 50.8267 47.2667C50.9444 47.2025 51.0729 47.149 51.1907 47.0955H51.2228C51.3941 47.0955 51.5655 47.0955 51.7368 47.0955C51.9188 47.0955 52.1115 47.0955 52.2935 47.0955C52.6576 47.0955 53.0216 47.1169 53.3857 47.1276C53.7604 47.1383 54.1352 47.1597 54.5206 47.1597H54.6384C54.9275 47.1597 55.2273 47.149 55.602 47.1169C55.9554 47.0848 56.3087 47.0634 56.662 47.0313H56.7584C57.0903 46.9992 57.4115 46.9778 57.7435 46.9457C58.0968 46.9029 58.4715 46.8601 58.8784 46.7959C58.9427 46.7959 59.0069 46.7638 59.0497 46.721H59.1461V46.7424Z" fill="#DA3927"/>
<path d="M59.0711 34.3534C59.1247 34.3534 59.1782 34.3534 59.2318 34.3534C59.4673 34.3534 59.735 34.2892 60.0455 34.1501C60.2061 34.0859 60.3453 33.9896 60.4631 33.9147C60.6558 33.7864 60.8485 33.6366 61.0306 33.4761C61.2661 33.2728 61.5338 33.016 61.7158 32.6737C62.1227 31.9034 62.2833 31.0154 62.3904 30.2558C62.5295 29.3464 62.5831 28.3514 62.5617 27.303C62.5617 26.8215 62.5188 26.308 62.4546 25.7838C62.4011 25.3344 62.3261 24.9279 62.2297 24.5427C62.1227 24.1362 61.9942 23.8045 61.8443 23.5263C61.7693 23.3873 61.673 23.2589 61.5659 23.1412C61.4374 23.0021 61.2661 22.8844 61.1055 22.7881C60.7522 22.5635 60.3667 22.4137 59.9813 22.3602C59.917 22.3602 59.8528 22.3495 59.7778 22.3495C59.5316 22.3495 59.2746 22.4137 59.0283 22.5314C58.7714 22.6597 58.5465 22.863 58.3002 23.184C57.7221 23.965 57.4972 24.8958 57.2509 25.8266C56.812 27.4741 56.7691 29.3143 57.0582 30.994C57.2509 32.1281 57.7006 34.1715 59.0604 34.3534H59.0711ZM72.6478 33.0267C73.0868 33.7115 73.59 34.4604 74.4466 34.578C74.4894 34.578 74.5322 34.578 74.5858 34.578C74.7142 34.578 74.8534 34.5567 74.9926 34.5139C75.2389 34.4283 75.4423 34.3106 75.6458 34.1394C75.7957 34.011 75.9349 33.8398 76.0955 33.6045C76.2775 33.337 76.406 33.0374 76.513 32.7807C76.6415 32.4918 76.7272 32.1923 76.8343 31.8285C76.9306 31.5075 76.9949 31.2187 77.0484 30.9405C77.1126 30.5875 77.1662 30.2237 77.209 29.8065C77.2947 28.8864 77.3054 27.9556 77.2197 27.0462C77.1555 26.2438 77.0163 25.1953 76.5452 24.2966C76.3524 23.9329 76.1062 23.6226 75.785 23.3766C75.4959 23.1519 75.1211 23.0235 74.7035 23.0021C74.6714 23.0021 74.65 23.0021 74.6179 23.0021C74.2217 23.0021 73.8041 23.1091 73.4294 23.3124C73.0761 23.4942 72.7656 23.8045 72.5086 24.1897C72.0589 24.8637 71.909 25.6982 71.8233 26.3401C71.7055 27.2709 71.7484 28.2123 71.7912 28.9399C71.8876 30.2879 71.8876 31.8499 72.6371 33.016L72.6478 33.0267ZM88.323 49.1924C88.2373 48.7752 88.1196 48.3686 87.9911 47.9728C87.8198 47.4592 87.627 46.9457 87.3808 46.4643C86.8561 45.4372 86.0745 44.5706 85.1537 43.8966C84.7254 43.5756 84.265 43.3189 83.7832 43.0835C83.2585 42.8267 82.7125 42.6127 82.1557 42.4416C81.0314 42.0885 79.8644 41.8959 78.6973 41.7675C76.4916 41.5322 74.2753 41.5964 72.0589 41.6499C69.1144 41.7248 66.1593 41.5964 63.2148 41.5322C62.2726 41.5108 61.3304 41.5001 60.3881 41.5001C58.1075 41.5001 55.8269 41.575 53.5677 41.8424C51.6832 42.0564 49.6061 42.3346 47.9036 43.2333C46.3404 44.0464 44.9913 45.3516 44.1668 46.9136C43.1497 48.818 42.4858 51.0647 43.139 53.1937C43.7064 55.0339 45.0984 56.4461 46.6723 57.4839C47.5396 58.0509 48.4818 58.5109 49.4347 58.9175C50.3984 59.324 51.3942 59.645 52.4113 59.9125C54.1673 60.3832 55.9661 60.7042 57.7756 60.886C58.932 61.0037 60.0776 61.0786 61.234 61.1321C64.5425 61.2926 67.8724 61.2712 71.1809 61.0144C73.0118 60.8753 74.8427 60.6614 76.6522 60.3297C78.3118 60.0195 79.9607 59.6129 81.5454 59.0245C83.0016 58.4788 84.3935 57.8048 85.6141 56.8312C86.1602 56.3926 86.6527 55.9005 87.081 55.3441C87.4985 54.8092 87.8198 54.2101 88.066 53.5896C88.6121 52.1987 88.6121 50.6474 88.3016 49.1924H88.323ZM87.1452 52.2094C87.0488 52.6909 86.8989 53.1616 86.6955 53.611C86.4707 54.0603 86.1923 54.4882 85.8818 54.8734C85.4321 55.3976 84.9181 55.847 84.3614 56.2535C83.3442 56.9596 82.2199 57.5053 81.0636 57.9439C79.6609 58.4574 78.2048 58.8319 76.7379 59.1208C75.1746 59.431 73.59 59.6343 71.9946 59.7841C68.6647 60.0836 65.3027 60.1157 61.9621 59.966C59.8206 59.8697 57.6685 59.7092 55.5485 59.3347C53.2679 58.9175 50.9873 58.3077 48.878 57.3234C47.9036 56.8526 46.9721 56.307 46.137 55.6116C45.698 55.2265 45.2911 54.8092 44.9485 54.3385C44.6808 53.9533 44.4666 53.5468 44.2953 53.1081C44.1454 52.6909 44.0491 52.2629 44.0062 51.8243C43.9741 51.3214 44.0062 50.8186 44.0812 50.3158C44.2204 49.6204 44.4559 48.9463 44.7557 48.2937C45.1305 47.5234 45.5802 46.8066 46.1155 46.154C46.5867 45.6084 47.122 45.1269 47.7002 44.7097C48.6638 44.0143 49.7774 43.5649 50.923 43.2547C52.0794 42.9444 53.2786 42.8802 54.4778 42.7732H54.3386C57.54 42.4951 60.7629 42.5699 63.9643 42.6769C65.5275 42.7304 67.0908 42.7946 68.654 42.8374C69.9389 42.8695 71.2237 42.8802 72.5086 42.8588C74.9498 42.8267 77.4124 42.8053 79.8215 43.2226C80.9244 43.4258 82.0165 43.7254 83.0337 44.1961C83.6333 44.485 84.2007 44.8381 84.7254 45.2553C85.1216 45.5977 85.4749 45.9828 85.7854 46.4108C86.1387 46.9243 86.4064 47.4806 86.6313 48.0691C86.9204 48.8608 87.1238 49.6739 87.2094 50.5083C87.2523 51.0754 87.2416 51.6531 87.1452 52.2201V52.2094ZM80.9244 48.2188C80.5068 47.8765 80.0143 47.5983 79.329 47.2987C78.7722 47.0527 78.1619 46.8708 77.4553 46.7317C76.6951 46.5819 75.9241 46.5284 75.1318 46.475C73.6435 46.3894 72.0589 46.3466 70.2922 46.3466C67.7653 46.3466 65.2385 46.4322 62.7972 46.5177C59.5637 46.6354 56.3515 46.6568 53.118 46.7103C52.0366 46.7317 50.9016 46.7638 49.938 47.2774C47.7644 48.4542 47.6467 51.514 49.2099 53.2365C49.4776 53.5361 49.8309 53.8249 50.2913 54.1245C50.7624 54.4348 51.2657 54.6701 51.6939 54.8627C52.6148 55.2692 53.6426 55.6116 55.0346 55.9647C56.1053 56.2321 57.2616 56.4675 58.7714 56.7243C59.917 56.9168 61.0413 57.0773 62.0906 57.2164C62.3797 57.2592 62.6687 57.2913 62.9685 57.3341C63.5788 57.4197 64.1891 57.5053 64.8102 57.5802C66.6197 57.7941 68.2686 57.9011 69.8639 57.9011C70.6134 57.9011 71.3629 57.8797 72.0803 57.8262C73.5043 57.7299 74.7571 57.5481 75.9027 57.2592C77.1769 56.9382 78.2797 56.4889 79.1898 55.9326C79.6931 55.6223 80.1428 55.2692 80.5282 54.8948C80.7959 54.638 81.0314 54.3492 81.2563 54.071C81.5026 53.7607 81.7274 53.4184 81.9201 53.0653C82.2521 52.4341 82.4341 51.8029 82.4555 51.1824C82.4769 50.6367 82.3377 50.059 82.0593 49.5348C81.8238 49.0854 81.4597 48.6682 80.9244 48.2295V48.2188ZM56.48 48.39C56.3515 48.6575 56.1909 48.8929 56.0196 49.1175C55.8483 49.3101 55.6556 49.492 55.4521 49.6418C55.2487 49.7701 55.0346 49.8878 54.8204 49.9734C54.5956 50.0483 54.36 50.1018 54.1245 50.1339C54.0495 50.1339 53.9853 50.1339 53.9103 50.1339C53.7604 50.1339 53.5998 50.1232 53.4499 50.1018C53.2572 50.059 53.0752 50.0055 52.9039 49.9306C52.754 49.8557 52.6255 49.7701 52.497 49.6739C52.3899 49.5776 52.3043 49.4813 52.2186 49.3743C52.1329 49.2459 52.058 49.1068 52.0045 48.9677C51.9402 48.7859 51.9081 48.604 51.8867 48.4114C51.876 48.1653 51.8867 47.9193 51.9188 47.6411C52.0366 47.6411 52.1222 47.6197 52.2079 47.5769C53.2251 47.609 54.2744 47.6304 55.4093 47.6304C55.859 47.6304 56.298 47.6304 56.7477 47.6304C56.6728 47.9086 56.5871 48.1653 56.48 48.4114V48.39ZM64.9387 47.6946C64.8851 47.9514 64.8102 48.1974 64.7031 48.4328C64.6174 48.604 64.5104 48.7752 64.3819 48.9249C64.2427 49.0854 64.0821 49.2245 63.9108 49.3529C63.718 49.4813 63.5039 49.599 63.279 49.6845C63.0221 49.7701 62.7544 49.8343 62.476 49.8664C62.4011 49.8664 62.3261 49.8664 62.2512 49.8664C62.0798 49.8664 61.9085 49.8557 61.7372 49.8343C61.5445 49.7915 61.3518 49.738 61.1805 49.6632C61.052 49.599 60.9342 49.5241 60.8271 49.4385C60.7522 49.3636 60.6772 49.2887 60.6023 49.1924C60.5487 49.1068 60.4952 49.0105 60.4524 48.9142C60.4202 48.8073 60.3881 48.6896 60.3774 48.5612C60.3774 48.39 60.3774 48.2081 60.4095 48.0263C60.4417 47.8658 60.4845 47.7053 60.5487 47.5448V47.5127C60.9984 47.502 61.4481 47.4806 61.8978 47.4699L62.5724 47.4485C63.3754 47.4271 64.1677 47.395 64.9708 47.3736C64.9708 47.4699 64.9494 47.5769 64.9387 47.6732V47.6946ZM73.1403 47.5234C73.1403 47.7053 73.1403 47.8872 73.1082 48.0584C73.0761 48.2402 73.0118 48.4221 72.9369 48.5933C72.8512 48.7538 72.7548 48.9142 72.6371 49.064C72.5086 49.2031 72.3694 49.3315 72.2195 49.4492C72.0482 49.5669 71.8554 49.6632 71.652 49.7487C71.4272 49.8236 71.1916 49.8771 70.9668 49.9092C70.9025 49.9092 70.8383 49.9092 70.774 49.9092C70.6241 49.9092 70.4849 49.9092 70.3457 49.8771C70.1744 49.845 70.0138 49.7915 69.8532 49.7166C69.7247 49.6525 69.6177 49.5776 69.5106 49.5027C69.4249 49.4278 69.3393 49.3422 69.275 49.2459C69.2108 49.1389 69.1465 49.0319 69.1037 48.9142C69.0502 48.7645 69.0181 48.604 68.9966 48.4435C68.9859 48.1974 68.9967 47.9514 69.0395 47.6732C69.0609 47.5555 69.093 47.4378 69.1251 47.3308C69.2322 47.3308 69.3286 47.3308 69.4356 47.3308C69.5427 47.3308 69.6391 47.3308 69.7354 47.3308C70.9882 47.3308 72.1231 47.3522 73.2045 47.395C73.1831 47.4378 73.1724 47.4913 73.1724 47.5448L73.1403 47.5234ZM80.6995 49.5241L80.6674 49.5455L80.6353 49.5669C80.4747 49.6739 80.2927 49.7701 80.1427 49.845C79.95 49.9413 79.7894 50.0162 79.6395 50.0697C79.3825 50.1553 79.1256 50.2195 78.8472 50.2516C78.7615 50.2516 78.6759 50.2516 78.6009 50.2516C78.4189 50.2516 78.2369 50.2409 78.0549 50.2088C77.83 50.166 77.6052 50.0911 77.391 50.0055C77.2197 49.9199 77.0591 49.8129 76.9199 49.7059C76.8128 49.6097 76.7165 49.5027 76.6308 49.385C76.5559 49.2673 76.4916 49.1496 76.4381 49.0105C76.3953 48.8715 76.3631 48.7324 76.3417 48.5826C76.331 48.3793 76.3417 48.176 76.3739 47.9728C76.3846 47.8979 76.406 47.823 76.4274 47.7374C76.4381 47.6839 76.4488 47.6304 76.4488 47.5662C76.6201 47.5876 76.7914 47.6197 76.9627 47.6411C77.7551 47.7909 78.4939 48.0263 79.147 48.3258C79.5967 48.5505 79.9821 48.7859 80.3141 49.064C80.4747 49.2031 80.6139 49.3422 80.7316 49.492C80.7209 49.492 80.7102 49.5027 80.6888 49.5134L80.6995 49.5241Z" fill="#161616"/>
<path d="M92.2847 3.54125C92.2847 3.54125 92.2847 3.54125 92.274 3.54125C92.274 3.54125 92.2954 3.54125 92.3061 3.54125C92.3061 3.54125 92.2954 3.54125 92.2847 3.54125ZM142.737 37.2955C142.298 36.001 141.73 34.7492 141.034 33.5724C140.338 32.3848 139.492 31.2829 138.561 30.2772C137.64 29.2929 136.601 28.4156 135.499 27.6346C134.396 26.8536 133.207 26.2117 131.976 25.6554C129.524 24.5534 126.837 23.965 124.16 23.7831C121.633 23.6119 119.074 23.8687 116.622 24.4892C116.772 23.5477 116.836 22.5849 116.825 21.6327C116.804 20.3274 116.633 19.0115 116.333 17.7384C116.033 16.4652 115.583 15.2135 115.037 14.0259C114.491 12.8277 113.806 11.6936 113.046 10.6238C112.307 9.58599 111.483 8.62312 110.572 7.74583C108.699 5.93775 106.482 4.48274 104.052 3.53056C102.992 3.11331 101.889 2.82445 100.765 2.61047C99.6619 2.3965 98.5377 2.26811 97.4134 2.19322C96.8352 2.16113 96.257 2.13973 95.6788 2.13973C93.9443 2.13973 92.2097 2.28951 90.5073 2.58907C88.2267 2.97423 85.9889 3.63754 83.8903 4.61112C81.8774 5.5312 79.9822 6.78295 78.4083 8.34495C77.4018 9.33993 76.5238 10.4847 75.8386 11.7257C75.4638 12.3997 75.164 13.0952 74.907 13.812C74.6394 12.9561 74.286 12.1109 73.9006 11.2978C73.3224 10.0888 72.6478 8.93338 71.8662 7.84211C70.6349 6.13033 69.1038 4.63252 67.3692 3.44497C63.9751 1.10196 59.8957 0.0427946 55.8591 0C55.7841 0 55.6985 0 55.6235 0C51.4906 0 47.4005 1.02707 43.6744 2.78165C39.8841 4.56833 36.4578 7.1681 33.8346 10.4526C32.5604 12.0574 31.5218 13.8334 30.7402 15.727C30.0871 17.3318 29.6588 19.0329 29.4553 20.7554C29.2947 20.6591 29.1341 20.5628 28.9735 20.4772C28.5988 20.2846 28.2133 20.1456 27.8172 20.0172C27.4103 19.8888 27.0034 19.8139 26.5858 19.739C26.0719 19.6534 25.5472 19.6213 25.0226 19.6106C24.9369 19.6106 24.8513 19.6106 24.7656 19.6106C23.9519 19.6106 23.1381 19.6962 22.3351 19.8139C21.3608 19.953 20.4078 20.167 19.4549 20.4237C18.0201 20.7982 16.6068 21.2689 15.247 21.8574C13.9943 22.403 12.7951 23.0556 11.6494 23.7938C10.5359 24.5106 9.48657 25.3237 8.49081 26.201C7.51646 27.0676 6.63848 28.0198 5.80332 29.0148C4.18655 30.9619 2.89099 33.1658 1.90593 35.4981C0.953002 37.7556 0.353403 40.1628 0.107139 42.602C-0.128417 44.9664 0.0214825 47.3843 0.556838 49.6953C1.09219 51.9848 2.05583 54.178 3.39422 56.1144C4.09019 57.1201 4.88251 58.0402 5.7605 58.8961C6.68131 59.7841 7.69848 60.5651 8.7692 61.2605C9.92556 61.9987 11.1676 62.6085 12.4417 63.1221C13.8765 63.6998 15.3755 64.117 16.8852 64.438C21.6499 65.4437 26.5216 65.7218 31.3719 65.7218C33.8238 65.7218 36.2651 65.6469 38.717 65.5614C41.2546 65.4758 43.7815 65.4544 46.319 65.4651C51.3942 65.4865 56.4694 65.6469 61.5446 65.7646C64.0821 65.8181 66.6197 65.8609 69.1573 65.8716C71.6842 65.8716 74.2218 65.8395 76.7487 65.8181C81.8024 65.786 86.8455 65.8181 91.8992 65.8395C94.4261 65.8502 96.9423 65.8716 99.4692 65.8716C101.889 65.8716 104.309 65.8716 106.739 65.9037C111.45 65.9893 116.172 66.1712 120.873 65.7539C123.153 65.5507 125.423 65.1869 127.65 64.6092C129.406 64.1491 131.109 63.4965 132.725 62.6834C134.224 61.9238 135.638 60.9716 136.933 59.9018C138.175 58.864 139.278 57.6657 140.231 56.3712C141.173 55.0981 141.934 53.6859 142.544 52.2201C143.154 50.733 143.55 49.1603 143.786 47.5769C144.3 44.1427 143.839 40.5907 142.726 37.3169L142.737 37.2955ZM142.437 48.0049C142.137 49.599 141.644 51.1396 140.959 52.616C140.263 54.0496 139.407 55.3762 138.39 56.6066C137.287 57.8797 136.045 59.0138 134.674 59.9874C133.111 61.0572 131.441 61.9238 129.674 62.5978C126.837 63.6356 123.849 64.1705 120.851 64.4594C116.183 64.8766 111.504 64.7055 106.825 64.6199C104.405 64.5771 101.985 64.5878 99.5548 64.5878C97.0279 64.5878 94.5011 64.5664 91.9849 64.5557C86.9311 64.5236 81.8881 64.5022 76.8343 64.5236C74.2967 64.5343 71.7699 64.5771 69.243 64.5664C66.7054 64.5664 64.1678 64.5129 61.6302 64.4487C54.4243 64.2882 47.2184 64.0208 40.0126 64.1919C38.2352 64.2347 36.4578 64.3096 34.6804 64.3417C32.9137 64.3738 31.1578 64.3845 29.3911 64.3524C27.6244 64.3203 25.8685 64.2347 24.1125 64.0849C22.2923 63.9352 20.4828 63.6998 18.684 63.3788C17.3349 63.1328 16.0072 62.8332 14.7009 62.4373C13.6945 62.1271 12.7094 61.7419 11.7565 61.3033C10.2682 60.5865 8.86556 59.7092 7.59141 58.6607C6.45646 57.6871 5.44999 56.5959 4.57201 55.3869C3.73685 54.1673 3.0516 52.8621 2.52695 51.4926C1.95947 49.9306 1.59543 48.3044 1.43482 46.6461C1.27422 44.7311 1.37058 42.8053 1.69179 40.9117C2.07725 38.8254 2.71968 36.7927 3.61907 34.8669C4.53989 32.9412 5.69625 31.1438 7.06676 29.5069C8.41586 27.9235 9.94698 26.522 11.6494 25.3023C13.3625 24.1148 15.2042 23.1519 17.1529 22.403C18.0737 22.0606 19.0052 21.7825 19.9581 21.5257C21.1145 21.2154 22.2923 20.9801 23.4915 20.8624C24.5515 20.7768 25.6115 20.7768 26.6608 20.948C27.2818 21.0763 27.8707 21.2582 28.4489 21.5043C28.7701 21.6648 29.0699 21.8467 29.3697 22.0392C29.3054 23.4942 29.4018 24.9493 29.6481 26.3829C29.7016 26.661 30.0121 26.8429 30.2798 26.7787C30.5689 26.7145 30.7188 26.4257 30.676 26.1475C30.5903 25.6661 30.5261 25.1846 30.4832 24.7032C30.344 23.077 30.4083 21.4401 30.6867 19.8246C30.9865 18.2305 31.4897 16.6792 32.1857 15.2135C32.978 13.5659 33.9844 12.036 35.1622 10.6345C36.5434 9.01897 38.1174 7.59604 39.8519 6.3657C41.8221 4.98557 43.9635 3.85152 46.2227 3.00632C48.5247 2.16113 50.9231 1.5941 53.3643 1.35873C55.3773 1.18755 57.4116 1.25174 59.4031 1.5941C61.0413 1.89366 62.6474 2.3858 64.1571 3.08121C65.4848 3.71243 66.7268 4.50413 67.8618 5.43492C69.0288 6.41919 70.0567 7.55325 70.9454 8.80499C71.8983 10.1744 72.68 11.6615 73.2796 13.2235C73.7078 14.4004 73.9969 15.5986 74.1468 16.8397C74.179 16.9574 74.2325 17.0644 74.3074 17.1499C74.4252 17.2783 74.5965 17.3639 74.7786 17.3746C74.9606 17.3746 75.1319 17.3211 75.2711 17.1927C75.3889 17.0858 75.5066 16.8932 75.4959 16.722C75.4531 16.1978 75.3782 15.6842 75.2711 15.1814C75.4745 14.4539 75.7315 13.7371 76.0527 13.0524C76.5559 12.0146 77.1769 11.041 77.9157 10.153C78.7723 9.14735 79.7681 8.24866 80.8495 7.47836C82.295 6.47269 83.8689 5.68099 85.5178 5.04976C87.702 4.24737 89.9934 3.75523 92.3061 3.53056C92.2954 3.53056 92.274 3.53056 92.2633 3.53056C92.2847 3.53056 92.3061 3.53056 92.3168 3.53056H92.4239C92.4239 3.53056 92.3703 3.53056 92.3382 3.53056C94.7152 3.32728 97.1136 3.40217 99.4585 3.80872C101.129 4.11898 102.767 4.58972 104.309 5.30653C105.701 5.98055 107.007 6.82574 108.195 7.82072C109.459 8.90128 110.594 10.1423 111.558 11.5011C112.532 12.8919 113.324 14.3897 113.924 15.9731C114.47 17.4709 114.845 19.0222 114.994 20.6163C115.112 22.0392 115.059 23.4621 114.823 24.8744C114.705 25.4842 114.566 26.094 114.395 26.6931C114.202 27.3779 113.956 28.0412 113.699 28.7045C113.581 29.0041 113.731 29.3571 113.988 29.5176C114.299 29.7209 114.78 29.6353 114.973 29.3036C115.626 28.1696 116.097 26.9285 116.397 25.6554C117.746 25.2916 119.117 25.0349 120.509 24.9065C122.532 24.746 124.556 24.8209 126.558 25.1632C128.421 25.5056 130.22 26.0726 131.944 26.8643C133.421 27.5811 134.803 28.4477 136.066 29.4855C137.244 30.4912 138.293 31.6145 139.203 32.8663C140.103 34.1608 140.831 35.5409 141.388 37.0066C142.051 38.8575 142.48 40.7833 142.672 42.7411C142.812 44.4957 142.747 46.261 142.458 48.0049H142.437Z" fill="#161616"/>
</g>
<defs>
<clipPath id="clip0_81_454">
<rect width="144" height="66" fill="white"/>
</clipPath>
</defs>
</svg>
