<svg width="50" height="50" viewBox="0 0 50 50" fill="none" xmlns="http://www.w3.org/2000/svg">
<rect width="50" height="50" rx="25" fill="#F6C000"/>
<path d="M37.7993 25.0054V24.955C37.7741 17.8216 32.0281 12 24.9956 12C17.963 12 12.1919 17.8216 12.1919 25.0054C12.1919 32.1901 17.9369 38 24.9956 38C28.2346 38.0022 31.3497 36.7555 33.6929 34.5193C33.9237 34.3084 34.0612 34.0145 34.0753 33.7023C34.0894 33.39 33.9789 33.0849 33.768 32.8541C33.5572 32.6233 33.2633 32.4857 32.951 32.4716C32.6387 32.4576 32.3337 32.5681 32.1029 32.7789L32.0777 32.8041C31.0666 33.7653 29.8718 34.5122 28.565 35C27.2581 35.4879 25.8661 35.7067 24.4726 35.6432C23.0791 35.5797 21.7128 35.2353 20.4557 34.6306C19.1986 34.0259 18.0767 33.1735 17.1572 32.1244L22.6268 23.3533V27.412C22.6268 29.3513 23.3831 29.9825 24.0187 30.1589C24.6544 30.3354 25.6078 30.2076 26.6405 28.5698L29.6413 23.6972C29.7215 23.555 29.8142 23.4199 29.9168 23.293V25.7644C29.9168 27.5786 30.6479 29.0407 31.9075 29.7457C32.4889 30.0623 33.1453 30.2155 33.8068 30.189C34.4683 30.1625 35.1103 29.9574 35.6646 29.5953C37.1196 28.6509 37.9011 26.997 37.7993 25.0054ZM34.4717 27.5579C34.2696 27.6971 34.034 27.7797 33.7893 27.7973C33.5446 27.8148 33.2996 27.7667 33.0797 27.6578C32.5755 27.3562 32.2721 26.6764 32.2721 25.7437V22.8869C32.2721 21.5274 31.7427 20.5433 30.8361 20.293C29.2974 19.8285 28.1396 21.7291 27.7101 22.4349L24.9956 26.7944V21.4266C24.9704 20.1922 24.5661 19.4611 23.8098 19.2333C23.3057 19.083 22.5494 19.1595 21.8192 20.2687L15.7446 29.9969C14.9365 28.457 14.513 26.7444 14.5102 25.0054C14.5102 19.1325 19.2226 14.3688 24.9956 14.3688C30.7686 14.3688 35.4809 19.1325 35.4809 25.0054V25.0567C35.5413 26.1893 35.1775 27.0987 34.4726 27.5507L34.4717 27.5579Z" fill="#110F0F"/>
</svg>
