<svg width="20" height="21" viewBox="0 0 20 21" fill="none" xmlns="http://www.w3.org/2000/svg">
<path fill-rule="evenodd" clip-rule="evenodd" d="M6.25012 3.62438C6.25012 3.2792 6.52994 2.99938 6.87512 2.99938H16.8751C17.2203 2.99938 17.5001 3.2792 17.5001 3.62438V13.6244C17.5001 13.9696 17.2203 14.2494 16.8751 14.2494H13.1251C12.7799 14.2494 12.5001 13.9696 12.5001 13.6244C12.5001 13.2792 12.7799 12.9994 13.1251 12.9994H16.2501V4.24938H7.50012V7.37438C7.50012 7.71956 7.2203 7.99938 6.87512 7.99938C6.52994 7.99938 6.25012 7.71956 6.25012 7.37438V3.62438Z" fill="#F6C000"/>
<path fill-rule="evenodd" clip-rule="evenodd" d="M2.50012 7.3745C2.50012 7.02932 2.77994 6.7495 3.12512 6.7495H13.1251C13.4703 6.7495 13.7501 7.02932 13.7501 7.3745V17.3745C13.7501 17.7197 13.4703 17.9995 13.1251 17.9995H3.12512C2.77994 17.9995 2.50012 17.7197 2.50012 17.3745V7.3745ZM3.75012 7.9995V16.7495H12.5001V7.9995H3.75012Z" fill="#F6C000"/>
</svg>
