<svg width="50" height="50" viewBox="0 0 50 50" fill="none" xmlns="http://www.w3.org/2000/svg">
<rect width="50" height="50" rx="25" fill="#F6C000"/>
<path fill-rule="evenodd" clip-rule="evenodd" d="M25 38C32.1797 38 38 32.1797 38 25C38 17.8203 32.1797 12 25 12C17.8203 12 12 17.8203 12 25C12 32.1797 17.8203 38 25 38ZM33.75 25C33.75 29.8325 29.8325 33.75 25 33.75C20.1675 33.75 16.25 29.8325 16.25 25C16.25 20.1675 20.1675 16.25 25 16.25C29.8325 16.25 33.75 20.1675 33.75 25ZM34.75 25C34.75 30.3848 30.3848 34.75 25 34.75C19.6152 34.75 15.25 30.3848 15.25 25C15.25 19.6152 19.6152 15.25 25 15.25C30.3848 15.25 34.75 19.6152 34.75 25ZM25 31.5833C28.6359 31.5833 31.5833 28.6359 31.5833 25C31.5833 21.3641 28.6359 18.4167 25 18.4167C21.3641 18.4167 18.4167 21.3641 18.4167 25C18.4167 28.6359 21.3641 31.5833 25 31.5833ZM25 32.5833C29.1882 32.5833 32.5833 29.1882 32.5833 25C32.5833 20.8118 29.1882 17.4167 25 17.4167C20.8118 17.4167 17.4167 20.8118 17.4167 25C17.4167 29.1882 20.8118 32.5833 25 32.5833ZM25 27.1667C26.1966 27.1667 27.1667 26.1966 27.1667 25C27.1667 23.8034 26.1966 22.8333 25 22.8333C23.8034 22.8333 22.8333 23.8034 22.8333 25C22.8333 26.1966 23.8034 27.1667 25 27.1667Z" fill="black"/>
</svg>
