<svg width="50" height="50" viewBox="0 0 50 50" fill="none" xmlns="http://www.w3.org/2000/svg">
<rect width="50" height="50" rx="25" fill="#F6C000"/>
<path fill-rule="evenodd" clip-rule="evenodd" d="M17.4744 23.9344C17.4186 24.0687 17.3898 24.2126 17.3898 24.358L17.39 31.2583C17.3898 31.4843 17.3065 31.7023 17.1559 31.8708C17.0053 32.0393 16.798 32.1466 16.5734 32.1721C16.0576 32.2326 15.6237 32.2761 15.2752 32.3067C14.9632 32.3345 14.6498 32.2728 14.3717 32.1287C14.0936 31.9847 13.8624 31.7642 13.7053 31.4933C12.8032 29.9228 12.2389 28.1812 12.0485 26.3801C11.8581 24.579 12.0458 22.758 12.5996 21.0336C13.1533 19.3091 14.061 17.7193 15.2645 16.3658C16.468 15.0123 17.9408 13.925 19.5886 13.1734C21.2364 12.4218 23.023 12.0224 24.834 12.0009C26.6451 11.9794 28.4406 12.3362 30.1059 13.0485C31.7711 13.7608 33.2693 14.8128 34.5046 16.1373C35.7399 17.4619 36.685 19.0297 37.2796 20.7405C37.3791 21.0301 37.4055 21.3398 37.3562 21.642C37.307 21.9442 37.1837 22.2296 36.9973 22.4726C35.7127 24.1467 34.094 25.5389 32.4968 26.6965V18.8388C32.4968 18.5456 32.3803 18.2645 32.173 18.0572C31.9657 17.8499 31.6845 17.7334 31.3914 17.7334H29.549C29.2559 17.7335 28.9748 17.8499 28.7675 18.0572C28.5603 18.2645 28.4438 18.5457 28.4438 18.8388V28.3809C28.4437 28.5622 28.3902 28.7393 28.29 28.8903C28.1898 29.0413 28.0473 29.1595 27.8804 29.2301C27.4311 29.4197 26.9699 29.6064 26.9699 29.6064V21.6022C26.9699 21.3091 26.8534 21.0279 26.6461 20.8205C26.4388 20.6132 26.1576 20.4967 25.8645 20.4966H24.0221C23.7289 20.4967 23.4478 20.6132 23.2405 20.8205C23.0332 21.0279 22.9167 21.3091 22.9167 21.6022V30.2265C22.9168 30.4341 22.8466 30.6356 22.7178 30.7983C22.5889 30.961 22.4088 31.0753 22.2067 31.1228C21.9158 31.1913 21.6499 31.2568 21.443 31.3182V24.3657C21.443 24.0725 21.3265 23.7914 21.1192 23.5841C20.9119 23.3768 20.6307 23.2603 20.3376 23.2603L18.4988 23.2543C18.3535 23.2536 18.2094 23.2817 18.0749 23.3368C17.9404 23.392 17.8181 23.4732 17.715 23.5757C17.612 23.6783 17.5302 23.8002 17.4744 23.9344ZM23.9806 37.9594C21.5866 37.77 19.2916 36.9219 17.3496 35.5091L17.35 35.5081C24.4522 34.4984 33.2338 31.1822 37.9898 24.0888C38.0097 24.3836 38.0237 24.68 38.0237 24.9797C38.0243 27.3813 37.3605 29.7362 36.1059 31.7839C34.8512 33.8316 33.0545 35.4922 30.9145 36.5822C28.7745 37.6722 26.3747 38.1487 23.9806 37.9594Z" fill="#110F0F"/>
</svg>
