<svg width="66" height="96" viewBox="0 0 66 96" fill="none" xmlns="http://www.w3.org/2000/svg">
<g clip-path="url(#clip0_81_166)">
<path d="M32.9277 76.6514C32.9277 76.6514 32.8619 76.6514 32.8225 76.6774C32.7304 76.7166 32.6647 76.7948 32.6384 76.8861C32.5595 76.9121 32.5069 76.9643 32.4543 77.0555C32.3096 77.3163 32.2176 77.6032 32.1387 77.89C32.0466 78.2029 31.9546 78.5289 31.8362 78.8418C31.7705 78.907 31.731 78.9852 31.7179 79.0634C31.7047 79.1938 31.6916 79.3372 31.6784 79.4676C31.6784 79.5589 31.6653 79.6501 31.6521 79.7414C31.6258 80.0152 31.5995 80.2629 31.5601 80.4976C31.4943 80.9931 31.3891 81.4624 31.2576 81.9057C31.1261 82.323 30.9552 82.7793 30.7316 83.2748C30.5607 83.6529 30.3766 84.0179 30.1662 84.3569C29.89 84.8002 29.5744 85.1914 29.2325 85.5304C28.9169 85.8172 28.575 86.0649 28.1937 86.2866C27.7729 86.5082 27.2995 86.6907 26.7735 86.8211H26.7603C26.2475 86.9385 25.8661 86.9906 25.4848 86.9906C25.2218 86.9906 24.9851 86.9515 24.7484 86.8863C24.5511 86.8211 24.3802 86.7429 24.2355 86.6647C24.0909 86.5734 23.9462 86.4561 23.8016 86.3257C23.6701 86.1823 23.5649 86.0388 23.4728 85.8693C23.3808 85.6868 23.3019 85.4912 23.2361 85.2826C23.1704 85.0088 23.1441 84.722 23.1441 84.4221C23.1441 84.1092 23.1967 83.7963 23.2756 83.4573L23.3676 83.3921C23.4465 83.3399 23.4991 83.2617 23.5123 83.1704C23.5254 83.0661 23.5123 82.9618 23.4465 82.8836C23.3808 82.7923 23.2756 82.7402 23.1572 82.7402C23.0783 82.7402 22.9994 82.7663 22.9337 82.8054C22.8285 82.8706 22.7233 82.9358 22.6049 83.001L22.5786 83.027C22.3156 83.1574 22.0263 83.3008 21.737 83.4442L21.3557 83.6268C20.856 83.8745 20.4089 84.0962 19.9749 84.3439C19.5278 84.5916 19.1201 84.8784 18.7782 85.1914C18.581 85.3739 18.3969 85.5564 18.2391 85.739C18.0944 85.9085 17.9498 86.104 17.8051 86.3387C17.6079 86.6647 17.4501 87.0297 17.3186 87.4861C17.2134 87.8642 17.1476 88.2684 17.1476 88.7247C17.1476 89.1159 17.2002 89.52 17.3317 89.9242C17.3975 90.1328 17.5027 90.3284 17.6079 90.4849C17.7131 90.6674 17.8577 90.8239 18.0287 90.9933C18.1865 91.1498 18.3706 91.2932 18.6467 91.4497C18.7914 91.5279 18.9623 91.6061 19.1859 91.6713C19.2253 91.906 19.2911 92.1407 19.3568 92.3493C19.462 92.6883 19.633 93.0273 19.8566 93.3663C20.2379 93.953 20.8034 94.4354 21.4609 94.7483C21.9869 94.9961 22.5786 95.1134 23.2361 95.1134C23.3939 95.1134 23.5517 95.1134 23.7095 95.0873C24.4854 95.0221 25.3007 94.7483 26.208 94.2529C27.694 93.4576 29.0353 92.1929 30.3371 90.3936C30.6264 89.9894 30.8894 89.5722 31.1524 89.181C31.4549 88.6986 31.7179 88.2684 31.9546 87.8381C32.4674 86.8994 32.8225 85.9345 32.9934 84.9567V84.9045L33.0066 84.8524C33.1249 84.9958 33.2433 85.1262 33.3616 85.2696L33.48 85.413L33.6115 85.5695C33.8613 85.8693 34.1243 86.1953 34.4399 86.4561C34.4794 86.4952 34.532 86.5213 34.5977 86.5343C34.6109 86.6777 34.6503 86.8211 34.7029 86.9385C34.7818 87.0819 34.8739 87.1601 35.0185 87.1862C35.0317 87.1862 35.058 87.1862 35.0711 87.1862C35.2289 87.1862 35.3867 87.0949 35.4393 86.9515C35.5314 86.7299 35.5182 86.5082 35.5182 86.2866C35.5182 86.0649 35.4788 85.8302 35.4525 85.6477C35.3867 85.2435 35.2684 84.8654 35.1106 84.4091C34.9659 83.9918 34.8081 83.5877 34.6635 83.2487C34.5583 83.0009 34.4531 82.7663 34.3347 82.5185L34.2427 82.3099C34.2427 82.3099 34.269 82.3099 34.2821 82.3099C34.4268 82.3099 34.5451 82.2056 34.5714 82.0622C34.6898 81.4885 34.7029 80.8757 34.5977 80.3151C34.5846 80.2369 34.5583 80.1847 34.5188 80.1326C34.4925 79.9109 34.4531 79.6762 34.3873 79.4285C34.2032 78.7375 33.8876 78.0856 33.572 77.4597C33.4668 77.2511 33.3616 77.0425 33.2696 76.8339C33.217 76.7166 33.1118 76.6514 32.9934 76.6514H32.9277Z" fill="#DA3927"/>
<path d="M64.0275 0.404175C64.0275 0.404175 63.988 0.404175 63.9617 0.404175C63.8171 0.430251 63.6856 0.50848 63.5935 0.625824C63.1333 0.560633 62.6862 0.547595 62.2522 0.521518H62.1865C62.0155 0.521518 61.8314 0.521518 61.6473 0.521518C61.3317 0.521518 61.0161 0.521518 60.7005 0.534556H60.569C59.6485 0.560633 58.7017 0.599747 57.7944 0.638862H57.6234C55.5194 0.743167 53.5995 0.847472 51.7585 0.977854C50.5882 1.05608 49.3915 1.16039 48.2475 1.25166C47.4716 1.31685 46.6826 1.38204 45.9068 1.44723C43.9474 1.59065 41.9617 1.70799 40.0418 1.82533L37.8326 1.95572L35.6892 2.0861C34.9396 2.12521 34.2164 2.17737 33.4931 2.24256C32.8619 2.29471 32.1913 2.37294 31.3234 2.4642C30.7316 2.5294 30.153 2.60762 29.5613 2.67282C27.3915 2.94662 25.1429 3.22042 22.9205 3.24649C22.8416 3.14219 22.7101 3.077 22.5918 3.06396C22.5655 3.06396 22.5523 3.06396 22.526 3.06396C22.3945 3.06396 22.2893 3.11611 22.1972 3.1813C21.8553 3.38991 21.5397 3.66372 21.2636 3.91144C21.04 4.10701 20.8165 4.31562 20.5929 4.52423L20.3562 4.74588C19.7513 5.30652 19.1333 5.85413 18.4363 6.27135C18.2128 6.38869 18.0155 6.493 17.8051 6.57123C17.6868 6.62338 17.5947 6.71465 17.5421 6.83199C17.4895 6.96237 17.4895 7.10579 17.5421 7.22313C17.5421 7.24921 17.5684 7.26225 17.5816 7.28833C17.1871 7.49694 16.7926 7.70555 16.3981 7.91416L16.0562 8.09669L15.9247 8.16188C14.3598 8.98329 12.7424 9.83077 11.1907 10.7434C10.2702 11.278 9.48117 11.7735 8.77107 12.2428C8.02152 12.7383 7.25882 13.2989 6.46981 13.9117C5.99641 14.2768 5.53616 14.6549 5.06276 15.02L4.24746 15.6719C3.89241 15.9587 3.52421 16.2325 3.16916 16.5063C2.91931 16.6888 2.66946 16.8583 2.40645 17.0148C2.3144 17.08 2.2092 17.1321 2.11715 17.1973C1.82785 17.3929 1.5517 17.6146 1.32815 17.8623C1.32815 17.8623 1.32815 17.8623 1.315 17.8623C1.30185 17.8623 1.27555 17.8623 1.2624 17.8623C1.01255 17.9014 0.841601 18.123 0.854751 18.3838C1.052 20.9132 1.052 23.4296 1.052 25.8677C1.052 28.3971 1.052 31.2655 1.30185 34.0687C1.3413 34.5251 1.38075 34.9814 1.43335 35.4377C1.51225 36.3113 1.6043 37.2109 1.67005 38.1105C1.72265 38.8146 1.7621 39.4665 1.77525 40.0793C1.80155 40.7051 1.80155 41.344 1.80155 41.9568V42.0742C1.80155 43.1954 1.80155 44.3298 1.77525 45.451C1.7621 47.1981 1.7358 48.9974 1.7621 50.7706C1.77525 52.3221 1.82785 53.7172 1.9199 55.0471C1.9725 55.7512 2.0251 56.4552 2.104 57.1593C2.16975 57.7851 2.2618 58.4501 2.3933 59.089C2.38015 59.1411 2.367 59.2063 2.38015 59.2584C2.38015 59.3497 2.4459 59.454 2.52481 59.5192C2.55111 59.5583 2.57741 59.5844 2.61686 59.6105C2.61686 59.7539 2.65631 59.8712 2.73521 59.9755C2.81411 60.0668 2.90616 60.119 3.01136 60.119C3.85296 60.1711 4.77346 60.1842 5.78601 60.1842C6.79856 60.1842 7.82427 60.1581 8.78422 60.132C10.4411 60.0929 12.1375 60.0668 13.7681 60.0407H14.6491C17.9892 59.9755 21.3951 59.8843 24.6826 59.806L26.8129 59.7539C29.7454 59.6757 32.7173 59.5714 35.5971 59.454L38.214 59.3497C38.9767 59.3236 39.7525 59.2976 40.5152 59.2715C41.6593 59.2324 42.8165 59.1933 43.9605 59.1541C44.9863 59.115 45.9068 59.0629 46.7615 58.9977C47.2481 58.9586 47.7346 58.9325 48.2212 58.8934C48.642 58.8543 49.0891 58.8021 49.6677 58.6978C50.0227 58.6326 50.2726 58.3588 50.2989 58.0329C50.5356 57.8112 50.7854 57.5896 51.0221 57.3679C51.2194 57.1723 51.4298 56.9898 51.627 56.8073C52.1925 56.2988 52.7579 55.8033 53.1787 55.4252C54.2176 54.5256 55.2827 53.639 56.361 52.7263L56.5846 52.5438L57.9653 51.3834C58.5045 50.9401 59.0305 50.4707 59.5433 50.0144C59.8852 49.7145 60.214 49.4146 60.5427 49.1017C60.7268 48.9322 60.9109 48.7627 61.095 48.5932L61.6342 48.0978C61.9629 47.7979 62.3048 47.485 62.6336 47.1851C63.0544 46.794 63.4883 46.3767 63.9617 45.9074C64.0143 45.9334 64.0669 45.9465 64.1327 45.9595C64.159 45.9595 64.1853 45.9595 64.2116 45.9595C64.3694 45.9595 64.5798 45.8943 64.6718 45.7379C64.7507 45.6205 64.8296 45.4641 64.8954 45.2946C64.9611 45.112 65.0006 44.9165 65.04 44.7209V44.6427C65.1452 44.2385 65.211 43.8213 65.2636 43.4301C65.382 42.5435 65.4214 41.6569 65.4345 40.9789C65.474 39.297 65.4214 37.6281 65.3556 35.9201C65.3162 34.9292 65.2505 33.9253 65.1978 32.9474C65.1584 32.2955 65.1189 31.6436 65.0926 30.9917C64.9874 29.049 64.948 27.5757 64.948 26.1937C64.948 25.0072 64.948 24.0293 64.9085 23.1167C64.8822 22.1649 64.8428 21.2131 64.7902 20.2613V20.0266L64.7639 19.6876C64.685 17.784 64.5929 15.8153 64.5798 13.8856C64.5798 12.647 64.6192 11.6431 64.685 10.7174C64.7376 9.96115 64.8165 9.20494 64.8822 8.46176C64.9085 8.12277 64.948 7.78378 64.9743 7.44478C65.0269 6.92326 65.0663 6.40173 65.0795 5.86717C65.0926 5.35868 65.0795 4.81107 65.0006 4.18524C64.948 3.67675 64.8691 3.15523 64.7902 2.64674C64.7113 2.07306 64.6192 1.48634 64.5666 0.899625C64.5403 0.638862 64.2905 0.417213 64.0012 0.417213L64.0275 0.404175Z" fill="#017DC5"/>
<path d="M33.4142 59.6366C33.2696 59.6366 33.1381 59.6366 32.9934 59.6366C32.6515 59.6366 32.3096 59.6757 31.9809 59.7018L31.6127 59.7279C31.5075 59.7279 31.4154 59.7931 31.3497 59.8713C31.2708 59.9625 31.2313 60.0929 31.2576 60.2103C31.2708 60.3146 31.3234 60.4058 31.4023 60.471C31.376 60.5753 31.3628 60.6666 31.3628 60.784C31.3628 60.9274 31.3628 61.0838 31.3628 61.2272V61.3316C31.3628 61.4489 31.3628 61.5793 31.3628 61.6966C31.3628 61.8661 31.3628 62.0356 31.376 62.2051C31.376 63.196 31.2576 64.1869 31.1261 65.2821C31.0604 65.7776 31.0078 66.2861 30.9552 66.7815C30.9289 67.0553 30.9157 67.3422 30.8894 67.616V67.8767C30.8237 68.6851 30.7711 69.3631 30.7053 70.0411C30.6264 70.7321 30.5212 71.5535 30.324 72.3358C30.1662 72.9094 29.9689 73.3919 29.7322 73.8091C29.5744 74.0698 29.4035 74.2915 29.2194 74.5001C29.1931 74.4349 29.1405 74.3828 29.0616 74.3176C28.5619 73.783 28.1148 73.1963 27.7203 72.5444C27.0628 71.4231 26.5368 70.1454 26.0897 68.659L26.0634 68.5808V68.6069C25.59 66.8728 25.3401 65.3343 25.3138 63.9261V63.861V63.7958C25.3138 63.7567 25.3138 63.7306 25.3138 63.7045C25.3138 63.7045 25.3138 63.7175 25.3138 63.7306C25.3138 62.7658 25.4322 61.84 25.6557 60.9795C25.6952 60.8491 25.7346 60.7188 25.7741 60.5884C25.853 60.3537 25.7609 60.132 25.5505 60.0408C25.4979 60.0147 25.4453 60.0147 25.3927 60.0147C25.2349 60.0147 25.0771 60.0929 25.0114 60.2233C24.7221 60.1451 24.4065 60.0929 24.0777 60.0538C23.7621 60.0277 23.4334 60.0147 23.1441 60.0017C22.8679 60.0017 22.5786 60.0017 22.3025 60.0017C21.9343 60.0017 21.5529 60.0017 21.1847 59.9886C21.1847 59.9886 21.1847 59.9886 21.1716 59.9886C21.0532 59.9886 20.9875 60.0017 20.9217 60.0408C20.9086 60.0408 20.8954 60.0408 20.8691 60.0408C20.6587 60.0408 20.4615 60.2103 20.4483 60.4058C20.1722 62.9483 20.514 65.7515 21.4346 68.7112C21.8554 70.0411 22.3945 71.2927 23.0389 72.4531C23.841 73.8743 24.6563 75.0738 25.5505 76.1038C25.853 76.4558 26.1949 76.8209 26.6288 77.2381C26.9313 77.538 27.2206 77.7857 27.4967 78.0204C27.2732 78.3203 27.0628 78.6462 26.8655 78.9461L26.6814 79.233L26.4053 79.6632C26.1686 80.0283 25.9187 80.4064 25.6557 80.7715C25.3138 81.2539 24.9456 81.7493 24.5511 82.2578C24.4196 82.4273 24.3013 82.5968 24.1698 82.7663C23.9199 83.1053 23.6569 83.4573 23.3808 83.7833C23.2887 83.9006 23.2624 84.0701 23.315 84.2266C23.315 84.8133 23.4071 85.3218 23.5912 85.7651C23.7884 86.2214 24.1435 86.6386 24.5774 86.9255C25.0245 87.2123 25.5637 87.3688 26.1949 87.3688H26.2475C26.7866 87.3688 27.3652 87.1993 27.9438 86.8994C28.1937 86.769 28.4567 86.6126 28.6934 86.43C28.9432 86.2475 29.1668 86.0389 29.4166 85.7781C29.798 85.4 30.1267 84.9437 30.4818 84.3439C30.7711 83.8615 31.0078 83.34 31.1919 82.8054C31.376 82.2839 31.5206 81.6972 31.6521 81.0061C31.7179 80.628 31.7705 80.2239 31.7968 79.8197C31.8231 79.4155 31.8494 78.9722 31.7968 78.5289C31.7836 78.3594 31.6784 78.2029 31.5206 78.0986C31.5732 77.9943 31.6258 77.89 31.6784 77.7727C31.8231 77.4598 31.9546 77.1338 32.0992 76.8209L32.2307 76.508C32.4411 76.0125 32.6515 75.504 32.8356 74.9825C33.2433 73.8482 33.5852 72.6226 33.8745 71.2145C33.9928 70.6278 34.1112 70.0019 34.2164 69.2979L34.2427 69.1545C34.3347 68.5808 34.4268 67.981 34.4794 67.3943C34.5057 67.0944 34.532 66.7815 34.532 66.4425C34.5451 66.4425 34.5714 66.4556 34.5977 66.4556C34.6109 66.4556 34.6372 66.4556 34.6503 66.4556C34.8739 66.4556 35.1237 66.2861 35.1369 66.0383C35.1763 65.2821 35.1369 64.4998 35.0974 63.7567C35.0711 63.2221 35.0317 62.7006 35.0054 62.1921C34.9922 61.9183 34.9659 61.6445 34.9528 61.3707C34.9528 61.2273 34.8476 61.1099 34.7161 61.0317C34.7555 60.7579 34.8081 60.5102 34.8607 60.2885C34.887 60.1712 34.8344 60.0277 34.7687 59.9365C34.6898 59.8452 34.5846 59.78 34.4531 59.7539C34.4268 59.7539 34.4136 59.7539 34.3873 59.7539C34.361 59.7539 34.3347 59.7409 34.2953 59.7279C34.0849 59.6757 33.8876 59.6757 33.6904 59.6627C33.5852 59.6627 33.48 59.6627 33.3748 59.6627L33.4142 59.6366Z" fill="#FAD82F"/>
<path d="M34.6898 62.2312C34.6898 62.2312 34.6898 62.2573 34.6898 62.2703V62.2442V62.2312ZM66 38.5148C65.9737 36.1027 65.8027 33.6906 65.6844 31.2786C65.6844 31.3177 65.6844 31.3568 65.6844 31.3959C65.5924 29.5706 65.5792 27.7452 65.5792 25.9329C65.5792 24.0294 65.6055 22.1388 65.6318 20.2353C65.6844 16.4281 65.7633 12.621 65.7502 8.81382C65.7502 6.03669 65.6844 3.25956 65.5397 0.495474C65.5397 0.352054 65.4083 0.195596 65.2899 0.117367C65.1979 0.052176 65.0795 0.0130615 64.9612 0.0130615C64.9217 0.0130615 64.8954 0.0130615 64.8559 0.0130615C64.8297 0.0130615 64.7902 0.0260997 64.7639 0.0391379C64.7639 0.0391379 64.7639 0.0391379 64.7508 0.0391379C64.422 0.0391379 64.1064 0.052176 63.7776 0.0652142C63.4357 0.0782523 63.107 0.0912905 62.7651 0.117367C62.7914 0.117367 62.8308 0.117367 62.8571 0.117367C62.0155 0.156481 61.1608 0.195596 60.3192 0.23471C60.3455 0.23471 60.3849 0.23471 60.4112 0.23471C59.8195 0.260787 59.2277 0.286863 58.636 0.312939C58.6754 0.312939 58.7017 0.312939 58.728 0.312939C55.9139 0.443321 53.0998 0.560664 50.2989 0.717122C47.4848 0.860542 44.6838 1.04308 41.8828 1.26473C41.0281 1.32992 40.1865 1.40815 39.3317 1.4603C38.4638 1.51245 37.5828 1.5646 36.7017 1.60372C31.9809 1.82537 27.2074 1.91663 22.5523 2.80323C22.526 2.80323 22.4997 2.79019 22.4603 2.79019C22.4471 2.79019 22.434 2.79019 22.4077 2.79019C22.263 2.79019 22.1447 2.85538 22.0132 2.93361C16.1219 6.92329 10.0992 10.7956 4.22116 14.8766C3.60311 15.3068 2.98506 15.7371 2.38016 16.1673C2.09086 16.376 1.80156 16.5846 1.51225 16.7801C1.19665 16.9888 0.854753 17.1974 0.578603 17.4581C0.565453 17.4712 0.552303 17.4972 0.539153 17.5103C0.381352 17.5885 0.263002 17.745 0.223552 17.9405C-0.0920488 19.6485 -0.0131486 21.4087 0.105202 23.1297C0.170952 23.9902 0.236702 24.8638 0.289302 25.7243C0.341902 26.624 0.341902 27.5106 0.368202 28.4102C0.433952 32.1391 0.499703 35.8811 0.683803 39.61C0.762703 41.2919 0.881053 42.9869 0.973104 44.6688C1.06515 46.3637 1.1572 48.0457 1.2361 49.7406C1.315 51.4356 1.3939 53.1175 1.4728 54.8125C1.51225 55.673 1.55171 56.5465 1.57801 57.4071C1.60431 58.059 1.63061 58.7109 1.67006 59.3628C1.68321 59.6496 1.68321 59.9495 1.69636 60.2363C1.69636 60.445 1.80156 60.6405 2.05141 60.6405C2.45906 60.6405 2.85356 60.6405 3.26121 60.6275C3.69516 60.6275 4.14226 60.6145 4.57621 60.6014C5.41781 60.6014 6.27257 60.6014 7.11417 60.6014C8.81052 60.6014 10.5069 60.6275 12.1901 60.6014C14.7938 60.5753 17.3843 60.5362 19.9749 60.4841C19.8565 62.3355 20.0406 64.213 20.422 66.0253C20.8691 68.1114 21.6055 70.1453 22.5918 72.062C23.1835 73.2224 23.8936 74.3306 24.6826 75.3606C25.064 75.8561 25.4716 76.3254 25.8924 76.7948C26.3264 77.2642 26.7735 77.7075 27.26 78.1117C26.9576 78.6332 26.642 79.1417 26.3001 79.6371C25.8793 80.2499 25.3927 80.8106 24.893 81.3582C24.6432 81.5537 24.3933 81.7363 24.1303 81.8927C22.9863 82.5968 21.7633 83.1444 20.5798 83.7833C19.9486 84.1223 19.3305 84.4873 18.7388 84.8915C18.1996 85.2696 17.6868 85.6999 17.266 86.2084C16.9767 86.5604 16.74 86.9646 16.5822 87.3948C16.4901 87.6295 16.4375 87.8772 16.3981 88.125C16.3586 88.3857 16.3718 88.6465 16.3849 88.9073C16.3981 89.155 16.4507 89.3897 16.5164 89.6244C16.5953 89.9242 16.7137 90.2111 16.8452 90.4849C17.003 90.7848 17.1871 91.0846 17.3975 91.3584C17.529 91.541 17.6868 91.6974 17.8446 91.8539C17.9498 91.9582 18.055 92.0495 18.1733 92.1407C18.2785 92.219 18.3837 92.2841 18.4758 92.3624C18.5021 92.3885 18.5547 92.4145 18.5941 92.4276C18.6599 92.923 18.8045 93.4054 19.0281 93.8487C19.199 94.1877 19.4226 94.5137 19.6856 94.7875C19.8302 94.9309 19.988 95.0743 20.1458 95.1917C20.3431 95.3351 20.5666 95.4524 20.7771 95.5698C21.1847 95.7784 21.6449 95.8827 22.0921 95.9609C22.6049 96.0391 23.1178 96.0391 23.6306 96C24.104 95.9609 24.5643 95.8696 25.0245 95.7262C25.5111 95.5698 25.9845 95.3872 26.4447 95.1395C28.312 94.1486 29.798 92.5449 30.942 90.7978C31.9677 89.2332 32.7304 87.4731 33.1381 85.6477C33.309 85.8824 33.48 86.1041 33.6641 86.3387C34.1112 86.8733 34.5846 87.3948 35.0054 87.9424C35.0974 88.0598 35.2684 88.125 35.4262 88.0989C35.6234 88.0598 35.7681 87.9033 35.7944 87.7077C35.9785 86.0649 35.7286 84.4091 35.1369 82.8706C35.0843 82.7272 35.0185 82.5968 34.9659 82.4664C35.0054 82.2708 35.0317 82.0883 35.0448 81.8927C35.058 81.5929 35.058 81.293 35.0448 80.9931C35.0185 80.4325 34.9265 79.8588 34.7687 79.3112C34.4531 78.2421 33.8876 77.2512 33.1118 76.4428C33.217 76.1299 33.3353 75.8169 33.4405 75.504C33.8613 74.2524 34.2164 72.9877 34.532 71.6969C35.1632 69.0632 35.5708 66.3773 35.5971 63.6654C35.5971 62.4398 35.5314 61.2272 35.3604 60.0147C35.8207 59.9886 36.2678 59.9756 36.728 59.9495C36.7806 59.9495 36.8201 59.9495 36.8727 59.9495C37.1883 59.9365 37.5039 59.9234 37.8195 59.9104C39.4238 59.8452 41.0412 59.8322 42.6455 59.793C45.1309 59.7279 47.6294 59.5975 50.0753 59.1281C50.1805 59.102 50.2726 59.0499 50.3515 58.9716C50.3909 58.9586 50.4304 58.9325 50.4698 58.9065C50.5093 58.8804 50.5487 58.8413 50.575 58.7891C51.1405 58.3719 51.6665 57.9286 52.2056 57.4853C52.8237 56.9638 53.4417 56.4422 54.0466 55.9207C54.6647 55.3992 55.2696 54.8646 55.8745 54.3301C56.4662 53.8085 57.058 53.274 57.6497 52.7655C60.0167 50.7185 62.4626 48.7758 64.6982 46.5984C64.8954 46.4029 65.1058 46.2073 65.3031 46.0117C65.4477 45.8683 65.4872 45.6858 65.4477 45.5032C65.5135 45.2555 65.5661 45.0078 65.6187 44.747C65.6713 44.4602 65.7107 44.1733 65.7502 43.8865C65.8291 43.3128 65.8817 42.7391 65.9211 42.1524C66.0132 40.9529 66.0263 39.7403 66.0132 38.5278L66 38.5148ZM26.9181 76.7948C25.945 75.8821 25.1297 74.826 24.4065 73.7048C23.3413 72.0228 22.5129 70.2105 21.908 68.333C21.303 66.4164 20.9217 64.4216 20.8428 62.4007C20.8165 61.7618 20.8428 61.1229 20.8822 60.4841C21.4214 60.4841 21.9474 60.458 22.4866 60.445C23.5254 60.4189 24.5643 60.3928 25.6031 60.3537C25.3796 61.8009 25.2875 63.2742 25.327 64.7345C25.3796 66.612 25.6294 68.4895 26.1949 70.2757C26.4579 71.1102 26.7998 71.9316 27.2337 72.7008C27.4441 73.0789 27.694 73.444 27.957 73.796C28.22 74.135 28.4961 74.474 28.8249 74.7739C28.838 74.7869 28.8643 74.8 28.8775 74.813C28.5356 75.7126 28.1411 76.5862 27.694 77.4337C27.4441 77.2251 27.1811 77.0165 26.9444 76.7948H26.9181ZM26.2738 60.3406C27.7466 60.3015 29.2194 60.2494 30.6922 60.1972C30.7448 60.8231 30.7842 61.4489 30.8105 62.0617C30.9157 65.0735 30.6922 68.0984 30.0215 71.0319C29.7848 72.0228 29.5087 72.9877 29.1799 73.9395C29.1405 73.9003 29.101 73.8743 29.0616 73.8352C28.6276 73.431 28.2594 72.9486 27.9438 72.4531C27.4573 71.6708 27.0891 70.8103 26.8129 69.9367C26.3264 68.3591 26.0897 66.7163 26.0108 65.0735C25.945 63.4959 26.0239 61.8922 26.2869 60.3276L26.2738 60.3406ZM18.9229 89.0507C18.7256 89.7287 18.5941 90.4327 18.5678 91.1368C18.5021 91.0455 18.4363 90.9673 18.3706 90.876C18.0813 90.4197 17.8314 89.9242 17.6605 89.4158C17.5816 89.155 17.529 88.8942 17.5158 88.6204C17.5158 88.3988 17.529 88.1771 17.5816 87.9555C17.6473 87.7077 17.7394 87.46 17.8709 87.2253C18.0681 86.8733 18.318 86.5604 18.5941 86.2736C19.2516 85.5956 20.0406 85.048 20.8428 84.5395C21.5661 84.0962 22.3025 83.6659 23.0389 83.2487C22.7101 83.5616 22.3945 83.8745 22.0789 84.2005C21.6055 84.6829 21.1584 85.1653 20.7244 85.6868C20.4351 86.0389 20.159 86.4039 19.9223 86.7951C19.5015 87.4991 19.1727 88.2554 18.936 89.0376L18.9229 89.0507ZM34.9922 86.3518C34.9922 86.3518 34.9922 86.4691 34.9922 86.5213C34.887 86.4039 34.7818 86.2736 34.6766 86.1562C34.3084 85.726 33.9665 85.2957 33.6641 84.8263C33.5457 84.6307 33.4274 84.4221 33.3222 84.2135C33.2433 84.031 33.0329 83.9267 32.8225 83.9528C32.7436 83.9658 32.6778 84.0049 32.6121 84.044C32.5069 84.1223 32.4806 84.2266 32.4543 84.3439C32.4017 84.5916 32.3622 84.8394 32.2965 85.0871C31.994 86.3387 31.5075 87.5252 30.9026 88.6465C30.2451 89.846 29.4692 90.9673 28.5487 91.9712C27.9307 92.6231 27.2469 93.2099 26.4842 93.7053C25.9319 94.0443 25.3533 94.3181 24.7352 94.5267C24.2355 94.6701 23.7095 94.7744 23.1835 94.8005C22.7627 94.8005 22.3288 94.7744 21.908 94.6962C21.645 94.631 21.3819 94.5398 21.1321 94.4094C20.9348 94.3051 20.7639 94.1747 20.5929 94.0313C20.4351 93.8748 20.3036 93.7183 20.1853 93.5358C20.0406 93.3011 19.9223 93.0404 19.8302 92.7796C19.7119 92.3885 19.6593 91.9973 19.633 91.5931C19.6198 90.9543 19.6856 90.3154 19.8302 89.6896C20.0143 88.9203 20.2905 88.1902 20.6587 87.4861C21.1979 86.5343 21.9343 85.6999 22.6838 84.9045C22.6838 84.9045 22.7101 84.8785 22.7101 84.8654C22.7101 85.1523 22.7627 85.4261 22.8548 85.6999C23.0126 86.1823 23.315 86.6125 23.6832 86.9515C23.9988 87.2253 24.3933 87.4339 24.801 87.5252C25.2612 87.6426 25.7083 87.6556 26.1817 87.5904C26.6288 87.5383 27.0891 87.3948 27.5099 87.2253C27.9307 87.0558 28.3383 86.8212 28.7065 86.5604C29.1799 86.2344 29.6007 85.8303 29.9821 85.4C30.3634 84.9828 30.679 84.5134 30.9552 84.031C31.1656 83.6659 31.3365 83.2878 31.4943 82.8967C31.6521 82.4795 31.7705 82.0492 31.8757 81.6189C32.0203 80.967 32.0861 80.3151 32.0729 79.6502C32.5726 80.1456 32.9934 80.7193 33.3748 81.306C33.8613 82.0883 34.2558 82.9097 34.532 83.7833C34.7818 84.6047 34.9265 85.4652 34.9659 86.3257L34.9922 86.3518ZM33.4537 77.6553C33.7298 78.0986 33.9402 78.581 34.098 79.0765C34.2953 79.7154 34.4005 80.3933 34.4399 81.0583C34.4399 81.1756 34.4399 81.2799 34.4399 81.3973C34.3084 81.1756 34.1638 80.954 34.0191 80.7323C33.7956 80.4064 33.5457 80.0935 33.2827 79.7936C33.1512 79.6371 33.0066 79.4937 32.8751 79.3503C32.7173 79.1938 32.5463 79.0374 32.4148 78.8548C32.3622 78.7896 32.2965 78.7636 32.2307 78.7375C32.2833 78.6332 32.3359 78.5289 32.3885 78.4246C32.5463 78.0986 32.6647 77.7596 32.783 77.4206C32.8356 77.2772 32.8882 77.1208 32.9408 76.9773C33.1249 77.199 33.2959 77.4206 33.4537 77.6553ZM33.7167 71.1493C33.4142 72.4531 33.046 73.7439 32.6515 75.0216C32.4543 75.6735 32.2307 76.3124 31.9677 76.9382C31.8231 77.2642 31.6784 77.5901 31.5206 77.9161C31.4549 78.0725 31.376 78.216 31.3102 78.3724C31.2708 78.4507 31.2445 78.5289 31.2182 78.6071C31.1787 78.7114 31.1524 78.8157 31.1261 78.9331C31.0998 78.9983 31.0867 79.0765 31.113 79.1417C31.113 79.1938 31.1393 79.246 31.1787 79.2851C31.1787 79.3112 31.1787 79.3373 31.1787 79.3633C31.205 80.1065 31.1393 80.8497 30.9683 81.5798C30.8105 82.2448 30.5738 82.8706 30.2582 83.4834C29.9558 84.031 29.5876 84.5395 29.1668 84.9958C28.8117 85.3609 28.4172 85.6999 27.9833 85.9867C27.6151 86.2084 27.2206 86.4039 26.7998 86.5343C26.4842 86.6256 26.1423 86.6908 25.8135 86.7169C25.5768 86.7169 25.3533 86.7038 25.1297 86.6517C24.9719 86.6125 24.8273 86.5604 24.6826 86.4822C24.5511 86.4039 24.4328 86.3257 24.3276 86.2344C24.2224 86.1301 24.1172 86.0128 24.0383 85.8824C23.9462 85.726 23.8542 85.5565 23.8016 85.3739C23.7358 85.1132 23.6964 84.8394 23.6832 84.5786C23.6832 84.37 23.6832 84.1744 23.6832 83.9658C23.6832 83.9658 23.6832 83.9528 23.6832 83.9397C24.2618 83.353 24.8536 82.7663 25.419 82.1665C25.8661 81.6841 26.3001 81.1887 26.6946 80.6671C27.0891 80.1456 27.4573 79.585 27.786 79.0243C29.1405 76.7818 30.1267 74.3436 30.7842 71.8012C31.7573 68.0071 31.9677 64.0565 31.639 60.1581C32.0072 60.1451 32.3885 60.132 32.7567 60.119C33.3353 60.0929 33.9271 60.0668 34.5057 60.0408C34.6109 60.7709 34.6766 61.501 34.7161 62.2312C34.7161 62.2703 34.7161 62.2964 34.7161 62.3355C34.7161 62.3094 34.7161 62.2833 34.7161 62.2573C34.8213 65.243 34.4136 68.2287 33.743 71.1363L33.7167 71.1493ZM44.3288 58.75C42.7244 58.8282 41.1201 58.8543 39.5158 58.8934C38.7137 58.9195 37.9115 58.9456 37.0962 58.9847C36.9779 58.9847 36.8464 58.9847 36.7149 58.9977C36.6754 58.9977 36.636 58.9977 36.5965 58.9977C36.4913 58.9977 36.3861 58.9977 36.2941 59.0108C36.0837 59.0108 35.8864 59.0368 35.676 59.0368C35.2289 59.0629 34.7818 59.076 34.3347 59.102C33.48 59.1411 32.6252 59.1672 31.7705 59.2063C30.061 59.2715 28.3515 59.3237 26.642 59.3758C26.4842 59.3758 26.3264 59.3758 26.1686 59.3758C26.1291 59.3628 26.1028 59.3498 26.0634 59.3498H26.0371C25.9845 59.3498 25.9319 59.3628 25.8793 59.3889C22.7233 59.4801 19.5541 59.5453 16.3981 59.5844C14.6886 59.6105 12.9791 59.6366 11.2696 59.6236C9.57322 59.6105 7.87687 59.5453 6.19367 59.5453C5.50986 59.5453 4.83921 59.5584 4.16856 59.5844C3.70831 59.6105 3.24806 59.6236 2.78781 59.6757C2.78781 58.9065 2.74836 58.1242 2.72206 57.3549C2.69576 56.4162 2.65631 55.4774 2.63001 54.5387C2.56426 52.6612 2.47221 50.7837 2.38016 48.8931C2.28811 47.0156 2.18291 45.1381 2.07771 43.2607C1.95936 41.3962 1.84101 39.5187 1.76211 37.6542C1.64376 34.7858 1.578 31.9174 1.51225 29.036C1.48595 27.68 1.4728 26.311 1.3676 24.9551C1.27555 23.6252 1.14405 22.3083 1.1046 20.9784C1.1046 20.0918 1.14405 19.2052 1.27555 18.3186C4.85236 17.6276 8.48177 17.1582 12.1112 16.7801C13.9916 16.5846 15.8852 16.4151 17.7657 16.2586C19.6593 16.1022 21.5529 15.9848 23.4334 15.8544C27.2074 15.6067 30.9946 15.3981 34.7687 15.1243C36.6491 14.9939 38.5296 14.8375 40.41 14.7071C42.3036 14.5767 44.1973 14.4593 46.0909 14.2899C46.7352 14.2247 47.3664 14.1595 48.0108 14.0682C48.471 14.003 48.9576 13.9248 49.4178 13.8074C48.9181 20.7307 48.9576 27.68 49.1022 34.6033C49.1417 36.3895 49.1811 38.1888 49.2206 39.975C49.2337 40.8747 49.26 41.7613 49.2732 42.6609C49.2732 43.0912 49.2863 43.5214 49.2995 43.9517C49.2995 44.1603 49.2995 44.3819 49.2995 44.5905C49.2995 44.6949 49.2995 44.7992 49.2995 44.9165C49.2995 44.9556 49.2995 44.9947 49.2995 45.0208C49.2995 45.1512 49.2995 45.2685 49.2995 45.3989C49.2995 46.2855 49.3258 47.1851 49.3258 48.0717C49.3389 49.871 49.3258 51.6833 49.3521 53.4826C49.3652 54.304 49.3784 55.1254 49.4047 55.9468C49.431 56.69 49.4441 57.4331 49.4967 58.1763C47.7872 58.4892 46.0514 58.6457 44.3156 58.7239L44.3288 58.75ZM49.7203 12.6862C49.6019 12.6862 49.4836 12.6862 49.3652 12.6862C49.0365 12.6862 48.7077 12.7122 48.379 12.7383C47.8924 12.7774 47.4059 12.8296 46.9062 12.8687C45.9594 12.96 45.0126 13.0382 44.0789 13.1164C42.1853 13.2729 40.3048 13.4033 38.4112 13.5336C34.6372 13.7944 30.8763 14.0552 27.1022 14.3159C23.3282 14.5767 19.5409 14.8635 15.78 15.2416C12.0191 15.6197 8.27137 16.1022 4.53676 16.7541C3.98446 16.8453 3.44531 16.9496 2.89301 17.0539C5.75971 15.1895 8.62642 13.299 11.4931 11.4084C14.4782 9.43965 17.4632 7.47089 20.4351 5.47605C21.2373 4.94149 22.0395 4.40692 22.8416 3.85932C22.8679 3.84628 22.8811 3.83324 22.8942 3.80717C25.5111 3.31172 28.1542 3.05095 30.8105 2.88146C33.5457 2.69892 36.2941 2.60766 39.0293 2.41208C40.41 2.32082 41.7908 2.1774 43.1584 2.06005C44.5523 1.94271 45.9594 1.8384 47.3664 1.74714C50.1674 1.55156 52.9683 1.40815 55.7693 1.25169C57.3078 1.17346 58.8464 1.09523 60.3981 0.990924C61.1608 0.938771 61.9103 0.886619 62.673 0.834466C63.0544 0.80839 63.4357 0.782313 63.8171 0.756237C61.8446 2.16436 60.0825 3.84628 58.3204 5.50213C57.3078 6.45391 56.3216 7.41874 55.2959 8.35749C54.2965 9.2832 53.2576 10.1828 52.1925 11.0173C51.6007 11.4866 50.9827 11.9299 50.3515 12.3472C50.1805 12.4645 49.9964 12.5688 49.8255 12.6731C49.786 12.6731 49.7597 12.6992 49.7334 12.7122L49.7203 12.6862ZM64.6455 43.026C64.6192 43.4171 64.5929 43.8213 64.5667 44.2124C64.5403 44.5775 64.4877 44.9426 64.4614 45.3076C63.3831 46.3768 62.2128 47.3546 61.0556 48.3195C59.8589 49.3234 58.6491 50.3013 57.4788 51.3443C56.9002 51.8658 56.3216 52.4004 55.7693 52.961C55.2038 53.5347 54.6121 54.0823 54.0072 54.6169C53.4023 55.1515 52.7842 55.673 52.1662 56.1815C51.6665 56.5987 51.1668 57.0159 50.6671 57.4462C50.6671 57.3158 50.6671 57.1854 50.6671 57.0681C50.6671 56.5596 50.6408 56.0641 50.6276 55.5687C50.6013 54.6039 50.575 53.6521 50.5619 52.6872C50.5619 52.6872 50.5619 52.7003 50.5619 52.7133C50.5356 50.9271 50.5487 49.1409 50.5224 47.3546C50.5224 46.5593 50.4961 45.777 50.483 44.9817C50.483 44.9426 50.483 44.8904 50.483 44.8513C50.4567 43.8865 50.4435 42.9217 50.4172 41.9438C50.3252 38.3713 50.1937 34.7989 50.1148 31.2134C50.0885 30.1703 50.0753 29.1403 50.049 28.0973C50.049 28.1494 50.049 28.1885 50.049 28.2407C49.9701 23.208 50.0227 18.1752 50.4172 13.1555C51.4166 12.5427 52.4029 11.8908 53.3628 11.2128C54.4806 10.4175 55.5589 9.57004 56.6109 8.69648C58.7412 6.93633 60.8057 5.09795 62.844 3.23349C63.3831 2.73804 63.9223 2.24259 64.4614 1.7341C64.7639 8.99636 64.4877 16.2847 64.3562 23.5469C64.3431 24.4987 64.3299 25.4375 64.3168 26.3893C64.3168 27.315 64.2905 28.2407 64.3168 29.1664C64.3431 31.0178 64.4483 32.8562 64.5404 34.7076C64.5404 34.9293 64.5667 35.1509 64.5798 35.3726V35.6073C64.5798 35.6073 64.5929 35.6724 64.5929 35.7116C64.5929 35.7246 64.5929 35.7376 64.5929 35.7507C64.5929 35.855 64.5929 35.9723 64.6061 36.0766C64.6324 36.559 64.6456 37.0415 64.6719 37.5108C64.7376 39.3362 64.7507 41.1745 64.6587 42.9999L64.6455 43.026Z" fill="#161616"/>
<path d="M29.0747 24.1858C28.7328 24.1858 28.3778 24.1858 28.0096 24.2249C26.9313 24.2901 25.7609 24.4466 24.3539 24.7334C23.223 24.955 22.0789 25.268 20.9217 25.6461C19.8302 26.0111 18.7256 26.4544 17.6473 26.976C16.6479 27.4584 15.6485 28.0321 14.6623 28.6709C13.7681 29.2576 12.8607 29.9487 11.9139 30.7701C11.0855 31.4872 10.2702 32.3086 9.48117 33.2082C8.37657 34.4729 7.36401 35.9071 6.45666 37.4978H6.41721C6.41721 37.4978 6.31201 37.4978 6.25941 37.5238C5.99641 37.6021 5.81231 37.8628 5.83861 38.1106C5.85176 38.2931 5.89121 38.4887 5.94381 38.6712C5.99641 38.8537 6.08846 39.0232 6.16736 39.1927C6.33831 39.5447 6.58816 39.8316 6.82486 40.1184C6.96951 40.2879 7.11416 40.4574 7.27197 40.6269L7.46922 40.8486L7.60072 40.992C7.78482 41.2006 7.98207 41.4222 8.17932 41.6309C9.04722 42.5696 9.99402 43.4562 10.9934 44.2646C12.9922 45.8813 15.162 47.1199 17.4106 47.9544C18.581 48.3846 19.7908 48.7236 20.9743 48.9453C22.1578 49.1669 23.4202 49.2843 24.7089 49.2973H24.9588C26.1028 49.2973 27.2995 49.206 28.5356 49.0105C30.0478 48.7758 31.2445 48.4759 32.3359 48.0587C34.6109 47.1851 36.7938 45.777 38.8057 43.8604C40.6599 42.1002 42.2116 40.0402 43.4345 37.7455C43.7501 37.1588 44.0394 36.5329 44.3024 35.881C44.355 35.7506 44.355 35.6072 44.2893 35.5029C44.3024 35.4247 44.2893 35.3334 44.2893 35.2422C44.1052 34.5511 43.737 33.9383 43.3951 33.3255L43.303 33.156L43.1321 32.8562C42.8822 32.4129 42.6192 31.9435 42.3299 31.5132C41.6987 30.5354 40.9755 29.6227 40.1602 28.7752C38.6348 27.1976 36.7675 25.959 34.7687 25.2028C33.7298 24.8116 32.6384 24.5248 31.5469 24.3683C30.7579 24.251 29.9295 24.1988 29.101 24.1988L29.0747 24.1858Z" fill="#FEFEFE"/>
<path d="M24.7878 48.9583H24.7615C24.7615 48.9583 24.7747 48.9583 24.7878 48.9583ZM45.2098 29.349C45.1309 29.1664 44.9863 29.023 44.8022 28.9578C44.7101 28.9187 44.618 28.9057 44.5128 28.9057C44.4734 28.9057 44.4339 28.9057 44.3945 28.9057C44.263 28.9317 44.1446 28.9708 44.0395 29.0621C43.7107 29.2577 43.4082 29.4793 43.0926 29.6879C42.8559 29.8444 42.6192 29.9878 42.3957 30.1443C41.8697 29.3359 41.2648 28.5667 40.581 27.8756C40.2259 27.5236 39.8446 27.1846 39.4632 26.8717C39.7394 26.4414 40.055 26.0242 40.3706 25.62C40.7519 25.1376 41.1596 24.6943 41.4357 24.1337C41.5672 23.8599 41.4357 23.5209 41.2122 23.3514C41.0938 23.2601 40.9492 23.221 40.8045 23.221C40.6599 23.221 40.5152 23.2732 40.3969 23.3644C39.9498 23.7295 39.6473 24.2119 39.3186 24.6813C39.003 25.1507 38.7137 25.62 38.4112 26.0894C37.2935 25.3332 36.0837 24.7204 34.795 24.2771C34.361 24.1337 33.9271 24.0033 33.4931 23.899C33.8613 23.1819 34.2427 22.4518 34.6372 21.7477C34.8476 21.3826 35.058 21.0176 35.2684 20.6525C35.3078 20.5482 35.321 20.4308 35.3078 20.3265C35.2815 20.1701 35.1895 20.0267 35.0711 19.9224C34.9659 19.8441 34.8213 19.792 34.6898 19.792C34.4925 19.792 34.3084 19.8702 34.1901 20.0397C33.8219 20.5873 33.5326 21.161 33.2433 21.7607C32.954 22.3735 32.6778 22.9863 32.3754 23.5861C32.3754 23.6122 32.3622 23.6252 32.3491 23.6513C32.1255 23.6122 31.8888 23.573 31.6653 23.5339C30.7579 23.4035 29.8374 23.3514 28.9169 23.3514C28.746 23.3514 28.575 23.3514 28.4041 23.3514C27.7071 23.3644 26.997 23.4166 26.3001 23.5079C26.2738 23.4166 26.2475 23.3253 26.208 23.221C25.8924 22.0997 25.7478 20.9524 25.6952 19.7789C25.6952 19.6616 25.6031 19.5443 25.5111 19.466C25.4322 19.4008 25.327 19.3748 25.2218 19.3748C25.1955 19.3748 25.1692 19.3748 25.1429 19.3748C25.0245 19.3878 24.9062 19.466 24.8273 19.5573C24.7484 19.6616 24.7221 19.7789 24.7352 19.9224C24.7747 20.6003 24.8141 21.2653 24.893 21.9433C24.9588 22.517 25.064 23.0906 25.2218 23.6513C24.0909 23.8468 22.9599 24.1206 21.8685 24.4466C20.9217 24.7334 20.0012 25.0724 19.0938 25.4505C19.0938 25.4375 19.0938 25.4114 19.0938 25.3984C18.936 24.7986 18.6993 24.238 18.4495 23.6643C18.1865 23.0646 17.9235 22.4648 17.6605 21.865C17.529 21.5652 17.2265 21.3957 16.9109 21.3957C16.8057 21.3957 16.7005 21.4217 16.5953 21.4609C16.1877 21.6304 16.0036 22.1128 16.1745 22.5039C16.4112 23.0515 16.6479 23.6122 16.8846 24.1728C17.1476 24.7856 17.4106 25.3984 17.7788 25.959C17.792 25.9851 17.8051 25.9981 17.8314 26.0242C17.1082 26.3762 16.3849 26.7544 15.688 27.1585C14.6228 27.7713 13.584 28.4624 12.5977 29.2055C12.5451 29.1143 12.4794 29.036 12.4136 28.9448C12.2953 28.8014 12.1638 28.671 12.0454 28.5536C11.7956 28.2929 11.5326 28.0321 11.2696 27.7844C10.783 27.2889 10.3228 26.7804 9.86252 26.2589C9.74417 26.1285 9.58637 26.0633 9.42857 26.0633C9.32337 26.0633 9.20502 26.1024 9.11297 26.1807C8.88942 26.3502 8.83682 26.7022 9.02092 26.9239C9.48117 27.4454 9.90197 27.9799 10.3228 28.5275C10.52 28.7883 10.7173 29.0491 10.9277 29.2968C11.046 29.4402 11.1644 29.5706 11.2959 29.701C11.4011 29.8053 11.5063 29.8966 11.6246 29.9748C11.1644 30.3529 10.7041 30.744 10.2702 31.1482C9.36282 31.9827 8.52122 32.8953 7.75851 33.8471C7.75851 33.8471 7.75851 33.8471 7.74536 33.8341C7.50866 33.6255 7.24566 33.456 6.98266 33.2995C6.68021 33.117 6.37776 32.9475 6.07531 32.7519C5.52301 32.4129 4.99701 32.0348 4.52361 31.5915C4.41841 31.4872 4.31321 31.409 4.15541 31.3829C4.12911 31.3829 4.11596 31.3829 4.08966 31.3829C3.95816 31.3829 3.83981 31.422 3.7346 31.5002C3.61625 31.5915 3.53735 31.7219 3.5242 31.8784C3.51105 32.0087 3.53735 32.1913 3.64255 32.2825C4.14226 32.778 4.68141 33.2474 5.24686 33.6776C5.52301 33.8862 5.81231 34.0948 6.10161 34.2904C6.39091 34.486 6.70651 34.6816 7.03526 34.825C6.94321 34.7859 6.00956 36.4026 5.91751 36.5591C5.56246 37.1719 5.26001 37.7846 4.99701 38.4366C4.95756 38.5278 4.91811 38.6321 4.91811 38.7364C4.91811 38.9972 5.18111 39.3231 5.29946 39.5318C5.49671 39.8577 5.69396 40.1837 5.90436 40.5096C6.32516 41.1485 6.78541 41.7613 7.28511 42.348C8.12672 43.3519 9.08667 44.2776 10.0992 45.1121C12.1112 46.7549 14.4519 48.0196 16.9109 48.8671C19.4094 49.7276 22.0526 50.1448 24.6958 50.1187C26.0502 50.0927 27.3915 49.9753 28.7197 49.7146C30.0215 49.4538 31.3102 49.0496 32.5463 48.5411C33.7956 48.0196 34.9922 47.3807 36.1231 46.6376C37.2409 45.9074 38.2929 45.073 39.266 44.1603C41.2253 42.3089 42.8428 40.1185 43.9342 37.6543C44.1446 37.1849 44.3288 36.7155 44.4866 36.2331C44.6049 35.8811 44.8942 35.2683 44.8153 34.8902C44.8153 34.838 44.7759 34.7728 44.7627 34.7207C44.5129 34.134 44.2367 33.5603 43.9737 32.9866C43.829 32.6737 43.6844 32.3738 43.5397 32.0609C43.4871 31.9696 43.1715 31.2004 43.0926 31.2004C43.3425 31.057 43.5792 30.9266 43.8422 30.7962C44.1841 30.6267 44.526 30.4833 44.8679 30.3138C45.2361 30.1443 45.4202 29.714 45.2624 29.3359L45.2098 29.349ZM24.2224 25.4636C24.5906 25.3854 24.9719 25.3462 25.3533 25.3462C25.7478 25.3462 26.1291 25.3984 26.5105 25.4897C26.9444 25.607 27.3652 25.7895 27.7597 25.9981C28.3252 26.3241 28.838 26.7283 29.3114 27.1846C30.0215 27.8887 30.6264 28.684 31.1524 29.5445C31.7442 30.5485 32.2307 31.6176 32.5595 32.7258C32.8751 33.8732 33.0197 35.0466 33.046 36.2331V36.207C33.046 36.207 33.046 36.2201 33.046 36.2331C33.046 36.2722 33.046 36.3113 33.046 36.3635C33.046 36.3244 33.046 36.2983 33.046 36.2592C33.0592 37.7325 32.9014 39.2058 32.5332 40.64C32.2439 41.7222 31.8494 42.7783 31.2971 43.7431C30.9289 44.3689 30.4949 44.9687 29.9821 45.4902C29.5876 45.8813 29.1536 46.2203 28.6802 46.5072C28.2331 46.7549 27.7729 46.9635 27.2863 47.1069C26.7077 47.2634 26.116 47.3416 25.5111 47.3547C24.8799 47.3547 24.2618 47.2895 23.6438 47.133C23.0914 46.9896 22.5654 46.781 22.0657 46.5072C21.566 46.2203 21.1058 45.8683 20.685 45.4772C20.1853 44.9817 19.7513 44.4211 19.3831 43.8213C18.8703 42.9478 18.4758 42.009 18.1865 41.0442C17.8183 39.7534 17.6342 38.4105 17.6079 37.0675C17.6079 36.3765 17.6473 35.6855 17.7394 34.9945C17.8446 34.1731 18.0155 33.3647 18.2259 32.5694C18.2259 32.5694 18.2259 32.5824 18.2259 32.5955C18.2259 32.5824 18.2259 32.5694 18.2259 32.5563V32.4911C18.2259 32.4911 18.2259 32.5172 18.2259 32.5303C18.6599 30.7832 19.4489 29.1534 20.5666 27.7322C21.4477 26.624 22.789 25.7635 24.2092 25.4636H24.2224ZM43.6975 34.838C43.6975 34.838 43.7107 34.8771 43.7238 34.9032C43.8027 35.0857 43.7633 35.2683 43.7238 35.4639C43.6318 35.8941 43.4345 36.3113 43.2636 36.7025C43.0137 37.2631 42.7244 37.8107 42.422 38.3453C41.5015 39.9359 40.3837 41.3962 39.095 42.7131C37.78 44.043 36.2941 45.2034 34.6766 46.1551C33.1907 47.0287 31.6127 47.7197 29.9558 48.2021C28.2726 48.6715 26.5236 48.9062 24.7615 48.9453C24.7221 48.9453 24.6695 48.9453 24.63 48.9453C24.6695 48.9453 24.6958 48.9453 24.7352 48.9453C22.8021 48.9584 20.8691 48.7367 18.9886 48.2543C17.1871 47.7849 15.4381 47.0809 13.8075 46.1682C13.7812 46.1551 13.7418 46.1291 13.7155 46.116C13.7418 46.1291 13.7681 46.1421 13.8075 46.1682C12.2821 45.2946 10.8751 44.2516 9.61267 43.039C8.41602 41.8656 7.39031 40.5618 6.52241 39.1406C6.39091 38.932 6.27256 38.7104 6.15421 38.5017C6.10161 38.4105 6.04901 38.3322 5.98326 38.2801C6.18051 37.8498 6.39091 37.4326 6.62761 37.0284C7.56126 35.4247 8.71847 33.9645 10.0203 32.6476C11.7035 30.9657 13.6103 29.5054 15.6485 28.2929C17.6736 27.1064 19.8302 26.1416 22.0789 25.4636C22.0263 25.5027 21.9737 25.5288 21.9342 25.5679C21.8948 25.5679 21.8553 25.5809 21.8159 25.594C19.4883 26.6501 18.318 29.1664 17.621 31.4742C17.4369 32.0739 17.2923 32.6867 17.1608 33.2865C17.0424 33.808 16.9372 34.3426 16.8452 34.8771C16.6874 35.868 16.6611 36.872 16.7005 37.8759C16.74 38.8929 16.8846 39.9099 17.1213 40.9008C17.3712 41.8917 17.7131 42.8695 18.1865 43.7822C18.6467 44.6558 19.2122 45.4772 19.9223 46.1812C20.6455 46.8983 21.4871 47.472 22.4208 47.8631C23.4333 48.2804 24.538 48.4499 25.6426 48.4368C26.6157 48.4238 27.5888 48.2152 28.483 47.824C29.3246 47.459 30.0741 46.9244 30.7185 46.2725C31.0472 45.9335 31.3628 45.5684 31.639 45.1903C31.9283 44.7992 32.1781 44.382 32.4148 43.9517C32.8751 43.1173 33.217 42.2176 33.48 41.3049C33.7561 40.3401 33.9534 39.3492 34.0717 38.3453C34.1901 37.3674 34.2164 36.3765 34.1769 35.3856C34.1375 34.499 34.0454 33.6255 33.8613 32.7649C33.6246 31.6437 33.2038 30.5485 32.6647 29.5315C32.0992 28.4624 31.3891 27.4584 30.5344 26.5979C30.1136 26.1807 29.6665 25.7765 29.1668 25.4375C28.6934 25.1115 28.1805 24.8377 27.6545 24.6422C27.5099 24.59 27.3652 24.5379 27.2206 24.4988C27.6677 24.4596 28.1279 24.4336 28.575 24.4336C30.0873 24.4336 31.6127 24.577 33.0855 24.9421C34.3873 25.281 35.6366 25.7765 36.8069 26.4284C37.8589 27.0282 38.8452 27.7583 39.7131 28.6058C40.6073 29.4793 41.3568 30.4702 42.0012 31.5263C42.5272 32.4129 42.9743 33.3386 43.4082 34.2774C43.5003 34.4599 43.6055 34.6555 43.6975 34.8511V34.838ZM18.2259 32.5563C18.2259 32.5563 18.2259 32.5694 18.2259 32.5824C18.2259 32.5694 18.2259 32.5433 18.2391 32.5303C18.2391 32.5303 18.2391 32.5433 18.2391 32.5563H18.2259ZM33.046 36.2331C33.046 36.2331 33.046 36.2461 33.046 36.2592V36.2331ZM21.2636 29.6488C20.7376 30.2486 20.2905 30.9657 19.9354 31.7871C19.725 32.2956 19.5541 32.8562 19.3963 33.5472C19.2779 34.0818 19.199 34.6424 19.1464 35.2552C19.0675 36.4156 19.1464 37.563 19.3568 38.6973C19.5541 39.7143 19.8828 40.627 20.3168 41.3962C20.7639 42.1655 21.303 42.8043 21.9342 43.2867C22.2104 43.5084 22.5391 43.704 22.9205 43.8865C23.2098 44.0299 23.5386 44.1342 23.9857 44.2385C24.2881 44.3037 24.6037 44.3428 24.9456 44.3559H25.0114C25.3796 44.3559 25.7215 44.3298 26.0371 44.2646C26.7603 44.1212 27.4441 43.8083 28.0753 43.3519C28.3646 43.1433 28.6408 42.8956 28.9564 42.5566C29.1931 42.2958 29.4298 41.996 29.627 41.6439C29.8769 41.2398 30.061 40.8486 30.2188 40.4314C30.3766 40.0011 30.5081 39.5448 30.6001 39.0233C30.7842 38.0845 30.7711 37.1197 30.7579 36.207C30.7316 35.2683 30.6396 34.3556 30.4818 33.469C30.061 31.2004 29.1931 29.5445 27.9175 28.5536C27.1417 27.9539 26.1291 27.6149 25.1429 27.6149H25.1034H25.064C24.0251 27.641 22.9599 28.0582 22.0526 28.8144C21.7764 29.0491 21.5003 29.3229 21.2636 29.6228V29.6488Z" fill="#161616"/>
</g>
<defs>
<clipPath id="clip0_81_166">
<rect width="66" height="96" fill="white"/>
</clipPath>
</defs>
</svg>
