<svg width="143" height="200" viewBox="0 0 143 200" fill="none" xmlns="http://www.w3.org/2000/svg">
<g clip-path="url(#clip0_81_367)">
<path d="M56.6431 29.2335C58.3943 29.2335 60.2604 29.3343 62.1695 29.5214C67.6817 30.0684 73.1651 31.407 77.7873 32.6448C79.1366 33.0047 80.5003 33.3645 81.8496 33.71C85.6679 34.7175 89.6298 35.7395 93.4768 36.9053C96.1611 37.7114 98.7593 38.6038 101.171 39.5394C102.85 40.1871 104.358 40.8348 105.779 41.5257C107.415 42.3174 108.98 43.2242 110.401 44.2029C112.095 45.3688 113.315 46.4627 114.248 47.643C114.75 48.2763 115.138 48.9528 115.411 49.6293C115.669 50.2627 115.798 50.9536 115.798 51.6733C115.87 51.846 115.841 52.0043 115.798 52.1482C114.793 55.6459 113.846 59.1292 112.985 62.5261V62.4253C112.152 65.7934 111.047 70.2267 110.128 74.7463C109.353 78.5894 108.721 82.5189 108.118 86.3188L107.932 87.4703C106.31 97.5747 105.118 105.765 104.171 113.249C101.889 131.328 100.869 147.391 101.056 162.346C101.128 166.276 101.257 169.773 101.444 173.026C101.487 173.832 101.544 174.638 101.601 175.444C101.659 176.452 101.731 177.46 101.788 178.467C101.903 180.309 101.989 182.123 101.917 183.951C101.917 184.239 101.702 184.512 101.401 184.642C101.228 185.045 101.013 185.434 100.783 185.822C100.453 186.355 100.051 186.83 99.6923 187.218C99.032 187.952 98.2856 188.643 97.4961 189.305C96.1037 190.457 94.4816 191.479 92.5294 192.472C90.8786 193.307 89.0413 194.041 86.9168 194.732C85.022 195.336 83.0267 195.869 80.8161 196.344C77.5002 197.049 73.9116 197.582 69.1889 198.057C66.2893 198.359 63.2461 198.517 60.1886 198.532C59.9733 198.532 59.758 198.532 59.5427 198.532C56.2411 198.532 52.9683 198.359 49.7959 198.028C45.9202 197.611 42.4177 196.963 39.0731 196.042C35.8002 195.135 32.9724 193.969 30.4316 192.486C27.9196 191.018 25.8956 189.248 24.4171 187.218H24.3884C24.1587 187.132 23.9147 186.931 23.8573 186.7C23.7711 186.412 23.6994 186.168 23.642 185.894C23.5845 185.635 23.5702 185.376 23.5415 185.117V185.031C23.4984 184.599 23.484 184.153 23.484 183.721V183.303C23.441 182.181 23.3549 181.029 23.2544 179.921L23.2113 179.446C23.0104 176.884 22.752 174.35 22.5079 171.961L22.2926 169.802C22.106 168.032 21.9338 166.261 21.7615 164.491C21.5031 161.842 21.2878 159.453 21.1873 157.035C20.972 151.94 21.3452 146.758 21.6754 142.181C21.8476 139.892 22.0342 137.301 22.1491 134.754C22.1921 133.818 22.2208 132.882 22.2496 131.961L22.2783 131.184C22.3213 130.018 22.3644 128.751 22.4362 127.298C22.8525 118.042 23.7281 108.356 25.0918 97.6466C25.6803 93.055 26.3693 88.2332 27.2019 82.9075C27.5607 80.5613 27.9627 78.1864 28.3359 75.8834C28.7522 73.3645 29.1684 70.7736 29.5704 68.2116C30.446 62.5836 31.336 56.7542 32.7284 51.0831C33.0729 49.6869 33.4174 48.3195 33.848 46.9809C34.2643 45.6999 34.7811 44.462 35.3265 43.2098C35.4988 42.8211 35.6711 42.4325 35.8433 42.0439C36.7189 40.0576 37.6089 38.0137 38.1975 35.8834C38.1687 35.869 38.1257 35.8402 38.097 35.8258C37.8817 35.6675 37.7381 35.4228 37.7094 35.1637C37.6807 34.9334 37.7094 34.7319 37.853 34.4872L37.8817 34.4152L37.9821 34.1274C38.0252 33.9978 38.1113 33.8683 38.1831 33.7531L38.2549 33.638C38.3123 33.5372 38.4415 33.4221 38.5276 33.3357L38.6137 33.2494C38.6137 33.2494 38.7573 33.1054 38.8291 33.0335C39.1161 32.76 39.4607 32.5009 39.8769 32.2274C40.6664 31.7236 41.5134 31.3206 42.4895 30.9895C44.5565 30.2843 46.7241 29.982 48.3892 29.7949C49.2361 29.6941 50.1117 29.6222 50.9443 29.5502H51.1022L51.8343 29.4782C52.6094 29.4062 53.4133 29.3343 54.2171 29.2911C55.021 29.2479 55.8535 29.2335 56.6718 29.2335H56.6431ZM87.046 37.1213C86.9168 37.0925 86.802 37.0637 86.6728 37.0205H86.601C86.7445 37.0493 86.8881 37.0781 87.0316 37.1213H87.046Z" fill="#FAA8E6"/>
<path d="M96.4769 69.6078C91.1801 69.6078 86.0125 69.0177 82.0937 68.5139C79.7108 68.2116 77.2993 67.8518 75.0456 67.5207L73.8255 67.348C71.9163 67.0745 69.9497 66.7723 68.0119 66.4268C63.3179 65.5632 58.6527 64.3397 54.1454 62.7852C52.1357 62.0943 50.1117 61.3171 47.9729 60.4247C46.6954 59.8921 45.4035 59.3019 44.169 58.7262C43.523 58.4239 42.8771 58.1361 42.2311 57.8338C40.5229 57.0709 38.8434 56.2937 37.2644 55.3437C35.5275 54.2929 34.0921 53.0695 33.0155 51.7021C32.9581 51.6301 32.9294 51.5294 32.9437 51.4142C32.9437 51.3135 33.0011 51.2271 33.0872 51.1551C33.116 51.1263 33.159 51.1119 33.2164 51.0832C33.4892 50.2771 33.805 49.4567 34.1208 48.6794L34.2069 48.4779C34.4222 47.9309 34.6375 47.384 34.8672 46.837L35.2979 45.7575C35.1687 45.6136 35.0969 45.4121 35.1256 45.2249C35.183 44.5916 35.2978 43.9439 35.427 43.325L35.4701 43.0659C35.5993 42.4038 35.7572 41.5402 35.9725 40.6765C36.1591 39.9425 36.3601 39.194 36.6041 38.3879C36.8338 37.6251 37.0778 36.9486 37.3792 36.3009C37.4941 36.0562 37.7094 35.9122 37.9534 35.9122V35.8403V35.7683C37.9534 35.6531 38.0252 35.5524 38.1257 35.4804C38.1688 35.1494 38.2405 34.8039 38.3697 34.3577C38.5707 33.6668 38.9439 32.9759 39.432 32.4434C39.7047 32.1411 39.9774 31.882 40.2645 31.6661C40.609 31.3926 41.011 31.1767 41.3124 31.0184C41.9871 30.6585 42.7192 30.4426 43.4082 30.2555C44.169 30.054 44.9585 29.9533 45.547 29.8957C46.2217 29.8237 46.9681 29.7661 47.7863 29.723C48.4323 29.6942 49.1356 29.6798 49.9969 29.6654C50.9299 29.6654 51.863 29.6366 52.796 29.6366C57.1742 29.6366 61.8251 29.9245 66.6338 30.5146C71.1986 31.0616 75.8782 31.8964 80.529 32.9615C85.1225 34.0267 89.6155 35.3077 93.8788 36.7902L94.1228 36.8766C95.1276 37.2221 96.1611 37.5819 97.1803 37.913L97.2521 37.9417C98.4004 38.316 99.5775 38.7046 100.726 39.1076C102.965 39.8849 105.908 40.9788 108.678 42.4757C110.128 43.253 111.248 43.9871 112.238 44.7787C113.358 45.6711 114.205 46.5779 114.822 47.5423C115.238 48.19 115.525 48.7946 115.712 49.4135C115.827 49.8021 115.913 50.162 115.956 50.5074C115.999 50.8385 116.013 51.1983 115.985 51.6301C115.97 52.1339 115.856 52.6233 115.769 53.0263C115.626 53.6164 115.425 54.2498 115.138 55.0126C114.994 55.3869 114.851 55.7611 114.707 56.1209C114.363 56.999 114.004 57.9058 113.76 58.827C113.688 59.1148 113.631 59.3883 113.573 59.6762C113.501 59.9784 113.444 60.2807 113.372 60.583C113.229 61.1587 113.056 61.792 112.827 62.5549C112.726 62.9004 112.626 63.2458 112.511 63.5913C112.238 64.4981 111.965 65.4193 111.721 66.3548V66.4268L111.693 66.4844C111.693 66.5276 111.664 66.5707 111.65 66.6139C111.765 66.6715 111.865 66.7723 111.908 66.8874C112.023 67.1753 111.894 67.5063 111.607 67.6215C111.305 67.751 110.989 67.8374 110.688 67.9094L110.501 67.9669C106.453 69.0752 102.018 69.5934 96.5631 69.5934H96.5056L96.4769 69.6078ZM83.1846 35.2645C83.1846 35.2645 83.1703 35.2645 83.1559 35.2645L83.0841 35.2501C83.2133 35.2789 83.3425 35.3077 83.4861 35.3509C83.3856 35.3221 83.2995 35.3077 83.199 35.2789L83.1846 35.2645ZM22.4792 171.961C22.5654 171.961 22.6515 171.99 22.7089 172.048C23.4553 172.753 24.3023 173.429 25.2209 174.048C27.1588 175.315 29.4412 176.394 32.2116 177.316H32.2547C35.4127 178.366 38.9152 179.144 43.2646 179.763C44.858 179.993 46.6092 180.209 48.5902 180.41C50.3701 180.597 52.2649 180.785 54.1597 180.914H54.2315H54.2889H54.2458C55.9684 181.015 57.7484 181.072 59.4996 181.072C64.8395 181.072 70.1363 180.569 75.2322 179.575H75.1891C80.974 178.438 86.357 176.682 91.1657 174.365H91.2088V174.351H91.2519L91.2949 174.307C92.7017 173.616 94.1658 172.825 95.63 171.99C96.4052 171.544 97.1659 171.069 97.855 170.594C98.1995 170.363 98.5296 170.119 98.8741 169.888C99.0607 169.759 99.2474 169.615 99.434 169.485L99.5632 169.385C99.7067 169.284 99.8359 169.183 99.9794 169.068C100.051 169.01 100.166 168.967 100.295 168.967C100.338 168.967 100.381 168.967 100.41 168.967C100.568 168.996 100.712 169.097 100.798 169.226C100.884 169.356 100.912 169.514 100.884 169.673L100.841 169.817C100.798 169.917 100.726 169.989 100.64 170.061C100.525 170.176 100.396 170.292 100.267 170.407C100.295 170.407 100.31 170.435 100.324 170.45C100.424 170.551 100.496 170.666 100.511 170.838C100.812 173.041 101.027 175.301 101.214 177.402C101.314 178.496 101.429 179.619 101.558 180.698V180.741C101.602 181.101 101.645 181.447 101.688 181.806L101.745 182.353V182.411C101.817 182.958 101.874 183.519 101.889 184.081C101.889 184.282 101.817 184.455 101.702 184.584C101.702 184.772 101.63 184.93 101.515 185.059C100.683 185.952 99.7641 186.758 98.8885 187.521C98.2138 188.111 97.5105 188.672 96.7066 189.262C95.2711 190.328 93.6634 191.349 91.9265 192.299C88.6681 194.084 85.0076 195.552 81.0601 196.689C77.3854 197.74 73.4809 198.489 69.433 198.921C67.0932 199.165 64.7103 199.295 62.3705 199.295C60.9494 199.295 59.4996 199.252 58.0785 199.165C53.7578 198.892 49.9538 198.431 46.437 197.74C42.145 196.905 38.4271 195.797 35.0825 194.329C33.1734 193.494 31.3216 192.487 29.556 191.321C27.8048 190.155 26.1396 188.816 24.6181 187.319C24.4745 187.175 24.4171 186.988 24.4602 186.815C24.3023 186.499 24.1731 186.168 24.0726 185.894C23.886 185.419 23.7137 184.901 23.5415 184.239C23.2687 183.203 23.0391 182.08 22.8237 180.569C22.6515 179.431 22.5367 178.208 22.4505 176.956C22.4218 176.38 22.3931 175.819 22.3788 175.243C22.3644 174.667 22.3357 174.106 22.307 173.53C22.307 173.3 22.4218 173.069 22.6371 172.969C22.5079 172.854 22.3644 172.724 22.2352 172.609C22.0917 172.465 22.0773 172.249 22.2065 172.105C22.2783 172.033 22.3788 171.99 22.4792 171.99V171.961ZM75.2322 196.445L75.3614 196.416C75.1748 196.459 74.9882 196.488 74.8016 196.531C74.9451 196.502 75.0887 196.474 75.2322 196.445ZM21.1873 150.63C21.2591 150.558 21.3596 150.5 21.4744 150.5C21.5605 150.5 21.6467 150.529 21.7184 150.587L21.9768 150.831C21.9625 150.601 21.9768 150.371 21.9768 150.14V150.083C21.9768 149.896 21.9768 149.709 21.9912 149.521C21.9912 149.334 21.9912 149.147 22.0055 148.96C22.0055 148.312 22.0055 147.607 21.9768 146.787C21.9338 145.606 21.8476 144.397 21.7615 143.246L21.6897 142.281C21.5892 140.972 21.5031 139.417 21.5462 137.863C21.5893 136.207 21.7759 134.725 22.1204 133.329C22.1491 133.228 22.1921 133.127 22.2639 133.055C22.0773 132.897 21.9051 132.738 21.7328 132.566C21.5462 132.393 21.5318 132.12 21.6897 131.947C21.7759 131.846 21.8907 131.803 22.0199 131.803C22.1347 131.803 22.2208 131.846 22.307 131.918C23.24 132.796 24.3023 133.631 25.4793 134.422C28.2928 136.279 31.5944 137.805 35.8864 139.244C39.4463 140.425 43.0206 141.331 47.2982 142.325L47.5279 142.382C48.4179 142.584 49.3079 142.8 50.1979 142.987C51.1596 143.203 52.2219 143.404 53.4133 143.62C55.667 144.037 57.9063 144.369 60.0451 144.628C61.782 144.829 63.5189 144.987 65.2127 145.103H65.2558C65.2845 145.103 65.3276 145.103 65.3563 145.103H65.2558C67.1649 145.218 69.0741 145.275 70.8971 145.275C75.7777 145.275 80.4429 144.844 84.7636 144.009C86.5723 143.649 88.3379 143.203 90.0317 142.699C92.1275 142.066 93.7783 141.447 95.2281 140.756C96.1898 140.281 97.1229 139.777 98.0272 139.288L98.1708 139.216C98.6301 138.957 99.1038 138.712 99.5775 138.467C99.9938 138.251 100.439 138.05 100.855 137.848L101.157 137.704C101.157 137.704 101.257 137.675 101.329 137.675C101.415 137.675 101.53 137.704 101.602 137.747C101.745 137.819 101.86 137.949 101.917 138.107C101.96 138.251 101.96 138.424 101.889 138.568C101.817 138.726 101.688 138.798 101.53 138.885H101.501L101.429 138.942L101.372 138.971C101.372 138.971 101.372 139.028 101.372 139.057C101.487 141.519 101.401 143.98 101.286 146.499C101.228 147.737 101.157 149.003 101.085 150.227V150.543C101.042 151.076 100.999 151.623 100.97 152.155C100.927 152.674 100.898 153.091 100.841 153.537C100.97 153.566 101.099 153.652 101.171 153.768C101.257 153.897 101.286 154.041 101.257 154.185C101.228 154.329 101.157 154.444 101.013 154.545L100.956 154.588C100.64 154.876 100.31 155.135 99.8933 155.437C99.4914 155.725 99.0751 156.013 98.587 156.301C97.8119 156.776 96.9506 157.236 95.8166 157.783C94.9841 158.172 94.0941 158.561 92.9314 159.021C91.984 159.396 91.0078 159.741 89.9313 160.101C85.5101 161.555 81.0314 162.476 77.6294 163.123C75.6772 163.498 73.3948 163.915 71.0981 164.174C68.787 164.433 66.3754 164.577 63.9639 164.577H63.7198C59.0259 164.563 54.1023 164.016 49.0926 162.965C46.7815 162.476 44.4273 161.871 41.9296 161.108C40.8243 160.777 39.6903 160.403 38.4415 159.971C37.6376 159.698 36.8194 159.395 36.0299 159.108L35.3122 158.849C31.4365 157.438 27.3454 155.84 23.7568 153.336C22.8668 152.717 22.0055 152.012 21.2017 151.263C21.0438 151.119 21.0294 150.889 21.173 150.745L21.1873 150.63ZM99.5775 124.045C98.4722 124.39 97.3095 124.721 96.0176 125.038C93.7783 125.599 91.4241 126.089 88.8116 126.52C84.2469 127.283 79.352 127.758 74.2417 127.931C72.7632 127.989 71.2129 128.003 69.6052 128.003C68.6865 128.003 67.7535 128.003 66.8348 127.974C64.251 127.931 62.27 127.845 60.4183 127.701C56.4995 127.384 52.5233 126.751 48.5758 125.801C44.4991 124.822 40.5803 123.512 36.9055 121.9C33.0872 120.23 29.6134 118.23 26.599 115.941C25.6803 115.25 24.7616 114.473 23.8573 113.652C23.7999 113.595 23.7711 113.537 23.7568 113.465C23.6276 113.35 23.5271 113.192 23.5271 113.019C23.4697 112.069 23.4697 111.105 23.4984 110.155C23.5271 109.118 23.6132 108.096 23.7424 107.075C23.9721 105.103 24.2879 103.131 24.6468 101.173C24.6755 101.015 24.8047 100.9 24.9482 100.871C24.9482 100.238 24.9482 99.633 24.9339 99.0285C24.9339 98.8557 24.9913 98.6974 25.1205 98.5967L24.9195 98.4239C24.7042 98.2224 24.6755 97.8914 24.8764 97.6755C24.9769 97.5603 25.1205 97.4883 25.2784 97.4883C25.4076 97.4883 25.5368 97.5315 25.6229 97.6179C27.3167 99.158 29.1828 100.626 31.1924 101.979C35.2404 104.671 39.8913 106.902 45.0015 108.615L45.0876 108.643C51.4467 110.745 58.3512 112.04 65.6147 112.501H65.5572C67.452 112.616 69.3755 112.674 71.2703 112.674C73.2513 112.674 75.2609 112.616 77.2418 112.487C79.0792 112.371 80.9884 112.184 82.8832 111.94C85.0651 111.666 87.29 111.263 89.2709 110.918C90.3619 110.716 91.4815 110.515 92.6012 110.299H92.5438C94.7257 109.881 96.721 109.449 98.6301 108.989C99.6062 108.759 100.625 108.499 101.759 108.197C102.98 107.881 103.956 107.593 104.86 107.305C104.903 107.305 104.946 107.29 104.989 107.29C105.176 107.29 105.348 107.406 105.405 107.593C105.434 107.708 105.434 107.823 105.377 107.924C105.319 108.025 105.233 108.111 105.133 108.14L104.932 108.212L104.716 108.284C104.602 109.478 104.458 110.687 104.329 111.853L104.185 113.134L104.099 113.912C103.941 115.221 103.798 116.56 103.712 117.899C103.683 118.489 103.654 119.079 103.625 119.669C103.625 120 103.597 120.317 103.582 120.648V120.749C103.568 121.065 103.554 121.396 103.511 121.713C103.496 121.814 103.439 121.914 103.367 122.001C103.41 122.044 103.439 122.102 103.453 122.159C103.496 122.289 103.482 122.433 103.425 122.548C103.353 122.692 103.238 122.764 103.123 122.807C102.549 123.066 101.96 123.282 101.458 123.469C100.884 123.67 100.267 123.872 99.6206 124.073L99.5775 124.045ZM95.63 96.8262C93.5917 97.0853 91.4959 97.2437 89.7016 97.3732C87.9503 97.5027 85.9694 97.6467 84.0315 97.7186C82.2946 97.7906 80.5434 97.8338 78.8208 97.8338C72.2034 97.8338 65.6864 97.2868 59.4709 96.1929C50.7146 94.6672 42.834 92.0763 36.0299 88.5067C32.9724 86.909 30.0584 85.0234 27.3598 82.922C27.2162 82.8068 27.1875 82.6053 27.288 82.4614C27.3024 82.4326 27.3311 82.4182 27.3454 82.4038C27.3454 82.3606 27.3311 82.3174 27.3167 82.2742C27.288 82.1015 27.2593 81.9144 27.2593 81.6841C27.2593 81.2667 27.3024 80.8493 27.3454 80.5038C27.4316 79.7697 27.6325 79.0357 27.8048 78.3879L27.8335 78.3016C27.9914 77.7258 28.1493 77.1357 28.2498 76.5312C28.3502 75.9986 28.3933 75.4516 28.4507 74.9191C28.4794 74.6168 28.5081 74.3145 28.5369 74.0123C28.6086 73.163 28.6948 72.2994 28.8383 71.4358C28.9962 70.4714 29.2115 69.3631 29.6852 68.3843C29.6852 68.3556 29.7139 68.3412 29.7139 68.3268C29.6422 68.2548 29.556 68.1684 29.4843 68.0821C29.4268 68.0101 29.3981 67.9238 29.4125 67.8374C29.4125 67.7366 29.4699 67.6359 29.556 67.5639C29.6278 67.5063 29.6996 67.4919 29.7713 67.4919C29.8862 67.4919 29.9867 67.5495 30.0728 67.6359C30.3168 67.9238 30.6039 68.1972 30.9054 68.5139C32.3839 69.9245 34.2069 71.2199 36.4893 72.4865C39.7047 74.2426 43.1067 75.5668 46.3221 76.7759L47.4705 77.2077L48.6189 77.6395L48.7768 77.697C49.638 78.0281 50.5424 78.3592 51.4324 78.6758C53.3415 79.3379 55.3224 79.9281 57.49 80.475C65.6434 82.5045 74.5862 83.4977 85.6392 83.5697C86.0412 83.5697 86.4431 83.5697 86.8594 83.5697C87.491 83.5697 88.1226 83.5697 88.7542 83.5697H88.625C91.3811 83.5409 93.6347 83.4401 95.7161 83.2674C98.3287 83.0371 100.625 82.6485 102.75 82.0727C103.625 81.828 104.544 81.5258 105.563 81.1515C105.922 81.022 106.267 80.8924 106.626 80.7485L106.97 80.619C107.2 80.5326 107.429 80.4462 107.659 80.3599C107.774 80.3167 107.889 80.2735 108.004 80.2447H108.061L108.118 80.2015C108.205 80.1872 108.276 80.1584 108.348 80.1008C108.406 80.072 108.463 80.0576 108.535 80.0576C108.607 80.0576 108.678 80.0576 108.736 80.1008C108.865 80.1584 108.965 80.2591 109.023 80.3743C109.08 80.4894 109.08 80.6334 109.023 80.7629C108.965 80.9068 108.851 80.9932 108.75 81.0508C108.592 81.1803 108.434 81.2955 108.248 81.425C108.42 83.3682 108.133 85.2969 107.831 87.1105C107.745 87.6431 107.645 88.19 107.544 88.7226C107.473 89.1256 107.401 89.543 107.329 89.9461C107.243 90.4067 107.171 90.8673 107.099 91.3422C107.085 91.4574 107.071 91.5725 107.056 91.6877C107.013 92.0187 106.97 92.3642 106.884 92.6809C106.927 92.6809 106.97 92.6809 107.013 92.7097C107.128 92.7528 107.228 92.8536 107.272 92.9687C107.315 93.0839 107.315 93.2134 107.272 93.3286C107.228 93.4581 107.142 93.5157 107.013 93.5877C105.563 94.4225 103.87 95.099 101.688 95.6747C99.9364 96.1497 98.0129 96.5096 95.6157 96.8118L95.63 96.8262Z" fill="#017DC5"/>
<path d="M9.81856 107.952C9.90469 106.758 10.2348 105.534 10.7803 104.412C11.3258 103.275 12.1009 102.296 13.034 101.547C13.4646 101.202 13.9814 100.9 14.5555 100.669C14.7852 100.583 15.0293 100.497 15.3594 100.41C15.7326 100.324 16.0915 100.252 16.4503 100.194C16.7518 100.151 17.0676 100.137 17.3978 100.137C17.7279 100.137 18.0437 100.151 18.3739 100.194C18.9337 100.252 19.5079 100.396 20.1395 100.626C20.6275 100.813 21.1299 101.072 21.6898 101.432C22.1922 101.749 22.6659 102.137 23.1252 102.555C23.9578 103.332 24.7329 104.282 25.4794 105.434C26.2402 106.628 26.9148 107.952 27.5177 109.478C27.8048 109.651 28.1063 109.824 28.3933 109.996L28.4938 110.054L28.7809 110.227C29.6135 110.716 30.446 111.205 31.2786 111.695C31.8671 112.04 32.47 112.4 33.0586 112.746L33.4605 112.976C34.4079 113.523 35.3553 114.084 36.2883 114.631C39.4894 116.531 42.9058 118.604 46.1356 120.936C47.1691 121.684 48.016 122.332 48.8055 122.979L49.0352 123.167L49.2648 123.354C49.5376 123.57 49.796 123.8 50.0687 124.016C50.2266 124.145 50.3845 124.275 50.5281 124.419C51.6477 122.85 53.0545 121.411 54.7052 120.173C56.3704 118.906 58.2795 117.884 60.3753 117.164C62.4567 116.445 64.7103 116.027 67.0932 115.927C67.4234 115.927 67.7392 115.912 68.0693 115.912C68.9593 115.912 69.8923 115.955 70.8254 116.056C72.0025 116.171 73.1939 116.373 74.371 116.646C75.505 116.905 76.6677 117.265 77.8304 117.711C78.9357 118.129 79.9979 118.618 81.0171 119.165C81.0315 119.165 81.0602 119.194 81.0745 119.194C81.0745 119.165 81.0889 119.151 81.1032 119.122C81.1894 118.935 81.3903 118.82 81.5769 118.82C81.6487 118.82 81.7348 118.834 81.7923 118.877C83.7875 119.899 85.5819 121.367 86.9168 123.181C86.9599 123.239 86.9886 123.311 87.003 123.382C90.3476 126.391 93.1036 130.234 94.9554 134.523C95.8454 136.581 96.5344 138.798 96.9937 141.115C97.166 142.022 97.3095 142.958 97.41 143.879C97.4818 143.908 97.5535 143.951 97.611 143.994C97.7689 144.138 97.8263 144.311 97.855 144.469C98.0416 145.477 98.0703 146.571 97.9698 147.895C97.8837 149.032 97.6684 150.212 97.3382 151.436C96.6779 153.926 95.63 156.301 94.252 158.489C93.5343 159.626 92.7878 160.619 91.9983 161.526C91.6395 161.929 91.2519 162.332 90.8069 162.749C90.3189 163.21 89.8882 163.555 89.4576 163.872C88.4528 164.606 87.3044 165.239 85.9407 165.829C84.7349 166.348 83.4143 166.765 82.0076 167.082C80.6152 167.398 79.2084 167.585 77.816 167.672C77.3567 167.701 76.883 167.715 76.4237 167.715C75.4475 167.715 74.5145 167.657 73.6532 167.528C72.2895 167.326 70.811 166.923 69.1315 166.261C67.5669 165.642 66.0597 164.865 64.9257 164.261C63.8204 163.67 62.6864 163.051 61.0356 162.116C59.4709 161.238 58.2939 160.533 57.2316 159.813C55.8967 158.935 54.777 158.071 53.8009 157.179C52.7817 156.243 51.7912 155.121 50.8582 153.854C49.1644 151.537 47.9012 148.946 47.0973 146.182C46.7097 144.843 46.4226 143.433 46.2504 141.965C46.0925 140.569 46.0494 139.1 46.1212 137.589C46.1786 136.366 46.3222 135.157 46.5231 134.005C46.5662 133.76 46.6236 133.516 46.6667 133.257C46.2504 132.983 45.8341 132.695 45.4178 132.422L45.5901 132.522C43.7958 131.357 41.944 130.248 40.1354 129.169C38.298 128.06 36.3888 126.923 34.5658 125.714L34.6519 125.757C33.7332 125.167 32.8002 124.52 31.8815 123.843C31.0489 123.239 30.2164 122.548 29.4843 121.943L29.4269 121.9C29.0967 121.626 28.7665 121.353 28.4508 121.08L28.4077 121.051C27.1445 119.986 25.8239 118.892 24.4315 117.942C24.0296 117.683 23.6707 117.452 23.3262 117.251L23.2831 117.28L23.2401 117.308C22.7807 117.539 22.2639 117.711 21.5893 117.841C21.1443 117.927 20.6849 117.97 20.1538 117.97C20.0821 117.97 20.0246 117.97 19.9529 117.97C19.3213 117.956 18.704 117.884 18.1298 117.769C17.57 117.654 16.9958 117.481 16.3499 117.236C15.8331 117.035 15.302 116.79 14.7852 116.488C13.6943 115.855 12.7612 115.121 12.0292 114.329C11.2253 113.451 10.6224 112.515 10.2492 111.522C9.86161 110.486 9.71807 109.291 9.81856 107.938V107.952ZM59.5714 144.325C59.8154 145.39 60.1743 146.412 60.6624 147.362C61.0786 148.154 61.5811 148.874 62.1265 149.521C62.7151 150.155 63.361 150.73 64.0644 151.205C64.8682 151.724 65.8013 152.17 66.8061 152.501C67.9975 152.875 69.2751 153.105 70.6101 153.192C70.8684 153.192 71.1268 153.206 71.3708 153.206C72.6197 153.206 73.8542 153.077 75.0456 152.818C76.2514 152.544 77.3854 152.141 78.4189 151.623C79.2371 151.191 80.0123 150.673 80.687 150.083C81.2181 149.579 81.6918 149.032 82.0937 148.456C82.3234 148.096 82.5243 147.722 82.6822 147.348C82.6679 147.348 82.6535 147.348 82.6248 147.348C82.3808 147.233 82.2947 146.945 82.3951 146.7C82.4813 146.499 82.553 146.297 82.6248 146.096C82.8258 145.462 82.9406 144.8 82.9837 144.124C83.0124 143.289 82.9119 142.454 82.7397 141.648C82.3808 140.079 81.7205 138.597 80.9884 137.157C80.73 136.653 80.4716 136.15 80.1989 135.646C80.0554 135.459 79.8975 135.272 79.7396 135.085L79.7108 135.041V135.027C78.6343 133.832 77.4285 132.796 76.1366 131.918C74.7872 131.04 73.3805 130.335 71.945 129.86C70.7536 129.471 69.5765 129.255 68.4425 129.183C68.299 129.183 68.1554 129.183 68.0119 129.183C67.3085 129.183 66.6339 129.255 65.9735 129.385C65.3276 129.543 64.696 129.759 64.1218 130.047C63.6194 130.32 63.1457 130.651 62.7007 131.026C62.2127 131.472 61.7677 132.004 61.3657 132.594C60.8633 133.372 60.447 134.264 60.1025 135.315C59.6001 136.884 59.2987 138.496 59.1982 140.094C59.1408 141.562 59.2413 142.987 59.5284 144.325H59.5714Z" fill="#E0A583"/>
<path d="M24.2736 120.979C24.2879 120.547 24.331 120.158 24.4027 119.798C24.5463 119.021 24.9769 117.625 26.2688 116.862C26.8574 116.517 27.532 116.344 28.2928 116.344C28.666 116.344 29.0536 116.387 29.4268 116.473C30.5465 116.733 31.6087 117.308 32.5131 118.158C33.4605 119.036 34.1495 120.173 34.4653 121.353C34.6806 122.202 34.7237 123.08 34.5945 123.973C34.4509 124.908 34.1064 125.844 33.5466 126.794C33.4748 126.909 33.4031 126.981 33.3026 127.01C33.2595 127.024 33.2021 127.038 33.159 127.038C33.0873 127.038 33.0298 127.024 32.9724 126.995C32.8576 126.938 32.7715 126.823 32.7427 126.693C32.5274 126.923 32.2834 127.11 32.025 127.269C31.4652 127.614 30.8049 127.801 30.1302 127.801H30.0584C29.4125 127.801 28.7665 127.672 28.1206 127.398C26.843 126.866 25.7234 125.815 25.0487 124.505C24.6755 123.8 24.4458 123.037 24.331 122.202C24.2879 121.828 24.2736 121.439 24.2736 120.95V120.979ZM66.9927 137.949C67.6386 137.359 68.342 136.826 69.1028 136.394C69.1315 136.38 69.1746 136.351 69.2033 136.337C68.8588 136.034 68.5717 135.747 68.3133 135.459C68.0262 135.142 67.6674 134.725 67.4233 134.206C67.1937 133.746 67.1362 133.285 67.2367 132.911C67.3659 132.422 67.7391 132.019 68.1985 131.875C68.3277 131.832 68.4712 131.817 68.6291 131.817C68.9449 131.817 69.3038 131.918 69.7057 132.119C70.2225 132.364 70.6818 132.724 71.012 132.997C71.3708 133.3 71.6866 133.588 71.945 133.89C71.9881 133.947 72.0168 134.034 72.0311 134.135C72.7058 134.322 73.3948 134.437 74.0838 134.48C74.1843 134.48 74.2992 134.48 74.3996 134.48C74.9882 134.48 75.5911 134.422 76.1796 134.293C76.883 134.12 77.572 133.875 78.2467 133.53C79.0218 133.127 79.7682 132.594 80.5003 131.961C81.5482 131.011 82.5387 129.845 83.4286 128.507C84.0172 127.6 84.5627 126.635 85.0507 125.642C85.4957 124.735 85.912 123.714 86.2996 122.533V122.576C86.9312 120.576 87.3044 118.647 87.4049 116.833C87.4336 116.301 87.4192 115.797 87.4049 115.322C87.4049 115.236 87.4049 115.149 87.4623 115.077C87.2757 114.89 87.2757 114.545 87.4623 114.329C87.5628 114.214 87.7063 114.142 87.8786 114.142C88.0077 114.142 88.1513 114.185 88.2518 114.271C88.3523 114.314 88.424 114.358 88.5102 114.401C88.6106 114.458 88.7111 114.516 88.7972 114.588L88.8834 114.645C89.113 114.804 89.3284 114.977 89.515 115.12C89.9025 115.437 90.2901 115.783 90.7351 116.229C91.6251 117.092 92.472 118.028 93.2472 119.007C93.6778 119.554 94.0223 120.014 94.3237 120.461C94.6395 120.907 94.9266 121.411 95.2281 121.957C95.831 123.066 96.1898 124.073 96.3334 125.038C96.3908 125.398 96.4195 125.772 96.4052 126.132C96.4052 126.319 96.3047 126.506 96.075 126.52C96.0463 126.65 96.0176 126.765 96.0032 126.895C95.874 127.585 95.7018 128.262 95.4721 128.924C95.2424 129.601 94.9697 130.277 94.6683 130.925C94.3812 131.558 94.0367 132.191 93.6347 132.853C93.2759 133.458 92.8596 134.063 92.3859 134.71C91.9265 135.329 91.5246 135.819 91.1083 136.25C90.6777 136.697 90.1896 137.128 89.6011 137.575C88.9408 138.078 88.2805 138.553 87.6202 138.985C86.0699 140.022 84.5914 140.799 83.0985 141.36C82.7109 141.504 82.3377 141.634 81.9645 141.749C81.5482 141.864 81.1319 141.95 80.6726 142.051C80.2132 142.137 79.7539 142.181 79.2802 142.181H79.2371C79.0362 143.044 78.7204 143.865 78.3041 144.599C77.8017 145.52 77.127 146.326 76.3231 147.031C75.0169 148.168 73.323 148.816 71.6723 148.816C71.3852 148.816 71.0981 148.802 70.8254 148.758C70.366 148.701 69.878 148.557 69.3325 148.341C68.8875 148.154 68.4138 147.895 67.9114 147.535C67.4951 147.233 67.0788 146.844 66.6195 146.312C66.1888 145.808 65.8013 145.232 65.4424 144.541C64.8682 143.404 64.7103 142.094 65.0118 140.957C65.2989 139.863 65.9735 138.841 66.9927 137.906V137.949Z" fill="#F2C6C5"/>
<path d="M46.5087 136.049V136.02C46.5087 136.02 46.5087 136.049 46.5087 136.078C46.5087 136.078 46.5087 136.063 46.5087 136.049ZM79.8974 155.279C79.8831 155.192 79.8831 155.092 79.8974 154.991C79.9261 154.775 80.0122 154.559 80.084 154.358C80.1701 154.127 80.2706 153.897 80.3855 153.681C80.5721 153.278 80.773 152.875 80.9884 152.472C81.4046 151.68 81.8209 150.889 82.2516 150.112C82.6822 149.334 83.1272 148.557 83.5722 147.78C84.0459 146.974 84.5483 146.182 85.065 145.39C85.0938 145.347 85.1225 145.304 85.1655 145.275C85.2229 145.175 85.2947 145.088 85.4096 145.031C85.4957 144.973 85.6249 144.944 85.7397 144.944C85.7971 144.944 85.8402 144.944 85.8976 144.973C86.3857 145.175 86.8307 145.434 87.2756 145.721C87.735 146.024 88.18 146.326 88.625 146.643C88.7542 146.743 88.8546 146.844 88.9121 147.002C88.9551 147.161 88.9264 147.334 88.8546 147.477C88.7972 147.578 88.6967 147.665 88.5819 147.722C87.735 149.262 86.9455 150.846 86.1129 152.4C85.6679 153.221 85.2229 154.027 84.7492 154.818C84.2755 155.624 83.7731 156.43 83.1559 157.136C83.1272 157.179 83.0841 157.208 83.0411 157.222C82.998 157.352 82.9262 157.481 82.8401 157.567C82.6822 157.726 82.4669 157.812 82.2516 157.812C82.0075 157.812 81.8496 157.711 81.663 157.567C81.6774 157.582 81.7061 157.596 81.7204 157.611C81.4477 157.395 81.175 157.193 80.8879 156.992C80.5864 156.776 80.285 156.546 80.0266 156.286C79.7682 156.027 79.7108 155.61 79.8974 155.308C79.8974 155.308 79.9118 155.279 79.9261 155.264L79.8974 155.279ZM81.8927 155.667C82.0219 155.768 82.1511 155.869 82.2803 155.984C82.4238 155.739 82.5817 155.495 82.7253 155.25C82.9693 154.861 83.2133 154.473 83.443 154.07C83.9167 153.278 84.376 152.472 84.8354 151.666C85.6536 150.184 86.4718 148.701 87.29 147.218C87.1034 147.103 86.9024 146.974 86.7158 146.873C86.4 146.686 86.0699 146.513 85.7541 146.326C84.8784 147.722 84.1176 149.176 83.3999 150.658C83.0123 151.465 82.6391 152.285 82.2659 153.091C82.0793 153.494 81.8783 153.897 81.6774 154.3C81.5338 154.588 81.3759 154.89 81.175 155.164C81.419 155.322 81.6487 155.495 81.8783 155.682L81.8927 155.667ZM31.3503 110.558C31.3503 110.558 31.3073 110.529 31.2929 110.529C31.2929 110.529 31.2786 110.529 31.2642 110.515C31.2929 110.529 31.3216 110.543 31.3503 110.572V110.558ZM31.2642 110.5C31.2642 110.5 31.2642 110.5 31.2499 110.5C31.2355 110.5 31.2068 110.471 31.1924 110.471C31.2211 110.486 31.2499 110.5 31.2642 110.515V110.5ZM31.1924 110.457C31.1924 110.457 31.1924 110.457 31.1781 110.457H31.1637C31.1637 110.457 31.1781 110.457 31.1924 110.457ZM9.87593 104.268C10.2348 103.534 10.6654 102.843 11.1535 102.195C11.9717 101.144 13.0052 100.281 14.2254 99.7193C14.7708 99.4746 15.3594 99.3163 15.9479 99.2155C16.3211 99.1436 16.7087 99.1292 17.0963 99.1292C17.2972 99.1292 17.5126 99.1292 17.7135 99.1436C18.2877 99.1723 18.8475 99.2875 19.393 99.4314C19.594 99.489 19.7949 99.561 19.9959 99.6185C20.1538 99.2443 20.3978 98.9133 20.6705 98.611C21.0294 98.2224 21.4457 97.8913 21.8763 97.589C22.0629 97.4739 22.2639 97.4019 22.4649 97.4019C22.7663 97.4019 23.0534 97.5315 23.24 97.7906C23.5558 98.208 23.4697 98.8557 23.0391 99.1723C22.8811 99.2875 22.7233 99.4026 22.5797 99.5322C22.307 99.8201 22.0917 100.137 21.8763 100.453C22.6084 100.871 23.2974 101.36 23.929 101.893C23.929 101.806 23.929 101.706 23.929 101.619C23.929 101.36 23.9577 101.087 23.9721 100.828C24.0152 100.252 24.0582 99.6617 24.1156 99.086C24.2161 97.9633 24.331 96.855 24.4745 95.7323C24.7329 93.4725 25.063 91.2126 25.4076 88.9672C26.0966 84.5052 26.9148 80.0719 27.6756 75.6243C28.0631 73.4077 28.4076 71.2054 28.7665 68.9888C29.111 66.8154 29.4986 64.6563 29.9292 62.5117C30.7905 58.1792 31.8097 53.8899 32.9724 49.6437C34.3217 44.7067 35.872 39.8273 37.5228 34.9766C37.5658 34.6167 37.652 34.2857 37.7668 33.9402C37.8817 33.5804 38.0826 33.2494 38.2836 32.9183C38.4702 32.6448 38.6712 32.3857 38.9152 32.1554C40.164 30.9176 41.8435 30.2411 43.5086 29.7949C45.6905 29.2047 47.9585 28.9456 50.2266 28.8161C51.4036 28.7441 52.5951 28.7297 53.7721 28.7297C55.265 28.7297 56.7435 28.7729 58.222 28.8449C63.5619 29.104 68.8731 29.7373 74.1412 30.6153C76.1078 30.9464 78.06 31.3062 79.9979 31.7236C81.2611 31.9971 82.5386 32.285 83.7588 32.7024C83.9023 32.76 84.0315 32.9183 84.0889 33.0622C84.1464 33.2206 84.132 33.3933 84.0746 33.5516C84.0028 33.7099 83.8736 33.8251 83.7157 33.8827C83.5435 33.9402 83.3999 33.9115 83.2277 33.8539C83.1559 33.8251 83.0985 33.8107 83.0267 33.7819C81.6917 33.3645 80.3137 33.0766 78.9357 32.8031C76.7681 32.3713 74.6006 31.9971 72.4187 31.6804C70.0789 31.335 67.7248 31.0327 65.3563 30.8024C62.9016 30.5577 60.4326 30.3706 57.9637 30.2699C55.6239 30.1835 53.2841 30.1691 50.9586 30.2843C48.9346 30.385 46.8963 30.6009 44.901 31.0327C43.767 31.2918 42.6474 31.6373 41.6138 32.1554C41.1258 32.4145 40.6664 32.7024 40.2645 33.0622C40.0205 33.2925 39.7908 33.5516 39.6042 33.8395C39.4607 34.0698 39.3602 34.3145 39.2597 34.5592C39.1879 34.8327 39.1305 35.1061 39.1161 35.394C39.1161 35.7538 39.1592 36.1137 39.2166 36.4591C39.3458 36.9773 39.5181 37.4667 39.7621 37.9417C40.0923 38.5462 40.4942 39.1076 40.9392 39.6257C41.8004 40.5613 42.8053 41.3386 43.8531 42.0295C45.3173 42.9507 46.8676 43.7279 48.461 44.4044C50.1404 45.1241 51.8773 45.7287 53.6142 46.2756C56.5139 47.1824 59.4565 47.9165 62.4136 48.6362C64.3514 49.1112 66.2749 49.6006 68.1985 50.0755C70.8253 50.7089 73.4522 51.3278 76.0935 51.9035C81.3616 53.055 86.6728 54.0194 92.0126 54.7535C94.3811 55.0702 96.7353 55.3292 99.1181 55.5451C100.08 55.6315 101.056 55.7179 102.018 55.761C102.362 55.7754 102.721 55.8042 103.066 55.8186C103.037 55.8186 103.023 55.8186 102.994 55.8186C103.051 55.8186 103.094 55.8186 103.152 55.8186C103.152 55.8186 103.18 55.8186 103.195 55.8186C103.195 55.8186 103.18 55.8186 103.166 55.8186C104.472 55.8618 105.779 55.8762 107.099 55.8186C108.42 55.7466 109.726 55.6171 111.018 55.3436C111.879 55.1421 112.741 54.883 113.544 54.4944C113.946 54.2785 114.32 54.0338 114.664 53.7459C114.879 53.5444 115.066 53.3141 115.238 53.0694C115.367 52.8535 115.482 52.6232 115.554 52.3785C115.64 52.0907 115.683 51.8028 115.698 51.5005C115.698 51.1119 115.655 50.7233 115.568 50.3346C115.454 49.9028 115.296 49.4854 115.109 49.0824C114.779 48.4635 114.363 47.8877 113.903 47.3551C112.899 46.2612 111.721 45.3544 110.473 44.534C107.602 42.6916 104.444 41.3098 101.286 40.0576C99.9651 39.525 98.6301 39.0356 97.2951 38.5174C96.563 38.2296 95.8453 37.9417 95.1276 37.6538C93.8644 37.15 92.6012 36.675 91.3236 36.2001C90.8643 36.0273 90.4193 35.8546 89.9599 35.6819C89.7159 35.5811 89.4575 35.4804 89.2135 35.3796C88.9695 35.2789 88.7111 35.2213 88.4527 35.1349C88.4527 35.1349 88.4384 35.1349 88.424 35.1349C88.2805 35.0917 88.1513 35.0342 88.0651 34.9046C87.979 34.7895 87.9503 34.6311 87.979 34.5016C88.0077 34.3577 88.0939 34.2281 88.2087 34.1418C88.3092 34.0698 88.4958 34.0122 88.6106 34.0554C88.9264 34.1561 89.2566 34.2569 89.5724 34.3577C92.0988 35.0054 94.5103 35.9985 96.9075 36.9773C98.1133 37.4667 99.3191 37.9129 100.539 38.3735C103.683 39.5826 106.827 40.878 109.755 42.5621C111.19 43.3825 112.583 44.3037 113.817 45.3976C114.377 45.9014 114.908 46.4483 115.382 47.0385C115.827 47.5854 116.186 48.1756 116.487 48.8089C116.774 49.4134 116.946 50.0612 117.033 50.7089C117.119 51.2846 117.09 51.8891 116.975 52.4505C116.846 53.0262 116.602 53.53 116.272 54.005C116.243 54.0482 116.214 54.077 116.186 54.1202C115.181 56.9269 114.32 59.7769 113.544 62.6412C112.597 66.1389 111.822 69.6653 111.133 73.2206C109.755 80.3166 108.75 87.4703 107.788 94.6383C107.788 94.5664 107.803 94.4944 107.817 94.4224C105.563 111.249 103.367 128.089 102.334 145.045C101.946 151.493 101.716 157.97 101.745 164.433C101.745 167.686 101.846 170.925 102.046 174.163C102.147 175.79 102.276 177.431 102.42 179.057C102.578 180.77 102.75 182.483 102.879 184.196C102.922 184.296 102.951 184.397 102.951 184.512C102.951 184.685 102.865 184.8 102.764 184.915C101.53 186.484 100.037 187.852 98.4722 189.075C96.8645 190.342 95.1419 191.465 93.3763 192.472C89.802 194.516 85.955 196.056 82.0219 197.251C73.0646 199.986 63.5763 200.504 54.3176 199.439C49.6667 198.906 45.0589 197.956 40.5372 196.776C36.8338 195.811 33.159 194.631 29.7857 192.803C27.6038 191.623 25.5654 190.126 23.9864 188.212C23.9864 188.212 23.9864 188.212 23.9864 188.197C23.7855 188.096 23.6276 187.924 23.5845 187.693C23.3405 186.571 23.1826 185.419 22.996 184.282C22.8094 183.145 22.6371 182.008 22.4649 180.856C22.1204 178.539 21.7902 176.222 21.5318 173.904C21.4026 172.753 21.3022 171.601 21.216 170.45C21.1299 169.27 21.0868 168.104 21.0294 166.923C20.9289 164.577 20.8428 162.217 20.7854 159.87C20.5701 150.543 20.728 141.202 21.3452 131.889C21.6467 127.283 22.0342 122.677 22.4505 118.071C22.3644 118.129 22.2783 118.172 22.1778 118.215C21.8046 118.417 21.3739 118.517 20.9576 118.575C20.5701 118.633 20.1538 118.633 19.7662 118.604C19.3499 118.575 18.9336 118.503 18.5174 118.417C17.9145 118.287 17.3259 118.1 16.7374 117.884C16.6656 118.071 16.5508 118.23 16.3785 118.359C16.3211 118.402 16.2781 118.445 16.235 118.474C16.1058 118.604 16.0053 118.748 15.9048 118.906C15.8331 119.036 15.7613 119.151 15.7039 119.28C15.6321 119.439 15.5316 119.568 15.3881 119.683C15.1728 119.842 14.9 119.914 14.6416 119.87C14.0962 119.784 13.7517 119.266 13.8234 118.719C13.9096 118.042 14.2971 117.452 14.7708 116.992C14.6129 116.905 14.4407 116.819 14.2828 116.733C13.6225 116.344 13.0052 115.912 12.431 115.423C12.3306 115.466 12.2444 115.495 12.1439 115.552C11.9573 115.667 11.7707 115.811 11.5985 115.97C11.3832 116.2 11.1822 116.445 10.9669 116.675C10.6941 116.992 10.2779 117.121 9.87593 116.934C9.43095 116.733 9.20127 116.171 9.41659 115.725C9.7611 114.991 10.3783 114.473 11.0674 114.099C11.0386 114.07 11.0099 114.041 10.9812 114.012C10.1487 113.005 9.50271 111.81 9.17255 110.529C9.0003 109.867 8.89982 109.19 8.88547 108.514C8.88547 107.794 8.95724 107.089 9.11514 106.398C9.2874 105.649 9.56013 104.915 9.89028 104.225L9.87593 104.268ZM22.3213 145.347C22.2639 150.011 22.2926 154.689 22.4218 159.352C22.4792 161.713 22.5654 164.059 22.6802 166.405C22.7376 167.585 22.7807 168.766 22.8524 169.946C22.9242 171.098 23.039 172.249 23.1682 173.4C23.2257 173.904 23.2831 174.394 23.3549 174.883C23.6419 176.956 23.9721 179.028 24.3022 181.101C24.4745 182.152 24.6324 183.203 24.7759 184.253C24.9195 185.29 25.063 186.34 25.1205 187.391C25.5942 187.952 26.0966 188.471 26.642 188.96C28.0919 190.212 29.7283 191.205 31.4365 192.04C33.9198 193.235 36.5467 194.113 39.2023 194.847C42.1306 195.667 45.102 196.344 48.0877 196.92C55.1358 198.23 62.3418 198.777 69.4904 198.201C74.5862 197.769 79.6103 196.761 84.4334 195.063C88.223 193.71 91.8691 191.954 95.2137 189.709C96.4338 188.888 97.5966 187.996 98.7162 187.031C99.2617 186.571 99.7928 186.081 100.31 185.592C100.568 185.347 100.826 185.103 101.07 184.858C101.142 184.786 101.228 184.714 101.3 184.642C101.257 184.57 101.228 184.512 101.214 184.44C100.898 182.325 100.697 180.18 100.525 178.05C100.353 175.905 100.223 173.76 100.137 171.616C99.9651 167.37 99.9364 163.109 100.022 158.863C100.166 150.313 100.74 141.778 101.544 133.271C102.348 124.75 103.367 116.258 104.472 107.765C105.004 103.634 105.549 99.5034 106.094 95.3724C106.626 91.4286 107.171 87.4847 107.788 83.5552C108.635 78.2296 109.64 72.9183 110.903 67.6646C111.535 65.0162 112.238 62.3821 113.042 59.7769C113.458 58.3807 113.918 56.9989 114.391 55.6315C114.147 55.761 113.889 55.8906 113.645 56.0057C113.099 56.2504 112.525 56.4375 111.951 56.5959C110.63 56.9413 109.267 57.1284 107.917 57.2436C105.362 57.4451 102.793 57.3443 100.252 57.1572C90.7494 56.4663 81.3616 54.7679 72.0742 52.6664C69.4329 52.0763 66.8061 51.4285 64.1935 50.7808C62.9016 50.4642 61.6097 50.1475 60.3178 49.8309C57.1167 49.0392 53.9157 48.1756 50.8007 47.0817C47.6714 45.9733 44.5422 44.6347 41.8579 42.634C40.7095 41.7848 39.6616 40.7772 38.8721 39.5826C38.4415 38.9348 38.097 38.2296 37.8673 37.4955C36.9055 40.4894 36.0012 43.4976 35.1686 46.5347C33.9916 50.7952 32.9724 55.0845 32.0824 59.4026C31.6374 61.5617 31.2211 63.7207 30.8479 65.8942C30.4747 68.0676 30.1589 70.2699 29.8 72.4433C29.0967 76.8909 28.2928 81.3386 27.5464 85.7862C27.0296 88.8377 26.5559 91.9035 26.1396 94.9694C25.9674 96.2073 25.8238 97.4451 25.6803 98.6973C25.6085 99.3163 25.5511 99.9496 25.4793 100.569C25.4506 100.885 25.4075 101.187 25.3788 101.504C25.3501 101.792 25.3501 102.065 25.3214 102.353C25.3071 102.54 25.264 102.684 25.1205 102.828C25.0917 102.857 25.063 102.872 25.0343 102.9C25.063 102.929 25.0917 102.972 25.1205 103.001C25.5654 102.397 26.1396 101.864 26.7569 101.432C26.9148 101.317 27.1157 101.259 27.3024 101.259C27.5751 101.259 27.8478 101.389 28.0344 101.619C28.3215 102.008 28.2497 102.598 27.8478 102.886C27.6756 103.015 27.5033 103.145 27.3454 103.289C27.0727 103.562 26.843 103.865 26.6277 104.181C26.5416 104.296 26.4411 104.383 26.3119 104.44C26.4554 104.642 26.599 104.843 26.7282 105.045C27.3885 106.096 27.8909 107.247 28.178 108.456C28.2067 108.557 28.221 108.643 28.2354 108.744C28.7522 108.96 29.2546 109.234 29.7283 109.521C30.2307 109.824 30.7331 110.126 31.2211 110.428C31.2498 110.443 31.2642 110.457 31.2929 110.471C31.3073 110.471 31.3216 110.486 31.336 110.5C34.5945 112.486 37.8242 114.545 41.0397 116.589C42.6617 117.611 44.2694 118.661 45.8628 119.741C46.6379 120.273 47.4131 120.792 48.1739 121.339C48.8629 121.814 49.5375 122.303 50.2122 122.778C50.8151 122.001 51.4754 121.252 52.1931 120.576C53.3271 119.496 54.6047 118.546 55.9684 117.783C57.3177 117.02 58.7819 116.43 60.2747 115.999C61.825 115.552 63.4327 115.308 65.0405 115.178C65.7008 115.135 66.3611 115.106 67.0214 115.106C67.9688 115.106 68.9162 115.149 69.8636 115.221C71.3134 115.336 72.7488 115.538 74.1843 115.797C75.6772 116.071 77.1557 116.43 78.6055 116.891C81.2037 117.711 83.7444 118.848 85.912 120.533C86.1273 119.583 86.2995 118.618 86.4287 117.654C86.4287 117.697 86.4287 117.726 86.4144 117.769C86.4144 117.711 86.4287 117.639 86.4431 117.582C86.6153 116.214 86.7302 114.833 86.6584 113.451C86.644 113.062 86.9886 112.746 87.3618 112.746C87.7637 112.746 88.0508 113.077 88.0795 113.451C88.1656 115.408 87.936 117.395 87.6058 119.323C87.2039 121.626 86.601 123.886 85.7397 126.06C84.8784 128.233 83.7731 130.32 82.2228 132.076C80.8448 133.631 79.0361 134.854 76.9691 135.185C76.2083 135.315 75.4475 135.329 74.6724 135.243C74.2561 135.185 73.8398 135.113 73.4235 135.013C73.2225 134.955 73.0072 134.897 72.8063 134.825C72.6771 134.782 72.5622 134.739 72.4474 134.682C72.3182 134.624 72.2177 134.552 72.1029 134.466C71.9881 134.394 71.8732 134.336 71.7584 134.264C71.6292 134.192 71.5431 134.077 71.5 133.947C71.2847 133.717 71.0694 133.501 70.8253 133.3C70.5239 133.084 70.2225 132.882 69.8779 132.738C69.6196 132.638 69.3612 132.566 69.1028 132.522C68.9162 132.508 68.7152 132.508 68.5286 132.522C68.3994 132.551 68.2702 132.58 68.1554 132.623C68.0836 132.666 68.0118 132.695 67.9401 132.753C67.897 132.796 67.8539 132.839 67.8109 132.882C67.7822 132.925 67.7535 132.969 67.7391 133.012C67.7248 133.055 67.7104 133.098 67.696 133.156C67.696 133.213 67.696 133.285 67.696 133.343C67.7104 133.444 67.7391 133.53 67.7822 133.631C67.8683 133.804 67.9688 133.962 68.0693 134.12C68.3564 134.466 68.7009 134.768 69.0597 135.056C69.1459 135.142 69.2033 135.243 69.232 135.358C69.232 135.387 69.232 135.416 69.232 135.444C69.275 135.488 69.3181 135.531 69.3468 135.588C69.5047 135.876 69.4186 136.25 69.1315 136.409C68.6578 136.682 68.1985 136.985 67.7678 137.316C67.2223 137.747 66.7199 138.237 66.2893 138.784C66.0022 139.172 65.7582 139.59 65.5572 140.036C65.3993 140.439 65.2845 140.856 65.2127 141.274C65.1697 141.691 65.1697 142.109 65.2127 142.54C65.2845 143.015 65.4137 143.476 65.6003 143.922C65.83 144.44 66.117 144.915 66.4616 145.376C66.9065 145.937 67.4233 146.441 67.9831 146.887C68.586 147.334 69.232 147.708 69.921 148.01C70.5526 148.269 71.2273 148.456 71.9019 148.557C72.4618 148.629 73.0216 148.629 73.5814 148.557C74.0408 148.485 74.5001 148.355 74.9307 148.183C75.347 147.996 75.7346 147.765 76.0935 147.492C76.481 147.175 76.8255 146.815 77.1413 146.427C77.572 145.851 77.9165 145.218 78.2036 144.57C78.3184 144.268 78.4332 143.98 78.5337 143.663C78.6916 143.174 78.8065 142.67 78.9213 142.166C78.9931 141.864 79.2802 141.662 79.5816 141.634C79.6247 141.605 79.6677 141.59 79.7252 141.576C79.9118 141.504 80.084 141.432 80.2706 141.36C81.6917 140.756 83.0554 140.036 84.3904 139.244C85.7828 138.424 87.1321 137.517 88.4097 136.538C89.9456 135.329 91.3667 133.976 92.5725 132.436C93.0031 131.86 93.405 131.256 93.7783 130.623C94.1658 129.96 94.496 129.284 94.7831 128.579C95.1994 127.557 95.5295 126.506 95.7448 125.426C95.8023 125.11 96.1468 124.879 96.4626 124.879C96.8501 124.879 97.2233 125.225 97.209 125.628C97.1946 126.117 97.1659 126.592 97.0942 127.082C97.0224 127.557 96.9363 128.032 96.8214 128.492C96.5918 129.428 96.2185 130.306 95.8022 131.169C95.6731 131.429 95.5439 131.673 95.4003 131.918C96.2616 133.415 96.9793 135.013 97.5248 136.639C98.5296 139.575 99.0177 142.699 99.0033 145.793C99.0033 148.859 98.4578 151.925 97.3669 154.789C96.8214 156.214 96.1324 157.596 95.2998 158.877C94.4673 160.173 93.4768 161.367 92.3715 162.433C89.7733 164.937 86.5149 166.707 83.0267 167.571C79.4955 168.449 75.8064 168.334 72.2464 167.629C68.6147 166.909 65.1266 165.527 61.8537 163.814C58.624 162.116 55.5377 160.086 52.8965 157.539C50.4419 155.178 48.3892 152.386 46.9394 149.305C46.236 147.794 45.6762 146.225 45.2886 144.613C44.8867 142.958 44.6714 141.259 44.6283 139.561C44.5709 137.301 44.8436 135.041 45.3891 132.854C43.9249 131.947 42.4607 131.054 41.0109 130.133C39.5037 129.183 37.9965 128.233 36.5036 127.269C35.9581 126.923 35.4127 126.563 34.8816 126.204C34.5227 127.067 33.9916 127.873 33.2738 128.449C33.0442 128.636 32.7858 128.823 32.5274 128.967C32.2403 129.126 31.9245 129.255 31.6231 129.356C31.3216 129.457 31.0058 129.5 30.6757 129.543C30.3742 129.586 30.0584 129.586 29.757 129.572C28.7378 129.5 27.733 129.183 26.8574 128.665C25.8812 128.104 25.0918 127.298 24.4314 126.391C23.8429 125.57 23.4123 124.62 23.1539 123.642C22.9816 126.204 22.8524 128.78 22.752 131.357C22.5654 136.006 22.4362 140.669 22.3787 145.318L22.3213 145.347ZM46.48 142.037C46.7528 144.066 47.2982 146.053 48.0877 147.952C48.9346 149.939 50.04 151.796 51.3462 153.508C52.8391 155.423 54.5903 157.15 56.4995 158.647C57.9493 159.755 59.4852 160.748 61.0642 161.67C62.6432 162.576 64.2653 163.397 65.9304 164.117C65.9591 164.117 66.0022 164.145 66.0309 164.16C66.0309 164.16 66.0596 164.16 66.074 164.174C66.074 164.174 66.0596 164.174 66.0453 164.174C66.0596 164.174 66.0883 164.189 66.1027 164.203C66.1027 164.203 66.074 164.203 66.074 164.189C68.7296 165.297 71.5 166.132 74.3566 166.535C76.4093 166.808 78.505 166.837 80.5577 166.578C82.2372 166.333 83.888 165.901 85.467 165.239C86.9742 164.577 88.4097 163.742 89.7159 162.735C90.9361 161.77 92.027 160.676 92.9888 159.439C94.0079 158.1 94.8405 156.632 95.5008 155.092C95.5008 155.106 95.4864 155.135 95.4721 155.149C95.4721 155.121 95.5008 155.092 95.5152 155.049C95.5152 155.049 95.5439 154.991 95.5582 154.962C95.5582 154.991 95.5295 155.02 95.5152 155.049C96.2759 153.192 96.7784 151.249 97.0511 149.262C97.3669 146.873 97.3382 144.44 97.0367 142.051C96.6922 139.561 96.0319 137.128 95.0845 134.797C94.8836 134.322 94.6682 133.847 94.4386 133.386C93.8357 134.207 93.1754 134.984 92.472 135.703C91.137 137.056 89.6011 138.237 88.0077 139.273C86.4574 140.281 84.778 141.101 83.0698 141.835C83.1559 142.137 83.2133 142.454 83.2707 142.771C83.3712 143.418 83.4143 144.081 83.3856 144.743C83.3569 145.362 83.2564 145.981 83.1128 146.585C82.9549 147.161 82.7396 147.737 82.4669 148.269C82.2085 148.802 81.864 149.291 81.4908 149.766C80.7874 150.673 79.8831 151.421 78.9357 152.04C77.9308 152.688 76.8112 153.149 75.6628 153.494C74.4857 153.839 73.2369 154.012 72.0024 154.055C69.4617 154.142 66.8922 153.508 64.6672 152.256C64.0787 151.925 63.5189 151.522 62.9878 151.105C62.471 150.702 61.9973 150.27 61.5667 149.78C60.648 148.773 59.9159 147.607 59.3704 146.355C58.7962 145.059 58.4087 143.706 58.222 142.31C58.1216 141.576 58.0641 140.856 58.0641 140.122C58.0641 139.388 58.1359 138.669 58.2364 137.949C58.6096 135.257 59.8872 132.623 61.9829 130.867C63.1026 129.932 64.4232 129.226 65.8587 128.881C66.6338 128.694 67.409 128.607 68.1985 128.607C68.988 128.607 69.7057 128.679 70.4378 128.809C71.5 128.996 72.5335 129.327 73.524 129.759C74.5288 130.191 75.4906 130.738 76.3805 131.385C77.1413 131.932 77.8304 132.566 78.462 133.257C78.9357 133.012 79.395 132.724 79.8256 132.407C80.529 131.846 81.1606 131.184 81.7204 130.464C82.7396 129.111 83.5435 127.614 84.2038 126.06C84.7923 124.649 85.266 123.195 85.6392 121.713C85.5818 121.67 85.5244 121.612 85.4526 121.554C84.132 120.547 82.6822 119.741 81.1463 119.093C78.5194 117.999 75.7059 117.366 72.8924 116.977C70.0502 116.603 67.1649 116.474 64.3084 116.848C62.4423 117.107 60.6049 117.582 58.8536 118.302C57.4613 118.906 56.1406 119.669 54.9349 120.59C53.6429 121.598 52.4946 122.778 51.4898 124.059C50.1979 125.772 49.15 127.657 48.3031 129.629C47.4561 131.673 46.8389 133.818 46.5375 136.006V136.035C46.5375 136.092 46.5231 136.164 46.5087 136.222C46.5087 136.164 46.5231 136.106 46.5375 136.063C46.2791 138.05 46.2791 140.05 46.5231 142.037H46.48ZM63.9352 141C64.05 140.309 64.3084 139.633 64.6385 139.028C65.0261 138.323 65.5572 137.69 66.1314 137.128C66.6338 136.653 67.1936 136.222 67.7678 135.847C67.6386 135.747 67.5238 135.646 67.3946 135.531C67.1793 135.329 67.007 135.099 66.8204 134.869C66.562 134.538 66.3611 134.106 66.2893 133.688C66.2749 133.573 66.2606 133.458 66.2462 133.343C66.2462 133.213 66.2606 133.084 66.2749 132.954C66.3037 132.767 66.3754 132.594 66.4472 132.422C66.519 132.249 66.6482 132.105 66.763 131.976C66.8922 131.832 67.0501 131.731 67.208 131.63C67.5669 131.414 67.9688 131.328 68.3707 131.285C68.4568 131.285 68.543 131.285 68.6291 131.285C68.9736 131.285 69.3325 131.357 69.6626 131.443C70.7392 131.745 71.6579 132.479 72.3756 133.314C72.4474 133.357 72.5192 133.4 72.5909 133.444C73.2082 133.645 73.8541 133.804 74.5001 133.904C75.1173 133.976 75.7346 133.991 76.3518 133.904C76.7107 133.847 77.0696 133.76 77.4141 133.66C77.0839 133.329 76.7251 133.012 76.3518 132.71C76.3518 132.71 76.3375 132.71 76.3231 132.695C75.4188 132.004 74.414 131.443 73.3661 130.982C72.2751 130.536 71.1268 130.219 69.9641 130.032C69.0741 129.917 68.1554 129.888 67.2654 130.004C66.5908 130.104 65.9161 130.277 65.2845 130.536C64.5955 130.838 63.9495 131.227 63.361 131.673C62.7868 132.134 62.27 132.652 61.8107 133.228C61.337 133.861 60.9494 134.538 60.6336 135.272C60.246 136.222 59.9877 137.229 59.8441 138.237C59.7006 139.446 59.7006 140.684 59.8441 141.893C60.0164 143.159 60.3465 144.397 60.8346 145.578C61.2365 146.513 61.7533 147.406 62.3705 148.226C62.916 148.917 63.5476 149.55 64.2366 150.097C64.9543 150.644 65.7438 151.105 66.5764 151.465C67.5669 151.868 68.6004 152.155 69.6626 152.299C70.7823 152.443 71.9019 152.443 73.0216 152.299C74.0838 152.141 75.1173 151.868 76.1078 151.465C76.9547 151.09 77.7586 150.63 78.505 150.083C79.0792 149.622 79.596 149.104 80.0553 148.528C80.4429 147.996 80.773 147.434 81.0314 146.844C81.2611 146.268 81.419 145.678 81.5195 145.074C81.6056 144.34 81.5912 143.62 81.5051 142.886C81.4908 142.771 81.4621 142.641 81.4333 142.526C81.0314 142.684 80.6295 142.857 80.2132 143.015C80.1127 143.606 79.9548 144.196 79.7539 144.771C79.5385 145.362 79.2802 145.952 78.9787 146.499C78.6916 146.988 78.3615 147.463 77.9883 147.881C77.6437 148.284 77.2418 148.615 76.8255 148.931C76.0935 149.478 75.2178 149.852 74.3135 150.04C73.8398 150.14 73.3661 150.183 72.8924 150.198C72.4043 150.198 71.9306 150.155 71.4569 150.083C70.5526 149.939 69.6626 149.622 68.8444 149.219C68.0118 148.816 67.2511 148.269 66.562 147.65C65.8874 147.046 65.2988 146.34 64.8395 145.563C64.3945 144.815 64.0643 143.994 63.9208 143.131C63.8634 142.785 63.8203 142.425 63.8203 142.08C63.8203 141.72 63.8634 141.375 63.9064 141.015L63.9352 141ZM33.6184 121.871C33.5179 121.209 33.36 120.576 33.1159 119.957C32.915 119.496 32.6566 119.064 32.3551 118.661C32.0537 118.287 31.7379 117.956 31.3647 117.654C30.9771 117.366 30.5752 117.121 30.1445 116.92C29.757 116.761 29.3551 116.646 28.9388 116.589C28.5368 116.546 28.1349 116.546 27.7473 116.589C27.3598 116.646 26.9722 116.761 26.599 116.905C26.2975 117.049 26.0104 117.208 25.7377 117.409C25.4793 117.625 25.2353 117.855 25.02 118.114C24.819 118.402 24.6324 118.69 24.4889 119.021C24.331 119.424 24.2161 119.827 24.1443 120.259C24.1013 120.619 24.0869 120.979 24.1013 121.324C24.1013 121.339 24.1013 121.367 24.1013 121.382C24.1013 121.598 24.13 121.814 24.1587 122.029C24.2735 122.792 24.4602 123.526 24.7472 124.232C24.9913 124.793 25.2927 125.326 25.6659 125.815C25.9674 126.189 26.3119 126.549 26.6851 126.851C27.0153 127.096 27.3598 127.298 27.733 127.47C28.2067 127.657 28.7091 127.773 29.2115 127.845C29.5991 127.888 29.9867 127.888 30.3742 127.845C30.6613 127.801 30.9484 127.715 31.2211 127.614C31.4652 127.499 31.7092 127.355 31.9245 127.197C32.1542 126.995 32.3695 126.779 32.5705 126.549C32.8145 126.218 33.0155 125.844 33.1877 125.47C33.3887 124.951 33.5322 124.404 33.6184 123.857C33.6901 123.195 33.6901 122.519 33.6184 121.857V121.871ZM23.6132 118.402C23.6132 118.402 23.5415 118.345 23.5128 118.316C23.5128 118.46 23.484 118.604 23.4697 118.748C23.5128 118.633 23.5558 118.503 23.6132 118.388V118.402ZM10.5362 110.126C10.7085 110.774 10.9525 111.407 11.2683 111.997C11.6559 112.674 12.1152 113.293 12.6464 113.854C12.7612 113.926 12.8617 114.012 12.9334 114.127C13.5363 114.703 14.1967 115.207 14.9 115.639C15.9192 116.243 16.9958 116.704 18.1298 117.049C18.7614 117.236 19.393 117.366 20.0389 117.409C20.3835 117.409 20.728 117.38 21.0725 117.323C21.3165 117.251 21.5462 117.164 21.7759 117.049C21.8907 116.977 22.0055 116.905 22.1204 116.819C22.1204 116.675 22.1491 116.517 22.2495 116.402C22.3644 116.258 22.5366 116.171 22.7233 116.171C22.8094 116.171 22.8812 116.186 22.9529 116.229C23.3405 116.43 23.6994 116.675 24.0582 116.934C24.1731 117.02 24.2735 117.092 24.3884 117.179C25.0918 116.315 26.0392 115.696 27.1014 115.408C27.5751 115.279 28.0775 115.221 28.5799 115.221C29.3407 115.221 30.0871 115.365 30.7905 115.624C32.1542 116.142 33.2738 117.107 34.092 118.302C34.4509 118.82 34.7237 119.41 34.9533 120C35.1686 120.561 35.2978 121.137 35.384 121.727C35.4701 122.375 35.5132 123.008 35.4557 123.67C35.427 124.131 35.3553 124.577 35.2548 125.023C36.963 126.204 38.6999 127.37 40.4224 128.521C42.145 129.673 43.8819 130.795 45.6475 131.904C45.8915 131.054 46.1786 130.219 46.5087 129.399C47.2839 127.442 48.26 125.542 49.4658 123.814C48.8772 123.411 48.2743 123.023 47.6571 122.648C46.9681 122.217 46.2791 121.785 45.59 121.367C45.1307 121.094 44.6857 120.82 44.2264 120.533C44.2838 120.561 44.3412 120.605 44.3986 120.633C43.8101 120.273 43.2215 119.914 42.6187 119.554C42.6187 119.554 42.6474 119.568 42.6617 119.583C40.121 118.042 37.5658 116.531 35.0251 114.991C33.7332 114.199 32.4413 113.393 31.1637 112.558C30.5321 112.141 29.9005 111.724 29.2833 111.292C28.666 110.86 28.0488 110.428 27.5033 109.881C27.4172 109.809 27.3454 109.723 27.3024 109.608C27.2736 109.521 27.2593 109.435 27.2593 109.349C27.2593 109.334 27.2593 109.32 27.2593 109.305C27.2306 109.147 27.2019 108.989 27.1588 108.83C26.9578 107.996 26.6277 107.19 26.2258 106.427C25.709 105.491 25.063 104.628 24.331 103.836C23.5845 103.073 22.7663 102.397 21.862 101.821C21.5318 101.619 21.1873 101.447 20.8428 101.274C20.7136 101.274 20.5701 101.245 20.4552 101.187C20.3404 101.13 20.2256 101.058 20.1394 100.972C19.9385 100.9 19.7232 100.813 19.5078 100.756C18.8906 100.583 18.259 100.468 17.6274 100.439C17.0532 100.439 16.479 100.482 15.9192 100.597C15.4168 100.727 14.9431 100.914 14.4837 101.159C14.01 101.432 13.5651 101.763 13.1631 102.137C12.6464 102.641 12.2157 103.217 11.8282 103.836C11.3688 104.599 10.9956 105.405 10.7228 106.254C10.5362 106.902 10.4214 107.564 10.3927 108.226C10.3927 108.859 10.4358 109.493 10.5793 110.112L10.5362 110.126ZM88.424 35.1061C88.4527 35.1061 88.4814 35.1205 88.5101 35.1349C88.4814 35.1349 88.4527 35.1205 88.4097 35.1061H88.424ZM103.066 55.8186C103.066 55.8186 103.123 55.8186 103.152 55.8186C103.123 55.8186 103.094 55.8186 103.066 55.8186ZM3.63171 107.823C3.77525 107.737 3.93315 107.679 4.09106 107.679C4.14847 107.679 4.19153 107.679 4.24895 107.693C4.67958 107.78 5.0241 108.24 4.90926 108.687C4.82314 109.003 4.76571 109.32 4.73701 109.651C4.73701 110.025 4.73701 110.385 4.80878 110.745C4.88055 111.033 4.96667 111.306 5.08151 111.58C5.26812 111.94 5.4978 112.271 5.75617 112.587C5.95714 112.832 5.88537 113.235 5.69875 113.451C5.44038 113.753 4.99538 113.768 4.69394 113.523C3.97621 112.918 3.48816 112.069 3.24413 111.177C3.0001 110.255 3.04317 109.277 3.27284 108.355C3.33026 108.125 3.4451 107.938 3.63171 107.809V107.823ZM0.143555 109.953C0.244034 109.579 0.545471 109.305 0.933044 109.305C0.976112 109.305 1.03353 109.305 1.09095 109.32C1.49287 109.406 1.83739 109.838 1.72255 110.27C1.67949 110.457 1.63642 110.658 1.62207 110.846C1.62207 111.047 1.62207 111.234 1.66513 111.421C1.72255 111.666 1.80868 111.882 1.90916 112.112C1.95222 112.242 1.96658 112.371 1.93787 112.515C1.89481 112.717 1.77996 112.904 1.59335 113.019C1.4211 113.134 1.22013 113.177 1.01917 113.134C0.832558 113.091 0.60289 112.976 0.516762 112.789C0.401924 112.558 0.287094 112.343 0.215317 112.098C0.129189 111.868 0.100479 111.608 0.0574188 111.378C-0.0143509 110.918 0.0574188 110.414 0.172256 109.968L0.143555 109.953ZM14.7565 140.914C14.6704 140.799 14.6273 140.597 14.6703 140.453C14.8426 139.906 14.9431 139.359 15.0005 138.784C15.0723 137.445 14.8282 136.106 14.6703 134.782C14.4981 133.357 14.4407 131.904 14.8857 130.522C14.9287 130.363 14.9861 130.248 15.1297 130.162C15.2158 130.104 15.3307 130.076 15.4455 130.076C15.4742 130.076 15.5173 130.076 15.546 130.076C15.6895 130.104 15.8331 130.191 15.9048 130.32C15.9766 130.435 16.034 130.608 15.991 130.738C15.8474 131.198 15.7613 131.659 15.7182 132.134C15.6895 132.825 15.7326 133.516 15.8331 134.192C15.9336 134.926 16.0914 135.66 16.2063 136.394C16.3211 137.114 16.3929 137.848 16.3642 138.568C16.3355 139.345 16.1776 140.108 15.8618 140.828C15.7469 141.072 15.4598 141.216 15.1871 141.159C15.0292 141.13 14.8857 141.029 14.7852 140.885L14.7565 140.914ZM13.8378 145.981C13.9239 145.678 13.9957 145.376 14.0244 145.059C14.0244 144.786 14.0244 144.498 13.967 144.225C13.9383 144.066 13.8952 143.922 13.8521 143.778C13.7804 143.562 13.8952 143.318 14.1249 143.231C14.1679 143.217 14.211 143.203 14.2541 143.203C14.4263 143.203 14.5986 143.318 14.656 143.49C14.8282 144.009 14.9144 144.556 14.8857 145.103C14.8713 145.664 14.7278 146.211 14.4981 146.729C14.3976 146.959 14.1105 147.046 13.8952 146.945C13.6655 146.83 13.5938 146.571 13.6799 146.34C13.7373 146.211 13.7804 146.081 13.8234 145.952L13.8378 145.981ZM110.114 114.588C110.401 113.537 110.63 112.458 110.702 111.349C110.717 110.961 110.717 110.572 110.702 110.184C110.688 109.824 110.961 109.493 111.32 109.478C111.32 109.478 111.348 109.478 111.363 109.478C111.707 109.478 112.009 109.752 112.023 110.097C112.08 111.177 111.98 112.271 111.793 113.336C111.607 114.386 111.305 115.394 111.004 116.416C110.702 117.424 110.401 118.431 110.128 119.439C109.87 120.417 109.654 121.425 109.583 122.433C109.554 122.965 109.583 123.483 109.611 124.016C109.626 124.275 109.453 124.52 109.209 124.606C109.066 124.649 108.908 124.649 108.764 124.577C108.635 124.52 108.506 124.376 108.463 124.232C107.975 122.087 108.463 119.856 109.095 117.798C109.425 116.718 109.798 115.653 110.099 114.559L110.114 114.588ZM108.951 132.537C109.195 131.76 109.353 130.954 109.425 130.148C109.468 129.442 109.425 128.737 109.339 128.032C109.296 127.729 109.583 127.442 109.87 127.427C109.87 127.427 109.898 127.427 109.913 127.427C110.056 127.427 110.186 127.485 110.286 127.571C110.401 127.672 110.458 127.801 110.487 127.96C110.602 128.795 110.688 129.629 110.659 130.479C110.645 130.939 110.602 131.385 110.501 131.832C110.415 132.278 110.257 132.71 110.085 133.127C109.956 133.444 109.54 133.559 109.252 133.415C109.109 133.343 108.98 133.213 108.937 133.055C108.879 132.882 108.908 132.738 108.965 132.58C108.965 132.566 108.965 132.551 108.98 132.537H108.951Z" fill="#161616"/>
<path d="M72.8924 12.5225C73.8972 12.5225 74.8159 12.7096 75.6197 13.0694C76.0791 13.2709 76.4954 13.53 76.8973 13.8467C77.2418 14.1201 77.5719 14.4656 77.9021 14.8974C78.4332 15.6027 78.8782 16.4807 79.194 17.4883C79.4811 18.3663 79.6821 19.345 79.8256 20.4821C79.9404 21.3746 79.9979 22.3245 80.0266 23.3897C80.0553 24.5987 80.0553 26.0237 79.9404 27.4775C79.9261 27.7078 79.8974 27.9381 79.8687 28.1828L79.9117 28.0532L79.9548 27.9669C80.4859 26.729 81.1749 25.5487 81.7778 24.5556C82.4668 23.4041 83.0984 22.5117 83.7875 21.72C84.62 20.7556 85.51 19.9928 86.4431 19.4458C87.0029 19.1148 87.534 18.8845 88.0938 18.6973C88.6967 18.5102 89.3283 18.3807 89.9456 18.3375C90.1752 18.3231 90.4193 18.3087 90.6633 18.3087C91.0509 18.3087 91.4528 18.3375 91.8404 18.3807C92.3858 18.4526 92.96 18.5822 93.606 18.7837C95.6443 19.4458 97.4817 20.9715 98.7736 23.1018C99.0894 23.6344 99.3765 24.2101 99.6349 24.8002C99.8789 25.376 100.066 26.0237 100.223 26.7866C100.482 28.0388 100.554 29.3774 100.453 30.8888C100.353 32.3569 100.051 33.8827 99.4913 35.8402C99.3478 36.3584 99.1755 36.9053 98.9602 37.5099C99.0176 37.6106 99.032 37.7258 99.032 37.8841V38.028C99.0033 38.2295 98.9889 38.4311 98.9602 38.647C98.9172 38.9204 98.8597 39.2227 98.7593 39.5682C98.6157 40.0719 98.4004 40.5901 98.142 41.0939C97.8836 41.5977 97.5535 42.1302 97.1659 42.6772C96.8645 43.109 96.4912 43.5408 96.0032 44.0302C95.1276 44.9226 94.1371 45.6999 93.0749 46.3476C91.9552 47.0241 90.9073 47.4703 89.8594 47.7438C89.3714 47.8733 88.7828 48.0028 88.1656 48.0172C88.0938 48.0172 88.0364 48.0172 87.9646 48.0172C87.4192 48.0172 86.9168 47.9453 86.4287 47.8157C86.0985 47.7294 85.8115 47.6286 85.5531 47.5279C85.3234 47.4415 85.0794 47.3119 84.7779 47.1536C84.2612 46.8657 83.7444 46.5203 83.2563 46.1173C82.8401 45.7718 82.4094 45.3544 81.9214 44.8074C81.5482 44.39 81.1893 43.915 80.8448 43.4113C80.1845 42.4181 79.6534 41.3961 79.2658 40.3886C79.0505 39.8272 78.8782 39.1939 78.7203 38.4454C78.5768 37.7977 78.4906 37.0924 78.4476 36.3728C78.3758 35.1637 78.4476 33.897 78.6342 32.6304C78.3758 33.1342 78.0887 33.6092 77.8447 33.9978C77.7298 34.5448 77.5289 35.1061 77.1987 35.797C76.926 36.3728 76.5815 36.9629 76.1796 37.553C75.835 38.0568 75.4044 38.5462 74.8733 39.05C74.4427 39.4674 73.9546 39.8272 73.4235 40.1151C73.079 40.3022 72.8062 40.4318 72.5479 40.5469C72.2177 40.6765 71.8732 40.7772 71.543 40.8492C71.1698 40.9355 70.7535 40.9787 70.3373 40.9787C70.1076 40.9787 69.8636 40.9787 69.6195 40.9356C69.3468 40.9068 69.0597 40.8492 68.7152 40.7628C68.2989 40.6477 67.9257 40.5181 67.5812 40.3598C67.2367 40.2015 66.9065 40 66.5764 39.7985C66.3036 39.6257 66.0165 39.4386 65.7294 39.2083C65.227 38.8197 64.7533 38.3303 64.2653 37.7402C63.8921 37.2796 63.5332 36.7326 63.16 36.0273C62.8872 35.4947 62.6432 34.919 62.4423 34.2425C62.2413 33.5948 62.0977 32.9183 61.9973 32.2274C61.8681 31.3062 61.825 30.2986 61.8968 29.0608C61.9398 28.1828 62.0403 27.2904 62.1982 26.326C62.3561 25.3472 62.5714 24.3397 62.8442 23.3609C63.1456 22.2382 63.4901 21.2162 63.8921 20.2519C64.294 19.2731 64.7964 18.3087 65.3706 17.3731C65.9017 16.5095 66.5046 15.7322 67.1793 15.0701C67.5955 14.6671 67.9688 14.3361 68.3563 14.0482C68.7295 13.7747 69.1602 13.5156 69.6626 13.2709C70.5239 12.8391 71.5 12.58 72.4617 12.5225C72.634 12.5225 72.8062 12.5081 72.9928 12.5081L72.8924 12.5225Z" fill="#FEFEFE"/>
<path d="M60.9207 26.7866C61.136 24.9586 61.5666 23.145 62.1695 21.4034C62.7581 19.7193 63.5476 18.1072 64.538 16.6247C64.983 15.9626 65.4854 15.3293 66.0452 14.7391C66.6051 14.1634 67.1936 13.6164 67.8683 13.1558C69.1171 12.2922 70.5669 11.7308 72.1029 11.6877C72.189 11.6877 72.2751 11.6877 72.3612 11.6877C72.677 11.6877 73.0072 11.7021 73.323 11.7452C73.7393 11.8028 74.1556 11.8892 74.5575 12.0043C75.2752 12.2058 75.9355 12.5225 76.5528 12.9399C77.7442 13.746 78.6342 14.955 79.2658 16.2361C79.6103 16.9414 79.8687 17.6898 80.0696 18.4527C80.285 19.2443 80.4285 20.036 80.529 20.8564C80.6869 22.1231 80.7156 23.3897 80.6582 24.6564C81.0027 23.9079 81.3759 23.1738 81.8209 22.4685C82.3233 21.6625 82.8975 20.8996 83.5578 20.2231C83.931 19.8489 84.3186 19.489 84.7349 19.1724C85.1368 18.8701 85.5674 18.5966 86.0124 18.3663C86.888 17.8913 87.8642 17.5891 88.8546 17.4451C89.4719 17.3588 90.0891 17.3156 90.7064 17.3156C90.9217 17.3156 91.137 17.3156 91.338 17.3156C92.027 17.3444 92.7016 17.4307 93.3619 17.5891C94.0223 17.7474 94.6539 17.9633 95.2567 18.2512C95.8309 18.5247 96.3764 18.8701 96.8788 19.2587C97.3669 19.6474 97.8262 20.0936 98.2425 20.5686C98.6588 21.0579 99.0176 21.5905 99.3334 22.1375C99.9937 23.2602 100.439 24.498 100.755 25.7503C101.085 27.0745 101.243 28.4275 101.271 29.7805C101.343 32.7168 100.869 35.6675 99.922 38.4455C99.4626 39.8129 98.8597 41.1083 98.142 42.3462C97.4817 43.4689 96.7066 44.534 95.7879 45.4696C95.3285 45.9446 94.8405 46.3764 94.3093 46.7794C93.7926 47.1537 93.2328 47.4991 92.6586 47.7726C91.6538 48.262 90.5341 48.5498 89.4144 48.6074C88.8403 48.6362 88.2661 48.6074 87.6919 48.5498C87.1177 48.4779 86.5579 48.3483 86.0124 48.1756C84.9358 47.859 83.9167 47.3408 82.9836 46.7075C82.0506 46.0741 81.218 45.2969 80.4859 44.4477C78.9069 42.5621 78.0169 40.1871 77.7442 37.7546C77.6724 37.0781 77.6437 36.3872 77.6581 35.6963C77.5576 35.869 77.4571 36.0561 77.3566 36.2289C76.5671 37.5099 75.5767 38.719 74.3565 39.6258C73.6388 40.1583 72.6053 40.6189 71.744 40.8061C71.0406 40.9644 70.3229 40.95 69.5908 40.9356C68.6004 40.9068 67.8396 40.6621 66.9496 40.2879C66.361 40.0432 65.8156 39.7265 65.2988 39.3811C64.7964 39.0356 64.3227 38.647 63.8777 38.2152C63.3466 37.697 62.8872 37.1357 62.514 36.5023C61.6958 35.1349 61.2221 33.566 60.9781 31.9971C60.7054 30.2699 60.7197 28.4851 60.9207 26.7434V26.7866ZM79.1653 18.9853C78.8926 18.0209 78.5193 17.0709 78.0169 16.1929C77.7011 15.6747 77.3423 15.1997 76.926 14.7679C76.5815 14.4369 76.2083 14.1346 75.792 13.8899C75.3326 13.6308 74.8446 13.4437 74.3422 13.2998C73.768 13.1558 73.1938 13.0695 72.5909 13.0695C72.0454 13.0695 71.5 13.1558 70.9689 13.2998C70.3803 13.4725 69.8061 13.7172 69.2607 14.0338C68.5716 14.4513 67.9257 14.9694 67.3515 15.5308C66.4472 16.452 65.7007 17.5027 65.0404 18.611C64.093 20.2807 63.3753 22.0943 62.8729 23.9511C62.8155 24.1958 62.7437 24.4405 62.6863 24.6851C62.7293 24.7139 62.7724 24.7427 62.8011 24.7859C62.8155 24.8003 62.8298 24.8291 62.8442 24.8435C63.0739 25.045 63.2892 25.2753 63.5045 25.5056C64.3658 26.3404 65.3419 27.0601 66.3754 27.6646C67.8109 28.4851 69.3611 29.1328 70.9545 29.5646C72.2177 29.8957 73.524 30.0972 74.8302 30.1116C75.6771 30.1116 76.5241 30.0108 77.3279 29.7949C77.816 29.651 78.2897 29.4495 78.7347 29.2048C78.7777 29.176 78.8351 29.1472 78.8782 29.1184C78.9356 29.0752 79.0074 29.0464 79.0648 29.0176C79.1653 28.7729 79.2514 28.5427 79.3519 28.3124C79.3806 28.2116 79.4093 28.1108 79.438 28.0101C79.6534 26.6427 79.7682 25.2753 79.7538 23.8935C79.7538 23.9079 79.7538 23.9367 79.7538 23.9511C79.7538 22.2814 79.5529 20.5973 79.1222 18.9853H79.1653ZM99.5344 35.394C99.8933 33.7244 100.08 32.0259 100.08 30.3131C100.066 28.7586 99.8933 27.204 99.4913 25.7071C99.2042 24.6708 98.8023 23.6632 98.2568 22.742C97.8693 22.1087 97.4243 21.5041 96.9075 20.9716C96.4338 20.511 95.9171 20.108 95.3429 19.7625C94.7256 19.4171 94.0653 19.1436 93.3907 18.9565C92.5724 18.755 91.7399 18.6686 90.893 18.6686C90.046 18.6686 89.1848 18.7694 88.3522 18.9853C87.7206 19.1724 87.1177 19.4315 86.5435 19.7481C85.8832 20.1511 85.2947 20.6261 84.7349 21.1587C83.8162 22.0943 83.0697 23.1738 82.4094 24.3109C81.7635 25.4336 81.2036 26.5851 80.6725 27.7654C80.5433 28.0677 80.3998 28.3555 80.2706 28.6578C80.2419 28.7298 80.2132 28.7873 80.1845 28.8593C80.1271 29.1184 80.0696 29.3775 80.0122 29.6366C80.1271 29.7517 80.2275 29.8813 80.3424 29.9964C80.529 30.2123 80.7299 30.4282 80.9309 30.6297C81.419 31.1047 81.9214 31.5653 82.4525 31.9971C82.9693 32.4002 83.5147 32.7744 84.0746 33.1054C85.3952 33.8539 86.8019 34.4153 88.2661 34.8327C90.5341 35.4372 92.8739 35.6819 95.2137 35.6819C95.185 35.6819 95.1563 35.6819 95.1276 35.6819C95.1706 35.6819 95.228 35.6819 95.2711 35.6819C96.6061 35.6675 97.941 35.5812 99.2617 35.394C99.3621 35.394 99.4483 35.394 99.5344 35.4228V35.394ZM79.0648 39.4674C79.3376 40.4318 79.7251 41.3674 80.2275 42.2454C80.6869 43.0083 81.2324 43.6992 81.8496 44.3469C82.5243 45.009 83.2851 45.5991 84.1033 46.0885C84.8784 46.5347 85.711 46.8946 86.5722 47.1393C87.3187 47.3264 88.0795 47.4415 88.8546 47.4415C89.5293 47.4271 90.1896 47.3408 90.8355 47.1681C91.5246 46.9665 92.1705 46.6787 92.7878 46.3188C92.7591 46.3332 92.716 46.362 92.6873 46.3764C92.7303 46.3476 92.7591 46.3332 92.8021 46.3044C92.8021 46.3044 92.8165 46.3044 92.8308 46.29C92.8308 46.29 92.8165 46.29 92.8021 46.3044C93.5486 45.8582 94.2232 45.3113 94.8405 44.6923C95.7304 43.7855 96.4912 42.7492 97.1372 41.6553C98.0272 40.0864 98.7162 38.4167 99.2042 36.6751C96.7353 37.0061 94.2376 37.0925 91.7542 36.8622C90.448 36.747 89.1561 36.5167 87.8929 36.2001C86.6153 35.869 85.3521 35.4516 84.1607 34.8615C83.0697 34.3289 82.0219 33.6668 81.1032 32.8607C80.6295 32.4433 80.1845 31.9683 79.7825 31.4646C79.7108 31.3638 79.639 31.2774 79.5672 31.1767C79.5242 31.3206 79.4955 31.4502 79.4524 31.5941C79.2514 32.2418 79.0074 32.8895 78.749 33.5229C78.6198 34.3577 78.5624 35.1925 78.5624 36.0274C78.5768 37.1932 78.7347 38.3591 79.0361 39.4962L79.0648 39.4674ZM62.6145 33.8107C62.8298 34.5736 63.1456 35.3221 63.5332 36.0274C63.8346 36.5167 64.1792 36.9917 64.5811 37.4091C65.0978 37.9129 65.672 38.3447 66.2749 38.7046C66.8491 39.0212 67.452 39.2803 68.0836 39.4674C68.6434 39.6114 69.2176 39.6833 69.7918 39.6833C70.3803 39.6833 70.9545 39.5826 71.5287 39.4243C72.189 39.2227 72.8062 38.9493 73.4091 38.6038C74.1269 38.172 74.7585 37.6394 75.3613 37.0493C75.3326 37.0781 75.3183 37.0925 75.2896 37.1213C75.3183 37.0925 75.347 37.0637 75.3613 37.0493C75.6341 36.7758 75.8925 36.488 76.1365 36.1713C76.4092 35.8258 76.6389 35.4516 76.8686 35.0774C77.2849 34.3721 77.6294 33.6236 77.8877 32.8464C78.0026 32.5153 78.2897 30.7161 78.5481 30.6009C78.4189 30.6585 78.2897 30.7161 78.1461 30.7593C77.6007 30.9608 77.0408 31.0903 76.481 31.1767C75.2752 31.3638 74.0407 31.335 72.8349 31.1767C71.543 31.0184 70.2655 30.6873 69.031 30.2699C67.7965 29.8525 66.6338 29.2911 65.5141 28.6434C64.8108 28.226 64.1361 27.751 63.5188 27.204C63.2174 26.945 62.9447 26.6571 62.6719 26.3548C62.5858 26.2684 62.514 26.1677 62.4279 26.0669C62.2126 27.3336 62.0977 28.6146 62.0977 29.8957C62.1121 31.2199 62.2556 32.5297 62.6002 33.8107H62.6145ZM101.042 13.6164C100.726 13.5732 100.467 13.271 100.525 12.9399C100.554 12.7528 100.568 12.5657 100.568 12.3642C100.554 11.9899 100.496 11.6445 100.396 11.2846C100.281 10.896 100.109 10.5218 99.922 10.1619C99.6492 9.73013 99.3334 9.32711 98.9746 8.96726C98.5726 8.57864 98.142 8.24758 97.6683 7.9741C97.2951 7.77259 96.8932 7.59987 96.4912 7.47032C96.1754 7.39835 95.8453 7.34078 95.5151 7.34078C95.2711 7.34078 95.0414 7.38396 94.7974 7.44154C94.5677 7.5135 94.3668 7.59987 94.1514 7.71502C93.8931 7.87335 93.6634 8.07486 93.4481 8.27637C93.2615 8.47788 93.0892 8.67939 92.9313 8.8953C92.6729 9.21196 92.2423 9.3415 91.8547 9.18317C91.3954 8.99605 91.1657 8.4347 91.3667 7.9741C91.6681 7.26881 92.1275 6.64988 92.716 6.18929C93.2615 5.75748 93.9648 5.484 94.6539 5.39764C94.8261 5.36885 94.9984 5.36885 95.1706 5.36885C95.673 5.36885 96.1611 5.45521 96.6348 5.58475C97.2664 5.75748 97.8549 6.07414 98.4004 6.43398C98.9459 6.79382 99.4196 7.24002 99.8646 7.72941C100.324 8.23319 100.697 8.80893 101.013 9.39907C101.314 9.96043 101.53 10.565 101.673 11.1695C101.817 11.7884 101.817 12.4649 101.716 13.0982C101.673 13.4293 101.372 13.674 101.042 13.6164ZM81.2324 5.90141C80.9453 5.85823 80.7012 5.58475 80.7587 5.28249C80.8017 5.00901 80.8304 4.73553 80.8448 4.46205C80.8448 4.14539 80.7874 3.81433 80.7156 3.51207C80.6438 3.29616 80.5577 3.09465 80.4572 2.89314C80.3567 2.7492 80.2562 2.60526 80.1414 2.47572C79.9979 2.34618 79.8543 2.23103 79.6964 2.13027C79.4811 2.01512 79.2658 1.92876 79.0505 1.87119C78.7203 1.79922 78.3758 1.75604 78.0313 1.75604C77.5863 1.77043 77.1413 1.8424 76.6963 1.95755C76.1221 2.13027 75.5623 2.38936 75.0312 2.67723C74.6149 2.93632 74.2273 3.22419 73.8828 3.55525C73.5383 3.92948 73.2369 4.3325 72.9785 4.74992C72.8637 4.89386 72.7345 4.99461 72.5622 5.06658C72.3038 5.16734 72.0167 5.18173 71.7584 5.06658C71.5143 4.96583 71.3134 4.76431 71.2129 4.51962C71.098 4.24614 71.1268 3.98706 71.2129 3.71358C71.3277 3.36813 71.5143 3.05147 71.7009 2.7492C71.9019 2.41815 72.1746 2.13027 72.4474 1.85679C72.9354 1.36741 73.5096 0.993174 74.1269 0.676513C74.7297 0.374246 75.4044 0.187128 76.0791 0.0863726C76.3662 0.0431916 76.6533 0.0144043 76.9547 0.0144043C77.0552 0.0144043 77.1557 0.0144043 77.2561 0.0144043C77.5145 0.0144043 77.7729 0.0144043 78.0313 0.0575853C79.2227 0.201522 80.3711 0.719694 81.1606 1.65528C81.5625 2.13027 81.7922 2.70602 81.9214 3.31055C82.0649 4.00145 81.9931 4.74992 81.8783 5.44082C81.8209 5.74308 81.5625 5.95899 81.2611 5.91581L81.2324 5.90141Z" fill="#161616"/>
<path d="M20.4409 5.49841C20.8141 5.49841 21.1299 5.77189 21.173 6.13173C21.173 6.2181 21.173 6.30446 21.173 6.40521C21.4313 7.24005 21.6036 8.20442 21.7041 9.42788C21.8046 10.637 21.8046 11.8316 21.7902 12.8392C21.7902 13.8467 21.7615 14.9119 21.7328 16.1785C21.7041 17.2868 21.6897 18.3951 21.7041 19.5035V19.3739C21.7041 19.6186 21.7041 19.8633 21.7041 20.1224C22.4936 20.1512 23.3118 20.3959 24.3022 20.8565C25.4219 21.3746 26.4554 22.0799 27.3454 22.9291C27.8335 23.3897 28.221 23.8216 28.5368 24.2822C28.8957 24.8003 29.1397 25.2609 29.2833 25.7215C29.4555 26.2973 29.4986 26.8298 29.4125 27.3192C29.312 27.8662 29.0536 28.3843 28.666 28.8162C28.221 29.3055 27.6612 29.6942 27.0296 29.9676C26.5128 30.1836 25.9243 30.2987 25.2784 30.2987C25.1779 30.2987 25.0918 30.2987 24.9913 30.2987C24.7329 30.2987 24.4458 30.2411 24.13 30.1548C23.7424 30.054 23.4123 29.9389 23.1108 29.8093C22.5223 29.5502 21.9338 29.176 21.3596 28.701C20.8428 28.2836 20.3404 27.7798 19.8236 27.1609C19.393 26.6571 19.0054 26.067 18.6178 25.3617C18.3164 24.8147 18.0724 24.1958 17.8714 23.4905C17.7566 23.0587 17.6848 22.6413 17.6561 22.2239C17.5843 22.1375 17.5269 22.0367 17.5126 21.9216C17.3977 21.0148 17.3546 20.108 17.3259 19.086C17.2972 18.1648 17.2829 17.2149 17.2972 16.1641C17.3116 14.6384 17.3977 13.2422 17.5269 11.8748C17.369 12.0331 17.1824 12.1771 16.9814 12.3354C16.436 12.7528 15.8331 13.0839 15.3163 13.3574C14.8857 13.5877 14.4407 13.7892 14.01 13.9907C13.4071 14.2642 12.7899 14.5664 12.2014 14.8975C11.7994 15.1422 11.4693 15.3869 11.1966 15.6459C10.9669 15.8906 10.7803 16.1353 10.608 16.4088C10.4645 16.6823 10.3496 16.9702 10.2491 17.2724C10.2061 17.4596 10.1774 17.6467 10.1487 17.8338C10.1056 18.1361 9.84722 18.352 9.56013 18.352C9.53142 18.352 9.50271 18.352 9.48836 18.352C9.41658 18.352 9.35917 18.3232 9.30175 18.2944C9.24433 18.3088 9.18691 18.3232 9.12949 18.3232C9.02901 18.3232 8.92853 18.3088 8.84241 18.2656C8.68451 18.208 8.49789 18.0497 8.45483 17.877C8.31128 17.402 8.22515 16.999 8.19644 16.6247C8.16773 16.2649 8.16774 15.8906 8.22516 15.5164C8.31129 14.8975 8.56967 14.2642 8.98595 13.6596C9.1582 13.4149 9.35917 13.199 9.54577 13.0119C9.80416 12.7528 10.0482 12.5225 10.3066 12.2922C10.4358 12.1771 10.5793 12.0619 10.7228 11.9468C11.0386 11.6733 11.3688 11.3998 11.6846 11.0975C11.943 10.8241 12.1727 10.5362 12.4023 10.2483L12.4741 10.1476C12.7325 9.81651 13.0339 9.45667 13.3354 9.09683C13.9957 8.33397 14.5842 7.77261 15.1728 7.32641C15.79 6.86581 16.5077 6.49158 17.2972 6.2181C18.3595 5.84386 19.4791 5.67114 20.326 5.57038C20.3548 5.57038 20.3835 5.57038 20.4122 5.57038L20.4409 5.49841Z" fill="#161616"/>
<path d="M128.444 77.5099C128.444 77.5099 128.545 77.5099 128.588 77.5387C128.789 77.625 128.947 77.7114 129.105 77.8122C129.263 77.9129 129.406 78.0281 129.535 78.1288C129.765 78.3159 130.009 78.4887 130.239 78.6758L130.397 78.8053C131 79.2803 131.602 79.7553 132.22 80.2159C133.095 80.878 133.971 81.5257 134.861 82.1734L135.837 82.8931C136.914 83.6848 138.177 84.6348 139.411 85.6423C140.1 86.2037 140.631 86.6499 141.12 87.0673C141.694 87.5711 142.268 88.1036 142.799 88.6074C142.9 88.6938 142.943 88.8377 142.943 88.9816C143.014 89.14 143.029 89.2983 142.971 89.4566C142.785 89.9892 142.483 90.4642 142.124 90.9824C141.78 91.4861 141.421 91.9899 141.148 92.3498C140.789 92.8392 140.416 93.3141 140.057 93.8035C139.742 94.2209 139.411 94.6384 139.096 95.0702L138.852 95.3868C138.263 96.1785 137.66 96.9989 137.1 97.8194C136.698 98.3951 136.397 98.8701 136.11 99.3307C137.029 99.9784 137.861 100.928 138.507 102.065C138.966 102.857 139.655 104.44 139.225 105.995C139.052 106.628 138.651 107.233 138.119 107.65C137.861 107.852 137.588 108.01 137.258 108.14C136.985 108.24 136.67 108.312 136.296 108.327C136.239 108.327 136.182 108.327 136.124 108.327C135.866 108.327 135.607 108.284 135.349 108.255C135.062 108.212 134.76 108.125 134.402 107.996C133.77 107.765 133.153 107.449 132.579 107.046C132.019 106.657 131.531 106.225 131.129 105.765C130.87 105.462 130.612 105.117 130.382 104.714C130.196 104.383 130.009 104.009 129.823 103.562C129.593 103.03 129.435 102.54 129.306 102.094C129.177 101.634 129.076 101.144 129.019 100.569C128.976 100.108 128.99 99.6474 129.076 99.1724C129.162 98.7406 129.363 98.3231 129.693 97.9777C129.966 97.6754 130.397 97.4451 130.856 97.3875C131 97.3732 131.143 97.3588 131.287 97.3588C131.602 97.3588 131.933 97.4019 132.263 97.5027L132.55 96.9845L132.65 96.7974C133.038 96.1209 133.426 95.4588 133.827 94.7967C133.985 94.552 134.129 94.3073 134.287 94.0626C134.531 93.674 134.76 93.2997 134.99 92.9111L135.363 92.2922L135.593 91.9036C135.708 91.7164 135.823 91.5149 135.952 91.3278C134.617 90.2627 133.282 89.2119 132.148 88.3339C131.789 88.0604 131.43 87.7726 131.071 87.4991C130.713 87.2256 130.354 86.9377 129.995 86.6643C129.622 86.3764 129.248 86.0741 128.875 85.7862L128.689 85.6423C128.588 85.5703 128.502 85.4984 128.401 85.412C128.33 85.5847 128.244 85.7575 128.157 85.9158C127.956 86.29 127.741 86.6643 127.569 86.9377C127.196 87.5135 126.779 88.1036 126.176 88.8521C125.717 89.4278 125.186 90.09 124.626 90.7233C124.468 90.896 124.325 91.0687 124.181 91.2558C124.081 91.3854 123.98 91.5005 123.865 91.6157L123.679 91.8316C124.798 92.4217 125.775 93.5588 126.42 94.9982C126.736 95.7179 126.952 96.4376 127.066 97.1572C127.181 97.9201 127.167 98.5966 127.023 99.2155C126.894 99.8345 126.593 100.353 126.205 100.684C125.818 101.015 125.33 101.173 124.784 101.173C124.698 101.173 124.597 101.173 124.511 101.159C123.765 101.087 122.99 100.77 122.071 100.18C121.583 99.8633 121.095 99.4602 120.593 98.9565C120.148 98.5103 119.717 97.9921 119.286 97.3732C118.741 96.5671 118.325 95.7179 118.08 94.8255C117.865 94.0626 117.808 93.2854 117.908 92.5513C117.966 92.177 118.037 91.846 118.152 91.5581C118.281 91.2127 118.454 90.9104 118.698 90.6369C118.884 90.4066 119.157 90.2339 119.502 90.1187C119.674 90.0612 119.86 90.0468 120.033 90.0324H120.09C120.09 90.0324 120.219 90.0324 120.277 90.0324L120.722 89.4854C122.071 87.8158 123.377 86.0022 124.583 84.1166C125.157 83.2242 125.717 82.2454 126.334 81.1371C126.894 80.1295 127.368 79.1796 127.784 78.244V78.2008L127.827 78.1576L127.856 78.1144C127.856 77.9993 127.885 77.8985 127.942 77.7978C127.999 77.7114 128.057 77.6538 128.157 77.5963C128.244 77.5531 128.358 77.5243 128.444 77.5243V77.5099Z" fill="#161616"/>
</g>
<defs>
<clipPath id="clip0_81_367">
<rect width="143" height="200" fill="white" transform="matrix(-1 0 0 1 143 0)"/>
</clipPath>
</defs>
</svg>
