<svg width="393" height="10" viewBox="0 0 393 10" fill="none" xmlns="http://www.w3.org/2000/svg">
<path d="M7.27305 0.137032C2.62915 0.191845 -0.6075 0.484181 0.0961203 0.785653C0.940465 1.08712 5.44364 1.29724 10.0875 1.24243C15.1536 1.17848 20.2197 1.1328 25.2857 1.11453C28.6631 1.11453 31.8998 1.12367 35.2772 1.16021C36.8251 1.18761 38.3731 1.22416 39.921 1.26983C41.469 1.33378 42.8763 1.39773 44.1428 1.47995C47.9423 1.72661 51.3197 2.01894 55.26 2.2656C62.2962 2.72238 70.4582 3.06953 79.746 3.29791C89.3152 3.54457 99.8695 3.57198 109.72 3.38013C118.164 3.20656 126.044 2.93249 134.347 2.74978C137.865 2.68584 141.524 2.64016 145.183 2.63102C149.686 2.63102 154.189 2.66756 158.551 2.72238C160.803 2.75892 163.055 2.81373 165.166 2.87768C166.01 2.91422 166.854 2.95077 167.699 2.99644C168.261 3.03298 168.824 3.07866 169.247 3.12434C169.95 3.20656 170.513 3.28878 170.935 3.38013C172.765 3.80037 173.609 4.22974 176.423 4.6317C180.645 5.23464 188.948 5.66401 198.236 5.90153C203.302 6.03856 208.649 6.05683 214.138 6.03856C219.063 6.02029 223.988 5.90153 228.491 5.77363C236.935 5.53611 244.534 5.18896 253.118 4.98798C255.229 4.95144 257.481 4.92403 259.732 4.90576C261.702 4.90576 263.532 4.92403 265.502 4.9423C267.753 4.98798 269.864 5.04279 271.975 5.10674C275.352 5.23464 278.448 5.39908 281.404 5.57265C286.048 5.86499 290.129 6.19387 294.35 6.51361C299.135 6.88816 304.201 7.23531 309.971 7.55506C312.222 7.68295 314.755 7.79258 317.429 7.9022C318.977 7.96615 320.525 8.02097 322.214 8.05751C324.325 8.11232 326.576 8.13059 328.687 8.158C332.346 8.19454 336.145 8.19454 339.804 8.21281C343.322 8.22195 346.7 8.24022 350.077 8.27676C351.203 8.29503 352.329 8.32244 353.454 8.35898C353.736 8.36811 354.017 8.38639 354.158 8.39552C354.862 8.45033 355.565 8.50515 356.128 8.5691C358.239 8.80662 360.35 9.05328 363.024 9.27253C367.105 9.60141 372.734 9.82979 378.925 9.95769C381.599 10.0125 384.273 10.0216 386.947 9.93942C389.339 9.86634 391.309 9.7293 392.294 9.574C394.405 9.22685 391.591 8.84316 386.384 8.70613C385.68 8.68786 384.977 8.66959 384.132 8.64218C383.147 8.60564 382.162 8.55996 381.318 8.50515C379.911 8.40466 378.503 8.29503 377.377 8.17627C375.548 7.97529 373.719 7.76517 371.326 7.58246C368.09 7.32667 363.587 7.14396 358.802 7.04347C353.314 6.92471 347.544 6.91557 341.774 6.91557C337.412 6.91557 332.909 6.94298 328.546 6.8973C327.561 6.87903 326.717 6.85162 325.872 6.82422C321.932 6.66891 318.414 6.49534 315.037 6.29436C308.282 5.86499 302.231 5.40821 295.617 4.96971C288.299 4.49466 280.137 4.05616 269.864 3.88259C264.517 3.79123 259.31 3.77296 253.822 3.81864C249.178 3.86432 244.393 3.97394 240.171 4.10184C232.432 4.32109 225.536 4.62256 217.515 4.80527C215.545 4.84181 213.575 4.86008 211.604 4.87836C210.057 4.87836 208.649 4.86922 207.101 4.85095C205.272 4.81441 203.583 4.76873 201.895 4.71392C200.206 4.64083 198.517 4.56775 196.969 4.48553C195.984 4.41244 194.999 4.33936 194.155 4.26628C193.17 4.15665 192.466 4.03789 191.762 3.91913C190.074 3.50803 189.229 3.07866 186.274 2.69497C182.193 2.15598 174.453 1.81796 165.728 1.65352C154.33 1.44341 141.946 1.416 130.547 1.63525C125.481 1.73574 120.697 1.86364 115.912 2.00067C112.113 2.1103 108.454 2.21993 104.513 2.31128C102.121 2.35696 99.5881 2.38436 97.1958 2.3935C94.6627 2.3935 92.2704 2.37523 89.8781 2.33869C86.0786 2.2656 82.5605 2.17425 79.1831 2.05549C75.3835 1.90932 71.8654 1.74488 68.6288 1.55303C62.4369 1.15107 57.3708 0.657756 49.7717 0.36542C42.7355 0.091355 34.9957 0 27.1152 0C20.5011 0 13.6056 0.0639485 7.27305 0.137032ZM43.1577 1.42514C43.1577 1.42514 43.4391 1.44341 43.5799 1.45254C43.5799 1.45254 43.2984 1.43427 43.1577 1.42514ZM315.177 6.28522C315.177 6.28522 315.74 6.32176 316.022 6.34003C315.74 6.32176 315.459 6.30349 315.177 6.28522Z" fill="#161616"/>
</svg>
