<svg width="179" height="281" viewBox="0 0 179 281" fill="none" xmlns="http://www.w3.org/2000/svg">
<g clip-path="url(#clip0_81_343)">
<path d="M175.19 67.0624C175.17 66.9414 175.109 66.8001 175.028 66.6589C174.908 66.4168 174.645 66.2352 174.504 66.1545C174.262 66.0133 174 65.973 173.738 65.9528C173.698 65.9528 173.658 65.9528 173.597 65.9528C173.275 65.9528 172.932 66.0537 172.629 66.1545C172.125 66.2958 171.642 66.5177 171.238 66.7194C170.493 67.0624 169.747 67.4861 169.041 67.8694L168.819 67.9905C169.001 67.7484 169.162 67.4256 169.384 66.9817C169.626 66.5177 169.847 66.0133 170.049 65.4484C170.23 65.0046 170.331 64.6212 170.412 64.2379C170.513 63.7133 170.493 63.2897 170.412 62.9063C170.351 62.6844 170.23 62.4625 170.049 62.2406C169.868 62.0388 169.626 61.9177 169.384 61.837C169.243 61.7765 169.061 61.7563 168.9 61.7563C168.739 61.7563 168.557 61.7765 168.416 61.7967C168.093 61.8572 167.771 61.9783 167.388 62.2002C167.227 62.3011 167.065 62.4221 166.904 62.5432L166.823 62.6037C166.662 62.7248 166.521 62.866 166.36 63.0072C166.057 63.3098 165.775 63.6528 165.493 63.9958L165.453 64.0563C164.908 64.7221 164.324 65.5291 163.699 66.4975C163.638 66.5984 163.578 66.6993 163.517 66.78L163.437 66.901L163.336 67.0624L163.235 67.244C163.396 66.6387 163.517 65.9124 163.638 65.0651C163.799 63.9353 163.88 63.0274 163.92 62.1599C163.92 61.716 163.92 61.3327 163.9 60.9897C163.88 60.6669 163.82 60.2836 163.678 59.9204C163.618 59.7388 163.537 59.5774 163.457 59.4766C163.316 59.2748 163.174 59.1537 162.993 59.0125C162.832 58.8915 162.59 58.8309 162.348 58.8309C162.207 58.8309 162.066 58.8511 161.925 58.8915C161.521 59.0125 161.179 59.295 160.917 59.5573C160.554 59.9204 160.211 60.3643 159.949 60.909C159.606 61.5546 159.405 62.2809 159.263 62.8256C159.082 63.5318 158.961 64.2782 158.86 64.9844C158.699 66.1747 158.598 67.3651 158.518 68.5756C158.336 68.2729 158.114 68.0107 157.893 67.7484L157.852 67.708C157.389 67.1431 156.885 66.5984 156.34 66.0738C155.735 65.5089 155.171 65.0853 154.606 64.8028C154.163 64.5809 153.719 64.4598 153.316 64.4598C153.256 64.4598 153.215 64.4598 153.155 64.4598C153.256 64.2379 153.115 63.8949 152.873 63.7537C152.772 63.6932 152.671 63.673 152.57 63.673C152.349 63.673 152.147 63.794 152.006 63.9958C151.542 64.6817 151.3 65.4686 151.341 66.2352C151.381 66.9615 151.683 67.6879 152.328 68.5352C152.873 69.2413 153.498 69.8668 154.284 70.4519C154.848 70.8755 155.413 71.2185 155.977 71.4808C155.897 71.7834 155.877 72.1264 155.836 72.4088V72.6106C155.796 72.7115 155.776 72.8325 155.776 72.9334L155.695 73.5185V73.579C155.635 73.9422 155.594 74.3053 155.534 74.6886C155.373 75.8185 155.171 76.9684 154.909 78.0579C154.465 80.0552 153.8 82.1333 152.893 84.4333L152.974 84.3324C151.986 86.6929 150.958 88.8315 149.929 90.6876C148.901 92.5033 147.732 94.3393 146.401 96.1147L146.361 96.155V96.2156C144.083 99.1611 141.644 101.683 139.083 103.721C137.128 105.254 135.132 106.485 133.116 107.372C132.068 107.816 130.999 108.2 129.931 108.482C129.306 107.534 128.58 106.565 128.056 105.859L127.995 105.779L127.673 105.355C126.604 103.922 125.556 102.49 124.488 100.997C122.734 98.4752 120.758 95.4287 119.468 92.0393C118.742 90.0016 118.278 88.0446 118.077 86.1885C117.875 83.6263 118.218 81.1649 118.641 78.8851V78.7842L118.661 78.7035V78.6228C118.742 78.2193 118.823 77.8158 118.903 77.3921V77.2912C119.266 75.415 119.649 73.458 119.79 71.5413C119.871 70.351 119.851 69.1606 119.69 67.9501C119.548 66.8001 119.206 65.6502 118.702 64.5002C118.218 63.4107 117.492 62.3011 116.545 61.1914C116.081 60.6669 115.597 60.2029 115.073 59.7388C114.529 59.2546 113.984 58.7906 113.319 58.2257C111.283 56.531 108.985 54.8968 106.485 53.3433C102.07 50.5995 96.9894 48.1784 90.9415 45.8987C85.1556 43.7197 79.3092 42.025 74.8538 40.7742L74.7329 40.7338L74.6119 40.6935C73.3418 40.3505 71.9105 39.947 70.4791 39.604C68.947 39.2207 67.3745 38.8777 65.7617 38.5751C62.3144 37.9295 59.1694 37.5259 56.1454 37.3645C55.1374 37.304 54.1496 37.2838 53.1214 37.2838C52.5368 37.2838 51.932 37.2838 51.3474 37.304C49.9765 37.3444 48.525 37.4251 47.0331 37.6672C45.9445 37.8487 44.8962 38.1716 43.9083 38.6154C43.0818 38.9786 42.2351 39.5233 41.4287 40.2092C40.7634 40.7943 40.1183 41.5206 39.3724 42.5092C38.6466 43.4978 38.0216 44.5671 37.4975 45.4951C36.1669 47.896 34.9775 50.5995 33.8889 53.767C32.8002 56.8941 31.9737 60.0818 31.3689 62.4827C31.1068 63.5923 30.8447 64.7019 30.5826 65.8116L30.3407 66.8808L29.9375 68.6159L29.8166 69.0799C29.615 69.9071 29.4134 70.7343 29.2319 71.5615C28.3449 75.3746 27.3974 79.8131 27.1151 84.292C26.4297 84.0903 25.7846 83.8885 25.1798 83.6666C23.5468 83.021 21.9945 82.1938 20.5833 81.2052C19.2326 80.2166 17.9827 79.0667 16.894 77.7755C15.7248 76.3632 14.7369 74.7895 13.9507 73.0948C13.1443 71.279 12.5597 69.3019 12.2169 67.2037C11.7331 64.0967 11.6928 60.7678 12.0557 57.0354C12.2774 55.038 12.6403 52.9398 13.1645 50.781C13.6483 48.7635 14.2732 46.746 14.999 44.8092L15.0393 44.7285L15.0796 44.6074L15.0393 44.7083C16.4102 41.1978 18.1843 37.8689 20.3212 34.8023C21.7727 32.805 23.2444 31.1708 24.8572 29.819C25.7241 29.1129 26.6514 28.4673 27.6191 27.9024L28.1433 27.5998C28.7682 27.2366 29.4134 26.8533 30.0182 26.4498C30.9657 25.8042 31.6914 25.1586 32.2156 24.4928C32.3769 24.291 32.4978 24.1094 32.6188 23.9279C32.6389 23.9279 32.6793 23.9279 32.7196 23.9279C32.8002 23.9279 32.8607 23.9279 32.9413 23.8875C33.1228 23.827 33.2639 23.7261 33.3849 23.5244C33.7074 23.0402 33.8687 22.556 33.8687 22.1121C33.8687 21.6279 33.5865 21.1437 33.1429 20.9218C32.9212 20.8007 32.6389 20.7402 32.3164 20.7402C32.1954 20.7402 32.0543 20.7402 31.9333 20.7805C31.4898 20.8411 31.0261 20.9823 30.5423 21.1639C29.998 21.3656 29.494 21.6279 29.0102 21.87C28.4658 22.1323 27.982 22.3946 27.5385 22.6367C27.3974 22.7174 27.2562 22.7981 27.1151 22.8788C27.5183 22.1323 27.8812 21.3454 28.2441 20.5586C28.8086 19.2674 29.1916 18.1981 29.4335 17.2095C29.5545 16.685 29.6351 16.1604 29.6754 15.6359C29.6956 15.1517 29.6351 14.7078 29.494 14.3447C29.3126 13.8403 29.0102 13.4771 28.5868 13.235C28.4255 13.1341 28.2239 13.0736 28.0022 13.0333C27.861 13.0131 27.7199 12.9929 27.5788 12.9929H27.5385C27.4175 12.9929 27.2966 13.0131 27.1756 13.0333H27.1151C26.6111 13.1341 26.1878 13.4771 25.8652 13.7596C25.462 14.1227 25.1394 14.5868 24.8774 14.9903C24.1919 16.0394 23.7081 17.2095 23.2646 18.3192C22.8815 19.2876 22.5388 20.256 22.1759 21.3253C22.0953 20.7805 22.0147 20.2963 21.9139 19.8323C21.5913 18.1981 21.2083 16.9876 20.7043 15.8981C20.4422 15.3332 20.1398 14.8692 19.8172 14.5061C19.6963 14.2236 19.5753 13.9613 19.4745 13.6789C19.3939 13.4569 19.1923 13.3157 18.9705 13.3157C18.9302 13.3157 18.8697 13.3157 18.8294 13.3359C18.6278 13.3964 18.4867 13.578 18.4464 13.7798C18.3859 13.7798 18.3254 13.7798 18.2649 13.7798C18.2448 13.7798 18.2044 13.7798 18.1843 13.7798C17.902 13.7798 17.6198 13.8806 17.2771 14.0622C16.9545 14.2236 16.7529 14.5061 16.5715 14.7683C16.4304 14.9903 16.3296 15.2525 16.2691 15.4946C16.1884 15.7771 16.1683 16.0797 16.128 16.3824C16.0675 16.9674 16.1078 17.5727 16.2086 18.299C16.3094 18.9648 16.4505 19.6709 16.6521 20.5183V20.599L16.6924 20.6998C16.4908 20.3569 16.2892 20.0341 16.0473 19.7314C15.7449 19.2876 15.4022 18.8841 15.0393 18.4806C14.7168 18.1376 14.374 17.835 13.991 17.5525C13.5677 17.2499 13.0838 17.0885 12.6201 17.0885C12.2573 17.0885 11.9347 17.1894 11.6525 17.3911C11.3702 17.5929 11.1283 17.8955 10.9469 18.2385C10.7654 18.6016 10.6848 18.985 10.6848 19.4086C10.6848 19.7516 10.7654 20.1551 10.9267 20.6393C11.088 21.1437 11.3097 21.6279 11.5113 22.0314C11.8944 22.7981 12.4185 23.6051 13.1241 24.5331C13.487 24.9972 13.8499 25.4814 14.2732 25.905C13.6281 27.055 12.983 28.205 12.3379 29.3348C10.6445 32.3409 8.91071 35.4277 7.31807 38.5549C6.12864 40.875 4.99968 43.3566 3.95137 45.9188C2.88289 48.5416 2.01601 51.124 1.41121 53.5652C0.745937 56.188 0.362898 58.8108 0.241939 61.373C0.120979 63.8546 0.342738 66.3966 0.887056 68.8984C1.35073 71.0168 2.11681 73.1755 3.22561 75.536C4.19328 77.5737 5.42304 79.5912 6.91487 81.5684C9.63646 85.1596 12.9225 88.1455 16.6723 90.4858C18.406 91.5753 20.3615 92.5033 22.438 93.27C23.3855 93.613 24.3935 93.9156 25.4418 94.1577C26.0063 94.2989 26.5708 94.3998 27.1151 94.4805C27.2966 94.5007 27.478 94.5209 27.6594 94.5612L27.6998 95.3279V95.7515L27.7804 97.0226C27.982 100.694 28.2642 105.012 28.7682 109.168C29.3126 113.506 30.0988 117.379 31.1673 121.031C31.7519 122.988 32.4373 124.905 33.2437 126.761C34.0905 128.718 35.0581 130.534 36.0056 132.309C39.8562 139.491 44.4325 146.512 49.6136 153.21C51.9118 156.156 54.4318 159.182 57.3349 162.431L58.8267 164.085L58.867 164.125L59.0888 164.367C60.9032 166.405 62.7579 168.463 64.5118 170.581C67.2939 173.951 69.3502 176.896 70.963 179.902C72.4145 182.666 73.483 185.511 74.1281 188.356V188.214C74.5111 190.091 74.8538 192.088 74.7933 194.106C74.7732 194.57 74.7329 195.094 74.5918 195.619C74.4506 195.982 74.2893 196.325 74.1079 196.708L74.0676 196.789V196.849L73.9466 197.051C73.9063 197.152 73.8458 197.253 73.8055 197.334C73.483 198.04 73.1805 198.726 73.1805 199.452C73.1805 200.017 73.4628 200.521 73.7249 200.905C74.0676 201.429 74.5514 201.853 74.9345 202.176C75.4183 202.579 75.9626 202.902 76.5069 203.245C77.1722 203.648 77.8577 203.991 78.4221 204.274C79.5309 204.819 80.7405 205.323 81.7082 205.726L81.8292 205.787L82.192 205.948C82.6759 206.15 83.1597 206.372 83.6436 206.574C84.0669 206.776 84.4903 206.998 84.8935 207.199C85.1757 207.34 85.4579 207.502 85.7402 207.643C87.4739 208.49 89.2883 209.257 91.3245 209.983C91.3245 211.234 91.4051 212.526 91.4656 213.776V213.857V213.958C91.4858 214.402 91.5261 214.846 91.5462 215.29C91.6269 216.883 91.6874 218.982 91.4051 221.14C91.1229 223.017 90.5987 224.873 90.1754 226.285C89.6714 227.919 89.0666 229.594 88.3005 231.409C88.3005 231.409 88.3005 231.45 88.3005 231.47L88.2602 231.571C86.9498 234.638 85.2765 237.886 83.1799 241.517C81.6074 244.221 79.7325 247.348 77.5351 250.193L77.6157 250.132C76.89 251 76.2852 251.726 75.7207 252.331C75.378 252.694 75.0353 253.057 74.6926 253.4C74.5514 253.542 74.4103 253.683 74.2692 253.804C74.1482 253.925 74.0071 254.046 73.8862 254.167L73.6442 253.965C72.7975 253.3 72.0718 252.513 71.3662 251.746L71.2855 251.665C70.7614 251.121 70.2574 250.576 69.7131 250.072C69.0276 249.446 68.2615 248.922 67.4551 248.478C66.7294 248.074 66.0238 247.812 65.3787 247.671C65.0359 247.59 64.6932 247.55 64.3707 247.55C64.1086 247.55 63.8062 247.57 63.5038 247.63C62.9796 247.731 62.4756 248.014 62.012 248.417C61.6088 248.76 61.2862 249.265 61.0443 249.89C60.8225 250.415 60.7016 251.02 60.6411 251.827C60.5806 252.634 60.6814 253.481 60.8225 254.248C60.9032 254.793 61.0644 255.337 61.266 255.922C61.6692 257.072 62.2539 258.222 63.0199 259.413C63.786 260.583 64.6932 261.692 65.7012 262.701C66.1649 263.145 66.6891 263.589 67.3543 264.113C67.8785 264.497 68.4027 264.84 68.947 265.122C70.1162 265.727 71.2654 266.07 72.4145 266.111C72.475 266.111 72.5354 266.111 72.5959 266.111C73.7249 266.111 74.8538 265.748 75.7812 265.102C76.89 264.335 77.8375 263.165 78.6439 261.551C79.4705 259.897 79.9543 258.283 80.0551 256.79C80.418 256.568 80.8212 256.265 81.2647 255.862C82.1719 255.055 82.938 254.107 83.6234 253.219L84.3088 252.351C84.8733 251.645 85.4378 250.919 85.9821 250.193C86.8893 249.002 87.7562 247.772 88.6432 246.44C90.4576 243.716 91.9898 241.174 93.3203 238.652C94.6106 236.191 95.8 233.508 96.9088 230.441C98.0176 227.455 98.9248 224.308 99.6304 221.08C100.013 219.284 100.235 217.63 100.296 215.996C100.316 215.068 100.296 214.16 100.275 213.393C100.275 213.07 100.235 212.727 100.215 212.384C101.082 212.566 102.05 212.747 103.179 212.929C107.956 213.655 113.057 213.998 119.206 213.998C121.544 213.998 124.205 213.938 127.552 213.837C128.842 213.797 130.213 213.736 131.604 213.595C132.773 213.494 133.983 213.333 135.313 213.131C135.434 214.684 135.656 216.298 135.858 217.711V217.872C135.959 218.457 136.039 219.022 136.12 219.567V219.688C136.321 221.06 136.422 222.21 136.463 223.279C136.523 224.59 136.463 225.881 136.301 227.173C136.1 228.565 135.817 230.058 135.374 231.853C135.011 233.326 134.568 234.92 134.003 236.716C133.539 238.168 133.015 239.722 132.37 241.477C131.705 243.252 131.181 244.624 130.677 245.815L130.717 245.774C128.499 250.919 125.677 255.721 122.351 260.058C120.617 262.298 118.682 264.477 116.585 266.514L116.403 266.272C115.92 265.687 115.375 265.042 114.871 264.477C113.742 263.226 112.694 262.237 111.646 261.45C111.041 261.006 110.476 260.664 109.912 260.401C109.267 260.099 108.622 259.937 107.977 259.877C107.896 259.877 107.835 259.877 107.755 259.877C107.513 259.877 107.271 259.897 107.049 259.937C106.686 259.998 106.364 260.119 106.082 260.24C105.517 260.482 104.953 260.926 104.428 261.551C103.904 262.197 103.521 262.883 103.239 263.67C103.017 264.335 102.876 265.102 102.856 265.97C102.856 266.696 102.937 267.483 103.118 268.411C103.279 269.177 103.541 269.944 103.924 270.852C104.57 272.365 105.477 273.858 106.626 275.25C107.694 276.562 108.884 277.611 110.134 278.357C110.759 278.74 111.444 279.043 112.21 279.265C112.896 279.467 113.642 279.588 114.387 279.588H114.589C115.375 279.568 116.162 279.406 116.887 279.124C117.27 278.983 117.633 278.801 117.956 278.619C118.298 278.418 118.621 278.176 118.923 277.933C119.448 277.51 119.931 276.965 120.415 276.259C120.798 275.694 121.121 275.008 121.383 274.181C121.605 273.495 121.746 272.708 121.786 271.841C121.786 271.477 121.786 271.114 121.746 270.691C121.746 270.509 121.705 270.327 121.665 270.126C121.907 269.843 122.129 269.541 122.371 269.238L122.593 268.976L122.794 268.713C123.439 267.927 124.064 267.12 124.689 266.313L124.75 266.252L124.971 265.99C126.584 263.912 127.935 262.136 129.245 260.381C132.33 256.185 134.809 252.392 136.805 248.801C139.063 244.786 140.878 240.69 142.188 236.655C142.873 234.537 143.438 232.378 143.861 230.26C144.264 228.181 144.567 225.902 144.809 223.319C145.01 221.181 145.111 219.082 145.151 217.085C145.151 216.056 145.01 215.007 144.849 214.099C144.789 213.736 144.728 213.393 144.647 213.03V212.929C144.506 212.324 144.406 211.739 144.325 211.154C147.369 210.226 150.151 209.156 152.59 207.986C155.514 206.574 157.872 205.041 159.848 203.285C162.207 201.187 163.86 198.927 164.747 196.567C165.332 195.013 165.634 193.278 165.674 191.099C165.715 189.163 165.473 187.246 165.231 185.43C165.15 184.906 165.069 184.381 165.009 183.857V183.736L164.989 183.655V183.534C164.807 182.404 164.626 181.133 164.485 179.902C164.404 179.216 164.364 178.51 164.324 177.865V177.784L164.263 177.037C164.182 175.928 164.102 174.798 164.001 173.688C163.598 168.806 163.033 164.791 162.227 161.059C162.166 160.796 162.106 160.554 162.066 160.292C162.046 159.687 161.985 159.001 161.904 158.254C161.642 155.712 161.118 153.089 160.292 150.265C159.646 148.025 158.78 145.685 157.671 143.123C156.663 140.823 155.494 138.462 154.203 136.122C150.413 129.283 145.837 123.775 140.636 119.76C140.474 119.639 140.273 119.558 140.071 119.558C140.031 119.558 139.991 119.558 139.97 119.558C139.466 119.014 138.922 118.469 138.398 117.924L138.64 117.864H138.72C138.841 117.803 138.983 117.742 139.104 117.722C139.305 117.662 139.507 117.581 139.749 117.46L139.91 117.379C140.172 117.258 140.434 117.117 140.696 116.976C141.482 116.552 142.289 116.007 143.277 115.261C143.982 114.716 144.688 114.151 145.353 113.586L145.434 113.526L145.535 113.445L145.756 113.264C149.264 110.358 152.167 107.574 154.647 104.77C155.998 103.237 157.288 101.582 158.497 99.8673C159.788 98.0313 160.937 96.2156 161.945 94.4603C163.053 92.5235 164.001 90.5463 164.747 88.5893C165.453 86.7736 166.037 84.7359 166.581 82.1938C166.823 81.0842 167.045 79.9745 167.287 78.7237C167.65 76.8474 168.033 74.9307 168.497 73.0343C168.577 72.9738 168.678 72.9132 168.759 72.8527L168.86 72.7922C169.162 72.5904 169.464 72.3887 169.767 72.2071L170.251 71.9045L170.392 71.8238L170.573 71.7027L170.654 71.6624C170.997 71.4404 171.339 71.2185 171.662 70.9966C172.791 70.2299 173.678 69.4633 174.424 68.6563C174.504 68.6563 174.585 68.5957 174.666 68.5554C174.887 68.4142 175.008 68.2326 175.089 67.9905C175.129 67.9098 175.149 67.8089 175.17 67.708C175.23 67.6072 175.25 67.4861 175.25 67.365C175.25 67.2642 175.23 67.1633 175.17 67.0624H175.19ZM5.70528 46.3829C5.70528 46.3829 5.76576 46.2416 5.78592 46.1609C5.78592 46.1609 5.78592 46.1609 5.78592 46.1408V46.1004C5.76576 46.2013 5.72544 46.3223 5.68512 46.4232L5.70528 46.3829ZM9.85822 81.3868L9.8179 81.3465L9.77758 81.3061C9.77758 81.3061 9.9187 81.4675 9.97918 81.5482C9.93886 81.4877 9.89854 81.4473 9.83806 81.3868H9.85822Z" fill="#FAD82F"/>
<path d="M31.3487 69.6247C31.8325 70.0887 32.397 70.4721 32.9615 70.8554C34.1509 71.6624 35.3605 72.3685 36.3081 72.8729C38.6063 74.1439 40.9852 75.3343 43.3237 76.4036C45.4405 77.372 47.7791 78.3606 50.4603 79.4097C53.0408 80.4184 55.4398 81.3263 57.7784 82.1737C69.1687 86.3096 79.6721 88.9727 89.8931 90.3043C92.4333 90.6271 94.9936 90.8893 97.4934 91.0306C98.2998 91.0709 99.0861 91.1314 99.8925 91.1718L101.082 91.2323C102.09 91.2929 103.42 91.3534 104.771 91.3937C105.658 91.4139 106.485 91.4341 107.251 91.4341C112.069 91.4341 115.819 90.8288 119.024 89.5174C119.186 89.4569 119.306 89.3359 119.367 89.1745C119.427 89.0131 119.427 88.8113 119.367 88.6499C119.266 88.4078 119.024 88.2666 118.762 88.2666C118.682 88.2666 118.621 88.2666 118.54 88.3069C118.52 88.1657 118.5 88.0245 118.48 87.8832V87.7622C118.44 87.5403 118.419 87.3183 118.399 87.0964C118.339 86.592 118.298 86.0877 118.258 85.5833C118.157 84.4535 118.117 83.2631 118.097 82.0526V81.6088C118.258 80.8421 118.419 80.0755 118.601 79.3088L118.923 77.7755L119.165 76.6255C119.387 75.5966 119.609 74.5071 119.871 73.458V73.4176V73.3975L119.952 73.1755L120.012 72.9536C120.193 72.8729 120.355 72.7519 120.456 72.5905C120.637 72.308 120.818 71.9852 120.96 71.6422C121.081 71.3396 121.161 71.0168 121.222 70.7142V70.5729C121.423 69.8466 121.403 69.08 121.363 68.4344C121.322 67.7282 121.121 67.0423 120.939 66.4774C120.738 65.8519 120.415 65.2467 120.153 64.8028C119.79 64.1774 119.427 63.6327 119.044 63.1283C118.702 62.6844 118.298 62.2204 117.774 61.6757C116.968 60.8081 116.101 59.9406 115.133 59.0327C112.089 56.1679 108.299 53.5451 103.582 50.9828C99.7917 48.925 95.5984 47.1092 90.3971 45.2531C85.72 43.5785 80.922 42.1864 76.8497 41.0365L76.5674 40.9558C73.0394 39.9672 69.3905 38.9382 65.7415 38.1514C63.6248 37.6874 61.8507 37.3848 60.1774 37.183C58.4437 36.9812 56.7099 36.8804 55.0366 36.8804C54.8149 36.8804 54.5729 36.8804 54.3512 36.8804C52.4763 36.9005 50.7627 37.1023 49.1902 37.4453C49.0491 37.3242 48.8878 37.2233 48.6862 37.2233C48.525 37.2233 48.3637 37.2233 48.2024 37.2233C47.5371 37.2233 46.892 37.2839 46.2469 37.4251C45.4607 37.6067 44.7147 37.8891 43.989 38.2523C42.4971 39.0189 41.2271 40.1689 40.1989 41.4803C39.8965 41.8636 40.0175 42.4285 40.4005 42.711C40.4005 42.711 40.4207 42.711 40.4408 42.7312C40.3602 42.8321 40.2796 42.9329 40.2191 43.0338C40.078 43.0338 39.957 43.1145 39.8764 43.2154C39.1708 44.1838 38.445 45.2732 37.6789 46.5443C37.2959 47.1697 36.9128 47.8153 36.55 48.4408C36.1266 49.1671 35.7436 49.9135 35.4009 50.5591C34.5743 52.153 33.8889 53.5854 33.3244 54.917C32.7397 56.2889 32.1954 57.7415 31.6713 59.3959C31.1874 60.8888 30.8246 62.2608 30.5625 63.5721C30.3004 64.9239 30.1794 66.094 30.1996 67.1835C30.1996 67.2037 30.1996 67.2239 30.1996 67.2642C30.0383 67.5467 30.0182 67.8291 30.119 68.051C30.4214 68.6765 30.9455 69.1808 31.4092 69.6247H31.3487ZM165.453 195.942C165.715 194.671 165.694 193.359 165.654 192.108C165.634 191.362 165.574 190.595 165.533 189.869C165.473 189.021 165.412 188.134 165.412 187.266C165.412 186.197 165.493 185.269 165.654 184.442C165.654 184.442 165.694 184.442 165.694 184.401C165.815 184.3 165.896 184.159 165.896 184.018C165.896 183.877 165.896 183.736 165.795 183.615C165.795 183.514 165.795 183.413 165.735 183.312C165.674 183.171 165.553 183.029 165.412 182.949C165.553 182.848 165.614 182.707 165.634 182.545C165.634 182.384 165.614 182.222 165.513 182.101C165.392 181.96 165.231 181.879 165.049 181.879C164.908 181.879 164.767 181.92 164.666 182.001C162.691 183.534 160.534 185.027 158.255 186.419C152.328 190.01 145.655 192.875 138.458 194.953C130.193 197.293 121.302 198.564 112.069 198.685H112.13H112.049H111.968C111.605 198.685 111.243 198.685 110.9 198.685C106.686 198.685 102.433 198.443 98.2595 197.959C93.6832 197.435 89.1875 196.628 84.9136 195.578H84.833L84.7524 195.538H84.833C83.2807 195.175 81.688 194.691 80.0753 194.146C79.3293 193.884 78.5633 193.621 77.8173 193.359C77.4343 193.218 77.0714 193.097 76.6884 192.956C76.4666 192.875 76.265 192.814 76.0433 192.734C75.9425 192.693 75.8417 192.673 75.7409 192.633C75.6199 192.592 75.499 192.572 75.3982 192.532C75.3175 192.512 75.2369 192.492 75.1562 192.492C74.874 192.492 74.6522 192.653 74.5514 192.895C74.4506 193.178 74.5514 193.48 74.7933 193.662C74.753 193.742 74.7329 193.823 74.7127 193.904V194.025C74.5313 195.013 74.37 196.022 74.1482 197.011C74.0474 197.354 73.9668 197.697 73.8458 198.04C73.7652 198.282 73.6846 198.524 73.6039 198.746C73.5434 198.927 73.4628 199.129 73.4023 199.331C73.2814 199.694 73.4023 200.077 73.6846 200.279C73.6241 200.36 73.5636 200.441 73.5434 200.542C73.4628 200.723 73.4426 200.985 73.5434 201.187C73.7047 201.49 73.8862 201.732 74.1079 201.974C74.3095 202.176 74.5313 202.357 74.8135 202.579L75.1159 202.801C75.2369 202.902 75.378 203.003 75.499 203.104L75.7207 203.285C75.9223 203.447 76.1239 203.608 76.3255 203.77C77.273 204.496 78.3012 205.162 79.4705 205.848C81.5469 207.018 83.825 208.026 86.4659 208.934C88.5827 209.661 90.8608 210.286 93.8646 210.972C96.6064 211.598 99.3481 212.142 101.667 212.586C108.158 213.837 113.581 214.604 118.742 214.987C121.222 215.189 123.641 215.269 125.919 215.269C129.407 215.269 132.753 215.047 135.898 214.604C140.575 213.938 145.031 212.445 149.163 210.185C150.917 209.237 152.651 208.107 154.465 206.776C154.667 206.957 154.949 207.018 155.211 206.917C156.945 206.15 158.618 205.202 160.11 204.052C161.662 202.862 163.033 201.389 163.84 199.573C163.961 199.311 163.84 198.988 163.638 198.806C163.961 198.484 164.303 198.161 164.626 197.858L165.594 196.93C165.836 196.688 165.876 196.365 165.674 196.103C165.614 196.022 165.533 195.962 165.432 195.921L165.453 195.942ZM160.917 201.409C160.392 201.934 159.848 202.418 159.263 202.882C159.465 202.7 159.687 202.519 159.888 202.317C160.292 201.954 160.675 201.591 161.078 201.227C161.017 201.288 160.977 201.349 160.917 201.409ZM83.3008 177.401C85.2362 177.481 87.2522 177.522 89.3488 177.522C92.7155 177.522 96.3645 177.421 100.497 177.219C106.082 176.937 111.162 176.473 116 175.766C121.302 175 126.463 173.93 131.382 172.559C142.269 169.552 151.744 165.154 159.566 159.485C160.433 158.86 161.36 158.153 162.267 157.427C162.429 157.306 162.529 157.104 162.549 156.903C162.57 156.681 162.509 156.479 162.388 156.317C162.247 156.136 162.005 156.035 161.763 156.035C161.703 156.035 161.642 156.035 161.582 156.055C160.876 153.553 159.848 151.092 158.86 148.711V148.651L158.699 148.348C157.751 146.068 156.764 143.688 155.998 141.287C156.159 141.105 156.3 140.924 156.461 140.722C156.562 140.601 156.602 140.44 156.582 140.258C156.562 140.076 156.461 139.915 156.32 139.814C156.219 139.733 156.078 139.693 155.957 139.693C155.756 139.693 155.554 139.794 155.433 139.955C155.07 140.419 154.687 140.883 154.264 141.307C152.752 142.881 150.937 144.313 148.74 145.665C148.7 145.665 148.679 145.705 148.639 145.726C144.99 147.904 141.14 149.458 137.833 150.668C135.918 151.375 133.943 152.081 131.906 152.767C129.79 153.493 127.471 154.219 124.85 154.966C118.762 156.701 112.25 158.113 105.517 159.182C99.0861 160.211 92.8768 160.837 87.0506 161.059C86.0224 161.099 84.9741 161.119 83.8452 161.139H83.946C83.8048 161.139 83.6637 161.139 83.5226 161.139C83.2 161.139 82.8976 161.139 82.5751 161.139C74.753 161.139 67.8382 160.373 61.4475 158.799C59.9355 158.416 58.3025 157.931 56.468 157.346C55.964 157.185 55.46 157.024 54.9761 156.842L53.9681 156.519C53.5246 156.378 53.0811 156.237 52.6376 156.096C52.4158 156.015 52.1941 155.954 51.9723 155.874L51.7506 155.793C51.6094 155.753 51.4683 155.712 51.3272 155.652C51.2466 155.611 51.1659 155.611 51.0651 155.611C50.8434 155.611 50.6216 155.712 50.5006 155.894C50.3998 156.035 50.3394 156.237 50.3797 156.418C50.3998 156.58 50.5006 156.802 50.6619 156.882C50.8232 156.963 50.9845 157.064 51.1256 157.165C51.2667 157.246 51.4078 157.326 51.549 157.407C51.8715 157.589 52.1941 157.75 52.4965 157.931C53.2222 158.315 53.9883 158.638 54.5729 158.88C54.6737 158.92 54.7745 158.96 54.8753 159.001C54.7745 159.122 54.7141 159.283 54.6939 159.424C54.6737 159.667 54.7544 159.868 54.8753 160.07C56.3672 162.39 58.1816 164.529 59.9556 166.587L60.6411 167.394C61.8708 168.826 62.778 169.956 63.6247 171.025C64.1489 171.691 64.6126 172.316 65.0561 172.942C65.2779 173.244 65.4795 173.547 65.7012 173.85L65.8222 174.031L65.9028 174.132C65.8222 174.233 65.7819 174.354 65.7617 174.475C65.7415 174.677 65.802 174.879 65.923 175.04C66.0641 175.201 66.2052 175.262 66.427 175.323C68.8663 175.908 71.5879 176.351 74.753 176.735C77.4141 177.037 80.2567 177.259 83.4016 177.38L83.3008 177.401ZM80.1962 136.647C81.6679 136.647 83.2 136.626 84.712 136.586C87.6352 136.505 90.6995 136.364 94.0864 136.142C97.4934 135.92 100.638 135.638 103.683 135.295C110.416 134.508 116.484 133.378 122.27 131.784C128.58 130.07 134.547 127.77 140.051 124.945C141.281 124.32 142.571 123.614 143.841 122.867C144.023 122.766 144.164 122.645 144.244 122.464C144.325 122.282 144.305 122.08 144.244 121.899C144.164 121.717 144.023 121.576 143.841 121.495C143.74 121.455 143.639 121.435 143.559 121.435C143.498 121.435 143.458 121.435 143.398 121.435C143.357 121.414 143.297 121.394 143.256 121.394C143.236 121.394 143.196 121.394 143.176 121.394C143.176 121.314 143.176 121.233 143.176 121.132C143.135 120.91 143.035 120.769 142.853 120.607C142.309 120.103 141.744 119.619 141.18 119.155L141.079 119.054L140.777 118.792C140.293 118.368 139.809 117.964 139.325 117.541L139.245 117.48C138.116 116.512 136.946 115.503 135.858 114.454L135.938 114.555C133.66 112.376 131.866 110.58 130.273 108.886C130.233 108.845 130.213 108.825 130.173 108.805C130.213 108.664 130.213 108.522 130.152 108.401C130.052 108.179 129.85 108.058 129.608 108.058C129.528 108.058 129.447 108.058 129.366 108.099C127.491 108.785 125.475 109.43 123.419 110.015C119.306 111.186 115.053 112.073 110.779 112.699C106.686 113.284 102.392 113.627 97.9974 113.687H97.8966C97.4934 113.687 97.1104 113.687 96.7072 113.687C94.4694 113.687 92.1914 113.627 89.9335 113.486C87.232 113.324 84.4903 113.062 81.5268 112.679C76.3658 112.013 70.963 110.984 65.4391 109.612H65.3787H65.2779C59.3912 108.099 53.323 106.202 47.2549 103.963C44.3922 102.914 41.4892 101.764 38.3845 100.452C36.1468 99.5042 33.8889 98.4954 31.6914 97.527L29.7158 96.6393C29.4537 96.5182 29.1916 96.3972 28.9295 96.2761C28.5263 96.0744 28.103 95.8928 27.6998 95.7314C27.6393 95.7112 27.5586 95.691 27.478 95.691C27.2764 95.691 27.095 95.7919 26.974 95.9331C26.8329 96.1349 26.8127 96.4375 26.9538 96.6393C26.9337 96.6595 26.8934 96.6998 26.8732 96.72C26.7321 96.9217 26.7321 97.1033 26.7321 97.3051C26.9538 102.49 27.4578 107.13 28.3046 111.468C28.7682 113.808 29.3327 116.129 29.998 118.348C30.8246 121.051 31.6511 123.21 32.5986 125.127C32.5986 125.147 32.6188 125.187 32.6389 125.207C32.397 125.53 32.4777 125.994 32.8002 126.256C33.8889 127.104 35.0581 127.77 36.5097 128.496C37.6588 129.081 38.9288 129.646 40.4812 130.271C43.0213 131.28 45.8034 132.168 48.9483 132.995C54.452 134.427 60.3387 135.416 66.9713 136.021C71.1847 136.405 75.6199 136.586 80.1559 136.586L80.1962 136.647ZM51.549 131.441H51.428L51.2667 131.361C51.932 131.522 52.6174 131.704 53.3029 131.845C52.7182 131.704 52.1134 131.563 51.549 131.421V131.441Z" fill="#B58ABF"/>
<path d="M173.637 178.591C173.456 178.591 173.295 178.631 173.133 178.732C172.65 179.014 172.509 179.62 172.771 180.104C172.871 180.306 172.972 180.487 173.053 180.689C173.275 181.294 173.436 181.899 173.537 182.525C173.637 183.514 173.617 184.502 173.496 185.471C173.436 185.914 173.355 186.358 173.275 186.802C173.234 187.064 173.234 187.286 173.375 187.528C173.496 187.73 173.698 187.892 173.94 187.952C174.444 188.093 174.948 187.791 175.089 187.306C175.472 185.995 175.674 184.603 175.633 183.251C175.593 181.778 175.21 180.366 174.504 179.095C174.323 178.772 173.98 178.611 173.637 178.611V178.591ZM95.9613 231.49C95.9613 231.49 95.9613 231.45 95.9814 231.43C95.9814 231.45 95.9613 231.49 95.9411 231.51L95.9613 231.49ZM61.1048 208.753C61.4676 208.652 61.77 208.39 61.9313 208.067C62.0926 207.764 62.1732 207.32 62.0321 206.997C61.8507 206.533 61.7096 206.069 61.6088 205.605C61.508 204.819 61.5281 204.032 61.6088 203.245C61.7902 201.752 62.0523 200.279 61.9918 198.766C61.9515 197.959 61.8104 197.152 61.5281 196.385C61.2459 195.558 60.762 194.791 60.2379 194.085C59.5323 193.137 58.7057 192.29 57.7985 191.523C57.1333 190.958 56.4478 190.413 55.8632 189.748C55.5809 189.384 55.339 188.981 55.1374 188.577C54.7745 187.73 54.5528 186.842 54.3915 185.935C54.3512 185.692 54.331 185.45 54.2907 185.208C54.2504 184.885 54.1697 184.603 53.9077 184.361C53.6859 184.159 53.4037 184.038 53.1013 184.038C53.1013 184.038 53.0811 184.038 53.0609 184.038C52.7384 184.038 52.436 184.179 52.2142 184.421C52.0126 184.623 51.8513 184.966 51.8917 185.269C52.1537 187.367 52.5569 189.506 53.8673 191.22C54.3512 191.866 54.9157 192.411 55.5003 192.955C56.0648 193.48 56.6091 194.005 57.1131 194.59C57.6574 195.276 58.1413 196.002 58.5444 196.769C58.7057 197.172 58.8267 197.596 58.9275 198.019C59.0081 198.726 58.988 199.432 58.9275 200.138C58.7864 201.369 58.5646 202.579 58.5041 203.81C58.4638 204.556 58.5646 205.283 58.6856 206.009C58.8065 206.755 59.1291 207.482 59.492 208.147C59.7742 208.692 60.5201 208.914 61.0846 208.753H61.1048ZM26.591 4.66047C26.7119 4.64029 26.8329 4.59994 26.9337 4.57977C27.2562 4.53942 27.5788 4.53942 27.9014 4.57977C28.2239 4.64029 28.5465 4.72099 28.869 4.84205C29.2319 5.00345 29.5545 5.2052 29.877 5.4473C30.4213 5.89115 30.885 6.39553 31.3487 6.94026C31.6511 7.30342 32.2357 7.32359 32.6188 7.10167C33.1228 6.81921 33.2841 6.15343 33.0018 5.66923C32.3164 4.47889 31.2882 3.47013 30.0585 2.86488C29.4134 2.54207 28.7279 2.34032 28.0223 2.2798C27.8409 2.2798 27.6594 2.25962 27.4982 2.25962C26.9942 2.25962 26.4902 2.34032 25.9862 2.4412C25.3814 2.58242 25.0185 3.26838 25.1798 3.85346C25.341 4.47889 25.9862 4.80169 26.591 4.66047ZM173.779 50.4178C174.141 50.4783 174.504 50.5792 174.847 50.7002C175.149 50.8415 175.452 51.023 175.714 51.2046C176.057 51.4871 176.359 51.8099 176.641 52.1529C176.803 52.3143 176.984 52.4151 177.186 52.4757C177.508 52.5564 177.851 52.516 178.153 52.3546C178.698 52.0318 179 51.2046 178.597 50.6397C178.355 50.2967 178.093 49.9538 177.811 49.6511C177.528 49.3485 177.186 49.1064 176.843 48.8643C176.5 48.6222 176.117 48.4608 175.734 48.2994C175.331 48.138 174.908 48.0169 174.464 47.9564C174.343 47.9362 174.222 47.9161 174.101 47.9161C173.9 47.9161 173.698 47.9564 173.496 48.0775C173.214 48.2389 172.992 48.5213 172.912 48.8441C172.811 49.1669 172.871 49.5301 173.033 49.8327C173.194 50.095 173.476 50.3573 173.799 50.4178H173.779ZM31.2479 1.69472C31.51 1.69472 31.7922 1.69472 32.0543 1.73507C32.3769 1.79559 32.6994 1.87629 33.022 1.99734C33.2841 2.11839 33.5461 2.2798 33.7881 2.4412C34.03 2.64295 34.2719 2.86488 34.4735 3.12715C34.6751 3.40961 34.8565 3.71223 35.038 4.01486C35.2396 4.39819 35.7436 4.49907 36.1064 4.29732C36.2879 4.19644 36.4088 4.03504 36.4693 3.83329C36.5298 3.61136 36.4693 3.42978 36.3887 3.22803C36.1669 2.74383 35.8847 2.32015 35.5621 1.89647C35.2396 1.47279 34.8162 1.12981 34.3928 0.847358C33.9695 0.54473 33.4655 0.342978 32.9615 0.201752C32.4575 0.0605256 31.9333 0 31.4092 0C31.3689 0 31.3285 0 31.2882 0C30.8245 0 30.4415 0.383329 30.4415 0.847358C30.4415 1.31139 30.8245 1.71489 31.2882 1.69472H31.2479ZM178.98 182.626C178.839 181.597 178.597 180.588 178.274 179.6C178.173 179.297 177.911 179.095 177.589 179.095C177.528 179.095 177.468 179.095 177.407 179.115C177.045 179.216 176.803 179.62 176.924 179.983C177.226 180.971 177.448 182 177.589 183.029C177.609 183.211 177.77 183.372 177.911 183.453C178.073 183.554 178.274 183.574 178.456 183.534C178.637 183.493 178.798 183.372 178.879 183.211C178.98 183.029 178.98 182.848 178.96 182.666L178.98 182.626ZM54.7947 178.47C55.3793 179.196 55.8632 179.963 56.2664 180.79C56.851 182.142 57.1937 183.554 57.4356 185.006C57.476 185.289 57.5163 185.571 57.5364 185.854C57.5768 186.237 57.6776 186.56 57.9598 186.822C58.2219 187.064 58.5646 187.185 58.9073 187.185C59.2702 187.185 59.6129 187.024 59.875 186.762C60.0968 186.52 60.2782 186.136 60.2379 185.813C60.1572 184.966 59.996 184.119 59.8347 183.292C59.7339 182.727 59.5928 182.142 59.4113 181.597C59.0888 180.528 58.6049 179.478 58.0405 178.51C57.5364 177.663 56.9115 176.876 56.2261 176.17C55.5406 175.464 54.7745 174.838 53.9681 174.273C51.0853 172.215 47.6782 171.086 44.7752 169.048C43.9487 168.443 43.2027 167.757 42.5375 166.99C41.973 166.304 41.5093 165.537 41.1263 164.73C40.5416 163.379 40.1787 161.946 39.9368 160.494C39.7151 159.122 39.6143 157.73 39.3724 156.358C39.1304 155.026 38.6264 153.775 37.82 152.686C37.2959 151.98 36.6911 151.354 36.0258 150.769C35.2597 150.103 34.4332 149.518 33.6268 148.913C32.3365 147.945 31.0665 146.916 30.0181 145.685C29.494 145.06 29.0706 144.374 28.7078 143.627C28.4054 142.941 28.2038 142.235 28.0626 141.489C27.9215 140.439 27.9215 139.411 28.0223 138.361C28.0828 137.776 28.1836 137.191 28.3046 136.626C28.3852 136.203 28.1433 135.759 27.7199 135.658C27.6594 135.658 27.599 135.638 27.5385 135.638C27.1756 135.638 26.8329 135.88 26.7522 136.243C26.3692 138.119 26.1878 140.036 26.5103 141.932C26.7724 143.486 27.4175 144.939 28.3449 146.189C29.3126 147.501 30.502 148.61 31.7721 149.619C32.5381 150.224 33.3244 150.81 34.0905 151.415C34.7759 151.96 35.421 152.565 35.9855 153.231C36.3685 153.715 36.7112 154.239 36.9733 154.804C37.2354 155.409 37.3967 156.035 37.5176 156.681C37.6386 157.488 37.6991 158.295 37.7596 159.122C37.8604 160.211 38.0015 161.301 38.2232 162.37C38.6466 164.488 39.4328 166.546 40.7835 168.261C41.973 169.774 43.485 170.965 45.0978 171.973C46.6299 172.942 48.2629 173.749 49.8354 174.636C50.6821 175.1 51.5086 175.605 52.2949 176.17C53.2222 176.836 54.0689 177.602 54.8149 178.47H54.7947ZM5.56415 44.3652C5.56415 44.3652 5.56415 44.3854 5.56415 44.4056C5.56415 44.3854 5.58431 44.3451 5.58431 44.3249C5.58431 44.3249 5.58431 44.3451 5.58431 44.3652H5.56415ZM152.167 85.5226C152.167 85.5226 152.147 85.5831 152.127 85.6033C152.127 85.5831 152.147 85.5428 152.167 85.5226ZM28.2038 105.032C28.2038 105.032 28.2038 105.052 28.2038 105.072C28.2038 105.032 28.2038 105.012 28.2038 104.971C28.2038 104.992 28.2038 105.012 28.2038 105.032ZM22.7404 92.2611C22.7404 92.2611 22.7404 92.2611 22.7203 92.2611C22.7203 92.2611 22.7203 92.2611 22.7404 92.2611ZM173.819 52.7985C172.609 52.0318 171.178 51.6687 169.767 51.588C169.767 51.588 169.747 51.588 169.726 51.588C169.202 51.588 168.759 52.0923 168.759 52.5967C168.759 53.1818 169.222 53.5853 169.767 53.6055C169.928 53.6055 170.089 53.6256 170.271 53.6458C170.815 53.7265 171.319 53.8677 171.843 54.0695C172.327 54.2914 172.771 54.5537 173.194 54.8563C173.617 55.1993 173.98 55.5826 174.323 56.0063C174.545 56.3089 174.746 56.6116 174.928 56.9142C175.23 57.3984 175.875 57.58 176.379 57.2975C176.883 56.9949 177.024 56.3695 176.762 55.8449C176.097 54.5739 175.069 53.5248 173.859 52.7783L173.819 52.7985ZM132.995 106.747C132.995 106.747 132.975 106.747 132.955 106.747C132.955 106.747 132.955 106.747 132.975 106.747C132.975 106.747 132.975 106.747 132.995 106.747ZM175.815 65.7308C175.633 65.5694 175.492 65.5088 175.27 65.4281C175.129 65.3676 174.988 65.3676 174.847 65.3474C174.807 65.3474 174.766 65.3474 174.746 65.3474C174.666 65.3474 174.585 65.3474 174.504 65.3474C174.182 65.3878 173.859 65.4685 173.557 65.5694C172.831 65.8316 172.125 66.1544 171.44 66.5176C170.916 66.8 170.392 67.1027 169.888 67.4255C169.989 67.3044 170.089 67.1834 170.17 67.0623C170.513 66.6185 170.835 66.1746 171.138 65.6904C171.42 65.2466 171.642 64.7624 171.823 64.2782C171.984 63.8545 172.085 63.4106 172.105 62.9668C172.105 62.7448 172.085 62.5027 172.045 62.2808C172.005 62.0589 171.924 61.8369 171.803 61.6352C171.581 61.2317 171.198 60.9291 170.795 60.7475C170.472 60.6063 170.109 60.5054 169.747 60.5054C169.666 60.5054 169.605 60.5054 169.525 60.5054C169.323 60.5256 169.122 60.5659 168.92 60.6264C168.718 60.7071 168.517 60.7878 168.315 60.8887C167.952 61.0905 167.61 61.3527 167.307 61.6352C166.985 61.9176 166.682 62.2405 166.4 62.5633C166.078 62.9466 165.775 63.3299 165.493 63.7334C165.311 63.9957 165.13 64.258 164.949 64.5202C165.231 63.6325 165.412 62.7247 165.493 61.7966C165.594 60.7071 165.453 59.4966 164.686 58.6493C164.344 58.2659 163.84 58.0238 163.336 57.9028C163.134 57.8423 162.912 57.8221 162.711 57.8221C162.489 57.8221 162.247 57.8624 162.025 57.923C161.259 58.1651 160.695 58.7703 160.292 59.4563C159.828 60.2229 159.546 61.0905 159.324 61.958C158.921 63.5115 158.719 65.0852 158.538 66.679C158.477 66.5983 158.417 66.5176 158.356 66.4369C157.993 65.9527 157.63 65.4887 157.227 65.0448C156.804 64.5808 156.34 64.1773 155.836 63.7939C155.635 63.6325 155.413 63.4913 155.191 63.3501C154.929 63.1887 154.647 63.0676 154.344 62.9466C154.143 62.8659 153.941 62.8054 153.719 62.7852C153.578 62.7852 153.417 62.7448 153.276 62.7448C153.115 62.7448 152.953 62.765 152.792 62.8054C152.55 62.8457 152.308 62.9466 152.107 63.0878C151.845 63.229 151.623 63.4308 151.421 63.6527C151.079 64.036 150.796 64.5001 150.716 65.0045C150.635 65.4887 150.695 65.993 150.857 66.4571C151.079 67.0825 151.441 67.6272 151.845 68.1316C152.268 68.6562 152.752 69.1202 153.236 69.564C153.719 69.9877 154.223 70.3912 154.748 70.7544C154.949 70.9158 155.171 71.057 155.393 71.2184C155.332 72.0859 155.272 72.9333 155.151 73.8008C154.647 77.7754 153.639 81.6893 152.147 85.4419C152.147 85.4823 152.107 85.5428 152.087 85.5831C152.087 85.563 152.087 85.5428 152.107 85.5226C150.695 88.9726 148.881 92.241 146.623 95.2067C146.018 95.9935 145.373 96.7602 144.708 97.4865C144.023 98.233 143.297 98.9593 142.531 99.6452C140.978 101.078 139.426 102.49 137.753 103.761C136.261 104.891 134.668 105.92 132.935 106.646C132.935 106.646 132.955 106.646 132.975 106.646C132.955 106.646 132.935 106.646 132.914 106.666C132.894 106.666 132.854 106.686 132.814 106.707C132.834 106.707 132.854 106.707 132.874 106.686C132.027 107.029 131.181 107.292 130.273 107.433C128.58 105.657 126.967 103.822 125.496 101.844C123.863 99.5847 122.472 97.1839 121.423 94.6015C120.456 92.1199 119.831 89.5173 119.488 86.8744C119.327 85.5226 119.246 84.1507 119.266 82.7788C119.266 81.3867 119.407 80.0148 119.609 78.6429C119.851 76.9885 120.234 75.3543 120.718 73.7605C120.96 72.9535 121.181 72.1061 121.524 71.3395C121.907 70.4518 121.867 69.4228 121.867 68.4746C121.867 67.607 121.625 66.7395 121.282 65.9527C120.899 65.0852 120.395 64.258 119.81 63.4913C119.206 62.6843 118.52 61.9177 117.794 61.2115C116.484 59.9001 115.073 58.7098 113.621 57.6002C111.847 56.2484 110.013 54.9976 108.118 53.8072C103.783 51.1038 99.2272 48.8038 94.5299 46.8064C89.752 44.7687 84.833 43.0337 79.8736 41.5205C78.0996 40.9758 76.3255 40.4714 74.5514 39.9872C73.2612 39.4828 71.9508 38.9986 70.6404 38.575C69.2494 38.1109 67.818 37.6872 66.4068 37.3039C65.2174 36.9811 64.0078 36.6785 62.7982 36.4364C61.6692 36.2145 60.5201 36.0531 59.371 35.9522C58.0203 35.811 56.6494 35.7504 55.2785 35.7303C55.0165 35.7303 54.7745 35.7303 54.5125 35.7303C51.8917 35.7303 49.2709 35.9118 46.7307 36.4767C45.501 36.7592 44.2712 37.1022 43.1221 37.6469C42.1141 38.1109 41.1867 38.7364 40.4408 39.5837C39.9167 40.189 39.5538 40.9355 39.3925 41.7223C37.5983 44.3652 36.0258 47.1696 34.6751 50.0748C32.9413 53.8274 31.5503 57.7212 30.4012 61.6957C29.2319 65.7509 28.365 69.8868 27.6796 74.0429C27.1353 77.3517 26.7321 80.6604 26.4297 83.9893C26.349 83.9691 26.2684 83.949 26.2079 83.9288C24.8774 83.5253 23.6073 82.9805 22.4179 82.2946C21.1276 81.5078 19.9382 80.5595 18.8697 79.4902C17.6601 78.2394 16.632 76.8473 15.7651 75.3543C14.616 73.2965 13.7491 71.0974 13.1644 68.8176C12.479 66.0334 12.1968 63.1685 12.2371 60.3238C12.3177 56.773 12.9225 53.2221 13.8902 49.8125C15.0192 45.9793 16.632 42.3074 18.6681 38.8776C19.6559 37.2434 20.7244 35.6899 21.8937 34.1969C22.7606 33.1075 23.6678 32.0584 24.6354 31.0496C25.1193 30.5452 25.6031 30.0005 26.1273 29.5365C26.591 29.133 27.1958 28.8909 27.7401 28.6084C28.869 28.0435 29.9778 27.4786 31.0665 26.8128C31.5906 26.49 32.0946 26.1269 32.5785 25.7435C32.9817 25.4207 33.3647 25.0576 33.6873 24.6339C34.0098 24.2102 34.2517 23.7664 34.3928 23.262C34.4735 22.9997 34.5138 22.7173 34.534 22.4348C34.5541 22.2129 34.5541 22.0111 34.534 21.7892C34.4735 21.3655 34.3324 20.962 34.03 20.6594C33.7679 20.3971 33.405 20.2357 33.0421 20.155C32.8405 20.1147 32.6389 20.0945 32.4172 20.0945C32.2357 20.0945 32.0341 20.0945 31.8527 20.1348C31.389 20.1954 30.9455 20.2962 30.502 20.4375C29.5746 20.7199 28.7078 21.1436 27.861 21.5875C27.6998 21.6682 27.5586 21.769 27.3974 21.8497C27.9014 20.9217 28.4054 19.9734 28.8287 19.005C29.2722 17.9963 29.6956 16.9673 29.9375 15.898C30.0383 15.434 30.1189 14.9498 30.1189 14.4656C30.1189 14.2437 30.0988 14.0016 30.0585 13.7797C30.0181 13.5376 29.9375 13.3358 29.8569 13.1139C29.494 12.2665 28.607 11.742 27.6998 11.742H27.6594C27.2159 11.742 26.7926 11.9034 26.4095 12.1051C26.0063 12.327 25.6636 12.6297 25.341 12.9525C24.9782 13.3358 24.6556 13.7595 24.3734 14.2033C24.0911 14.6472 23.8291 15.091 23.5871 15.5551C23.1235 16.4428 22.7404 17.391 22.3977 18.3392C22.2566 17.2094 22.0348 16.0998 21.6518 15.0305C21.4502 14.4454 21.1679 13.9007 20.7849 13.4165C20.6438 13.2349 20.5027 13.0937 20.3414 12.9525C20.2204 12.8516 20.0995 12.7507 19.9583 12.67C19.8172 12.5893 19.6358 12.5288 19.4745 12.4683C19.2326 12.3876 18.9503 12.3472 18.6883 12.3472C18.3859 12.3472 18.0835 12.4077 17.8012 12.5086C17.4787 12.6297 17.2166 12.7911 16.9344 13.0332C16.7126 13.2349 16.511 13.4972 16.3699 13.7595C16.1884 14.0621 16.0675 14.4051 15.9465 14.7279C15.8457 15.0305 15.7852 15.3735 15.7449 15.6963C15.6441 16.4831 15.624 17.2498 15.6643 18.0366C15.6643 18.198 15.7046 18.3594 15.7248 18.541C15.4425 18.1375 15.1401 17.7542 14.8176 17.4112C14.4144 16.9673 13.9507 16.5638 13.4265 16.2814C13.0435 16.0796 12.6403 15.9586 12.2371 15.9586C12.0557 15.9586 11.8742 15.9787 11.6928 16.0191C11.0073 16.1805 10.5033 16.7454 10.1606 17.3103C9.95902 17.6331 9.79774 17.9963 9.69694 18.3796C9.59614 18.7629 9.57598 19.1866 9.6163 19.5699C9.7171 20.4576 10.0397 21.305 10.4429 22.0918C10.8461 22.8988 11.3904 23.6251 11.975 24.3111C12.2371 24.6137 12.4992 24.8962 12.8016 25.1786C12.9427 25.3199 13.104 25.4611 13.2652 25.6023C9.43486 32.4821 5.72543 39.4828 3.08448 46.9275C1.75393 50.7002 0.705611 54.5941 0.221773 58.5686C1.39102e-05 60.4247 -0.100786 62.301 -0.020146 64.1773C0.0604937 65.9123 0.342733 67.6676 0.745931 69.3623C1.55233 72.7517 2.96352 75.9999 4.79808 78.9455C6.65279 81.9314 8.97118 84.6551 11.592 86.9954C13.6281 88.8112 15.886 90.4252 18.2851 91.7366C19.4947 92.4024 20.7244 92.9673 21.9945 93.4918C22.5993 93.7339 23.2041 93.9558 23.8291 94.1576C24.2121 94.2786 24.6153 94.3997 24.9983 94.5208C25.2806 94.6014 25.5426 94.662 25.8249 94.7225C25.8249 96.0137 25.8249 97.3049 25.845 98.5961C25.9862 102.893 26.4902 107.171 27.3167 111.387C28.9295 119.619 31.9333 127.548 35.7637 135.012C39.5135 142.275 44.1301 149.054 49.1499 155.47C51.6497 158.658 54.2907 161.724 56.972 164.771C59.5524 167.696 62.0724 170.662 64.3707 173.789C66.8907 177.259 69.1486 180.971 70.7412 184.966C71.5879 187.206 72.2129 189.506 72.5153 191.886C72.6161 192.814 72.6766 193.722 72.6766 194.65C72.6766 195.639 72.5959 196.627 72.4548 197.596C72.3742 198.241 72.2129 198.948 72.0919 199.593C72.0314 199.896 71.85 200.36 71.8903 200.662C71.9306 200.945 72.2129 201.247 72.3742 201.469C72.5758 201.732 72.7975 201.954 73.0193 202.196C73.483 202.68 73.987 203.104 74.5313 203.507C75.5393 204.274 76.6279 204.919 77.6762 205.605C79.7124 206.917 81.8695 208.067 84.0669 209.075C86.1636 210.024 88.3207 210.851 90.5181 211.557C90.8003 213.837 90.7802 216.137 90.5181 218.396C89.9939 222.633 88.744 226.749 87.1514 230.683C85.6999 234.234 83.9863 237.664 82.0912 240.993C81.1841 242.586 80.2164 244.14 79.2487 245.693C78.281 247.207 77.2932 248.72 76.2045 250.172C75.8013 250.717 75.3578 251.242 74.9143 251.746C74.5918 252.129 74.2289 252.513 73.9063 252.916C73.7249 252.815 73.5636 252.694 73.4023 252.573C72.2734 251.685 71.2654 250.616 70.2372 249.628C69.6727 249.083 69.0881 248.558 68.4631 248.054C67.8583 247.57 67.2334 247.126 66.5681 246.763C65.923 246.42 65.2375 246.178 64.4916 246.097C64.3505 246.097 64.2295 246.077 64.0884 246.077C63.9271 246.077 63.786 246.077 63.6247 246.117C63.4433 246.137 63.2417 246.178 63.0603 246.218C62.8385 246.279 62.6369 246.359 62.4353 246.46C62.0926 246.601 61.7902 246.823 61.4878 247.065C61.1652 247.328 60.8628 247.63 60.6008 247.953C60.0161 248.679 59.6129 249.527 59.4113 250.435C59.2097 251.322 59.1896 252.271 59.3105 253.178C59.4315 254.147 59.6532 255.115 59.9758 256.043C60.5806 257.778 61.4273 259.453 62.4756 260.966C64.2497 263.528 66.7495 265.586 69.7131 266.615C72.0314 267.422 74.753 267.402 76.8093 265.949C77.898 265.183 78.7245 264.113 79.2487 262.903C79.5713 262.156 79.8132 261.39 79.9744 260.583C80.0752 260.099 80.1156 259.614 80.176 259.11C80.2164 258.626 80.2567 258.142 80.2768 257.657C80.7607 257.375 81.2042 256.971 81.6074 256.588C82.0711 256.144 82.4944 255.68 82.9178 255.216C83.7242 254.328 84.4903 253.4 85.2362 252.472C86.6272 250.757 87.9578 248.982 89.2279 247.166C91.6874 243.615 93.8646 239.883 95.6992 235.969C97.3523 232.459 98.7232 228.787 99.7312 225.054C100.679 221.544 101.304 217.973 101.667 214.361C105.537 215.047 109.448 215.471 113.359 215.713C118.379 216.036 123.439 216.036 128.459 215.693C130.717 215.552 132.955 215.31 135.192 214.967C135.293 215.451 135.374 215.955 135.455 216.46C135.878 219.647 135.838 222.855 135.475 226.043C134.83 231.389 133.297 236.594 131.302 241.558C129.79 245.29 127.995 248.921 125.979 252.412C124.084 255.7 122.008 258.868 119.71 261.874C119.186 262.56 118.661 263.226 118.117 263.891C117.835 264.234 117.553 264.577 117.27 264.9C117.109 265.102 116.948 265.304 116.786 265.505C116.101 264.295 115.254 263.165 114.307 262.177C113.097 260.906 111.626 259.836 109.972 259.251C109.327 259.009 108.622 258.888 107.916 258.888C107.815 258.888 107.715 258.888 107.614 258.888C106.747 258.928 105.92 259.211 105.174 259.634C104.328 260.119 103.662 260.825 103.078 261.612C102.574 262.298 102.211 263.105 101.969 263.912C101.727 264.719 101.646 265.586 101.646 266.434C101.646 267.321 101.787 268.209 102.009 269.056C102.231 269.944 102.554 270.812 102.937 271.659C103.299 272.486 103.723 273.273 104.187 274.019C105.094 275.492 106.203 276.884 107.452 278.054C108.017 278.579 108.642 279.083 109.307 279.507C109.952 279.911 110.658 280.213 111.363 280.455C112.009 280.677 112.674 280.818 113.359 280.899C114.105 280.98 114.831 281.02 115.577 280.96C117.008 280.839 118.44 280.455 119.69 279.729C120.879 279.063 121.927 278.034 122.552 276.804C123.258 275.432 123.419 273.838 123.056 272.345C122.955 271.962 122.814 271.598 122.653 271.255C122.613 271.155 122.552 271.074 122.492 270.993C122.814 270.63 123.157 270.287 123.48 269.924C123.923 269.44 124.346 268.935 124.77 268.431C125.576 267.462 126.362 266.494 127.129 265.485C128.681 263.468 130.153 261.39 131.544 259.251C133.882 255.68 136.059 251.988 138.055 248.215C140.112 244.301 141.926 240.246 143.438 236.09C144.93 231.974 146.079 227.697 146.623 223.339C147.067 219.647 147.067 215.895 146.301 212.243C148.135 211.597 149.929 210.831 151.663 209.943C153.639 208.914 155.534 207.744 157.328 206.453C159.284 205.061 161.118 203.527 162.771 201.792C164.243 200.239 165.553 198.443 166.259 196.426C166.259 196.426 166.259 196.405 166.259 196.385C166.34 196.264 166.4 196.103 166.42 195.921C166.561 193.863 166.602 191.806 166.602 189.748C166.602 187.69 166.561 185.632 166.481 183.574C166.36 180.043 166.118 176.533 165.735 173.022C164.989 166.203 163.739 159.445 161.824 152.867C159.909 146.351 157.288 140.036 153.901 134.165C152.187 131.179 150.232 128.334 148.115 125.611C146.079 122.988 143.841 120.547 141.482 118.227C141.12 117.863 140.736 117.5 140.353 117.137C140.938 116.875 141.523 116.552 142.087 116.229C142.954 115.725 143.781 115.18 144.607 114.595C146.28 113.405 147.853 112.093 149.365 110.721C150.857 109.35 152.268 107.917 153.619 106.424C154.949 104.972 156.239 103.479 157.469 101.925C159.848 98.8988 161.904 95.6102 163.578 92.1401C165.231 88.7103 166.501 85.1191 167.448 81.4271C168.134 78.7438 168.658 75.9999 169.021 73.2561C169.464 73.1956 169.908 73.0745 170.331 72.9333C170.936 72.7316 171.541 72.4894 172.105 72.1868C172.629 71.9245 173.133 71.6017 173.617 71.2386C174.121 70.8553 174.605 70.4518 175.029 69.9877C175.23 69.7456 175.432 69.5035 175.593 69.2412C175.774 68.979 175.895 68.6965 176.016 68.4141C176.097 68.2325 176.137 68.0307 176.178 67.829C176.218 67.5869 176.258 67.3448 176.238 67.1027C176.238 66.7395 176.157 66.3764 175.976 66.0536C175.916 65.9325 175.815 65.8115 175.694 65.7106L175.815 65.7308ZM26.2684 86.3498C26.1071 88.327 26.0063 90.284 25.9458 92.2611C25.9458 92.6243 25.9257 92.9874 25.9055 93.3304C25.7644 93.2901 25.6434 93.2497 25.5023 93.2094C25.1394 93.0883 24.7564 92.9673 24.3935 92.8462C23.8291 92.6646 23.2847 92.4629 22.7203 92.241C22.7203 92.241 22.7203 92.241 22.7404 92.241C22.7404 92.241 22.7404 92.241 22.7203 92.241C22.7001 92.241 22.6799 92.241 22.6598 92.2208C22.6598 92.2208 22.6799 92.2208 22.7001 92.2208C19.9785 91.1111 17.4182 89.6384 15.0595 87.8831C12.5395 85.9665 10.2614 83.7069 8.3059 81.2051C6.51167 78.8648 4.99968 76.3227 3.8304 73.6193C2.84256 71.2588 2.13697 68.7974 1.75393 66.2755C1.59265 65.0448 1.49185 63.8141 1.47169 62.5834C1.47169 61.2317 1.55233 59.8598 1.69345 58.5282C2.25793 53.6458 3.70944 48.9248 5.52383 44.3854C5.52383 44.3854 5.52383 44.4056 5.52383 44.4258C5.52383 44.4056 5.52383 44.3854 5.54399 44.3652C5.54399 44.3249 5.56415 44.2845 5.58431 44.2442C5.58431 44.2644 5.58431 44.2845 5.56415 44.3047C8.16479 37.8688 11.471 31.7759 14.8377 25.7234C14.999 25.4207 14.9184 25.0778 14.6764 24.8558C14.6764 24.8558 14.6764 24.8357 14.6764 24.8155C14.5353 24.4927 14.3337 24.2102 14.1321 23.9278C13.87 23.5243 13.608 23.1409 13.366 22.7374C12.8419 21.9304 12.3379 21.1436 11.9347 20.2761C11.8137 19.9533 11.7129 19.6305 11.6323 19.3077C11.6323 19.1664 11.6323 19.0252 11.6323 18.8638C11.6726 18.7024 11.7129 18.5208 11.7734 18.3594C11.8541 18.1778 11.9347 18.0164 12.0355 17.8752C12.0758 17.8147 12.1363 17.7743 12.1766 17.7138C12.2169 17.6936 12.2371 17.6735 12.2774 17.6533C12.2976 17.6533 12.3379 17.6533 12.3581 17.6331C12.3984 17.6331 12.4387 17.6331 12.4992 17.6331C12.6 17.6331 12.6806 17.6735 12.7814 17.7138C13.0032 17.8147 13.2048 17.9357 13.3862 18.077C13.9708 18.541 14.495 19.1261 14.9587 19.7112C15.6038 20.5585 16.1884 21.4664 16.632 22.4348C16.632 22.4752 16.6723 22.4953 16.6924 22.5155C16.6924 22.5357 16.7328 22.5559 16.7529 22.576C16.7529 22.576 16.7932 22.6164 16.8134 22.6164C16.9747 22.7576 17.1964 22.8181 17.4182 22.7576C17.7609 22.6567 17.9625 22.2936 17.8819 21.9304C17.8819 21.8699 17.8416 21.7892 17.8214 21.7287C17.8214 21.6076 17.8214 21.4664 17.7811 21.3453C17.7609 21.1436 17.7408 20.9418 17.7206 20.7401C17.6803 20.2357 17.6198 19.7313 17.5795 19.227C17.4988 18.1778 17.4585 17.1086 17.5593 16.0595C17.6198 15.6559 17.7004 15.2726 17.8214 14.8893C17.8819 14.7279 17.9625 14.5867 18.0633 14.4454C18.1238 14.3849 18.1843 14.3244 18.2448 14.2639C18.3052 14.2235 18.3859 14.1832 18.4463 14.1428C18.527 14.1226 18.6278 14.0823 18.7084 14.0621C18.7891 14.0621 18.8697 14.0621 18.9503 14.0621C19.0108 14.0621 19.0915 14.0823 19.1519 14.1025C19.2326 14.1428 19.3334 14.2033 19.414 14.2437C19.5551 14.3647 19.6761 14.4858 19.7769 14.6068C19.9987 14.9296 20.1801 15.2726 20.3414 15.6358C20.7849 16.7454 21.0268 17.9357 21.2083 19.1059C21.3292 19.8927 21.3897 20.6594 21.4703 21.4462C21.4703 21.5269 21.4905 21.5875 21.5107 21.6682C21.5107 21.8094 21.5107 21.9506 21.6115 22.0918C21.7123 22.2532 21.8735 22.3945 22.0751 22.4348C22.438 22.5357 22.9017 22.2936 22.9622 21.8901C22.9622 21.8094 23.0025 21.7085 23.0227 21.6278C23.0428 21.5068 23.1033 21.3857 23.1436 21.2848C23.2444 21.0024 23.3452 20.7401 23.4259 20.4576C23.6678 19.7919 23.9097 19.1261 24.1718 18.4603C24.7362 17.0884 25.341 15.6963 26.2281 14.4858C26.4902 14.163 26.7522 13.8402 27.0748 13.5779C27.1958 13.477 27.3369 13.3963 27.478 13.3358C27.5586 13.3156 27.6393 13.2753 27.7199 13.2753C27.7804 13.2753 27.861 13.2753 27.9215 13.2753C28.0022 13.2753 28.0626 13.3156 28.1231 13.3358C28.2239 13.3761 28.3046 13.4367 28.3852 13.477C28.4457 13.5174 28.5062 13.5779 28.5465 13.6384C28.607 13.7191 28.6473 13.7998 28.6876 13.9007C28.7481 14.0419 28.7682 14.2033 28.8086 14.3647C28.8489 14.7279 28.8287 15.091 28.8086 15.4542C28.6674 16.5235 28.3247 17.5524 27.9417 18.5612C27.3167 20.0945 26.5708 21.5673 25.7241 22.9997C25.6233 23.1006 25.5426 23.2015 25.462 23.3023C25.3814 23.383 25.3209 23.4839 25.3007 23.605C25.2604 23.7664 25.3007 23.9479 25.3612 24.0892C25.5225 24.3716 25.9458 24.5129 26.2482 24.3313C26.591 24.1094 26.8732 23.8067 27.1958 23.5444C27.6191 23.2216 28.0626 22.9594 28.5062 22.6971C29.0505 22.3743 29.6149 22.0918 30.1996 21.8497C30.1593 21.8497 30.1391 21.8699 30.0988 21.8901C30.1391 21.8901 30.1794 21.8497 30.2197 21.8497C30.2197 21.8497 30.2399 21.8497 30.2601 21.8497C30.2601 21.8497 30.2399 21.8497 30.2197 21.8497C30.8044 21.6076 31.4092 21.4059 32.0341 21.305C32.2559 21.2848 32.4777 21.2646 32.7196 21.2848C32.8204 21.2848 32.9212 21.3252 33.0018 21.3453C33.0421 21.3655 33.1026 21.3857 33.1429 21.426C33.1833 21.4462 33.2034 21.4866 33.2437 21.5269C33.2639 21.5673 33.3042 21.6278 33.3244 21.6682C33.3445 21.7489 33.3647 21.8296 33.3849 21.9103C33.3849 22.0918 33.3849 22.2936 33.3849 22.4752C33.3445 22.7374 33.2841 23.0199 33.2034 23.2822C33.1026 23.5243 32.9615 23.7462 32.8002 23.9681C32.4373 24.4322 32.014 24.8155 31.5503 25.1786C30.4012 26.0663 29.0908 26.7523 27.8006 27.4181C27.1958 27.7409 26.591 28.0435 25.9862 28.3663C24.3532 29.254 22.9622 30.7268 21.7123 32.0987C20.4825 33.4908 19.3535 35.004 18.3254 36.5373C16.4505 39.3618 14.8982 42.4082 13.6684 45.5556C11.2493 51.8099 10.1405 58.6291 10.967 65.3071C11.3501 68.4544 12.1968 71.5816 13.5878 74.4464C14.9385 77.2104 16.8134 79.7122 19.1923 81.6692C20.2607 82.5569 21.43 83.2832 22.6799 83.9086C23.8291 84.4735 25.0386 84.8972 26.2886 85.22C26.2684 85.5832 26.2281 85.9463 26.1878 86.2893L26.2684 86.3498ZM41.1061 41.8433C41.1867 41.6012 41.2875 41.3591 41.4085 41.117C41.5899 40.8346 41.7915 40.5925 42.0133 40.3504C42.3963 39.9872 42.7995 39.7048 43.2431 39.4223C44.2511 38.8574 45.3195 38.4741 46.4283 38.1916C47.8597 37.8285 49.3314 37.6065 50.803 37.4653C52.4158 37.3039 54.0488 37.2434 55.6817 37.2636C57.2945 37.2837 58.9073 37.3846 60.5201 37.5864C62.9796 37.889 65.3787 38.6153 67.7374 39.3618C68.1809 39.503 68.6042 39.6442 69.0478 39.7653C71.3863 40.4714 73.7652 41.0767 76.1239 41.7223C78.3012 42.3074 80.418 43.074 82.5348 43.7802C84.0064 44.2644 85.4781 44.7687 86.9296 45.2933C92.7357 47.3915 98.4409 49.8731 103.864 52.8792C104.63 53.3028 105.376 53.7265 106.122 54.1704C108.339 55.5019 110.497 56.9142 112.593 58.4475C114.226 59.658 115.819 60.9291 117.25 62.3817C118.178 63.3501 119.065 64.379 119.75 65.529C120.093 66.1141 120.355 66.7395 120.556 67.3851C120.657 67.8088 120.718 68.2325 120.718 68.6763C120.718 68.9991 120.657 69.3219 120.577 69.6246C120.476 69.9675 120.335 70.2904 120.153 70.6132C119.972 70.9158 119.75 71.1982 119.508 71.4403C119.206 71.7228 118.883 71.9649 118.52 72.1868C117.895 72.5298 117.23 72.7719 116.545 72.9736C115.073 73.3368 113.541 73.4377 112.009 73.4377C108.803 73.3772 105.638 72.8526 102.493 72.2675C100.497 71.9044 98.5014 71.5816 96.5258 71.1579C93.784 70.593 91.0624 69.907 88.361 69.1404C85.6797 68.3737 83.0388 67.5264 80.418 66.5983C79.0673 66.1141 77.7367 65.6299 76.4061 65.1053C75.2167 64.6413 74.0273 64.1571 72.858 63.6729C68.5438 61.958 64.1892 60.3843 59.9355 58.5484C57.1534 57.3379 54.4117 56.0265 51.7909 54.473C49.2709 52.9599 46.8718 51.2248 44.7954 49.1468C43.6866 48.0169 42.6584 46.8064 41.852 45.4345C41.5496 44.8898 41.2875 44.3047 41.1263 43.6995C41.0456 43.3363 40.9851 42.9933 40.9851 42.61C40.9851 42.3477 41.0255 42.0854 41.0859 41.8232L41.1061 41.8433ZM100.114 215.471C99.4489 220.938 98.0176 226.305 95.9814 231.43L96.0218 231.329C96.0218 231.329 95.9814 231.43 95.9613 231.47C95.9613 231.47 95.9613 231.49 95.9613 231.51C95.9613 231.51 95.9613 231.51 95.9613 231.53C93.3405 237.987 89.7319 243.999 85.5386 249.547C84.6314 250.737 83.7242 251.907 82.7364 253.037C82.192 253.663 81.6276 254.268 81.0631 254.893C80.5188 255.499 79.0874 256.366 78.9665 257.193C78.8858 257.799 78.8858 258.404 78.8253 259.009C78.7044 259.877 78.4625 260.744 78.1601 261.551C77.9181 262.156 77.5956 262.721 77.2327 263.246C76.9505 263.609 76.6077 263.952 76.2449 264.255C75.9021 264.497 75.5594 264.719 75.1764 264.88C74.7732 265.041 74.3498 265.142 73.9265 265.223C73.362 265.284 72.7975 265.284 72.233 265.223C71.4468 265.122 70.6807 264.9 69.9348 264.618C68.947 264.194 68.0196 263.649 67.1729 263.024C66.2254 262.298 65.3787 261.45 64.6327 260.502C63.6046 259.15 62.7579 257.657 62.0926 256.104C61.6692 255.075 61.3467 254.006 61.1854 252.896C61.1249 252.311 61.1048 251.726 61.1451 251.141C61.2056 250.737 61.3064 250.334 61.4475 249.95C61.5886 249.628 61.77 249.325 61.9716 249.022C62.2136 248.72 62.4958 248.437 62.7982 248.175C62.9796 248.034 63.1812 247.913 63.403 247.832C63.5844 247.771 63.7659 247.711 63.9675 247.671C64.1691 247.671 64.3707 247.65 64.5723 247.671C64.915 247.711 65.2174 247.812 65.5399 247.933C66.2254 248.236 66.8705 248.639 67.4753 249.103C68.5639 249.95 69.5518 250.899 70.5396 251.847C71.4468 252.694 72.3742 253.602 73.4426 254.248C73.5434 254.308 73.6644 254.328 73.7853 254.349C74.0474 254.55 74.3901 254.51 74.6522 254.288C74.6522 254.288 74.6724 254.288 74.6926 254.268C75.2369 253.965 75.6804 253.521 76.1037 253.057C76.5674 252.533 76.9908 251.948 77.394 251.383C78.0996 250.414 78.7649 249.426 79.4503 248.457C80.7204 246.621 81.9501 244.745 83.0992 242.849C85.6394 238.672 87.8973 234.315 89.6714 229.735C90.8407 226.749 91.7882 223.662 92.3728 220.515C92.8768 217.811 93.0986 215.027 92.8365 212.283C94.7114 212.828 96.6266 213.292 98.5417 213.716C99.1264 213.837 99.711 213.958 100.316 214.079C100.275 214.563 100.235 215.047 100.175 215.511L100.114 215.471ZM144.97 222.452C144.305 227.959 142.672 233.306 140.595 238.451C139.003 242.385 137.128 246.218 135.092 249.95C132.935 253.885 130.576 257.718 128.036 261.43C126.947 263.004 125.838 264.557 124.669 266.091C124.125 266.797 123.58 267.483 123.036 268.189C122.472 268.875 121.927 269.581 121.343 270.247C121.161 270.327 120.98 270.489 120.939 270.69C120.859 271.296 120.939 271.901 121 272.526C121.04 273.031 121.04 273.535 121 274.04C120.939 274.483 120.839 274.907 120.677 275.331C120.516 275.694 120.314 276.037 120.073 276.38C119.79 276.743 119.448 277.066 119.085 277.348C118.601 277.691 118.077 277.994 117.532 278.236C116.907 278.478 116.242 278.66 115.557 278.761C114.831 278.841 114.105 278.861 113.379 278.781C112.694 278.68 112.029 278.518 111.404 278.276C110.799 278.014 110.234 277.691 109.71 277.308C108.602 276.44 107.634 275.411 106.767 274.302C105.84 273.091 105.053 271.76 104.449 270.368C104.066 269.419 103.763 268.451 103.602 267.442C103.501 266.736 103.481 266.03 103.562 265.324C103.642 264.779 103.763 264.234 103.965 263.73C104.166 263.266 104.408 262.842 104.711 262.419C105.013 262.035 105.356 261.672 105.759 261.37C106.041 261.168 106.344 260.986 106.666 260.845C106.948 260.744 107.231 260.663 107.513 260.603C107.856 260.563 108.178 260.563 108.521 260.603C108.985 260.663 109.428 260.805 109.872 260.966C110.577 261.269 111.243 261.672 111.867 262.136C112.835 262.883 113.682 263.77 114.428 264.739C114.972 265.465 115.476 266.252 115.859 267.079C116.041 267.483 116.605 267.583 116.948 267.382C117.049 267.321 117.129 267.241 117.21 267.14C117.27 267.099 117.331 267.079 117.371 267.019C117.754 266.575 118.157 266.171 118.54 265.727C118.964 265.263 119.367 264.779 119.77 264.295C120.496 263.427 121.181 262.54 121.867 261.632C123.016 260.099 124.125 258.525 125.153 256.931C127.391 253.481 129.386 249.87 131.12 246.137C132.914 242.284 134.406 238.289 135.495 234.173C136.543 230.219 137.208 226.124 137.289 222.048C137.329 219.607 137.128 217.166 136.684 214.765C139.265 214.321 141.825 213.736 144.325 212.969C144.426 212.949 144.506 212.909 144.607 212.868C144.708 213.373 144.789 213.857 144.869 214.361C145.232 217.065 145.172 219.788 144.869 222.492L144.97 222.452ZM143.478 122.887C145.131 124.703 146.684 126.619 148.155 128.597C151.885 133.741 154.889 139.35 157.247 145.261C160.634 153.896 162.59 163.016 163.678 172.215C164.082 175.746 164.384 179.297 164.586 182.848C164.707 184.986 164.787 187.125 164.807 189.284C164.848 191.503 164.807 193.742 164.848 195.962C164.848 196.002 164.848 196.062 164.848 196.103C164.626 196.708 164.344 197.293 164.001 197.858C163.154 199.21 162.106 200.42 160.977 201.53C158.598 203.81 155.877 205.706 153.014 207.34C151.361 208.268 149.647 209.096 147.893 209.802C145.938 210.589 143.922 211.214 141.886 211.759C137.914 212.768 133.842 213.353 129.769 213.696C125.919 214.018 122.048 214.099 118.178 214.039C109.468 213.877 100.719 212.889 92.3325 210.447C87.8167 209.116 83.4016 207.361 79.3495 204.94C77.5351 203.85 75.7812 202.64 74.2893 201.126C74.1079 200.945 73.9265 200.743 73.7652 200.541C73.8458 200.44 73.9063 200.34 73.9466 200.219C74.2894 199.29 74.5514 198.362 74.753 197.394C74.9546 196.365 75.0756 195.296 75.1159 194.247C75.2167 192.249 74.9546 190.252 74.5111 188.315C74.0474 186.338 73.3217 184.421 72.4951 182.565C71.6484 180.689 70.6001 178.893 69.4913 177.158C67.2535 173.668 64.6126 170.42 61.891 167.272C59.25 164.206 56.4881 161.26 53.8673 158.173C51.4482 155.329 49.1298 152.403 46.9122 149.397C46.9122 149.417 46.9323 149.438 46.9525 149.458C46.9323 149.417 46.892 149.377 46.8718 149.337C46.8718 149.337 46.892 149.377 46.9122 149.397C46.9122 149.377 46.8718 149.337 46.8517 149.317V149.276C41.4085 141.811 36.7314 133.822 33.3244 125.248C32.0745 122.04 30.9858 118.751 30.1189 115.402C29.2319 112.013 28.5868 108.563 28.1634 105.093C28.1634 105.093 28.1634 105.113 28.1634 105.133V105.052C28.1634 105.052 28.1433 104.951 28.1433 104.891C28.1433 104.931 28.1433 104.951 28.1433 104.992C27.8409 102.45 27.6796 99.8874 27.6191 97.3049C27.5788 94.783 27.6594 92.2611 27.7602 89.7392C27.982 84.7156 28.4457 79.7122 29.1916 74.7289C30.4012 66.6588 32.3769 58.6493 35.6428 51.1643C35.6428 51.2046 35.6024 51.245 35.6024 51.2652C36.7112 48.7433 37.9813 46.3021 39.4328 43.9617C39.574 44.6275 39.836 45.2933 40.1384 45.8986C40.9448 47.4722 42.0738 48.8441 43.3035 50.095C44.876 51.7292 46.6299 53.1414 48.4846 54.4125C52.3957 57.0756 56.73 59.0931 61.1048 60.8887C63.282 61.7764 65.4795 62.6238 67.6769 63.451C69.7937 64.258 71.8903 65.065 73.987 65.9123C79.2487 68.0307 84.6516 69.8465 90.1552 71.2386C92.897 71.9447 95.679 72.5298 98.4611 73.0342C99.4489 73.2158 100.457 73.357 101.445 73.5386C102.09 73.6596 102.755 73.7605 103.4 73.8815C106.747 74.4464 110.174 74.8903 113.581 74.7087C115.154 74.628 116.766 74.3657 118.238 73.7403C118.722 73.5386 119.186 73.2763 119.629 72.9535C119.347 73.8412 119.085 74.7491 118.863 75.6771C118.419 77.5131 118.117 79.3894 117.956 81.2657C117.633 85.0989 118.057 88.9928 119.105 92.6848C119.972 95.7716 121.343 98.6768 123.076 101.38C124.77 104.003 126.786 106.404 128.903 108.664C132.007 111.972 135.414 114.978 138.7 118.126C140.333 119.679 141.926 121.253 143.438 122.927L143.478 122.887ZM174.686 66.7193C174.686 66.7193 174.807 66.8202 174.867 66.9211C175.089 67.2842 175.109 67.7079 174.948 68.0913C174.807 68.4544 174.545 68.757 174.242 69.0193C173.537 69.6649 172.67 70.0886 171.803 70.4921C171.48 70.6535 171.138 70.8149 170.795 70.9561C170.493 71.0772 170.19 71.1982 169.908 71.3193C169.525 71.4807 169.162 71.6623 168.819 71.864C168.658 71.9649 168.497 72.0456 168.356 72.1868C167.932 72.5701 167.912 73.1552 167.831 73.6798C167.731 74.3254 167.63 74.9508 167.529 75.5762C167.307 76.8675 167.045 78.1385 166.763 79.4095C166.4 80.9429 165.997 82.456 165.533 83.949C165.291 84.6954 165.049 85.4419 164.787 86.1682C164.545 86.8744 164.324 87.6612 163.981 88.327C162.227 92.6445 159.929 96.7198 157.086 100.412C155.413 102.591 153.558 104.629 151.623 106.586C149.607 108.623 147.47 110.54 145.192 112.295C144.224 113.042 143.216 113.728 142.188 114.413C141.261 115.019 140.313 115.584 139.386 116.189C136.725 113.667 133.983 111.206 131.382 108.603C131.785 108.522 132.189 108.421 132.592 108.28C133.418 108.018 134.225 107.655 134.991 107.251C136.584 106.424 138.035 105.335 139.426 104.205C140.736 103.136 141.986 101.986 143.216 100.836C143.821 100.291 144.406 99.726 144.97 99.1409C145.555 98.5356 146.099 97.9102 146.643 97.2646C148.861 94.6015 150.695 91.6559 152.167 88.5287C153.659 85.3814 154.808 82.0525 155.594 78.6631C156.159 76.242 156.522 73.7807 156.663 71.2991C156.663 70.9965 156.441 70.7544 156.179 70.6737C155.816 70.4518 155.494 70.2298 155.151 69.9676C154.324 69.3219 153.558 68.6158 152.933 67.7886C152.651 67.4053 152.409 67.022 152.207 66.5983C152.127 66.3764 152.066 66.1746 152.006 65.9325C152.006 65.7913 152.006 65.6702 152.006 65.529C152.006 65.4281 152.046 65.3071 152.087 65.2062C152.127 65.1053 152.187 65.0045 152.248 64.9238C152.349 64.8027 152.47 64.7018 152.591 64.601C152.671 64.5404 152.752 64.5001 152.853 64.4396C152.913 64.4194 152.994 64.3992 153.074 64.379C153.175 64.379 153.256 64.379 153.357 64.379C153.518 64.4194 153.699 64.4597 153.861 64.5202C154.244 64.6816 154.586 64.9238 154.909 65.1659C155.534 65.6501 156.098 66.215 156.663 66.8C156.925 67.0825 157.187 67.3448 157.449 67.6272C157.671 67.8693 157.872 68.0913 158.114 68.2728C158.114 68.2728 158.114 68.2728 158.135 68.293C158.135 68.293 158.135 68.293 158.135 68.3132C158.215 68.4141 158.296 68.4948 158.417 68.5351C158.477 68.5956 158.538 68.636 158.618 68.6763C158.84 68.7369 159.122 68.5956 159.163 68.3535C159.243 67.9299 159.284 67.5264 159.344 67.1027C159.445 66.4772 159.526 65.8518 159.646 65.2264C159.888 63.8545 160.191 62.4624 160.715 61.151C160.896 60.7273 161.118 60.3036 161.38 59.9203C161.521 59.7589 161.662 59.5975 161.824 59.4563C161.925 59.3958 162.025 59.3352 162.126 59.2747C162.207 59.2545 162.308 59.2142 162.388 59.194C162.489 59.194 162.57 59.194 162.67 59.194C162.791 59.2142 162.933 59.2545 163.054 59.2949C163.174 59.3554 163.275 59.4159 163.396 59.4765C163.477 59.537 163.537 59.5975 163.598 59.6782C163.658 59.7791 163.719 59.88 163.759 59.9808C163.82 60.1624 163.88 60.3642 163.9 60.5659C163.961 61.0501 163.92 61.5343 163.88 62.0185C163.739 63.0475 163.477 64.036 163.195 65.0246C163.054 65.4887 162.912 65.9325 162.771 66.3965C162.65 66.7395 162.529 67.0623 162.449 67.4255C162.408 67.5062 162.388 67.5667 162.348 67.6474C162.287 67.7886 162.247 67.9299 162.287 68.0913C162.328 68.2325 162.429 68.3737 162.55 68.4342C162.812 68.5755 163.195 68.5149 163.336 68.2123C163.396 68.1114 163.437 67.9904 163.477 67.8895C163.517 67.8088 163.578 67.7483 163.598 67.6676C163.618 67.6272 163.638 67.5667 163.658 67.5264C163.759 67.3851 163.86 67.2439 163.961 67.0825C164.344 66.5378 164.747 65.993 165.15 65.4483C165.533 64.9439 165.936 64.4597 166.38 63.9957C166.803 63.5518 167.247 63.108 167.731 62.7448C168.033 62.5229 168.356 62.3212 168.678 62.1799C168.819 62.1396 168.94 62.0992 169.081 62.0589C169.182 62.0589 169.263 62.0589 169.364 62.0589C169.444 62.0589 169.505 62.0992 169.585 62.1194C169.646 62.1396 169.706 62.1799 169.747 62.2203C169.787 62.2606 169.827 62.301 169.868 62.3413C169.868 62.3615 169.908 62.4019 169.908 62.422C169.908 62.4624 169.928 62.5229 169.948 62.5633C169.948 62.644 169.948 62.7045 169.948 62.7852C169.908 63.0475 169.827 63.3097 169.726 63.572C169.283 64.601 168.618 65.529 167.993 66.4571C167.831 66.6992 167.69 66.9413 167.529 67.1632C167.368 67.4053 167.206 67.6272 167.065 67.8693C166.844 68.2325 166.622 68.5956 166.461 68.979C166.4 69.0597 166.36 69.1202 166.299 69.2009C166.219 69.3219 166.198 69.5237 166.239 69.6649C166.299 69.907 166.461 70.0281 166.723 69.9676C166.864 69.9474 166.985 69.8667 167.106 69.8061C167.872 69.3623 168.577 68.8781 169.343 68.4544C170.251 67.95 171.158 67.486 172.105 67.0825C172.65 66.8606 173.194 66.679 173.758 66.5983C174.081 66.5378 174.363 66.5176 174.585 66.679L174.686 66.7193ZM167.509 69.7658C167.509 69.7658 167.509 69.7658 167.509 69.786C167.509 69.786 167.509 69.786 167.509 69.7658ZM166.642 68.8983C166.642 68.8983 166.582 68.979 166.541 69.0193C166.582 68.979 166.602 68.9386 166.642 68.8983Z" fill="#161616"/>
<path d="M46.4888 69.4633C45.0575 69.4633 43.7067 69.7256 42.4367 70.2501C41.5698 70.6133 40.7836 71.0975 40.1183 71.7229C39.4328 72.3483 38.8482 73.115 38.4248 74.0027C38.3442 74.1036 38.2837 74.1843 38.2232 74.2448C37.9208 74.608 37.6588 75.072 37.4168 75.6571C37.2354 76.1009 37.1144 76.6255 37.054 77.2509C36.9935 77.7553 37.0136 78.3 37.0943 78.9658C37.2152 79.9947 37.5378 81.064 38.1224 82.3552C38.5861 83.3842 39.1909 84.4333 40.0578 85.7245C41.348 87.6008 42.9407 89.4367 44.8155 91.2121C45.6421 91.999 46.3679 92.6042 47.0735 93.1288C48.1822 93.956 49.5128 94.7226 51.1256 95.4489C53.9681 96.72 57.2341 97.527 61.1451 97.9103C62.6571 98.0515 64.2094 98.1322 65.8827 98.1322C67.5559 98.1322 69.3905 98.0515 71.4468 97.9103C73.0798 97.7893 74.753 97.6279 76.4263 97.4059C78.3617 97.1638 80.0954 96.8814 81.7284 96.5384C83.6032 96.1551 85.2967 95.7112 86.8893 95.1867C87.7965 94.9042 88.6029 94.6016 89.3488 94.2788C90.1351 93.956 90.9011 93.5928 91.4656 93.2902C93.0582 92.5034 94.2678 91.7367 95.2557 90.8893C95.8 90.4253 96.3242 89.8806 96.7677 89.2753C97.191 88.7306 97.5539 88.0648 97.8361 87.3183C98.0982 86.6324 98.2797 85.8455 98.3603 84.978C98.4208 84.2114 98.3603 83.3842 98.1385 82.5772C97.7555 81.1044 96.8886 79.7123 95.6589 78.5018C94.6509 77.5334 93.4413 76.7465 92.0704 76.1615C91.385 75.879 90.639 75.6571 89.7923 75.5159C89.248 75.415 88.6634 75.3746 88.0384 75.3746C87.7159 75.3746 87.4135 75.3746 87.0909 75.415C85.6192 75.5159 84.1475 75.8185 82.7162 76.1009C82.3936 76.1615 82.0912 76.222 81.7687 76.3027C80.1962 76.6255 78.4826 76.8272 76.4868 76.9685C75.5191 77.029 74.6119 77.0492 73.745 77.0492C73.1402 77.0492 72.5354 77.0492 71.9508 77.0088C70.4993 76.9483 69.0276 76.7667 67.5559 76.4843C63.9271 75.758 60.5403 74.4062 57.4356 73.0545L56.468 72.6308C55.1576 72.0659 53.7867 71.4606 52.436 70.9159L52.2747 70.8554C51.5288 70.5528 50.7829 70.2299 49.9966 69.9878C49.3717 69.7861 48.6661 69.6247 47.9403 69.544C47.4363 69.4835 46.9323 69.4431 46.4283 69.4431L46.4888 69.4633Z" fill="#DA3927"/>
<path d="M114.408 35.69C114.327 35.1452 114.186 34.5602 114.025 34.0154C113.843 33.4303 113.601 32.8453 113.299 32.2804C113.037 31.7962 112.714 31.2918 112.251 30.7067C111.867 30.2225 111.424 29.7786 110.859 29.3146C110.255 28.8102 109.65 28.4067 109.045 28.1041C108.44 27.8015 107.815 27.5594 107.17 27.398C106.606 27.2567 105.981 27.1559 105.295 27.1357C105.174 27.1357 105.053 27.1357 104.932 27.1357C103.904 27.1357 102.836 27.3374 101.747 27.7006C100.659 28.0839 99.5699 28.669 98.441 29.5164C97.3725 30.3032 96.3846 31.2111 95.4976 32.1795C94.1267 33.7128 92.9776 35.4075 92.0906 37.2233C91.7479 37.9294 91.4455 38.6759 91.1834 39.4022C91.0221 39.4627 90.9011 39.5838 90.8205 39.725C90.1351 41.0162 89.8931 42.4688 89.752 43.5583C89.6109 44.7486 89.6109 45.9591 89.7722 47.21C89.873 47.9767 89.9939 48.6021 90.1552 49.167C90.2963 49.7117 90.5181 50.2968 90.8205 50.9828C91.2842 52.052 91.9293 53.0608 92.7155 53.9082C93.0784 54.2915 93.5018 54.6748 94.0461 55.0783C94.4493 55.3809 94.913 55.6634 95.417 55.8853C96.0016 56.1476 96.5661 56.3292 97.1306 56.4502C97.7152 56.5713 98.3603 56.652 99.0256 56.652H99.1264C99.711 56.652 100.356 56.5915 101.082 56.4502C101.707 56.3292 102.332 56.1678 102.916 55.966C103.945 55.6029 104.953 55.0581 105.94 54.352C107.876 52.9599 109.63 51.0635 111.122 48.703C111.807 47.6135 112.452 46.403 112.996 45.0916C113.5 43.8609 113.904 42.6302 114.166 41.3995C114.448 40.0882 114.589 38.7969 114.569 37.5663C114.569 37.0014 114.508 36.3759 114.387 35.6294L114.408 35.69ZM61.0846 19.3481C58.1009 22.3945 54.069 30.969 54.7342 36.5373C55.3995 42.1057 58.1614 46.6854 63.282 47.5328C63.282 47.5328 68.7857 49.3486 73.2814 44.0828C77.777 38.8171 79.4503 28.9313 76.1441 22.5156C72.858 16.0999 64.0481 16.2814 61.0645 19.3481H61.0846Z" fill="#FEFEFE"/>
<path d="M63.5038 43.8205C67.4148 45.0512 71.9911 41.6013 73.7249 36.0934C75.4586 30.5856 73.7249 25.1181 69.7937 23.8874C65.8827 22.6568 61.3064 26.1067 59.5726 31.6145C57.8388 37.1224 59.5726 42.5898 63.5038 43.8205ZM50.4603 25.8444C50.7022 26.1067 50.9643 26.369 51.2667 26.5506C51.5288 26.712 51.811 26.8734 52.0933 27.0146C52.3755 27.1357 52.6577 27.2365 52.9601 27.3172C53.2625 27.3778 53.5649 27.4585 53.8673 27.4585C54.331 27.4585 54.7947 27.4181 55.2584 27.3374C54.7141 28.8304 54.2907 30.3637 54.0488 31.9172C53.5448 35.0645 53.7061 38.3934 55.0165 41.339C55.6817 42.7916 56.5889 44.1232 57.7179 45.253C58.9275 46.4635 60.258 47.3915 61.8305 48.0573C62.274 48.2389 62.6974 48.4205 63.1611 48.5617C66.6286 49.6512 69.8138 48.1582 72.4145 45.8784C74.2893 44.2442 75.8013 42.2267 76.8295 39.9469C77.4343 38.6153 77.898 37.2031 78.2205 35.7908C78.5834 34.2777 78.8253 32.7242 78.8657 31.1505C78.9261 29.6172 78.8455 28.0637 78.5431 26.5506C78.2407 25.098 77.777 23.6655 77.0513 22.3743C76.3053 21.0427 75.3578 19.8524 74.1684 18.884C74.1079 18.8235 74.0474 18.7831 73.9668 18.7428C73.4023 18.2989 72.7774 17.9156 72.1322 17.5928C71.4266 17.2296 70.7009 16.927 69.955 16.7051C68.5639 16.3016 67.1326 16.1402 65.7012 16.3419C65.0561 16.4428 64.411 16.6042 63.786 16.8463C63.1812 17.0884 62.5966 17.391 62.0523 17.734C61.9918 17.7744 61.9515 17.8147 61.891 17.8551C61.8507 17.8551 61.8305 17.8349 61.7902 17.8349C61.7297 17.8349 61.6894 17.8349 61.6289 17.8147C61.2862 17.734 60.9838 17.613 60.6612 17.4516C60.379 17.2902 60.1371 17.1086 59.8952 16.8867C59.6331 16.6446 59.4113 16.3621 59.2097 16.0796C59.0484 15.7972 58.9073 15.4946 58.8065 15.1718C58.7259 14.8691 58.6654 14.5665 58.6452 14.2639C58.6251 14.042 58.5041 13.8806 58.3428 13.7393C58.1412 13.5981 57.8993 13.5174 57.6574 13.5578C57.4356 13.5981 57.234 13.7192 57.1131 13.9007C56.9921 14.0823 56.9115 14.3244 56.972 14.5463C57.2744 15.6963 57.8187 16.7454 58.7057 17.5524C59.2904 18.0972 60.0161 18.4603 60.7822 18.7024C60.1976 19.2068 59.6532 19.7515 59.1694 20.3164C58.8872 20.6392 58.6251 20.9822 58.3832 21.3252C57.8388 21.1436 57.3349 20.9419 56.8309 20.6998C56.4277 20.4778 56.0446 20.1954 55.7019 19.8928C55.4398 19.6305 55.2181 19.348 55.0165 19.0454C54.9157 18.8638 54.8149 18.7024 54.7141 18.5208C54.5931 18.2989 54.4318 18.1173 54.1899 18.0366C53.948 17.9559 53.6859 17.9559 53.4641 18.0568C53.0005 18.2787 52.7787 18.8436 53.0005 19.3077C53.2625 19.8524 53.6254 20.3366 54.0689 20.7401C54.4721 21.1033 54.9157 21.3857 55.3995 21.6278C56.1253 21.991 56.8913 22.2129 57.6574 22.4348C57.4155 22.8182 57.1736 23.2217 56.9518 23.6252C56.5688 24.3515 56.2059 25.0778 55.8833 25.8444C55.7624 25.7839 55.6213 25.7637 55.5003 25.8041C55.2584 25.8646 55.0366 25.9251 54.7947 25.9453C54.5528 25.9453 54.2907 25.9251 54.0488 25.8646C53.7464 25.7839 53.4641 25.683 53.2021 25.5418C52.9601 25.4006 52.7585 25.2392 52.5569 25.0576C52.315 24.8155 52.1134 24.5532 51.9118 24.2708C51.7304 23.948 51.5893 23.6252 51.428 23.3024C51.1861 22.798 50.6014 22.5559 50.0773 22.798C49.6539 22.9796 49.4322 23.4436 49.4926 23.8874C49.5531 24.2506 49.6741 24.6138 49.8555 24.9366C50.037 25.2594 50.2386 25.562 50.4805 25.8243L50.4603 25.8444ZM55.6213 31.2514C55.9035 30.0611 56.2664 28.9111 56.7099 27.7813C57.0929 26.7927 57.5364 25.8243 58.0203 24.876C58.7864 23.4638 59.6734 22.1322 60.7419 20.962C61.4072 20.2761 62.1329 19.6507 62.9191 19.1463C63.5239 18.7831 64.1691 18.4805 64.8545 18.2586C65.4593 18.077 66.0843 17.9761 66.7092 17.9358C67.4551 17.9358 68.1809 17.9963 68.9067 18.1375C69.834 18.3594 70.721 18.7024 71.5678 19.1261C72.354 19.57 73.0999 20.0945 73.7652 20.6998C74.37 21.2848 74.8941 21.9305 75.3377 22.6568C75.8618 23.5041 76.265 24.4322 76.5674 25.3804C76.9505 26.6716 77.1722 28.0234 77.2327 29.3751C77.2932 31.2917 77.0916 33.2084 76.6884 35.0645C76.2852 36.8197 75.6804 38.5548 74.8538 40.1486C74.1079 41.5206 73.1806 42.7714 72.1121 43.9214C71.1444 44.9503 70.0558 45.8784 68.8663 46.6249C67.4753 47.5126 65.9431 47.6942 64.3505 47.3512C63.403 47.1091 62.4958 46.7459 61.6289 46.3021C60.6008 45.7372 59.6734 45.0512 58.8267 44.2644C58.0808 43.5583 57.4356 42.7714 56.8712 41.8837C56.3873 41.0767 56.0043 40.2293 55.7019 39.3215C55.3793 38.232 55.1777 37.1022 55.1173 35.9522C55.0568 34.3584 55.2382 32.7645 55.5809 31.211L55.6213 31.2514ZM74.5111 87.5603C74.5111 87.5603 74.4708 87.5603 74.4506 87.5603C74.4506 87.5603 74.4708 87.5603 74.491 87.5603H74.5111ZM119.69 43.6793C119.367 43.8407 119.044 44.0021 118.702 44.1433C118.379 44.2442 118.057 44.3249 117.714 44.3653C117.452 44.3653 117.17 44.3653 116.907 44.3653C116.605 44.3047 116.323 44.224 116.041 44.0828C115.819 43.9618 115.597 43.8407 115.395 43.6995C115.214 43.5381 115.053 43.3565 114.912 43.1547C114.831 43.0539 114.71 42.9732 114.589 42.953C114.791 42.146 114.952 41.3592 115.093 40.532C115.174 40.0881 115.214 39.6241 115.254 39.1601C116 39.4627 116.746 39.7653 117.532 39.9065C118.057 40.0074 118.581 40.0478 119.125 40.0074C119.73 39.9469 120.294 39.8057 120.839 39.5232C121.302 39.2811 121.464 38.696 121.242 38.2522C121.121 38.0303 120.919 37.8689 120.677 37.7882C120.435 37.7074 120.194 37.7478 119.952 37.8487C119.77 37.9294 119.589 38.0101 119.387 38.0908C119.044 38.2118 118.682 38.2925 118.319 38.3329C117.855 38.3732 117.391 38.3329 116.928 38.2925C116.383 38.1917 115.839 38.0303 115.315 37.8487C115.315 37.425 115.315 36.9811 115.315 36.5575C115.274 35.7908 115.174 35.0241 115.012 34.2777C115.758 34.5601 116.565 34.7013 117.351 34.6408C118.54 34.5399 119.609 34.0356 120.556 33.3093C120.738 33.168 120.818 32.9259 120.839 32.704C120.839 32.4821 120.758 32.2601 120.617 32.0987C120.456 31.9172 120.214 31.8163 119.972 31.8163C119.77 31.8163 119.569 31.8768 119.407 32.0382C119.186 32.2601 118.964 32.4619 118.722 32.6637C118.44 32.8452 118.157 33.0066 117.855 33.1277C117.512 33.2487 117.17 33.3093 116.827 33.3496C116.504 33.3698 116.202 33.3496 115.879 33.3294C115.537 33.2689 115.214 33.168 114.891 33.0268C114.851 33.0066 114.791 32.9865 114.75 32.9461C114.73 32.9461 114.69 32.9259 114.67 32.9058C114.65 32.8452 114.629 32.7847 114.609 32.704C114.387 32.0987 114.105 31.4935 113.762 30.9488C113.42 30.3839 113.017 29.8593 112.553 29.3953C111.545 28.3462 110.295 27.5997 108.964 27.0751C108.239 26.7927 107.473 26.5909 106.707 26.4497C106.001 26.3286 105.275 26.2479 104.549 26.2479C104.469 26.2479 104.388 26.2479 104.307 26.2479C102.775 26.2883 101.304 26.6514 99.8925 27.2567C98.5216 27.8418 97.2918 28.6891 96.1629 29.6576C95.0138 30.6663 93.9856 31.8566 93.0986 33.0873C92.1914 34.3584 91.4454 35.7303 90.8003 37.1627C90.1955 38.4943 89.7117 39.8864 89.369 41.3188C88.7843 43.7398 88.7642 46.2617 89.248 48.7029C89.9335 52.0924 91.5462 55.2195 94.9533 56.4704C95.3968 56.6318 95.8605 56.7528 96.3242 56.8739C97.9974 57.2976 99.6102 57.3783 101.304 57.1563C102.896 56.9546 104.428 56.4502 105.84 55.7037C108.682 54.1906 110.839 51.6283 112.351 48.8442C113.097 47.4521 113.702 45.9793 114.186 44.4661C114.488 44.8293 114.831 45.1319 115.214 45.4144C115.456 45.5959 115.738 45.7372 116.02 45.8582C116.303 45.9793 116.585 46.0802 116.887 46.1609C117.19 46.2416 117.512 46.2819 117.815 46.3021C118.178 46.3424 118.54 46.3021 118.883 46.2416C119.246 46.181 119.589 46.06 119.931 45.9188C120.274 45.7775 120.597 45.5556 120.859 45.3135C121.202 45.0109 121.282 44.4863 121.06 44.0828C120.798 43.5784 120.194 43.417 119.69 43.6591V43.6793ZM113.46 40.8951C113.279 41.9442 113.037 42.9732 112.734 44.0021C112.392 45.1723 111.988 46.3021 111.484 47.4117C110.819 48.8643 109.972 50.2362 108.964 51.4669C108.219 52.3345 107.392 53.1213 106.465 53.7871C105.678 54.3116 104.852 54.7555 103.985 55.0985C103.017 55.4414 102.009 55.6835 101.001 55.7844C99.8521 55.8853 98.6829 55.8651 97.5337 55.6835C96.5862 55.502 95.6387 55.2599 94.7315 54.8564C93.28 54.1502 92.1712 53.0809 91.6067 51.5275C91.1229 50.1959 90.8205 48.8038 90.6794 47.3915C90.5382 45.8381 90.5584 44.2644 90.8003 42.7311C91.1229 40.9557 91.7075 39.2206 92.4534 37.5864C93.2598 35.8513 94.2678 34.2171 95.4976 32.7444C96.3846 31.7154 97.3523 30.7672 98.4611 29.9804C99.2877 29.4154 100.155 28.9312 101.082 28.5681C101.868 28.2856 102.695 28.0839 103.521 27.983C104.428 27.9023 105.336 27.9427 106.223 28.0637C107.15 28.2251 108.077 28.5076 108.944 28.8909C109.61 29.2137 110.235 29.597 110.819 30.0611C111.303 30.4847 111.726 30.9488 112.089 31.4531C112.492 32.0382 112.815 32.6838 113.077 33.3496C113.4 34.2373 113.601 35.1856 113.702 36.1338C113.843 37.7276 113.742 39.3215 113.48 40.9153L113.46 40.8951ZM104.711 32.9058C100.86 31.5137 96.1427 34.7619 94.167 40.189C92.1914 45.6161 93.7235 51.1441 97.5741 52.5564C101.425 53.9485 106.142 50.7003 108.118 45.2731C110.093 39.846 108.561 34.2978 104.711 32.9058ZM88.4215 84.413C87.3933 84.8367 86.3651 85.22 85.3168 85.563C81.809 86.6726 78.1802 87.3586 74.491 87.5603C74.5313 87.5603 74.5514 87.5603 74.5917 87.5603C74.5514 87.5603 74.5111 87.5603 74.4506 87.5603C74.4305 87.5603 74.3901 87.5603 74.37 87.5603C74.3901 87.5603 74.4103 87.5603 74.4305 87.5603C70.5598 87.7217 66.6891 87.3788 62.899 86.5314C61.0644 86.1077 59.2702 85.5832 57.4961 84.9577C55.6011 84.292 53.7464 83.5051 51.9723 82.5972C51.1659 82.1736 50.3797 81.7297 49.5934 81.2455C48.7266 80.721 47.8798 80.156 46.9928 79.6517C46.8315 79.5508 46.6501 79.4903 46.4686 79.4903C46.4082 79.4903 46.3678 79.4903 46.3074 79.4903C46.0654 79.5306 45.8639 79.6718 45.7227 79.8736C45.4405 80.2973 45.5615 80.842 45.9445 81.1245C46.9726 81.8709 48.0613 82.5165 49.1701 83.142C50.299 83.7674 51.4482 84.3727 52.6174 84.9174C54.8955 86.0069 57.2744 86.8744 59.6936 87.5603C62.0926 88.2463 64.5521 88.7103 67.0519 88.9726C69.5114 89.2349 71.9911 89.2752 74.4708 89.134C76.9303 88.9928 79.3898 88.6296 81.7888 88.0647C84.2685 87.4796 86.6675 86.6726 89.0263 85.7042C89.3891 85.5428 89.5303 85.0788 89.369 84.7358C89.1875 84.3525 88.7642 84.2516 88.4013 84.3928L88.4215 84.413ZM99.0256 82.6981C98.6022 81.2657 97.8966 79.9139 97.0096 78.7236C96.2838 77.735 95.3162 76.9078 94.2477 76.3026C93.1994 75.7175 92.0502 75.3342 90.8608 75.1324C89.6512 74.9105 88.4215 74.8903 87.1917 74.9307C85.8611 74.9912 84.5306 75.1324 83.2202 75.3342C80.8413 75.6772 78.4826 76.1614 76.1037 76.4438C74.249 76.5043 72.4145 76.3833 70.5598 76.2017C68.6042 76 66.6487 75.6772 64.7335 75.2535C64.1287 75.1122 63.5239 74.9508 62.9393 74.7491C62.3144 74.5272 61.6894 74.2851 61.0846 74.0026C59.7339 73.4175 58.4436 72.7316 57.1333 72.0658C54.4721 70.6939 51.7707 69.2816 48.8475 68.4746C48.1419 68.2729 47.4162 68.1115 46.6702 68.0106C46.1864 67.9501 45.6824 67.9097 45.1986 67.9097C44.9768 67.9097 44.7551 67.9097 44.5333 67.9097C43.1826 67.9702 41.852 68.3536 40.6827 69.0395C40.0175 69.4228 39.4127 69.8869 38.8684 70.4316C38.2837 70.9965 37.7797 71.6219 37.3362 72.3079C36.5298 73.5588 36.0258 74.9912 35.8645 76.464C35.7839 77.1903 35.804 77.9368 35.8645 78.6631C35.925 79.349 36.046 80.035 36.2274 80.7008C36.6104 82.1534 37.2152 83.5455 37.9612 84.8569C39.5135 87.5603 41.6101 89.9208 43.9688 91.9585C45.0171 92.8462 46.1259 93.6734 47.2952 94.3795C48.6258 95.1866 50.0571 95.812 51.5086 96.3567C53.2424 97.0023 55.0366 97.4865 56.851 97.8699C58.6856 98.2734 60.5604 98.5356 62.4353 98.7172C66.2254 99.0804 70.0558 99.0602 73.8458 98.7576C76.6481 98.5356 79.4301 98.1321 82.1719 97.5672C84.5911 97.0629 87.0103 96.4172 89.3287 95.5699C91.6471 94.7225 93.9453 93.6129 95.8605 92.0191C96.7273 91.2927 97.5337 90.4252 98.1385 89.4568C98.7635 88.4682 99.1465 87.3788 99.3078 86.2288C99.3885 85.6235 99.3683 85.0183 99.328 84.4332C99.2675 83.8279 99.1465 83.2227 98.9651 82.6578L99.0256 82.6981ZM56.8712 96.3769C54.2907 96.0339 51.811 95.005 49.4725 93.8146C47.8194 92.9471 46.3074 91.8173 44.9365 90.5866C43.3035 89.0937 41.8319 87.3989 40.6021 85.563C39.6949 84.1911 38.9288 82.7183 38.4047 81.1648C38.1023 80.1964 37.9007 79.2078 37.8402 78.1991C37.82 77.4526 37.8805 76.7263 38.0216 76C38.1829 75.3543 38.4047 74.7087 38.7071 74.1035C39.07 73.4377 39.5135 72.8123 39.9973 72.2474C40.4408 71.7632 40.9247 71.3395 41.469 70.9562C41.9528 70.6535 42.4568 70.4114 43.0011 70.2097C43.6261 70.0281 44.2712 69.9071 44.9365 69.8667C45.9042 69.8465 46.8517 69.9474 47.7992 70.1492C50.6821 70.8149 53.3835 72.1667 56.0245 73.4579C57.355 74.1035 58.6856 74.7693 60.0363 75.3745C61.2257 75.8991 62.4555 76.3833 63.7255 76.6859C65.1367 77.0289 66.5681 77.2508 67.9995 77.4324C69.5316 77.6341 71.0839 77.735 72.6362 77.7552C74.1885 77.7552 75.761 77.6745 77.2932 77.4727C78.0189 77.392 78.7447 77.2508 79.4704 77.0692C79.672 77.0289 79.8736 76.9684 80.0551 76.9078C82.3533 76.5245 84.6516 76.121 86.9901 76C88.361 75.9394 89.7319 76 91.0826 76.2824C91.8285 76.464 92.5542 76.7061 93.2397 77.0491C93.8042 77.3517 94.3082 77.7149 94.792 78.1184C95.296 78.5824 95.7193 79.1069 96.1024 79.6718C96.6265 80.499 97.0096 81.4069 97.3321 82.335C97.5539 83.0815 97.7152 83.8279 97.7757 84.6148C97.7757 85.1797 97.7555 85.7647 97.6345 86.3095C97.5136 86.834 97.312 87.3384 97.0902 87.8226C96.7677 88.4077 96.3645 88.9524 95.921 89.4568C95.1952 90.2436 94.3686 90.8892 93.4816 91.4945C91.385 92.8462 89.0666 93.7945 86.728 94.5611C84.6112 95.2471 82.434 95.7716 80.2567 96.2155C80.2567 96.2155 71.4871 98.2734 56.8712 96.3567V96.3769Z" fill="#161616"/>
</g>
<defs>
<clipPath id="clip0_81_343">
<rect width="179" height="281" fill="white"/>
</clipPath>
</defs>
</svg>
