<svg width="121" height="171" viewBox="0 0 121 171" fill="none" xmlns="http://www.w3.org/2000/svg">
<g clip-path="url(#clip0_81_188)">
<path d="M117.878 57.9671C117.878 26.0732 92.037 0.217529 60.1614 0.217529C28.2858 0.217529 2.46033 26.0732 2.46033 57.9671H117.878Z" fill="#8E81D3"/>
<path d="M98.5513 57.9671C98.5513 26.0732 81.3601 0.217529 60.1613 0.217529C38.9625 0.217529 21.7868 26.0732 21.7868 57.9671H98.5513Z" fill="#FF0000" fill-opacity="0.3"/>
<path d="M74.8302 57.9671C74.8302 26.0732 68.2694 0.217529 60.1613 0.217529C52.0531 0.217529 45.4923 26.0732 45.4923 57.9671H74.8302Z" fill="#8E81D3"/>
<path d="M60.1613 66.467C92.0373 66.467 117.878 62.6615 117.878 57.9671C117.878 53.2728 92.0373 49.4673 60.1613 49.4673C28.2854 49.4673 2.44482 53.2728 2.44482 57.9671C2.44482 62.6615 28.2854 66.467 60.1613 66.467Z" fill="#6340BC"/>
<g style="mix-blend-mode:multiply" opacity="0.5">
<path d="M117.893 57.9671C117.893 60.5217 110.265 62.7977 98.18 64.3614C91.5418 65.2129 83.542 65.8477 74.7375 66.2038C70.0954 66.3741 65.2057 66.467 60.1768 66.467C55.1479 66.467 50.2583 66.3586 45.6007 66.1883C36.7962 65.8477 28.8119 65.2129 22.1737 64.3614C10.1043 62.8132 2.46033 60.5217 2.46033 57.9671C2.46033 55.4125 10.7696 52.9353 23.752 51.3561C30.2664 50.5665 37.9413 49.9937 46.3589 49.684C50.7844 49.5292 55.411 49.4518 60.1768 49.4518C64.9427 49.4518 69.5693 49.5447 73.9793 49.684C82.4124 49.9937 90.0873 50.5665 96.6017 51.3561C109.584 52.9199 117.893 55.2887 117.893 57.9671Z" fill="#7B8C9D"/>
</g>
<g style="mix-blend-mode:multiply" opacity="0.5">
<path d="M46.3589 49.6995C45.9875 54.9481 45.7245 60.4753 45.6007 66.1883C36.7962 65.8477 28.8118 65.2129 22.1736 64.3614C22.4986 59.887 23.0247 55.5519 23.752 51.3716C30.2663 50.582 37.9412 50.0091 46.3589 49.6995Z" fill="#7B8C9D"/>
<path d="M98.1799 64.3614C91.5418 65.2129 83.5419 65.8477 74.7375 66.2038C74.6137 60.4908 74.3506 54.948 73.9792 49.6995C82.4124 50.0091 90.0873 50.582 96.6016 51.3716C97.3134 55.5519 97.855 59.887 98.1799 64.3614Z" fill="#7B8C9D"/>
</g>
<path d="M60.1613 108.037C59.8055 108.037 59.4496 107.914 59.171 107.681L1.45453 59.1438C0.804638 58.5864 0.711796 57.611 1.26885 56.9608C1.82589 56.3105 2.80073 56.2176 3.45062 56.775L60.1613 104.461L116.872 56.775C117.522 56.2331 118.497 56.3105 119.054 56.9608C119.611 57.611 119.518 58.5864 118.868 59.1438L61.1516 107.666C60.8577 107.914 60.5018 108.022 60.1613 108.022V108.037Z" fill="#13304E"/>
<path d="M60.1614 108.037C59.4496 108.037 58.8306 107.557 58.6604 106.876L44.1462 50.1175C43.9296 49.2815 44.4402 48.4454 45.2603 48.2287C46.0959 48.0119 46.9314 48.5228 47.1481 49.3434L60.1614 100.219L73.1746 49.0647C73.3913 48.2287 74.2268 47.7332 75.0624 47.95C75.898 48.1667 76.3932 49.0028 76.1765 49.8388L61.6623 106.861C61.4921 107.542 60.8731 108.022 60.1614 108.022V108.037Z" fill="#13304E"/>
<path d="M2.4603 60.4288C3.81909 60.4288 4.9206 59.3267 4.9206 57.9671C4.9206 56.6076 3.81909 55.5054 2.4603 55.5054C1.10151 55.5054 0 56.6076 0 57.9671C0 59.3267 1.10151 60.4288 2.4603 60.4288Z" fill="#13304E"/>
<path d="M117.878 60.4288C119.237 60.4288 120.338 59.3267 120.338 57.9671C120.338 56.6076 119.237 55.5054 117.878 55.5054C116.519 55.5054 115.418 56.6076 115.418 57.9671C115.418 59.3267 116.519 60.4288 117.878 60.4288Z" fill="#13304E"/>
<path d="M45.6471 51.929C47.0059 51.929 48.1074 50.8268 48.1074 49.4673C48.1074 48.1077 47.0059 47.0055 45.6471 47.0055C44.2883 47.0055 43.1868 48.1077 43.1868 49.4673C43.1868 50.8268 44.2883 51.929 45.6471 51.929Z" fill="#13304E"/>
<path d="M74.6756 51.929C76.0344 51.929 77.1359 50.8268 77.1359 49.4673C77.1359 48.1077 76.0344 47.0055 74.6756 47.0055C73.3168 47.0055 72.2153 48.1077 72.2153 49.4673C72.2153 50.8268 73.3168 51.929 74.6756 51.929Z" fill="#13304E"/>
</g>
<defs>
<clipPath id="clip0_81_188">
<rect width="120.338" height="169.889" fill="white" transform="translate(0 0.217529)"/>
</clipPath>
</defs>
</svg>
