<svg width="10" height="19" viewBox="0 0 10 19" fill="none" xmlns="http://www.w3.org/2000/svg">
<g id="OBJECTS" clip-path="url(#clip0_81_77)">
<path id="Vector" d="M2.53624 0.598877C2.43479 0.598877 2.31885 0.642689 2.23189 0.701106C2.20291 0.730314 2.17392 0.744918 2.14494 0.774127C2.13045 0.774127 2.10146 0.774127 2.07247 0.774127C1.85508 0.774127 1.66668 0.934772 1.6232 1.15383C1.49276 1.86944 1.39132 2.54123 1.30436 3.16921C1.2319 3.76798 1.17392 4.41056 1.14494 5.14077C1.08697 6.48435 1.14494 7.78412 1.31885 8.99626C1.69566 11.6542 2.65218 14.1515 4.08697 16.1815C4.57972 16.8825 5.05798 17.4521 5.53624 17.8902C5.60871 17.9486 5.71016 17.9924 5.81161 17.9924C5.89856 17.9924 5.98552 17.9632 6.05798 17.934C6.08697 17.934 6.10146 17.934 6.13045 17.9048C6.57972 17.6711 7.05798 17.4229 7.50726 17.1454C7.71016 17.0139 7.91305 16.8679 8.13045 16.7073C8.37682 16.5174 8.56523 16.3275 8.71016 16.1377C8.76813 16.0647 8.79711 15.977 8.8116 15.8894C8.85508 15.8894 8.88407 15.8602 8.91305 15.831C9.00001 15.758 9.07247 15.6558 9.08697 15.5389C9.10146 15.4367 9.08697 15.2907 9.00001 15.203C8.85508 15.0424 8.72465 14.8817 8.59421 14.7211L8.53624 14.6481C8.36233 14.4436 8.20291 14.2246 8.04349 14.0055C7.76813 13.6112 7.49276 13.2023 7.23189 12.7495C6.66668 11.7272 6.23189 10.6319 5.94204 9.4782C5.63769 8.22224 5.49276 6.95168 5.52175 5.66652C5.56523 4.42516 5.73914 3.24223 6.04349 2.14692L6.07247 2.05929C6.14494 1.84023 6.2174 1.59196 6.30436 1.35829C6.37682 1.18304 6.33334 0.993189 6.20291 0.876356C6.13045 0.803335 6.0145 0.701106 5.88407 0.701106C5.8116 0.701106 5.75363 0.701106 5.68117 0.701106C5.43479 0.701106 5.18842 0.71571 4.94204 0.730314H4.8116C4.52175 0.759523 4.24639 0.774127 4.00001 0.774127H3.91305C3.40581 0.759523 3.00001 0.701106 2.63769 0.613481C2.60871 0.613481 2.57972 0.613481 2.55074 0.613481L2.53624 0.598877Z" fill="#FAD82F"/>
<path id="Vector_2" d="M9.9855 15.495C9.92753 15.0277 9.36231 14.6334 9.01448 14.2537C8.71013 13.9032 8.42028 13.5234 8.15941 13.1291C7.69564 12.3697 7.31883 11.5373 7.04347 10.6902C6.63767 9.34666 6.43477 7.94466 6.3768 6.55726C6.34782 5.69562 6.33332 4.81937 6.40579 3.95772C6.46376 3.1691 6.56521 2.38048 6.72463 1.62106C6.81158 1.25596 6.95651 0.905457 7.02897 0.554958C7.11593 0.146041 6.91303 0.131437 6.52173 0.0876249C5.76811 0.0146041 4.971 0.0292083 4.1884 0C3.82608 0 3.44926 0 3.08695 0C2.65216 0 2.21738 0 1.7826 0.0292083C1.66666 0.0292083 1.53622 0.131437 1.46376 0.233666C1.40579 0.306687 1.39129 0.408916 1.3768 0.496541C0.492743 2.30746 0.101438 4.33743 0.0144818 6.3382C-0.0869675 8.70407 0.275351 11.0553 1.02897 13.2898C1.42028 14.4435 1.94202 15.5534 2.60868 16.5611C2.91303 17.0138 3.26086 17.4374 3.65216 17.8171C4.02897 18.1822 4.43477 18.5035 4.88405 18.7663C5.07245 18.8832 5.24637 19.0292 5.46376 18.9708C5.66666 18.9124 5.94202 18.6495 6.11593 18.5181C7.13042 17.8609 8.14492 17.2183 9.14492 16.5611C9.36231 16.4151 9.5797 16.2836 9.75361 16.0792C9.94202 15.8601 9.99999 15.6556 9.9855 15.4658V15.495ZM7.30434 16.6341C6.81158 16.9992 6.30434 17.3789 5.81158 17.744C5.75361 17.7002 5.71013 17.6418 5.65216 17.598C5.26086 17.2329 4.89854 16.8678 4.55071 16.4589C4.1739 16.0208 3.82608 15.5388 3.50724 15.0569C2.82608 13.9762 2.31883 12.8078 1.94202 11.5811C1.44926 9.93082 1.18839 8.22214 1.11593 6.49885C1.07245 5.16987 1.1739 3.84089 1.46376 2.55573C1.59419 2.02998 1.75361 1.50423 1.971 1.00769C1.971 1.00769 2.02897 1.00769 2.04347 1.00769C2.75361 0.978478 3.47825 1.00769 4.20289 1.02229C4.79709 1.03689 5.40579 1.0515 5.99999 1.0515C5.85506 1.53344 5.72463 2.02998 5.60868 2.52652C5.3768 3.505 5.24637 4.51268 5.15941 5.52037C5.07245 6.61568 5.10144 7.7256 5.20289 8.82091C5.30434 9.90161 5.53622 10.9531 5.85506 11.99C6.14492 12.9101 6.5797 13.8009 7.1884 14.5603C7.47825 14.94 7.84057 15.2759 8.21738 15.5534C8.31883 15.6264 8.42028 15.6995 8.53622 15.7579C8.44926 15.8163 8.3768 15.8747 8.28984 15.9331C7.95651 16.1668 7.63767 16.4151 7.31883 16.6487L7.30434 16.6341Z" fill="#161616"/>
</g>
<defs>
<clipPath id="clip0_81_77">
<rect width="10" height="19" fill="white"/>
</clipPath>
</defs>
</svg>
