<svg width="14" height="15" viewBox="0 0 14 15" fill="none" xmlns="http://www.w3.org/2000/svg">
<g id="OBJECTS" clip-path="url(#clip0_81_80)">
<path id="Vector" d="M8.09479 0.842371C8.09479 0.842371 8.04502 0.842371 8.02844 0.842371C7.86256 0.858569 7.71327 0.939563 7.61374 1.06915C7.49763 1.19874 7.44787 1.36073 7.46446 1.53891C7.46446 1.65231 7.51422 1.7495 7.58057 1.83049C7.46446 2.17066 7.34834 2.52704 7.23223 2.86721C7.08294 3.28837 6.90047 3.70954 6.71801 4.11451C6.35308 4.90825 5.90521 5.73438 5.391 6.54431L5.42417 6.51192C4.4455 8.0184 3.33412 9.36289 2.10664 10.5292C1.99052 10.5292 1.891 10.5616 1.80806 10.6264C1.69194 10.7074 1.609 10.8532 1.59242 10.999C1.57583 11.1285 1.609 11.2581 1.69194 11.3715C2.00711 11.7441 2.27251 12.0519 2.5545 12.2949C2.81991 12.5378 3.1019 12.7808 3.43365 13.0076C3.74882 13.2344 4.09716 13.445 4.46209 13.6393C4.81043 13.8175 5.14218 13.9471 5.45735 14.0281C5.55687 14.0929 5.67299 14.1253 5.80569 14.1253C5.93839 14.1253 6.0545 14.0929 6.15403 14.0119C7.71327 12.797 9.10664 11.1123 10.4005 8.86073C11.3791 7.17606 12.1422 5.32941 12.673 3.36937C12.6896 3.33697 12.7062 3.32077 12.7227 3.28837C12.7559 3.20738 12.7725 3.11019 12.7559 3.013L12.7891 2.89961L12.8223 2.78622C12.8389 2.68902 12.8223 2.57563 12.7559 2.47844C12.6896 2.36505 12.5569 2.30025 12.4408 2.26786C12.4076 2.26786 12.391 2.26786 12.3578 2.26786C12.2085 2.26786 12.0758 2.33265 11.9929 2.46224C11.4787 2.26786 10.981 2.08967 10.4668 1.87909C9.86967 1.63611 9.1564 1.34453 8.49289 0.955761L8.55924 1.00436L8.39336 0.890967C8.31043 0.858569 8.2109 0.826172 8.12796 0.826172L8.09479 0.842371Z" fill="#017DC5"/>
<path id="Vector_2" d="M13.9668 1.70086C13.9171 1.57127 13.8175 1.45788 13.6185 1.37689C13.2204 1.2149 12.8057 1.11771 12.391 1.02052C11.9265 0.907127 11.4787 0.793736 11.0142 0.680346C10.1019 0.453564 9.17299 0.242981 8.26066 0.0161987C8.19431 0.0161987 8.14455 0 8.0782 0C7.89574 0 7.71327 0.0809935 7.58057 0.194384C7.46446 0.226782 7.33175 0.323974 7.28199 0.437365C6.1872 2.91577 5.04265 5.41037 3.3673 7.5648C2.52133 8.61771 1.54265 9.54104 0.464455 10.3672C0.364929 10.3996 0.281991 10.4482 0.199053 10.5292C0.0663511 10.6587 -0.0165873 10.8369 -0.0165873 11.0313C-0.0165873 11.2257 0.0663511 11.3877 0.199053 11.5335C0.895735 12.311 1.59242 13.1209 2.4218 13.7527C2.85308 14.0929 3.31754 14.3844 3.83175 14.6112C4.24645 14.7894 4.87678 15.0648 5.35782 15C5.68957 14.9514 5.83886 14.676 6.07109 14.4492C6.81754 13.7041 7.6801 13.0562 8.39337 12.2948C9.27251 11.3715 10.0853 10.3996 10.8152 9.36285C11.5616 8.32613 12.2417 7.24082 12.7725 6.09071C13.0379 5.50756 13.2867 4.89201 13.4692 4.27646C13.6351 3.7581 13.7678 3.22354 13.8673 2.67279C13.9337 2.33261 14.0498 1.97624 13.9502 1.70086H13.9668ZM11.4455 5.28078C10.9976 6.3013 10.5166 7.28942 9.93602 8.24514C9.35545 9.23326 8.69194 10.1728 7.99526 11.0637C7.2654 11.9708 6.45261 12.8294 5.59005 13.6231C5.40758 13.5583 5.20853 13.4935 5.02607 13.4287C4.37915 13.1371 3.7654 12.7808 3.20142 12.3596C2.72038 11.987 2.27251 11.5659 1.84123 11.1285C2.52133 10.6102 3.15166 10.027 3.73223 9.37905C4.39574 8.63391 4.95972 7.82397 5.47393 6.98164C6.48578 5.29698 7.19905 3.45032 7.97867 1.65227C7.97867 1.65227 7.97867 1.66847 7.97867 1.68467C8.02844 1.58747 8.06161 1.47408 8.11137 1.37689C8.95735 1.60367 9.80332 1.84665 10.6493 2.08963C11.0972 2.21922 11.5616 2.33261 12.0261 2.446C12.1754 2.4784 12.3246 2.5108 12.4905 2.5432C12.3578 2.94816 12.2251 3.35313 12.0758 3.7581C11.8934 4.26026 11.6943 4.76242 11.4787 5.26458L11.4455 5.28078Z" fill="#161616"/>
</g>
<defs>
<clipPath id="clip0_81_80">
<rect width="14" height="15" fill="white"/>
</clipPath>
</defs>
</svg>
