<svg width="50" height="50" viewBox="0 0 50 50" fill="none" xmlns="http://www.w3.org/2000/svg">
<rect width="50" height="50" rx="25" fill="#F6C000"/>
<path d="M21.161 35.3571C18.157 35.3571 15.3569 34.4834 13 32.9759C15.0011 33.1054 18.5325 32.7953 20.729 30.7002C17.4247 30.5485 15.9345 28.0143 15.7402 26.9313C16.0209 27.0396 17.3599 27.1695 18.1158 26.8663C14.3148 25.9132 13.7316 22.5775 13.8612 21.5595C14.5739 22.0577 15.7834 22.2309 16.2585 22.1876C12.7166 19.6534 13.9908 15.8411 14.6171 15.018C17.1589 18.5395 20.9683 20.5172 25.6809 20.6273C25.5921 20.2375 25.5451 19.8318 25.5451 19.4151C25.5451 16.4244 27.9625 14 30.9444 14C32.5024 14 33.9062 14.6618 34.8917 15.7205C35.9328 15.4765 37.4997 14.9054 38.2657 14.4115C37.8796 15.7978 36.6776 16.9542 35.9505 17.3829C35.9446 17.3682 35.9565 17.3974 35.9505 17.3829C36.5892 17.2862 38.3173 16.9541 39 16.4909C38.6624 17.2697 37.388 18.5646 36.3422 19.2895C36.5367 27.8711 29.971 35.3571 21.161 35.3571Z" fill="#110F0F"/>
</svg>
