<svg width="178" height="204" viewBox="0 0 178 204" fill="none" xmlns="http://www.w3.org/2000/svg">
<path fill-rule="evenodd" clip-rule="evenodd" d="M66.2891 76.018C65.9062 77.4887 65.2384 78.8696 64.3227 80.0827C62.6182 82.2949 60.3624 84.02 57.7813 85.0859C55.4601 86.0862 53.0013 86.7332 50.4881 87.0042C49.9714 87.0698 49.4361 87.11 48.9168 87.1495L48.8323 87.1559C47.2404 87.2165 45.7101 87.7851 44.4647 88.7784C43.2193 89.7723 42.3247 91.1384 41.9117 92.6768C41.7228 93.4424 41.582 94.2189 41.491 95.0024C41.3463 96.1837 41.2721 97.3931 41.1914 98.7012C41.1338 99.6396 41.0723 100.63 40.9801 101.696C40.4397 106.042 39.1827 110.267 37.2611 114.201C36.8686 115.028 36.4684 115.83 36.0746 116.617C33.968 120.837 32.0644 124.65 32.6105 129.756C33.0383 133.69 35.0533 136.326 37.7305 139.045C39.0022 140.345 40.6881 141.456 42.4381 142.61C47.3365 145.839 52.7369 149.399 50.9575 158.367C49.5014 165.634 37.4545 173.26 20.5221 175.923C22.1645 175.674 18.5467 169.501 18.1452 168.815L18.1209 168.774C17.6541 168.043 17.1758 167.322 16.6987 166.603C15.3208 164.526 13.948 162.46 12.8773 160.169C10.0484 154.186 8.73708 147.264 9.89605 140.707C10.9462 134.774 14.8687 130.034 18.6447 125.47C19.2606 124.726 19.8721 123.987 20.467 123.249C25.5178 116.975 30.817 108.756 31.9894 100.613C32.0887 99.9055 32.177 99.1341 32.2699 98.3225C32.4364 96.8697 32.6169 95.288 32.9006 93.7121C33.3213 90.9905 34.1742 88.3532 35.426 85.9C36.2802 84.2916 37.4052 82.8419 38.7518 81.6147C39.4536 80.9631 39.9165 80.0949 40.067 79.1488C40.2168 78.2034 40.0452 77.2343 39.5797 76.3973L12.5873 27.842L51.3577 75.6935C51.7995 76.2481 52.3572 76.6988 52.9924 77.0131C53.6276 77.3274 54.3242 77.4983 55.0324 77.5136C55.7412 77.5289 56.4443 77.388 57.0923 77.1005C57.7403 76.8136 58.3172 76.3871 58.7821 75.8522C59.2732 75.2797 59.5517 74.5549 59.5703 73.8001C59.5895 73.0459 59.3475 72.3083 58.8852 71.7116C57.0827 69.4076 55.2066 67.0724 53.3394 64.7474C52.5838 63.8071 51.8289 62.8668 51.0817 61.9328L41.3252 49.8565L21.7431 25.7439L0 0L24.2551 23.584L45.0992 46.6332L55.4979 58.1855C56.4533 59.2617 57.4086 60.3282 58.3633 61.3941C60.858 64.1788 63.3526 66.9634 65.8473 69.9176L66.4133 70.6074L66.5376 71.6772C66.7053 73.1275 66.6214 74.5963 66.2891 76.018ZM165.999 92.2458L166.04 92.3083C166.033 87.1597 162.846 78.6649 156.395 70.4939L156.243 70.2938C154.255 67.8374 152.09 65.5309 149.764 63.3927C149.329 62.972 148.86 62.5576 148.384 62.1438C145.403 59.5441 142.145 57.2803 138.669 55.3945L138.42 55.2702C127.498 49.3216 113.284 46.2577 95.7583 49.7079C93.4045 46.85 90.8695 44.1463 88.1686 41.6135C84.0322 37.6711 79.1633 34.5792 73.8378 32.5111C68.5597 30.5788 62.907 29.889 57.319 30.4959C62.7053 30.9811 67.952 32.4792 72.7819 34.9126C77.4466 37.4123 81.6477 40.6942 85.2014 44.6155C88.8038 48.6184 92.1898 52.8107 95.3446 57.1751L96.1361 58.2059C99.223 62.2267 102.366 66.3202 106.281 69.9629C108.436 71.9908 110.84 73.737 113.436 75.1592C114.126 75.5111 114.823 75.842 115.506 76.1321C116.189 76.4222 116.83 76.6912 117.521 76.9398C118.852 77.4568 120.232 77.8852 121.612 78.2786C127.132 79.852 132.783 80.4174 138.303 80.7215C139.071 80.7617 139.837 80.7993 140.601 80.8369C142.572 80.9344 144.527 81.0307 146.452 81.1697C149.089 81.3265 151.704 81.7377 154.262 82.3982C158.105 83.4003 161.488 85.6896 163.847 88.8848C164.648 89.9495 165.368 91.0728 165.999 92.2458ZM149.842 63.401C149.564 63.1447 149.282 62.891 149.001 62.6379C148.82 62.4753 148.64 62.3134 148.462 62.1515C148.6 62.2771 148.737 62.4039 148.875 62.5315C149.199 62.8304 149.522 63.1294 149.842 63.401ZM142.942 114.224C125.192 107.02 106.624 99.4841 109.388 78.3341C115.315 84.6626 124.618 85.9899 134.736 87.4339C143.915 88.7433 153.764 90.1484 162.373 95.469C182.685 108.015 179.719 132.389 172.819 141.361C173.441 126.601 158.506 120.54 142.942 114.224ZM71.4276 103.638C76.1128 103.189 86.0972 100.753 81.633 92.8929C80.6725 91.294 79.2804 89.9986 77.6169 89.1545C75.9534 88.3111 74.0856 87.9541 72.228 88.1243C70.3436 88.327 68.5661 89.1041 67.1382 90.3511C65.7103 91.5981 64.6999 93.2537 64.2452 95.0942C62.8583 100.236 64.3278 104.328 71.4276 103.638ZM70.0811 41.4471C67.142 38.0517 62.5811 36.2711 58.1097 35.6228C57.9426 36.7365 57.837 37.8585 57.7928 38.9837C57.5924 48.2512 60.8836 58.4303 67.2522 65.5042C69.2896 67.7909 71.7465 69.6646 74.4903 71.025C76.077 71.7977 80.2864 73.7159 81.8456 71.9908C81.964 71.8327 82.0389 71.6459 82.062 71.4496C82.085 71.2532 82.0556 71.0543 81.9768 70.8733C81.7181 70.1344 81.2193 69.4637 80.7237 68.7982C80.3722 68.3264 80.0226 67.8572 79.762 67.367C79.4982 66.8735 79.2158 66.3916 78.934 65.9109C78.4045 65.0069 77.8762 64.1048 77.4709 63.1231C76.4016 60.5533 75.8452 57.8209 75.29 55.0968C75.1792 54.5524 75.0678 54.0047 74.9526 53.4616C74.1042 49.2591 73.0207 44.8425 70.0811 41.4471ZM132.88 115.377C128.321 128.103 135.675 138.852 142.986 149.538C151.163 161.491 159.287 173.364 150.62 187.837C167.463 180.881 175.459 159.868 168.47 143.195C164.066 132.649 153.451 126.932 143.597 121.626C139.775 119.568 136.066 117.57 132.88 115.377ZM83.5942 145.756C80.5419 147.002 77.6637 148.637 75.0313 150.621C81.017 148.45 87.2997 147.21 93.6613 146.943C94.8138 146.875 95.9747 146.821 97.1452 146.767C99.1673 146.674 101.224 146.579 103.321 146.405C106.759 146.171 110.15 145.475 113.401 144.334C116.809 143.142 119.91 141.209 122.482 138.676C125.08 136.06 126.903 132.775 127.746 129.186C128.489 125.796 128.385 122.275 127.443 118.935C126.5 115.595 124.749 112.538 122.344 110.036C123.504 112.98 124.218 116.08 124.462 119.235C124.672 122.172 124.273 125.121 123.289 127.896C122.329 130.526 120.759 132.892 118.708 134.797C116.589 136.722 114.136 138.242 111.47 139.283C107.764 140.776 103.574 141.386 99.2096 142.023C97.2188 142.313 95.1916 142.608 93.1573 142.995C89.886 143.595 86.6818 144.52 83.5942 145.756ZM136.507 198.295L136.214 198.53C135.442 199.15 134.659 199.782 133.814 200.349C132.738 201.058 131.61 201.686 130.44 202.226C128.004 203.415 125.326 204.022 122.616 203.999C115.274 203.862 110.085 198.396 107.05 192.219C106.254 190.601 105.553 188.932 104.851 187.263C103.729 184.592 102.606 181.921 101.095 179.453C97.5832 173.718 91.5732 169.101 84.5355 169.957C81.665 170.316 78.9737 171.606 77.38 174.098C73.1847 180.605 79.2087 189.722 86.888 188.431C87.5411 188.331 88.1802 188.155 88.7923 187.907C89.4025 187.647 89.9718 187.3 90.4827 186.878C91.5559 185.985 92.364 184.816 92.8218 183.497C93.3264 182.121 93.4384 180.633 93.1464 179.198C92.8314 177.697 91.9452 176.379 90.6761 175.519C92.152 176.21 93.302 177.448 93.8847 178.969C94.4885 180.536 94.6441 182.24 94.3329 183.89C94.0314 185.609 93.2739 187.216 92.1386 188.542C91.5361 189.223 90.8388 189.816 90.0691 190.301C89.3058 190.781 88.4882 191.168 87.6333 191.454C85.9 192.046 84.0553 192.237 82.2374 192.013C79.6851 191.649 77.2782 190.605 75.2689 188.99C74.8975 188.697 74.5415 188.389 74.1964 188.071C72.8293 186.891 71.5884 185.571 70.4941 184.131C70.0029 183.591 69.5041 183.057 68.9829 182.545C66.5228 179.963 63.6203 177.843 60.413 176.286C58.2013 175.314 55.8866 174.596 53.5136 174.146C52.3194 173.897 51.1124 173.718 49.9048 173.567C49.7735 173.553 49.5219 173.509 49.2081 173.455C48.2003 173.28 46.5579 172.995 46.2684 173.262C50.0008 169.826 54.0687 166.775 58.412 164.153C62.8718 161.507 67.66 159.458 72.6538 158.06C77.8308 156.602 83.2466 156.187 88.5855 156.838C91.3337 157.169 94.0256 157.865 96.5894 158.908C99.2755 159.982 101.755 161.514 103.917 163.436C106.056 165.452 107.786 167.863 109.009 170.536C110.113 173.04 110.937 175.658 111.465 178.342C111.748 179.786 111.962 181.373 112.182 183.016C113.188 190.502 114.35 199.14 122.968 200.645C123.515 200.752 124.068 200.83 124.624 200.881L126.342 200.922C127.523 200.837 128.697 200.669 129.854 200.418C132.251 199.854 134.588 199.057 136.829 198.037L136.507 198.295ZM70.9474 184.635C71.1536 184.871 71.3623 185.104 71.5736 185.336C71.4872 185.239 71.4014 185.142 71.3149 185.046C71.1926 184.909 71.0703 184.772 70.9474 184.635Z" fill="black"/>
</svg>
