<svg width="278" height="278" viewBox="0 0 278 278" fill="none" xmlns="http://www.w3.org/2000/svg">
<path d="M178.039 111.146L93.9607 158.791C90.4586 160.773 85.9791 159.524 84.0244 156.022L58.9121 111.689C56.9303 108.186 58.1791 103.707 61.6812 101.752L145.733 54.134C149.235 52.1521 153.714 53.4009 155.669 56.9031L180.809 101.209C182.763 104.711 181.542 109.191 178.039 111.146Z" fill="#AFC184"/>
<path d="M90.4043 161.642C87.2008 161.642 84.0787 159.959 82.3684 156.972L57.2561 112.639C54.7584 108.214 56.3059 102.567 60.7311 100.069L144.783 52.4508C146.927 51.2562 149.398 50.9576 151.787 51.6092C154.176 52.2607 156.131 53.8082 157.352 55.9258L182.465 100.259C184.962 104.684 183.415 110.331 178.99 112.829L94.9381 160.42C93.4992 161.262 91.9246 161.642 90.4043 161.642ZM149.289 55.0842C148.366 55.0842 147.47 55.3285 146.683 55.79L62.6315 103.408C60.0524 104.874 59.1293 108.159 60.5953 110.738L85.7076 155.072C87.1736 157.651 90.4586 158.574 93.0377 157.108L177.089 109.49C179.668 108.024 180.591 104.739 179.125 102.16L154.013 57.8262C153.307 56.5773 152.167 55.6814 150.782 55.3013C150.267 55.1656 149.805 55.0842 149.289 55.0842Z" fill="black"/>
<path d="M90.8658 99.8248L88.9926 96.4856L144.973 64.8033C146.982 63.6631 149.561 64.2604 150.81 66.2422L160.637 83.2643L157.298 85.1647L147.525 68.2241C147.416 68.034 147.117 67.9797 146.873 68.1155L90.8658 99.8248Z" fill="black"/>
<path d="M206.029 133.57L98.0602 170.791C94.2594 172.094 90.0785 170.058 88.7754 166.257L68.7941 108.295C67.491 104.494 69.5271 100.313 73.3279 99.0103L181.297 61.817C185.098 60.5138 189.279 62.55 190.582 66.3508L210.536 124.286C211.839 128.086 209.83 132.267 206.029 133.57Z" fill="#D3DDAB"/>
<path d="M95.6711 173.098C94.2865 173.098 92.902 172.773 91.626 172.148C89.427 171.062 87.7438 169.216 86.9565 166.881L66.9752 108.92C65.3192 104.114 67.8983 98.8475 72.6764 97.1914L180.646 59.998C185.451 58.342 190.718 60.9211 192.374 65.6992L212.355 123.661C213.142 125.996 213.007 128.494 211.921 130.693C210.835 132.892 208.989 134.575 206.654 135.362L98.6846 172.555C97.7073 172.936 96.7028 173.098 95.6711 173.098ZM183.659 63.3373C183.062 63.3373 182.492 63.4187 181.922 63.6359L73.9524 100.829C71.1561 101.807 69.6629 104.874 70.6131 107.671L90.5944 165.633C91.0559 166.99 92.0332 168.076 93.3363 168.7C94.6395 169.325 96.1055 169.433 97.4358 168.972L205.405 131.779C208.201 130.801 209.695 127.733 208.744 124.937L188.763 66.9752C188.302 65.6178 187.324 64.5318 186.021 63.9074C185.234 63.5002 184.447 63.3373 183.659 63.3373Z" fill="black"/>
<path d="M107.969 102.322L106.721 98.7117L177.198 74.4682C179.587 73.6537 182.193 74.8211 183.143 77.183L190.745 98.6303L187.134 99.9334L179.56 78.5676C179.424 78.1875 178.908 77.9432 178.447 78.1332L107.969 102.322Z" fill="black"/>
<path d="M201.469 222.889H67.1652C61.1926 222.889 56.3058 218.002 56.3058 212.029V108.947C56.3058 102.974 61.1926 98.0873 67.1652 98.0873H201.469C207.441 98.0873 212.328 102.974 212.328 108.947V212.029C212.328 218.002 207.441 222.889 201.469 222.889Z" fill="#F39800"/>
<path d="M212.328 112.883V103.653L205.677 97.0013H63.9617L56.2787 104.956V213.957L64.9662 222.699H203.668L212.192 214.174V207.984H76.5314C73.3008 207.984 70.6674 205.378 70.6674 202.12V118.747C70.6674 115.517 73.2736 112.883 76.5314 112.883H212.328Z" fill="#A56913"/>
<path d="M201.469 226.744H67.1653C59.075 226.744 52.4508 220.147 52.4508 212.029V108.947C52.4508 100.856 59.0479 94.2322 67.1653 94.2322H201.469C209.559 94.2322 216.183 100.829 216.183 108.947V212.029C216.183 220.147 209.559 226.744 201.469 226.744ZM67.1653 101.915C63.283 101.915 60.1338 105.064 60.1338 108.947V212.029C60.1338 215.911 63.283 219.061 67.1653 219.061H201.469C205.351 219.061 208.5 215.911 208.5 212.029V108.947C208.5 105.064 205.351 101.915 201.469 101.915H67.1653Z" fill="black"/>
<path d="M216.21 185.912H181.542C171.008 185.912 162.402 177.279 162.402 166.773C162.402 156.239 171.035 147.633 181.542 147.633H213.685C215.097 147.633 216.237 148.773 216.237 150.185V185.885H216.21V185.912Z" fill="#A56913"/>
<path d="M219.142 178.039H182.845C172.311 178.039 163.705 169.406 163.705 158.9C163.705 148.366 172.338 139.76 182.845 139.76H219.142C220.554 139.76 221.694 140.9 221.694 142.312V175.46C221.721 176.872 220.554 178.039 219.142 178.039Z" fill="#A56913"/>
<path d="M209.559 139.76H221.721V178.012H209.559V139.76Z" fill="#BF7B21"/>
<path d="M214.201 181.867H182.845C170.194 181.867 159.85 171.578 159.85 158.9C159.85 146.221 170.139 135.905 182.845 135.905H214.228C220.472 135.905 225.549 141.009 225.549 147.226V170.519C225.522 176.791 220.472 181.867 214.201 181.867ZM182.845 143.588C174.402 143.588 167.533 150.457 167.533 158.9C167.533 167.343 174.402 174.211 182.845 174.211H214.228C216.264 174.211 217.866 172.555 217.866 170.574V147.28C217.866 145.244 216.21 143.642 214.228 143.642H182.845V143.588Z" fill="black"/>
<path d="M176.899 158.9C176.899 160.995 177.732 163.005 179.213 164.486C180.695 165.968 182.704 166.8 184.799 166.8C186.895 166.8 188.904 165.968 190.386 164.486C191.867 163.005 192.7 160.995 192.7 158.9C192.7 156.805 191.867 154.795 190.386 153.314C188.904 151.832 186.895 151 184.799 151C182.704 151 180.695 151.832 179.213 153.314C177.732 154.795 176.899 156.805 176.899 158.9Z" fill="#FFCE88"/>
<path d="M184.799 168.7C179.397 168.7 174.972 164.275 174.972 158.873C174.972 153.47 179.397 149.045 184.799 149.045C190.202 149.045 194.627 153.47 194.627 158.873C194.627 164.302 190.202 168.7 184.799 168.7ZM184.799 152.9C181.514 152.9 178.827 155.588 178.827 158.873C178.827 162.158 181.514 164.845 184.799 164.845C188.084 164.845 190.772 162.158 190.772 158.873C190.772 155.561 188.084 152.9 184.799 152.9Z" fill="black"/>
<path d="M209.559 114.159H207.007C206.301 114.159 205.731 113.589 205.731 112.883C205.731 112.177 206.301 111.607 207.007 111.607H209.559C210.265 111.607 210.835 112.177 210.835 112.883C210.808 113.589 210.265 114.159 209.559 114.159ZM199.351 209.233H194.247C193.541 209.233 192.971 208.663 192.971 207.957C192.971 207.251 193.541 206.681 194.247 206.681H199.351C200.057 206.681 200.627 207.251 200.627 207.957C200.6 208.663 200.057 209.233 199.351 209.233ZM186.591 209.233H181.487C180.781 209.233 180.211 208.663 180.211 207.957C180.211 207.251 180.781 206.681 181.487 206.681H186.591C187.297 206.681 187.867 207.251 187.867 207.957C187.867 208.663 187.297 209.233 186.591 209.233ZM173.886 209.233H168.782C168.076 209.233 167.506 208.663 167.506 207.957C167.506 207.251 168.076 206.681 168.782 206.681H173.886C174.592 206.681 175.162 207.251 175.162 207.957C175.135 208.663 174.592 209.233 173.886 209.233ZM161.126 209.233H156.022C155.316 209.233 154.746 208.663 154.746 207.957C154.746 207.251 155.316 206.681 156.022 206.681H161.126C161.832 206.681 162.402 207.251 162.402 207.957C162.402 208.663 161.832 209.233 161.126 209.233ZM148.421 209.233H143.317C142.611 209.233 142.041 208.663 142.041 207.957C142.041 207.251 142.611 206.681 143.317 206.681H148.421C149.126 206.681 149.697 207.251 149.697 207.957C149.697 208.663 149.126 209.233 148.421 209.233ZM135.661 209.233H130.584C129.878 209.233 129.308 208.663 129.308 207.957C129.308 207.251 129.878 206.681 130.584 206.681H135.688C136.394 206.681 136.964 207.251 136.964 207.957C136.937 208.663 136.394 209.233 135.661 209.233ZM122.955 209.233H117.851C117.146 209.233 116.575 208.663 116.575 207.957C116.575 207.251 117.146 206.681 117.851 206.681H122.955C123.661 206.681 124.231 207.251 124.231 207.957C124.231 208.663 123.661 209.233 122.955 209.233ZM110.223 209.233H105.119C104.413 209.233 103.843 208.663 103.843 207.957C103.843 207.251 104.413 206.681 105.119 206.681H110.223C110.929 206.681 111.499 207.251 111.499 207.957C111.471 208.663 110.929 209.233 110.223 209.233ZM97.4901 209.233H92.3861C91.6803 209.233 91.1102 208.663 91.1102 207.957C91.1102 207.251 91.6803 206.681 92.3861 206.681H97.4901C98.1959 206.681 98.766 207.251 98.766 207.957C98.766 208.663 98.1959 209.233 97.4901 209.233ZM84.7846 209.233H79.6807C78.9748 209.233 78.4047 208.663 78.4047 207.957C78.4047 207.251 78.9748 206.681 79.6807 206.681H84.7846C85.4904 206.681 86.0606 207.251 86.0606 207.957C86.0606 208.663 85.4904 209.233 84.7846 209.233ZM72.242 208.283C71.9434 208.283 71.6719 208.201 71.4547 207.984C70.1516 206.925 69.3914 205.378 69.3914 203.722V202.392C69.3914 201.686 69.9615 201.116 70.6674 201.116C71.3732 201.116 71.9434 201.686 71.9434 202.392V203.722C71.9434 204.618 72.3506 205.459 73.0293 206.029C73.5994 206.464 73.6809 207.278 73.2465 207.821C73.0022 208.147 72.6221 208.283 72.242 208.283ZM70.6945 196.039C69.9887 196.039 69.4186 195.469 69.4186 194.763V189.659C69.4186 188.953 69.9887 188.383 70.6945 188.383C71.4004 188.383 71.9705 188.953 71.9705 189.659V194.763C71.9434 195.496 71.4004 196.039 70.6945 196.039ZM70.6945 183.333C69.9887 183.333 69.4186 182.763 69.4186 182.057V176.953C69.4186 176.248 69.9887 175.677 70.6945 175.677C71.4004 175.677 71.9705 176.248 71.9705 176.953V182.057C71.9434 182.736 71.4004 183.333 70.6945 183.333ZM70.6945 170.574C69.9887 170.574 69.4186 170.003 69.4186 169.298V164.194C69.4186 163.488 69.9887 162.918 70.6945 162.918C71.4004 162.918 71.9705 163.488 71.9705 164.194V169.298C71.9434 170.031 71.4004 170.574 70.6945 170.574ZM70.6945 157.868C69.9887 157.868 69.4186 157.298 69.4186 156.592V151.515C69.4186 150.81 69.9887 150.239 70.6945 150.239C71.4004 150.239 71.9705 150.81 71.9705 151.515V156.619C71.9434 157.271 71.4004 157.868 70.6945 157.868ZM70.6945 145.135C69.9887 145.135 69.4186 144.565 69.4186 143.86V138.756C69.4186 138.05 69.9887 137.48 70.6945 137.48C71.4004 137.48 71.9705 138.05 71.9705 138.756V143.86C71.9434 144.565 71.4004 145.135 70.6945 145.135ZM70.6945 132.403C69.9887 132.403 69.4186 131.833 69.4186 131.127V126.023C69.4186 125.317 69.9887 124.747 70.6945 124.747C71.4004 124.747 71.9705 125.317 71.9705 126.023V131.154C71.9434 131.833 71.4004 132.403 70.6945 132.403ZM70.6945 119.67C69.9887 119.67 69.4186 119.1 69.4186 118.394V117.091C69.4186 115.408 70.1787 113.86 71.4818 112.802C72.052 112.367 72.8393 112.449 73.2736 113.019C73.708 113.589 73.6266 114.376 73.0565 114.811C72.3506 115.381 71.9434 116.195 71.9434 117.118V118.421C71.9434 119.1 71.4004 119.67 70.6945 119.67ZM199.378 114.159H194.274C193.568 114.159 192.998 113.589 192.998 112.883C192.998 112.177 193.568 111.607 194.274 111.607H199.378C200.084 111.607 200.654 112.177 200.654 112.883C200.627 113.589 200.084 114.159 199.378 114.159ZM186.618 114.159H181.514C180.809 114.159 180.238 113.589 180.238 112.883C180.238 112.177 180.809 111.607 181.514 111.607H186.618C187.324 111.607 187.894 112.177 187.894 112.883C187.894 113.589 187.324 114.159 186.618 114.159ZM173.913 114.159H168.809C168.103 114.159 167.533 113.589 167.533 112.883C167.533 112.177 168.103 111.607 168.809 111.607H173.913C174.619 111.607 175.189 112.177 175.189 112.883C175.162 113.589 174.619 114.159 173.913 114.159ZM161.153 114.159H156.049C155.343 114.159 154.773 113.589 154.773 112.883C154.773 112.177 155.343 111.607 156.049 111.607H161.153C161.859 111.607 162.429 112.177 162.429 112.883C162.429 113.589 161.859 114.159 161.153 114.159ZM148.448 114.159H143.344C142.638 114.159 142.068 113.589 142.068 112.883C142.068 112.177 142.638 111.607 143.344 111.607H148.448C149.154 111.607 149.724 112.177 149.724 112.883C149.724 113.589 149.154 114.159 148.448 114.159ZM135.715 114.159H130.611C129.905 114.159 129.335 113.589 129.335 112.883C129.335 112.177 129.905 111.607 130.611 111.607H135.715C136.421 111.607 136.991 112.177 136.991 112.883C136.964 113.589 136.421 114.159 135.715 114.159ZM122.982 114.159H117.879C117.173 114.159 116.603 113.589 116.603 112.883C116.603 112.177 117.173 111.607 117.879 111.607H122.982C123.688 111.607 124.258 112.177 124.258 112.883C124.258 113.589 123.688 114.159 122.982 114.159ZM110.25 114.159H105.146C104.44 114.159 103.87 113.589 103.87 112.883C103.87 112.177 104.44 111.607 105.146 111.607H110.25C110.956 111.607 111.526 112.177 111.526 112.883C111.499 113.589 110.956 114.159 110.25 114.159ZM97.5172 114.159H92.4133C91.7074 114.159 91.1373 113.589 91.1373 112.883C91.1373 112.177 91.7074 111.607 92.4133 111.607H97.5172C98.2231 111.607 98.7932 112.177 98.7932 112.883C98.7932 113.589 98.2231 114.159 97.5172 114.159ZM84.7846 114.159H79.6807C78.9748 114.159 78.4047 113.589 78.4047 112.883C78.4047 112.177 78.9748 111.607 79.6807 111.607H84.7846C85.4904 111.607 86.0606 112.177 86.0606 112.883C86.0606 113.589 85.4904 114.159 84.7846 114.159ZM209.559 209.233H207.007C206.301 209.233 205.731 208.663 205.731 207.957C205.731 207.251 206.301 206.681 207.007 206.681H209.559C210.265 206.681 210.835 207.251 210.835 207.957C210.808 208.663 210.265 209.233 209.559 209.233Z" fill="black"/>
</svg>
