<svg width="174" height="176" viewBox="0 0 174 176" fill="none" xmlns="http://www.w3.org/2000/svg">
<path d="M126.039 60.1457L41.9607 107.791C38.4586 109.773 33.9791 108.524 32.0244 105.022L6.91209 60.6886C4.93025 57.1865 6.17908 52.707 9.68123 50.7523L93.7328 3.13395C97.235 1.15212 101.714 2.40095 103.669 5.9031L128.809 50.2093C130.763 53.7115 129.542 58.191 126.039 60.1457Z" fill="#AFC184"/>
<path d="M38.4043 110.642C35.2008 110.642 32.0787 108.959 30.3684 105.972L5.25607 61.6388C2.75841 57.2136 4.30587 51.5668 8.73107 49.0691L92.7826 1.45076C94.9273 0.25623 97.3979 -0.0424008 99.7869 0.609162C102.176 1.26072 104.131 2.80818 105.352 4.92576L130.465 49.2592C132.962 53.6843 131.415 59.3312 126.99 61.8289L42.9381 109.42C41.4992 110.262 39.9246 110.642 38.4043 110.642ZM97.2893 4.08416C96.3662 4.08416 95.4703 4.3285 94.683 4.79002L10.6315 52.4084C8.05236 53.8744 7.12931 57.1594 8.59533 59.7385L33.7076 104.072C35.1736 106.651 38.4586 107.574 41.0377 106.108L125.089 58.4896C127.668 57.0236 128.591 53.7386 127.125 51.1595L102.013 6.82615C101.307 5.57732 100.167 4.68142 98.7824 4.30135C98.2666 4.1656 97.8051 4.08416 97.2893 4.08416Z" fill="black"/>
<path d="M38.8658 48.8248L36.9926 45.4856L92.9726 13.8033C94.9816 12.6631 97.5607 13.2604 98.8095 15.2422L108.637 32.2643L105.298 34.1647L95.5246 17.2241C95.416 17.034 95.1174 16.9797 94.873 17.1155L38.8658 48.8248Z" fill="black"/>
<path d="M154.029 82.5703L46.0602 119.791C42.2594 121.094 38.0785 119.058 36.7754 115.257L16.7941 57.2951C15.491 53.4943 17.5271 49.3135 21.3279 48.0103L129.297 10.817C133.098 9.51384 137.279 11.55 138.582 15.3508L158.536 73.2855C159.839 77.0863 157.83 81.2672 154.029 82.5703Z" fill="#D3DDAB"/>
<path d="M43.6711 122.098C42.2865 122.098 40.902 121.773 39.626 121.148C37.427 120.062 35.7438 118.216 34.9565 115.881L14.9752 57.9195C13.3192 53.1143 15.8983 47.8475 20.6764 46.1914L128.646 8.99804C133.451 7.34199 138.718 9.92109 140.374 14.6992L160.355 72.6611C161.142 74.9959 161.007 77.4936 159.921 79.6926C158.835 81.8916 156.989 83.5748 154.654 84.3621L46.6846 121.555C45.7073 121.936 44.7028 122.098 43.6711 122.098ZM131.659 12.3373C131.062 12.3373 130.492 12.4187 129.922 12.6359L21.9524 49.8293C19.1561 50.8066 17.6629 53.8744 18.6131 56.6707L38.5944 114.633C39.0559 115.99 40.0332 117.076 41.3363 117.7C42.6395 118.325 44.1055 118.433 45.4358 117.972L153.405 80.7785C156.201 79.8012 157.695 76.7334 156.744 73.9371L136.763 15.9752C136.302 14.6178 135.324 13.5318 134.021 12.9074C133.234 12.5002 132.447 12.3373 131.659 12.3373Z" fill="black"/>
<path d="M55.9693 51.3225L54.7205 47.7117L125.198 23.4682C127.587 22.6537 130.193 23.8211 131.143 26.183L138.745 47.6303L135.134 48.9334L127.56 27.5676C127.424 27.1875 126.908 26.9432 126.447 27.1332L55.9693 51.3225Z" fill="black"/>
<path d="M149.469 171.889H15.1652C9.19257 171.889 4.30585 167.002 4.30585 161.029V57.9467C4.30585 51.974 9.19257 47.0873 15.1652 47.0873H149.469C155.441 47.0873 160.328 51.974 160.328 57.9467V161.029C160.328 167.002 155.441 171.889 149.469 171.889Z" fill="#F39800"/>
<path d="M160.328 61.8832V52.6527L153.677 46.0013H11.9617L4.27869 53.9558V162.957L12.9662 171.699H151.668L160.192 163.174V156.984H24.5314C21.3008 156.984 18.6674 154.378 18.6674 151.12V67.7472C18.6674 64.5166 21.2736 61.8832 24.5314 61.8832H160.328Z" fill="#A56913"/>
<path d="M149.469 175.744H15.1653C7.07502 175.744 0.450806 169.147 0.450806 161.029V57.9466C0.450806 49.8564 7.04787 43.2322 15.1653 43.2322H149.469C157.559 43.2322 164.183 49.8292 164.183 57.9466V161.029C164.183 169.147 157.559 175.744 149.469 175.744ZM15.1653 50.9152C11.283 50.9152 8.13381 54.0644 8.13381 57.9466V161.029C8.13381 164.911 11.283 168.061 15.1653 168.061H149.469C153.351 168.061 156.5 164.911 156.5 161.029V57.9466C156.5 54.0644 153.351 50.9152 149.469 50.9152H15.1653Z" fill="black"/>
<path d="M164.21 134.912H129.542C119.008 134.912 110.402 126.279 110.402 115.773C110.402 105.239 119.035 96.6332 129.542 96.6332H161.685C163.097 96.6332 164.237 97.7734 164.237 99.1851V134.885H164.21V134.912Z" fill="#A56913"/>
<path d="M167.142 127.039H130.845C120.311 127.039 111.705 118.406 111.705 107.9C111.705 97.3662 120.338 88.7601 130.845 88.7601H167.142C168.554 88.7601 169.694 89.9004 169.694 91.3121V124.46C169.721 125.872 168.554 127.039 167.142 127.039Z" fill="#A56913"/>
<path d="M157.559 88.7601H169.721V127.012H157.559V88.7601Z" fill="#BF7B21"/>
<path d="M162.201 130.867H130.845C118.194 130.867 107.85 120.578 107.85 107.9C107.85 95.2214 118.139 84.905 130.845 84.905H162.228C168.472 84.905 173.549 90.0089 173.549 96.2259V119.519C173.522 125.791 168.472 130.867 162.201 130.867ZM130.845 92.588C122.402 92.588 115.533 99.4566 115.533 107.9C115.533 116.343 122.402 123.211 130.845 123.211H162.228C164.264 123.211 165.866 121.555 165.866 119.574V96.2802C165.866 94.2441 164.21 92.6423 162.228 92.6423H130.845V92.588Z" fill="black"/>
<path d="M124.899 107.9C124.899 109.995 125.732 112.005 127.213 113.486C128.695 114.968 130.704 115.8 132.799 115.8C134.895 115.8 136.904 114.968 138.386 113.486C139.867 112.005 140.7 109.995 140.7 107.9C140.7 105.805 139.867 103.795 138.386 102.314C136.904 100.832 134.895 99.9996 132.799 99.9996C130.704 99.9996 128.695 100.832 127.213 102.314C125.732 103.795 124.899 105.805 124.899 107.9Z" fill="#FFCE88"/>
<path d="M132.799 117.7C127.397 117.7 122.972 113.275 122.972 107.873C122.972 102.47 127.397 98.0449 132.799 98.0449C138.202 98.0449 142.627 102.47 142.627 107.873C142.627 113.302 138.202 117.7 132.799 117.7ZM132.799 101.9C129.514 101.9 126.827 104.588 126.827 107.873C126.827 111.158 129.514 113.845 132.799 113.845C136.084 113.845 138.772 111.158 138.772 107.873C138.772 104.561 136.084 101.9 132.799 101.9Z" fill="black"/>
<path d="M157.559 63.1591H155.007C154.301 63.1591 153.731 62.589 153.731 61.8831C153.731 61.1773 154.301 60.6072 155.007 60.6072H157.559C158.265 60.6072 158.835 61.1773 158.835 61.8831C158.808 62.589 158.265 63.1591 157.559 63.1591ZM147.351 158.233H142.247C141.541 158.233 140.971 157.663 140.971 156.957C140.971 156.251 141.541 155.681 142.247 155.681H147.351C148.057 155.681 148.627 156.251 148.627 156.957C148.6 157.663 148.057 158.233 147.351 158.233ZM134.591 158.233H129.487C128.781 158.233 128.211 157.663 128.211 156.957C128.211 156.251 128.781 155.681 129.487 155.681H134.591C135.297 155.681 135.867 156.251 135.867 156.957C135.867 157.663 135.297 158.233 134.591 158.233ZM121.886 158.233H116.782C116.076 158.233 115.506 157.663 115.506 156.957C115.506 156.251 116.076 155.681 116.782 155.681H121.886C122.592 155.681 123.162 156.251 123.162 156.957C123.135 157.663 122.592 158.233 121.886 158.233ZM109.126 158.233H104.022C103.316 158.233 102.746 157.663 102.746 156.957C102.746 156.251 103.316 155.681 104.022 155.681H109.126C109.832 155.681 110.402 156.251 110.402 156.957C110.402 157.663 109.832 158.233 109.126 158.233ZM96.4205 158.233H91.3166C90.6108 158.233 90.0406 157.663 90.0406 156.957C90.0406 156.251 90.6108 155.681 91.3166 155.681H96.4205C97.1264 155.681 97.6965 156.251 97.6965 156.957C97.6965 157.663 97.1264 158.233 96.4205 158.233ZM83.6608 158.233H78.584C77.8781 158.233 77.308 157.663 77.308 156.957C77.308 156.251 77.8781 155.681 78.584 155.681H83.6879C84.3938 155.681 84.9639 156.251 84.9639 156.957C84.9367 157.663 84.3938 158.233 83.6608 158.233ZM70.9553 158.233H65.8514C65.1455 158.233 64.5754 157.663 64.5754 156.957C64.5754 156.251 65.1455 155.681 65.8514 155.681H70.9553C71.6611 155.681 72.2313 156.251 72.2313 156.957C72.2313 157.663 71.6611 158.233 70.9553 158.233ZM58.2227 158.233H53.1188C52.4129 158.233 51.8428 157.663 51.8428 156.957C51.8428 156.251 52.4129 155.681 53.1188 155.681H58.2227C58.9285 155.681 59.4986 156.251 59.4986 156.957C59.4715 157.663 58.9285 158.233 58.2227 158.233ZM45.4901 158.233H40.3861C39.6803 158.233 39.1102 157.663 39.1102 156.957C39.1102 156.251 39.6803 155.681 40.3861 155.681H45.4901C46.1959 155.681 46.766 156.251 46.766 156.957C46.766 157.663 46.1959 158.233 45.4901 158.233ZM32.7846 158.233H27.6807C26.9748 158.233 26.4047 157.663 26.4047 156.957C26.4047 156.251 26.9748 155.681 27.6807 155.681H32.7846C33.4904 155.681 34.0606 156.251 34.0606 156.957C34.0606 157.663 33.4904 158.233 32.7846 158.233ZM20.242 157.283C19.9434 157.283 19.6719 157.201 19.4547 156.984C18.1516 155.925 17.3914 154.378 17.3914 152.722V151.392C17.3914 150.686 17.9615 150.116 18.6674 150.116C19.3732 150.116 19.9434 150.686 19.9434 151.392V152.722C19.9434 153.618 20.3506 154.459 21.0293 155.029C21.5994 155.464 21.6809 156.278 21.2465 156.821C21.0022 157.147 20.6221 157.283 20.242 157.283ZM18.6945 145.039C17.9887 145.039 17.4186 144.469 17.4186 143.763V138.659C17.4186 137.953 17.9887 137.383 18.6945 137.383C19.4004 137.383 19.9705 137.953 19.9705 138.659V143.763C19.9434 144.496 19.4004 145.039 18.6945 145.039ZM18.6945 132.333C17.9887 132.333 17.4186 131.763 17.4186 131.057V125.953C17.4186 125.248 17.9887 124.677 18.6945 124.677C19.4004 124.677 19.9705 125.248 19.9705 125.953V131.057C19.9434 131.736 19.4004 132.333 18.6945 132.333ZM18.6945 119.574C17.9887 119.574 17.4186 119.003 17.4186 118.298V113.194C17.4186 112.488 17.9887 111.918 18.6945 111.918C19.4004 111.918 19.9705 112.488 19.9705 113.194V118.298C19.9434 119.031 19.4004 119.574 18.6945 119.574ZM18.6945 106.868C17.9887 106.868 17.4186 106.298 17.4186 105.592V100.515C17.4186 99.8095 17.9887 99.2394 18.6945 99.2394C19.4004 99.2394 19.9705 99.8095 19.9705 100.515V105.619C19.9434 106.271 19.4004 106.868 18.6945 106.868ZM18.6945 94.1355C17.9887 94.1355 17.4186 93.5654 17.4186 92.8595V87.7556C17.4186 87.0498 17.9887 86.4796 18.6945 86.4796C19.4004 86.4796 19.9705 87.0498 19.9705 87.7556V92.8595C19.9434 93.5654 19.4004 94.1355 18.6945 94.1355ZM18.6945 81.4029C17.9887 81.4029 17.4186 80.8328 17.4186 80.1269V75.023C17.4186 74.3171 17.9887 73.747 18.6945 73.747C19.4004 73.747 19.9705 74.3171 19.9705 75.023V80.1541C19.9434 80.8328 19.4004 81.4029 18.6945 81.4029ZM18.6945 68.6703C17.9887 68.6703 17.4186 68.1001 17.4186 67.3943V66.0912C17.4186 64.408 18.1787 62.8605 19.4818 61.8017C20.052 61.3673 20.8393 61.4488 21.2736 62.0189C21.708 62.589 21.6266 63.3763 21.0565 63.8107C20.3506 64.3808 19.9434 65.1953 19.9434 66.1183V67.4214C19.9434 68.1001 19.4004 68.6703 18.6945 68.6703ZM147.378 63.1591H142.274C141.568 63.1591 140.998 62.589 140.998 61.8831C140.998 61.1773 141.568 60.6072 142.274 60.6072H147.378C148.084 60.6072 148.654 61.1773 148.654 61.8831C148.627 62.589 148.084 63.1591 147.378 63.1591ZM134.618 63.1591H129.514C128.809 63.1591 128.238 62.589 128.238 61.8831C128.238 61.1773 128.809 60.6072 129.514 60.6072H134.618C135.324 60.6072 135.894 61.1773 135.894 61.8831C135.894 62.589 135.324 63.1591 134.618 63.1591ZM121.913 63.1591H116.809C116.103 63.1591 115.533 62.589 115.533 61.8831C115.533 61.1773 116.103 60.6072 116.809 60.6072H121.913C122.619 60.6072 123.189 61.1773 123.189 61.8831C123.162 62.589 122.619 63.1591 121.913 63.1591ZM109.153 63.1591H104.049C103.343 63.1591 102.773 62.589 102.773 61.8831C102.773 61.1773 103.343 60.6072 104.049 60.6072H109.153C109.859 60.6072 110.429 61.1773 110.429 61.8831C110.429 62.589 109.859 63.1591 109.153 63.1591ZM96.4477 63.1591H91.3438C90.6379 63.1591 90.0678 62.589 90.0678 61.8831C90.0678 61.1773 90.6379 60.6072 91.3438 60.6072H96.4477C97.1535 60.6072 97.7236 61.1773 97.7236 61.8831C97.7236 62.589 97.1535 63.1591 96.4477 63.1591ZM83.715 63.1591H78.6111C77.9053 63.1591 77.3352 62.589 77.3352 61.8831C77.3352 61.1773 77.9053 60.6072 78.6111 60.6072H83.715C84.4209 60.6072 84.991 61.1773 84.991 61.8831C84.9639 62.589 84.4209 63.1591 83.715 63.1591ZM70.9824 63.1591H65.8785C65.1727 63.1591 64.6026 62.589 64.6026 61.8831C64.6026 61.1773 65.1727 60.6072 65.8785 60.6072H70.9824C71.6883 60.6072 72.2584 61.1773 72.2584 61.8831C72.2584 62.589 71.6883 63.1591 70.9824 63.1591ZM58.2498 63.1591H53.1459C52.44 63.1591 51.8699 62.589 51.8699 61.8831C51.8699 61.1773 52.44 60.6072 53.1459 60.6072H58.2498C58.9557 60.6072 59.5258 61.1773 59.5258 61.8831C59.4986 62.589 58.9557 63.1591 58.2498 63.1591ZM45.5172 63.1591H40.4133C39.7074 63.1591 39.1373 62.589 39.1373 61.8831C39.1373 61.1773 39.7074 60.6072 40.4133 60.6072H45.5172C46.2231 60.6072 46.7932 61.1773 46.7932 61.8831C46.7932 62.589 46.2231 63.1591 45.5172 63.1591ZM32.7846 63.1591H27.6807C26.9748 63.1591 26.4047 62.589 26.4047 61.8831C26.4047 61.1773 26.9748 60.6072 27.6807 60.6072H32.7846C33.4904 60.6072 34.0606 61.1773 34.0606 61.8831C34.0606 62.589 33.4904 63.1591 32.7846 63.1591ZM157.559 158.233H155.007C154.301 158.233 153.731 157.663 153.731 156.957C153.731 156.251 154.301 155.681 155.007 155.681H157.559C158.265 155.681 158.835 156.251 158.835 156.957C158.808 157.663 158.265 158.233 157.559 158.233Z" fill="black"/>
</svg>
