<svg width="41" height="18" viewBox="0 0 41 18" fill="none" xmlns="http://www.w3.org/2000/svg">
<g id="OBJECTS" clip-path="url(#clip0_81_83)">
<path id="Vector" d="M11.1062 9.56534C10.5369 8.6314 9.98718 7.69337 9.45302 6.73161C9.05042 6.00046 8.65015 5.26063 8.24988 4.5208C7.19334 5.57728 6.31902 6.81282 5.10604 7.69714C4.95715 7.80609 4.81523 7.889 4.62319 7.88405C4.43974 7.88141 4.26004 7.79605 4.13958 7.66144C2.93725 6.30669 2.16604 4.64884 1.17812 3.14688C1.07948 2.99952 1.08375 2.7774 1.12562 2.62117C1.17445 2.4389 1.30688 2.28833 1.47063 2.19267C1.63205 2.10568 1.82015 2.09097 1.99197 2.13701C2.18956 2.18995 2.30144 2.32226 2.41493 2.4829C3.14294 3.58032 3.73762 4.76296 4.47655 5.854C4.56265 5.9794 4.65967 6.09842 4.74577 6.22382C5.90702 5.22331 6.78903 3.92471 7.95886 2.9265C8.30335 2.6374 8.78981 2.71193 9.01536 3.10726C9.55418 4.05166 10.0712 5.00882 10.5967 5.96828C11.0079 6.70173 11.4191 7.43518 11.8607 8.15818C12.6252 7.46997 13.3709 6.74883 14.2027 6.15308C14.704 5.79435 15.2326 5.47087 15.7903 5.21098C16.2411 5.00618 16.7147 4.85399 17.2113 4.95916C17.3769 4.99422 17.5331 5.064 17.6652 5.15521C17.8825 5.30646 18.0194 5.48269 18.1666 5.68956C18.4186 6.05478 18.5833 6.47101 18.7636 6.86351C19.0622 7.50168 19.3935 8.12071 19.7249 8.73975C19.9395 9.14146 20.13 9.5646 20.3751 9.95585C20.3876 9.97782 20.4111 9.9934 20.4236 10.0154C20.5601 9.98684 20.699 9.94963 20.8402 9.90374C21.0532 9.83057 21.2662 9.7574 21.4791 9.68423C21.5813 9.64649 21.671 9.58679 21.7606 9.52709C22.12 9.25127 22.4348 8.9356 22.7519 8.61126C23.1547 8.20755 23.5489 7.80154 23.9877 7.43538C24.3673 7.11847 24.7875 6.82174 25.2626 6.69789C25.4905 6.63801 25.7364 6.64808 25.9597 6.70793C26.2003 6.77239 26.3981 6.92771 26.574 7.09579C26.7374 7.24191 26.8611 7.4332 26.9809 7.60482C27.1069 7.78743 27.2111 7.98279 27.3262 8.17178C27.591 8.66134 27.8058 9.16543 28.0206 9.66951C28.2229 10.1516 28.4229 10.6424 28.6252 11.1246C28.6996 11.2934 28.7655 11.4599 28.8486 11.631C28.9382 11.5713 29.0279 11.5116 29.1176 11.4519C29.7482 10.9883 30.3069 10.4496 30.9016 9.94843C31.4238 9.51159 32.0326 9.06075 32.7248 8.98577C33.0839 8.95173 33.4266 8.97845 33.7609 9.10524C34.1703 9.26144 34.5064 9.51895 34.8333 9.81119C35.1984 10.1323 35.4887 10.5264 35.7245 10.9523C35.9062 11.2708 36.0333 11.6212 36.2259 11.9332C36.2682 11.9818 36.3104 12.0303 36.3526 12.0788C36.3847 12.0967 36.4144 12.1233 36.455 12.1435C36.5152 12.1596 36.5753 12.1757 36.6354 12.1918C36.726 12.1975 36.8252 12.2054 36.918 12.2024C36.9961 12.1861 37.0655 12.1675 37.1349 12.1489C37.4157 12.0288 37.6715 11.8647 37.9295 11.692C38.5384 11.2412 39.101 10.7222 39.7286 10.3043C39.851 10.2254 40.0368 10.2194 40.1742 10.2562C40.3289 10.2977 40.4563 10.4062 40.5292 10.5467C40.602 10.6871 40.614 10.8485 40.5745 10.996C40.5303 11.161 40.4204 11.2618 40.2848 11.3556C40.252 11.3748 40.2279 11.3962 40.1951 11.4153C39.7352 11.7572 39.3004 12.1431 38.8404 12.485C38.3431 12.8633 37.7826 13.2713 37.1544 13.3821C36.8165 13.4404 36.448 13.4067 36.1262 13.3019C35.8388 13.2063 35.5746 13.0239 35.372 12.7835C35.1819 12.5651 35.051 12.2975 34.9264 12.0409C34.7955 11.7732 34.6561 11.5033 34.4948 11.2461C34.3117 11.0017 34.1107 10.7897 33.8878 10.5904C33.7346 10.475 33.5791 10.3682 33.408 10.2851C33.3158 10.2511 33.2236 10.2171 33.1268 10.2005C33.0557 10.1907 32.9824 10.1897 32.9152 10.1996C32.8286 10.2136 32.7397 10.2363 32.6484 10.2676C32.4612 10.3477 32.2865 10.4498 32.1158 10.5715C31.6341 10.9261 31.1985 11.349 30.7527 11.7412C30.1752 12.2469 29.5703 12.7174 28.9005 13.0868C28.7586 13.1697 28.5814 13.178 28.4267 13.1366C28.2463 13.0882 28.1493 12.9692 28.0507 12.8219C27.8722 12.5601 27.746 12.2751 27.6198 11.9901C27.4356 11.5779 27.2646 11.1507 27.0913 10.7322C26.7549 9.92575 26.4341 9.09557 25.9472 8.36975C25.8611 8.24435 25.7618 8.134 25.6515 8.03004C25.6343 8.02543 25.6195 8.01215 25.6046 7.99887C25.5765 8.00064 25.5461 8.0111 25.5243 8.02385C25.4088 8.07664 25.2997 8.14042 25.1882 8.21287C24.4149 8.7964 23.7997 9.58041 23.1046 10.25C22.7922 10.557 22.4391 10.8438 22.0343 11.0144C21.7535 11.1345 21.475 11.246 21.188 11.3551C20.9531 11.441 20.7191 11.4899 20.4638 11.5146C20.0291 11.5562 19.6228 11.3543 19.3287 11.043C19.1786 10.8818 19.0635 10.6928 18.9569 10.5061C18.8105 10.2622 18.6859 10.0056 18.5504 9.75532C18.2026 9.09466 17.8329 8.44676 17.5093 7.76467C17.3165 7.3502 17.1478 6.91431 16.9004 6.53173C16.8793 6.50747 16.8668 6.4855 16.8433 6.46992C16.7653 6.48622 16.6959 6.50482 16.6241 6.53211C16.3847 6.63539 16.1601 6.75196 15.9331 6.87721C15.6103 7.05117 15.2914 7.2448 14.9959 7.45401C14.0215 8.16969 13.1675 9.01997 12.1994 9.74663C12.0481 9.86426 11.8976 9.94486 11.7056 9.93992C11.6517 9.93479 11.5978 9.92966 11.5463 9.91584C11.3573 9.8652 11.2087 9.73237 11.0976 9.56304L11.1062 9.56534Z" fill="#161616"/>
</g>
<defs>
<clipPath id="clip0_81_83">
<rect width="40.299" height="7.06271" fill="white" transform="matrix(0.965926 0.258819 0.258819 -0.965926 0 6.82202)"/>
</clipPath>
</defs>
</svg>
